<svg width="48" height="48" viewBox="0 0 48 48" fill="none" xmlns="http://www.w3.org/2000/svg">
<path fill-rule="evenodd" clip-rule="evenodd" d="M25.5609 23.8204C26.5945 23.3353 27.2801 22.5653 27.2801 21.4051C27.2801 19.5489 25.3605 18.4941 23.1456 18.4941C20.994 18.4941 19.0428 19.5172 19.0428 21.4051C19.0428 22.6181 19.76 23.3775 20.7514 23.8204C19.5701 24.3056 18.7686 25.2127 18.7686 26.4361C18.7686 28.419 20.7514 29.5053 23.1562 29.5053C25.5609 29.5053 27.5754 28.4401 27.5754 26.4361C27.5543 25.2549 26.7844 24.3478 25.5609 23.8204ZM23.1456 20.6774C24.0632 20.6774 24.6749 21.1626 24.6749 21.7743C24.6749 22.4282 23.9367 22.8712 23.1456 22.9239C22.3862 22.8817 21.6479 22.4388 21.6479 21.7743C21.6374 21.152 22.2491 20.6774 23.1456 20.6774ZM23.1456 27.301C22.1225 27.301 21.4264 26.8369 21.4264 26.1408C21.4264 25.4447 22.2913 25.0123 23.1456 24.9595C24.0105 25.0017 24.8753 25.4447 24.8753 26.1408C24.8753 26.8369 24.1687 27.301 23.1456 27.301ZM11.2803 20.9411L12.3139 22.7763L14.1175 21.6688V29.3155H16.7648V18.6735H14.6448L11.2803 20.9411ZM34.0199 20.3505V23.1033H36.7095V25.181H34.0199V27.9549H31.805V25.181H29.105V23.1033H31.805V20.3505H34.0199Z" fill="white"/>
<path d="M24 45C12.402 45 3 35.598 3 24H-3C-3 38.9117 9.08831 51 24 51V45ZM45 24C45 35.598 35.598 45 24 45V51C38.9117 51 51 38.9117 51 24H45ZM24 3C35.598 3 45 12.402 45 24H51C51 9.08831 38.9117 -3 24 -3V3ZM24 -3C9.08831 -3 -3 9.08831 -3 24H3C3 12.402 12.402 3 24 3V-3Z" fill="#4A5465"/>
</svg>
