<svg width="32" height="32" viewBox="0 0 32 32" fill="none" xmlns="http://www.w3.org/2000/svg">
<path fill-rule="evenodd" clip-rule="evenodd" d="M9.94963 10.7071C10.3402 10.3166 10.9733 10.3166 11.3638 10.7071L21.2633 20.6066C21.6539 20.9971 21.6539 21.6303 21.2633 22.0208L20.5562 22.7279L9.24253 11.4142L9.94963 10.7071ZM7.82831 12.8284L19.142 24.1421L17.0207 26.2635C16.6302 26.654 15.997 26.654 15.6065 26.2635L11.4766 22.1336L5.76829 27.8419C5.91754 28.1982 6 28.5895 6 29C6 30.6569 4.65685 32 3 32C1.34315 32 2.03545e-07 30.6569 -4.70805e-07 29C-1.3363e-07 27.3431 1.34315 26 3 26C3.51505 26 3.99979 26.1298 4.42328 26.3585L10.0624 20.7194L5.70699 16.364C5.31647 15.9734 5.31647 15.3403 5.70699 14.9497L7.82831 12.8284Z" fill="#6F82EB"/>
<path fill-rule="evenodd" clip-rule="evenodd" d="M29.6875 0H17.1875C15.9813 0 15 0.981313 15 2.1875V11.5148L22.6776 19.1924C23.7506 20.2655 23.8408 21.9492 22.9482 23.125H29.6875C30.8937 23.125 31.875 22.1437 31.875 20.9375V2.1875C31.875 0.981313 30.8937 0 29.6875 0ZM17.5 3.4375C17.5 2.91975 17.9197 2.5 18.4375 2.5H19.6875C20.2052 2.5 20.625 2.91975 20.625 3.4375C20.625 3.95525 20.2052 4.375 19.6875 4.375H18.4375C17.9197 4.375 17.5 3.95525 17.5 3.4375ZM28.4375 20.625H27.1875C26.6698 20.625 26.25 20.2052 26.25 19.6875C26.25 19.1698 26.6698 18.75 27.1875 18.75H28.4375C28.9552 18.75 29.375 19.1698 29.375 19.6875C29.375 20.2052 28.9552 20.625 28.4375 20.625ZM24.7253 15.4142C23.9442 16.1953 22.6779 16.1953 21.8969 15.4142L18.9838 12.5012C17.672 11.1894 17.6721 9.0596 18.9837 7.74787C20.1614 6.57018 21.9985 6.4497 23.311 7.38659C24.6234 6.4499 26.4605 6.57006 27.6382 7.74779C28.95 9.05953 28.9501 11.1894 27.6383 12.5012L24.7253 15.4142ZM20.398 11.087C19.8673 10.5563 19.8673 9.69275 20.398 9.162C20.9288 8.63125 21.7923 8.63125 22.3231 9.162L22.6481 9.48706C23.0142 9.85313 23.6079 9.85313 23.9739 9.48706L24.299 9.162C24.8297 8.63138 25.6933 8.63131 26.224 9.162C26.7547 9.69275 26.7547 10.5563 26.2241 11.087L23.3111 14L20.398 11.087Z" fill="#6F82EB"/>
</svg>
