<svg width="175" height="22" viewBox="0 0 175 22" fill="none" xmlns="http://www.w3.org/2000/svg">
<path d="M3.72019 14.2866V17.7613H6.51076C7.5744 17.8262 8.50402 17.1173 8.57275 16.0971V16.0322C8.57275 14.9389 7.64314 14.23 6.24785 14.23L3.72191 14.2949L3.72019 14.2866ZM3.72019 9.20259V12.2912H6.31143C7.24277 12.3561 8.10537 11.7121 8.17238 10.8118V10.6837C8.17238 9.85161 7.31322 9.20259 6.11039 9.20259H3.72019ZM0 7.14404H5.05018C7.30806 7.14404 8.10537 7.20894 8.77036 7.46522C9.37658 7.73677 9.88796 8.17352 10.242 8.72206C10.596 9.2706 10.7772 9.90715 10.7636 10.5539C10.7636 11.8419 10.365 12.4843 9.04529 13.1283C9.72609 13.3376 10.3135 13.7642 10.7118 14.3384C11.11 14.9127 11.2954 15.6007 11.2379 16.2902C11.2379 18.4136 9.50924 19.8282 6.98502 19.8282H0V17.7613H0.996632V9.20259H0V7.14404Z" fill="white"/>
<path d="M19.7333 13.8357C19.7319 13.3242 19.5215 12.8339 19.1479 12.4722C18.7744 12.1104 18.2682 11.9066 17.74 11.9053H17.6747C17.1334 11.9162 16.6127 12.108 16.2008 12.4484C15.789 12.7887 15.5114 13.2565 15.4151 13.7725L19.7333 13.8357ZM22.2592 16.6648C21.7935 18.7882 19.9996 20.0746 17.6077 20.0746C14.8171 20.0746 12.7568 17.9512 12.7568 14.9907C12.7568 12.0301 14.8188 9.90835 17.6077 9.90835C18.3711 9.90231 19.1239 10.082 19.797 10.4309C20.4701 10.7798 21.0419 11.2868 21.4602 11.9053C22.1513 12.9858 22.4985 14.2395 22.4585 15.5099H15.2811C15.5474 18.0194 17.209 18.1409 17.6747 18.1409C18.1316 18.1582 18.5815 18.0287 18.9545 17.7725C19.3274 17.5164 19.6025 17.148 19.7367 16.7247L22.2626 16.6615L22.2592 16.6648Z" fill="white"/>
<path d="M30.564 13.5145H35.1485V19.8199H33.6793V17.8229C33.4058 18.2719 33.0705 18.6829 32.6827 19.0444C31.8514 19.7409 30.7919 20.1289 29.6928 20.1394C26.6376 20.1394 24.2457 17.2438 24.2457 13.5111C24.2457 9.77845 26.6445 6.82459 29.6343 6.82459C31.2943 6.75969 32.7566 7.65667 33.5539 9.01128V7.01431H34.9491V11.0698H33.4868C33.3537 10.5125 33.1053 9.98719 32.7566 9.5255C32.4195 9.11357 31.997 8.7747 31.5164 8.53076C31.0357 8.28682 30.5075 8.14325 29.966 8.10931C28.3714 8.10931 25.9795 9.4606 25.9795 13.3863C25.9795 16.475 27.7064 18.7266 29.966 18.7266C30.8288 18.6891 31.653 18.3698 32.3045 17.8208C32.956 17.2717 33.3964 16.5252 33.5539 15.7028C33.6095 15.3622 33.6319 15.0173 33.6209 14.6727H30.4969L30.564 13.5078V13.5145Z" fill="white"/>
<path d="M43.4531 14.8659L42.5234 14.994C39.4665 15.3801 38.4699 15.896 38.4699 17.1175C38.4995 17.6258 38.7303 18.1036 39.1144 18.4514C39.4984 18.7992 40.0062 18.9901 40.5319 18.9846C41.2446 18.962 41.9267 18.6987 42.4601 18.2404C42.9936 17.7822 43.3448 17.1577 43.4531 16.4751V14.8659ZM46.3107 19.8849H43.4531V18.1409C43.1234 18.7311 42.6336 19.2229 42.0364 19.5631C41.4392 19.9033 40.7573 20.079 40.0645 20.0713C38.4046 20.1995 36.9423 18.9064 36.81 17.3038V17.1108C36.81 15.2453 38.4699 14.345 42.4564 13.9589L43.3878 13.894V12.9288C43.3878 11.8355 42.5286 11.1265 41.1282 11.1265C39.7277 11.1265 39.006 11.5842 38.7362 12.8706H37.2086C37.338 12.0994 37.7365 11.3946 38.3376 10.8736C39.0679 10.2945 40.0559 10.0415 40.9959 10.0415C43.0579 10.0415 44.7762 10.9418 44.7762 13.3881V18.7283H46.1715L46.3038 19.8933L46.3107 19.8849Z" fill="white"/>
<path d="M50.4967 11.9703C50.9623 11.3262 51.8249 9.97328 53.6859 9.97328C55.0142 9.97328 55.7479 10.6173 56.0108 11.9703C56.2608 11.5225 56.5743 11.1108 56.9421 10.7471C57.5202 10.225 58.2774 9.92859 59.0677 9.91504C60.5953 9.91504 61.4596 10.8802 61.4596 12.5527V18.6651H62.8549V19.83H60.0643V13.0636C60.0643 11.7123 59.5987 11.0666 58.602 11.0666C56.8751 11.0666 55.9455 13.0636 55.9455 13.7692V18.6585H57.4061V19.8234H54.4849V12.8706C54.4849 11.6491 54.0193 11.1332 53.0226 11.1332C51.495 11.1332 50.3661 13.0004 50.3661 13.9007V18.7267H51.8267V19.8916H47.5068V18.7267H48.9725V11.263H47.5102V10.0981H50.4314L50.4984 11.9636L50.4967 11.9703Z" fill="white"/>
<path d="M67.1729 15.7663C67.1692 16.5262 67.4613 17.2595 67.9909 17.8202C68.5204 18.3808 69.2486 18.7277 70.0305 18.7917C71.7591 18.7917 72.821 17.3106 72.821 14.9309C72.821 12.5512 71.6921 11.1333 70.0305 11.1333C68.5699 11.1333 67.1093 12.6777 67.1093 14.0938L67.1746 15.758L67.1729 15.7663ZM64.3823 6.56525H67.1729V12.1634C67.5715 11.4562 68.7022 10.04 70.4291 10.04C72.6887 10.04 74.4156 12.2916 74.4156 15.124C74.4156 17.7616 72.5564 20.0132 70.4291 20.0132C68.6352 20.0132 67.7726 18.8483 67.1729 18.0828V19.8851H64.317V18.7202H65.7123V7.7235H64.3823V6.55859V6.56525Z" fill="white"/>
<path d="M75.268 6.56494H78.1256V18.7265H79.4539V19.8848H75.2027V18.7265H76.6633V7.65829H75.268V6.56494Z" fill="white"/>
<path d="M87.7604 14.2215C87.7613 13.3136 87.4049 12.4394 86.7637 11.7769C86.2981 11.3908 85.7001 11.1329 85.1021 11.1978C84.4925 11.2289 83.9082 11.4442 83.4314 11.8134C82.9546 12.1826 82.6093 12.6872 82.4439 13.2563C82.3786 13.5792 82.2445 13.9004 82.2445 14.2215H87.7604ZM89.221 17.1821C89.0918 17.7337 88.8171 18.2434 88.4237 18.6615C88.0311 19.1101 87.5414 19.4695 86.9894 19.7142C86.4373 19.959 85.8364 20.0831 85.2293 20.0777C82.5057 20.0777 80.5795 18.0191 80.5795 15.0586C80.5795 12.2296 82.5057 10.0396 84.9646 10.0396C87.4236 10.0396 89.4151 11.9051 89.4151 15.3166H82.1792C82.3115 16.7311 82.6432 17.5681 83.3082 18.2122C83.8204 18.6571 84.4811 18.9082 85.1691 18.9194C86.2981 18.9194 87.0284 18.4052 87.561 17.247L89.221 17.1821Z" fill="white"/>
<path d="M97.1287 9.52544L95.4104 15.1835H98.8642L97.1459 9.52544H97.1287ZM95.5393 7.14404H98.7285L102.382 17.8262H103.378V19.8847H100.385L99.5258 17.1173H94.8691L94.0099 19.8847H90.9496V17.8262H91.9462L95.5393 7.14404Z" fill="white"/>
<path d="M103.241 10.168H107.227V12.0351H106.231L107.626 17.7615L109.288 10.168H111.879L113.541 17.6333L114.869 12.0351H113.872V10.168H117.859V12.0351H116.994L114.869 19.82H112.211L110.551 13.1285L108.956 19.82H106.298L104.105 12.0351H103.241V10.168Z" fill="white"/>
<path d="M124.902 15.312C122.575 15.505 121.048 15.6981 121.048 17.0494C121.048 17.8215 121.713 18.3357 122.709 18.3357C123.286 18.3371 123.842 18.1245 124.261 17.7417C124.681 17.3588 124.934 16.8348 124.967 16.2772V15.312H124.902ZM127.294 18.0146H128.153V19.8801H125.034V18.7152C124.304 19.6155 123.173 20.0665 121.977 20.0665C119.984 20.0665 118.457 18.7801 118.457 17.0427C118.457 14.2136 121.778 13.8808 124.967 13.6312C124.967 12.1518 124.436 11.7008 123.173 11.7008C121.91 11.7008 121.447 12.2799 121.379 13.1819V13.2451L118.988 13.1819C119.122 11.2515 120.716 10.0283 123.112 10.0283C125.902 10.0283 127.363 11.2515 127.363 13.4382L127.297 18.0079L127.294 18.0146Z" fill="white"/>
<path d="M132.868 11.7125C133.533 10.491 134.264 9.9751 135.393 9.9751C135.773 9.98628 136.151 10.0297 136.523 10.1049V12.3565C136.127 12.2814 135.724 12.2386 135.32 12.2284C134.73 12.1862 134.146 12.3728 133.698 12.7473C133.249 13.1218 132.972 13.6534 132.928 14.2253V17.958H134.131V19.8235H129.48V17.9547H130.476V12.0353H129.48V10.1681H132.868V11.7125Z" fill="white"/>
<path d="M143.963 13.8357C143.962 13.3242 143.752 12.8339 143.378 12.4722C143.005 12.1104 142.498 11.9066 141.97 11.9053H141.905C141.364 11.9162 140.843 12.108 140.431 12.4484C140.019 12.7887 139.742 13.2565 139.645 13.7725L143.963 13.8357ZM146.555 16.6648C146.091 18.7882 144.297 20.0746 141.905 20.0746C139.114 20.0746 137.054 17.9512 137.054 14.9907C137.054 12.0301 139.116 9.90835 141.905 9.90835C142.668 9.90231 143.421 10.082 144.094 10.4309C144.767 10.7798 145.339 11.2868 145.757 11.9053C146.422 13.0003 146.821 14.2218 146.754 15.5099H139.578C139.845 18.0194 141.506 18.1475 141.97 18.1475C142.427 18.1646 142.877 18.0349 143.25 17.7788C143.623 17.5227 143.898 17.1545 144.032 16.7313L146.556 16.6681L146.555 16.6648Z" fill="white"/>
<path d="M172.154 2.89073C172.242 2.87733 172.327 2.84675 172.402 2.80086C172.474 2.75661 172.533 2.69533 172.574 2.6228C172.619 2.53343 172.641 2.43449 172.637 2.3349C172.644 2.18858 172.593 2.04533 172.495 1.93384C172.435 1.87776 172.363 1.83489 172.284 1.80817C172.206 1.78146 172.122 1.77153 172.039 1.77908H170.929V2.91236H171.861C171.96 2.91299 172.058 2.90575 172.156 2.89073H172.154ZM172.062 1.41463C172.332 1.39842 172.599 1.47963 172.811 1.64262C172.901 1.72045 172.972 1.81692 173.019 1.92493C173.066 2.03294 173.087 2.14973 173.081 2.26667C173.085 2.4487 173.037 2.62838 172.943 2.78589C172.842 2.9402 172.682 3.04964 172.498 3.09042V3.10041C172.583 3.11394 172.665 3.14455 172.737 3.19027C172.795 3.23159 172.844 3.28362 172.881 3.34337C172.919 3.40497 172.946 3.47177 172.962 3.54141C172.98 3.61659 172.993 3.69272 173.002 3.7694C173.002 3.84927 173.012 3.93581 173.015 4.0107C173.019 4.09149 173.027 4.17204 173.039 4.252C173.051 4.32882 173.069 4.40454 173.094 4.47832C173.119 4.54621 173.157 4.60851 173.208 4.66138H172.709C172.675 4.62272 172.653 4.57536 172.646 4.52492C172.633 4.46129 172.626 4.39669 172.625 4.33188C172.625 4.26087 172.622 4.18432 172.615 4.10222C172.612 4.02124 172.603 3.94058 172.587 3.86092C172.574 3.78104 172.558 3.70616 172.539 3.6346C172.523 3.56733 172.492 3.50396 172.45 3.44822C172.408 3.39359 172.353 3.34962 172.29 3.32008C172.208 3.28474 172.118 3.26823 172.027 3.27182H170.936V4.66138H170.489V1.41463H172.062Z" fill="white"/>
<path d="M171.735 0.515876C171.196 0.515878 170.67 0.670465 170.222 0.960113C169.774 1.24976 169.425 1.66148 169.218 2.14327C169.012 2.62506 168.957 3.15531 169.062 3.66707C169.166 4.17882 169.425 4.64912 169.805 5.01856C170.185 5.38801 170.67 5.64004 171.198 5.74281C171.726 5.84559 172.274 5.79451 172.772 5.59602C173.27 5.39753 173.696 5.06053 173.997 4.62759C174.297 4.19465 174.459 3.68519 174.46 3.16353C174.461 2.81629 174.391 2.47229 174.255 2.15121C174.118 1.83012 173.918 1.53827 173.665 1.29235C173.412 1.04642 173.111 0.851259 172.78 0.718023C172.449 0.584786 172.094 0.516093 171.735 0.515876ZM171.735 6.3071C171.091 6.30546 170.463 6.11907 169.928 5.77148C169.394 5.42389 168.978 4.9307 168.733 4.35422C168.488 3.77774 168.424 3.14385 168.551 2.53262C168.678 1.9214 168.989 1.36027 169.445 0.920133C169.901 0.479999 170.481 0.180608 171.113 0.0597885C171.744 -0.0610313 172.399 0.00214097 172.993 0.241324C173.587 0.480507 174.095 0.884967 174.453 1.4036C174.81 1.92224 175 2.53178 175 3.15521C174.997 3.99206 174.652 4.79373 174.04 5.38454C173.428 5.97535 172.599 6.30711 171.735 6.3071Z" fill="white"/>
<path d="M147.947 18.6099H149.189V19.7864H147.947V18.6099Z" fill="white"/>
<path d="M153.553 19.0762C154.914 19.0762 155.729 18.0161 155.729 16.2704C155.729 14.6296 154.87 13.5812 153.553 13.5812C152.26 13.5812 151.457 14.6296 151.457 16.322C151.457 18.0544 152.246 19.0762 153.553 19.0762ZM150.289 16.2971C150.289 14.1769 151.636 12.7158 153.584 12.7158C155.509 12.7158 156.884 14.2285 156.884 16.2971C156.884 18.4604 155.523 19.9415 153.56 19.9415C151.598 19.9415 150.295 18.4688 150.295 16.2971H150.289Z" fill="white"/>
<path d="M159.693 14.4212C160.037 13.6973 160.227 13.4776 160.552 13.1814C160.915 12.8756 161.379 12.7055 161.86 12.7021C162.12 12.7115 162.379 12.7376 162.635 12.7804V13.8005C162.384 13.7489 162.13 13.7189 161.874 13.7106C159.925 13.7106 159.697 15.6627 159.697 15.7658V18.9726H160.925V19.7864H157.638V18.9726H158.669V13.6474H157.602V12.8153H159.697V14.4179L159.693 14.4212Z" fill="white"/>
<path d="M168.264 15.3918C168.264 14.6296 167.304 13.5429 166.202 13.5429C165.027 13.5429 164.312 14.4732 164.312 15.9859C164.312 17.5252 165.047 18.4555 166.274 18.4555C167.329 18.4555 168.264 17.457 168.264 16.6449V15.3918ZM168.264 18.081C167.609 18.973 166.889 19.2692 166.101 19.2692C164.382 19.2692 163.192 17.8996 163.192 15.921C163.192 14.0471 164.353 12.7158 165.98 12.7158C167.304 12.7158 167.89 13.5296 168.264 14.0604V12.8157H170.287V13.6477H169.287V19.3624C169.287 21.0432 168.178 22.0001 166.23 22.0001C165.042 22.0001 164.027 21.5008 163.547 20.6804C163.427 20.4616 163.328 20.232 163.253 19.9948H164.413C164.841 20.8352 165.348 21.1464 166.303 21.1464C167.518 21.1464 168.252 20.539 168.252 19.5305V18.0827L168.264 18.081Z" fill="white"/>
</svg>
