<svg width="32" height="32" viewBox="0 0 32 32" fill="none" xmlns="http://www.w3.org/2000/svg">
<g clip-path="url(#clip0_1605:9580)">
<path d="M13.5294 23.2495C12.1508 23.2495 11.0293 24.371 11.0293 25.7496C11.0293 26.2047 11.1523 26.6316 11.3657 26.9996H15.693C15.9065 26.6316 16.0294 26.2047 16.0294 25.7496C16.0294 24.3711 14.9078 23.2495 13.5294 23.2495Z" fill="#DC4569"/>
<path d="M30.1571 15.6844V10.1224H26.4636V9.18474C26.4636 7.63384 25.2019 6.37206 23.6509 6.37206C23.1886 6.37206 22.7524 6.48488 22.3672 6.68338C21.2757 2.83068 17.727 0 13.5294 0C9.3318 0 5.78304 2.83068 4.69145 6.68338C4.30626 6.48488 3.87006 6.37206 3.40774 6.37206C1.85684 6.37206 0.595062 7.63384 0.595062 9.18474V26.9997H6.22042V14.7381C7.34663 16.2165 8.91022 17.3442 10.7166 17.9268V21.5802H16.342V17.9268C18.1484 17.3443 19.7121 16.2166 20.8382 14.7381V26.9997H26.4636V11.9974H28.282V17.5594H31.4049V15.6844H30.1571ZM12.5919 16.4329C10.4057 16.1518 8.5189 14.901 7.37788 13.1271C8.82322 13.8591 10.6426 14.3069 12.5919 14.4158V16.4329ZM12.5919 12.5386C9.58886 12.3526 7.35276 11.2903 6.54737 10.1214H12.5919V12.5386ZM12.5919 8.24641H6.54737C7.35276 7.07758 9.58893 6.01524 12.5919 5.8293V8.24641ZM12.5919 3.95214C10.6425 4.06102 8.82316 4.50884 7.37788 5.24079C8.5189 3.46688 10.4058 2.21617 12.5919 1.93498V3.95214ZM14.4669 1.93498C16.6531 2.21617 18.5399 3.46688 19.6809 5.24079C18.2356 4.50884 16.4162 4.06102 14.4669 3.95214V1.93498ZM14.4669 16.4329V14.4158C16.4162 14.3069 18.2356 13.8591 19.6809 13.1271C18.5399 14.901 16.6531 16.1518 14.4669 16.4329ZM14.4669 12.5386V10.1214H20.5114C19.706 11.2903 17.4698 12.3526 14.4669 12.5386ZM14.4669 8.24641V5.82936C17.4699 6.01531 19.706 7.07764 20.5114 8.24647H14.4669V8.24641Z" fill="#DC4569"/>
<path d="M0.595001 28.8748H26.4636V32H0.595001V28.8748Z" fill="#DC4569"/>
</g>
<defs>
<clipPath id="clip0_1605:9580">
<rect width="32" height="32" fill="white"/>
</clipPath>
</defs>
</svg>
