<svg width="32" height="32" viewBox="0 0 32 32" fill="none" xmlns="http://www.w3.org/2000/svg">
<path d="M10.3125 9.76318L7.39947 12.6762C6.86879 13.2069 6.86879 14.0704 7.39954 14.6012C7.93022 15.1319 8.79385 15.1318 9.32453 14.6012L9.6496 14.2761C10.0157 13.9101 10.6093 13.9101 10.9754 14.2761L11.3005 14.6012C11.8312 15.1319 12.6948 15.1319 13.2255 14.6012C13.7562 14.0704 13.7562 13.2069 13.2255 12.6762L10.3125 9.76318Z" fill="#6F82EB"/>
<path d="M16.875 17.9375C16.875 16.0659 18.2402 14.6534 20.625 13.8897V2.8125C20.625 1.26169 19.3633 0 17.8125 0H2.8125C1.26169 0 0 1.26169 0 2.8125V26.5625C0 28.1133 1.26169 29.375 2.8125 29.375H16.8802C16.8771 29.3129 16.875 29.2506 16.875 29.1875V17.9375ZM5 5.9375C5 6.45525 4.58025 6.875 4.0625 6.875C3.54475 6.875 3.125 6.45525 3.125 5.9375V4.0625C3.125 3.54475 3.54475 3.125 4.0625 3.125C4.58025 3.125 5 3.54475 5 4.0625V5.9375ZM14.5514 15.9271C13.6597 16.8187 12.3733 17.0796 11.25 16.7113V18.75H12.8125C13.3303 18.75 13.75 19.1697 13.75 19.6875C13.75 20.2053 13.3303 20.625 12.8125 20.625H7.8125C7.29475 20.625 6.875 20.2053 6.875 19.6875C6.875 19.1697 7.29475 18.75 7.8125 18.75H9.375V16.7119C9.04662 16.8196 8.70438 16.8735 8.362 16.8735C7.53325 16.8735 6.7045 16.5581 6.07369 15.9271C4.81194 14.6653 4.81194 12.6123 6.07369 11.3505L9.64962 7.77456C10.0157 7.4085 10.6093 7.4085 10.9754 7.77456L14.5514 11.3505C15.8131 12.6123 15.8131 14.6653 14.5514 15.9271Z" fill="#6F82EB"/>
<path d="M25.375 20.75C22.0774 20.75 18.75 19.8804 18.75 17.9375C18.75 15.9946 22.0774 15.125 25.375 15.125C28.6726 15.125 32 15.9946 32 17.9375C32 19.8804 28.6726 20.75 25.375 20.75Z" fill="#6F82EB"/>
<path d="M25.375 22.6249C22.4992 22.6249 20.2211 22.0844 18.75 21.1194V23.5624C18.75 25.5053 22.0774 26.3749 25.375 26.3749C28.6726 26.3749 32 25.5053 32 23.5624V21.1194C30.5289 22.0844 28.2508 22.6249 25.375 22.6249Z" fill="#6F82EB"/>
<path d="M25.375 28.2499C22.4992 28.2499 20.2211 27.7094 18.75 26.7444V29.1874C18.75 31.1303 22.0774 31.9999 25.375 31.9999C28.6726 31.9999 32 31.1303 32 29.1874V26.7444C30.5289 27.7094 28.2508 28.2499 25.375 28.2499Z" fill="#6F82EB"/>
</svg>
