<svg width="74" height="46" viewBox="0 0 74 46" fill="none" xmlns="http://www.w3.org/2000/svg">
<rect width="74" height="46" rx="4" fill="white"/>
<path d="M66.8672 18.7601C66.0771 18.2549 64.8814 18.0001 63.3139 18.0001H59.2091L57.6831 25.7327H52.3056L52.6512 23.9783H55.8905L56.2743 22.0079L53.0369 22.0122L53.3835 20.2657H56.7201L57.1641 18.0006H50.3881L48.9393 25.3354H46.4527L47.9112 18.0002H44.3691L42.9204 25.335H40.4981L41.958 18.0002H38.4177L36.8898 25.7327H31.4737L31.8161 23.9784H35.0684L35.4527 22.0192L32.2035 22.0161L32.5482 20.2661H35.9223L36.3634 18H15.2481L14.0463 24.1275L11.6529 18H7.97792L6 28H9.50963L10.7068 21.7036L13.0294 28H25.6076L27.1369 20.2652H29.1041L27.5748 28H60.6706L61.6302 23.1175L63.1823 28H66.6938L65.0853 24.0104L65.4533 23.9365C66.2639 23.7743 66.896 23.426 67.3362 22.9039C67.776 22.3769 68 21.7004 68 20.8877C68 19.9417 67.6292 19.2456 66.8662 18.7595L66.8672 18.7601ZM22.5535 25.7327H17.1811L17.5282 23.9783H20.8979L21.2799 22.0023H17.9426L18.264 20.2662H23.6285L22.5524 25.7326L22.5535 25.7327ZM63.9738 22.3643C63.6208 22.5948 63.1088 22.7069 62.4087 22.7069H61.7146L62.247 20.0234H62.7576C63.3389 20.0234 63.7628 20.1104 64.0554 20.2877C64.2836 20.4269 64.5552 20.7021 64.5552 21.2225C64.5544 21.8521 64.2384 22.1904 63.9729 22.3643L63.9738 22.3643Z" fill="#83BA3B"/>
</svg>
