<svg width="74" height="46" viewBox="0 0 74 46" fill="none" xmlns="http://www.w3.org/2000/svg">
<rect width="74" height="46" rx="4" fill="white"/>
<path d="M16.9638 23.6822C17.3126 23.6993 17.6581 23.608 17.9528 23.421C18.0928 23.3309 18.2067 23.2057 18.283 23.0579C18.3593 22.9102 18.3954 22.745 18.3876 22.5789C18.386 21.8933 18.1539 21.228 17.7283 20.6896C17.2886 20.1117 16.7039 19.6595 16.0333 19.3788C15.5252 19.1717 14.9806 19.0686 14.4318 19.0756C13.8891 19.0564 13.3483 19.1502 12.844 19.351C12.3396 19.5518 11.8827 19.8552 11.5023 20.2418C11.1305 20.612 10.8372 21.0531 10.64 21.5388C10.4428 22.0244 10.3456 22.5448 10.3543 23.0688C10.345 23.5933 10.447 24.1139 10.6538 24.5963C10.8605 25.0787 11.1672 25.512 11.5537 25.8677C11.9536 26.245 12.4243 26.5397 12.9386 26.735C13.453 26.9304 14.0009 27.0224 14.551 27.006C15.1755 27.0073 15.7966 26.9145 16.3933 26.7308C16.9864 26.5825 17.5199 26.257 17.9224 25.7978C18.0866 25.6149 18.1816 25.3807 18.1912 25.1353C18.1912 24.5546 17.8733 24.2653 17.2327 24.2653C16.859 24.3402 16.4966 24.4633 16.1549 24.6315C15.6884 24.8483 15.1842 24.9727 14.6702 24.9977C14.2334 25.0174 13.8007 24.9052 13.4288 24.6758C13.263 24.5644 13.1244 24.4173 13.0233 24.2453C12.9221 24.0734 12.8609 23.8809 12.8443 23.6822H16.9661H16.9638ZM13.3703 21.2611C13.6734 21.0132 14.0565 20.8839 14.4481 20.8972C14.8384 20.8869 15.219 21.0188 15.5189 21.2681C15.6614 21.3848 15.7784 21.5295 15.8624 21.6932C15.9465 21.8569 15.9959 22.0362 16.0076 22.2197H12.8139C12.8828 21.8462 13.0784 21.5077 13.368 21.2611H13.3703Z" fill="#033564"/>
<path d="M19.7416 25.8608C20.4804 26.6227 21.4592 27.0045 22.6781 27.006C23.3041 27.0255 23.9271 26.9126 24.5064 26.6748C25.1844 26.3623 25.5257 25.9751 25.5257 25.5296C25.5306 25.2772 25.4366 25.0329 25.2639 24.8485C25.1772 24.755 25.0713 24.6812 24.9535 24.6322C24.8357 24.5831 24.7088 24.5598 24.5812 24.5639C24.3333 24.577 24.0896 24.633 23.8611 24.7295C23.5623 24.8418 23.2452 24.898 22.9259 24.8951C22.6745 24.9092 22.4231 24.8671 22.1901 24.7719C21.9571 24.6767 21.7484 24.5307 21.5792 24.3447C21.2787 23.9699 21.1242 23.4993 21.1444 23.0198C21.1283 22.55 21.2707 22.0884 21.5488 21.709C21.6992 21.5177 21.8934 21.3653 22.1152 21.2646C22.3369 21.164 22.5797 21.118 22.823 21.1305C23.1527 21.1292 23.4799 21.1877 23.7886 21.3031C24.0247 21.4026 24.2762 21.461 24.5321 21.4757C24.664 21.4797 24.7955 21.4574 24.9187 21.4102C25.042 21.3629 25.1545 21.2916 25.2498 21.2005C25.3419 21.1137 25.4147 21.0087 25.4639 20.8922C25.513 20.7758 25.5372 20.6504 25.5351 20.5241C25.5351 20.0086 25.2054 19.6237 24.5461 19.3578C23.9928 19.1645 23.4092 19.0712 22.823 19.0826C21.5652 19.0826 20.5521 19.4527 19.7837 20.1929C19.4052 20.565 19.1086 21.0116 18.9126 21.5043C18.7166 21.997 18.6255 22.5251 18.6451 23.0548C18.6276 23.5698 18.7143 24.083 18.8998 24.5639C19.0854 25.0448 19.3661 25.4834 19.7252 25.8538" fill="#033564"/>
<path d="M26.7176 25.8748C27.1087 26.2621 27.5752 26.5653 28.0882 26.7659C28.6013 26.9665 29.1501 27.0601 29.7009 27.041C30.2513 27.0606 30.7999 26.9672 31.3127 26.7666C31.8255 26.566 32.2915 26.2624 32.6818 25.8748C33.0483 25.5025 33.3356 25.0602 33.5264 24.5744C33.7172 24.0886 33.8077 23.5693 33.7923 23.0478C33.8068 22.5209 33.7147 21.9966 33.5215 21.506C33.3283 21.0155 33.0379 20.5689 32.6677 20.1928C31.9196 19.4301 30.9283 19.0476 29.7009 19.0476C29.1532 19.0301 28.6078 19.1252 28.0986 19.3271C27.5894 19.5289 27.1273 19.8331 26.741 20.2208C26.3659 20.5928 26.0709 21.0373 25.8739 21.527C25.6769 22.0167 25.5821 22.5413 25.5954 23.0688C25.5814 23.5891 25.6737 24.1068 25.8666 24.5904C26.0596 25.0739 26.3491 25.5133 26.7176 25.8817V25.8748ZM28.4711 21.7719C28.6108 21.5792 28.7963 21.4242 29.011 21.3207C29.2256 21.2173 29.4627 21.1688 29.7009 21.1795C29.938 21.1699 30.1737 21.2205 30.386 21.3265C30.5982 21.4326 30.78 21.5907 30.9143 21.7859C31.1802 22.1548 31.3174 22.6006 31.3047 23.0548C31.3214 23.5114 31.1902 23.9612 30.9306 24.3376C30.7934 24.5339 30.6088 24.6923 30.3938 24.7984C30.1788 24.9044 29.9404 24.9545 29.7009 24.9441C29.4637 24.9537 29.228 24.9031 29.0157 24.797C28.8035 24.6909 28.6218 24.5329 28.4874 24.3376C28.2202 23.9641 28.0831 23.5135 28.097 23.0548C28.0815 22.5961 28.2125 22.1444 28.4711 21.7649V21.7719Z" fill="#033564"/>
<path d="M17.8498 16.0037C12.2808 16.0037 7.77551 18.6744 7.77551 21.9888C7.77551 23.3883 8.59146 24.6828 9.97086 25.7208C9.30329 24.9336 8.92767 23.9411 8.90709 22.9101C8.90709 19.4791 13.3212 16.6941 18.7546 16.6941C22.2616 16.6941 25.3407 17.844 27.0848 19.5957C25.5231 17.4778 21.9693 16.0037 17.8498 16.0037Z" fill="#8CC23C"/>
<path d="M37.1944 18.868H38.2722C39.4116 18.868 39.9813 19.3049 39.9813 20.1788C39.9813 21.0527 39.4116 21.499 38.2722 21.5177H37.1944V18.868ZM37.1944 25.3173V23.6006H38.8731C40.0514 23.6006 40.9803 23.3012 41.6599 22.7026C42.3395 22.1039 42.6793 21.2626 42.6793 20.1788C42.6793 19.0903 42.3044 18.2397 41.5547 17.6271C40.8455 17.0486 39.8862 16.7594 38.6767 16.7594H36.4299C35.7799 16.7594 35.3302 16.8784 35.0809 17.1163C34.8315 17.3542 34.7068 17.7725 34.7068 18.3711V25.3126C34.7068 26.4011 35.1214 26.9454 35.9506 26.9454C36.7798 26.9454 37.1944 26.4027 37.1944 25.3173Z" fill="#8CC23C"/>
<path d="M45.7065 21.8069C45.8411 21.6253 46.0177 21.479 46.2212 21.3803C46.4248 21.2816 46.6493 21.2335 46.8755 21.2401C47.1021 21.2312 47.3273 21.2784 47.5312 21.3772C47.7352 21.4761 47.9115 21.6237 48.0445 21.8069C48.292 22.1672 48.4173 22.5972 48.4022 23.0338C48.4166 23.4746 48.2914 23.9088 48.0445 24.2746C47.9137 24.4609 47.7381 24.6114 47.5339 24.7125C47.3297 24.8136 47.1033 24.8619 46.8755 24.8531C46.6444 24.8622 46.4145 24.8142 46.2065 24.7133C45.9985 24.6124 45.8187 24.4617 45.6831 24.2746C45.4265 23.9126 45.2952 23.477 45.3091 23.0338C45.298 22.5931 45.4345 22.1613 45.6972 21.8069H45.7065ZM49.6717 26.9383C50.4713 26.9383 50.8711 26.3941 50.8711 25.3056V20.8156C50.8711 19.738 50.4713 19.1992 49.6717 19.1992C49.4335 19.1978 49.1995 19.2625 48.996 19.3861C48.7925 19.5097 48.6274 19.6872 48.5191 19.8989C48.2718 19.6329 47.9696 19.4237 47.6334 19.2855C47.2972 19.1474 46.9349 19.0837 46.5716 19.0989C46.05 19.0867 45.5324 19.1919 45.0572 19.4067C44.582 19.6216 44.1615 19.9405 43.8268 20.3397C43.1586 21.0864 42.7956 22.0562 42.8098 23.0571C42.793 24.0421 43.1391 24.999 43.7824 25.7464C44.1098 26.1438 44.5234 26.4617 44.992 26.6763C45.4606 26.8908 45.9719 26.9964 46.4874 26.985C46.8684 27.0034 47.2488 26.9374 47.6013 26.7918C47.9538 26.6462 48.2696 26.4247 48.5261 26.143C48.6105 26.3791 48.7672 26.5828 48.9741 26.7251C49.181 26.8675 49.4275 26.9412 49.6787 26.936L49.6717 26.9383Z" fill="#8CC23C"/>
<path d="M56.4997 20.0831L55.0151 23.6401L53.6427 20.2767C53.5482 20.0039 53.4092 19.7485 53.2312 19.521C53.1241 19.4133 52.9955 19.3294 52.8536 19.2747C52.7118 19.22 52.56 19.1959 52.4082 19.2037C52.0953 19.1945 51.7913 19.3085 51.5619 19.521C51.453 19.6206 51.3667 19.7423 51.3087 19.8778C51.2506 20.0133 51.2222 20.1597 51.2252 20.307C51.2237 20.521 51.2692 20.7328 51.3585 20.9275L53.8016 26.1802L52.8033 28.1791C52.6822 28.4127 52.6136 28.6698 52.6023 28.9325C52.5976 29.0793 52.6255 29.2253 52.6841 29.36C52.7427 29.4947 52.8306 29.6148 52.9413 29.7116C53.1856 29.9113 53.4955 30.0135 53.811 29.9985C54.2412 29.9985 54.5942 29.6999 54.8748 29.1028L58.5758 21.0347C58.6957 20.7943 58.7627 20.5311 58.7722 20.2627C58.7722 19.5629 58.3724 19.2014 57.5728 19.2014C57.1052 19.2014 56.7592 19.4953 56.509 20.0831" fill="#8CC23C"/>
<path d="M64.7151 24.7575H62.3233L65.5404 20.9533C65.8677 20.5661 66.0313 20.2395 66.0313 19.9736C66.0446 19.8514 66.0144 19.7284 65.946 19.626C65.8777 19.5237 65.7755 19.4486 65.6573 19.4138C65.2795 19.3221 64.8908 19.2829 64.5023 19.2972H60.6213C59.5926 19.2972 59.0782 19.6323 59.0782 20.3025C59.0782 20.9727 59.5879 21.3132 60.6073 21.3241H62.6904L59.3635 25.2893C59.1444 25.5214 59.0166 25.8245 59.0034 26.143C59.0034 26.6095 59.4266 26.8428 60.2776 26.8428H64.6987C65.7149 26.8428 66.2238 26.5022 66.2254 25.8211C66.2269 25.1401 65.7235 24.791 64.7151 24.7739" fill="#8CC23C"/>
</svg>
