<svg width="74" height="46" viewBox="0 0 74 46" fill="none" xmlns="http://www.w3.org/2000/svg">
<rect width="74" height="46" rx="4" fill="white"/>
<path d="M37.4945 6.00549C27.8323 6.00549 19.9998 13.8596 19.9998 23.5806C19.9998 25.3188 20.2566 27.0248 20.7702 28.6664C21.0912 28.2158 21.4122 27.7651 21.7011 27.2823C22.9209 25.4797 24.1086 23.6771 25.2963 21.8424L26.163 20.4583C26.4519 20.0076 26.7408 19.5248 26.9976 19.0741C27.5754 18.1407 28.1212 17.2072 28.6348 16.2737C28.8916 15.7909 29.1484 15.3402 29.4373 14.8574C29.7262 14.3746 29.9509 13.9239 30.2077 13.4411C30.4645 12.9583 30.7213 12.4754 30.946 12.0248L31.6522 10.5763L31.7164 10.4797C32.1016 9.7072 33.0325 9.38532 33.835 9.73939C34.4128 10.0613 34.7659 10.6729 34.7338 11.3488C34.7338 12.1857 34.5733 13.0548 34.5091 13.8917C34.4449 14.7287 34.4128 15.5978 34.3486 16.4669C34.2844 18.1729 34.2523 19.9111 34.2523 21.6171C34.2523 23.3231 34.3486 25.0291 34.5091 26.6707C34.6054 27.4754 34.7338 28.2801 34.8943 29.0849C35.0227 29.793 35.2474 30.5012 35.5684 31.1449C35.6647 31.3381 35.7931 31.5312 35.9536 31.6922C36.0499 31.7565 35.9857 31.7243 36.0499 31.7243C36.1142 31.7243 36.0821 31.7243 36.1142 31.7243L36.1784 31.6922H36.2105L36.3068 31.66C36.3389 31.6278 36.4031 31.5956 36.4352 31.5634C36.692 31.3703 36.9167 31.1449 37.1414 30.8874C37.655 30.2758 38.1365 29.6643 38.5538 28.9883C39.0032 28.3123 39.4205 27.572 39.8378 26.8316C40.6724 25.351 41.4428 23.8381 42.1811 22.293C42.5342 21.5205 42.9194 20.748 43.2725 19.9432C43.6256 19.1707 43.9787 18.366 44.2997 17.5935C44.6208 16.7887 45.5517 16.4025 46.3542 16.7244C46.8678 16.9175 47.2209 17.3681 47.3172 17.9153C47.3172 18.1085 47.3493 18.366 47.3814 18.6235L47.4777 19.3638C47.5419 19.8467 47.6061 20.3295 47.7024 20.8123C47.8629 21.778 48.0555 22.7437 48.3123 23.6771C48.5691 24.6106 48.8901 25.5441 49.2753 26.4454C49.6605 27.3467 50.142 28.1836 50.7519 28.9561C50.8803 29.1492 50.8482 29.4067 50.6877 29.5355C50.5272 29.6643 50.3025 29.6643 50.1741 29.5355C49.3716 28.8273 48.6654 28.0226 48.0555 27.1535C47.4456 26.2844 46.932 25.351 46.4505 24.4175C46.1295 23.7737 45.8727 23.1299 45.5838 22.4862C45.3912 22.8724 45.2307 23.2587 45.0381 23.6128C44.2676 25.19 43.4972 26.7673 42.5984 28.3445C42.149 29.1814 41.6996 29.954 41.186 30.7265C40.6724 31.5312 40.0946 32.3037 39.4847 33.0119C39.1316 33.4303 38.7143 33.7844 38.297 34.1385C38.1686 34.2351 38.0402 34.3316 37.8797 34.396L37.5908 34.557L37.4303 34.6213H37.3982L37.3019 34.6535H37.2377L37.1093 34.6857C37.013 34.7179 36.9488 34.7501 36.8525 34.7501C36.6599 34.7823 36.4673 34.8145 36.2747 34.8467C35.8573 34.8788 35.4079 34.8145 35.0227 34.6857C34.6375 34.557 34.2844 34.3316 33.9634 34.0741C33.4819 33.6557 33.0646 33.1406 32.7757 32.5612C32.3263 31.66 32.0053 30.6943 31.8127 29.6964C31.6201 28.7952 31.4917 27.8617 31.3954 26.9604C31.2028 25.1578 31.1386 23.3874 31.1065 21.5849C31.1065 20.748 31.1065 19.8789 31.1065 19.042C30.7855 19.6535 30.4645 20.2651 30.1435 20.8445C29.8867 21.3274 29.6299 21.8102 29.341 22.293L28.5385 23.7415C27.447 25.6728 26.3235 27.572 25.1358 29.4711C24.3975 30.6943 23.6271 31.9175 22.8567 33.1085C28.1533 41.22 39.0032 43.4733 47.0925 38.1621C55.1818 32.8509 57.4288 21.9711 52.1322 13.8596C48.8901 8.99905 43.4009 6.00549 37.4945 6.00549Z" fill="url(#paint0_linear_455:4748)"/>
<defs>
<linearGradient id="paint0_linear_455:4748" x1="17.2812" y1="28.4395" x2="158.565" y2="-5.50366" gradientUnits="userSpaceOnUse">
<stop stop-color="#21E418"/>
<stop offset="0.3" stop-color="#31B6E9"/>
<stop offset="0.9757" stop-color="#21E418"/>
</linearGradient>
</defs>
</svg>
