<svg width="74" height="46" viewBox="0 0 74 46" fill="none" xmlns="http://www.w3.org/2000/svg">
<rect width="74" height="46" rx="4" fill="white"/>
<path d="M18.3458 13.7265C19.0301 12.848 19.5189 11.6766 19.3722 10.5052C18.3458 10.5541 17.1239 11.1886 16.3908 12.0183C15.7554 12.7504 15.1689 13.9706 15.3155 15.0931C16.4885 15.2396 17.6127 14.6051 18.3458 13.7265ZM19.3722 15.386C17.7105 15.2884 16.293 16.3133 15.511 16.3133C14.729 16.3133 13.5071 15.4348 12.1874 15.4348C10.4768 15.4836 8.91271 16.4109 8.03294 17.9728C6.27339 21.0477 7.54418 25.5867 9.30372 28.0759C10.1346 29.2961 11.161 30.6627 12.4807 30.6139C13.7515 30.5651 14.2402 29.7842 15.7554 29.7842C17.2706 29.7842 17.7105 30.6139 19.079 30.5651C20.4475 30.5163 21.3273 29.3449 22.1582 28.0759C23.1357 26.6605 23.5267 25.2939 23.5267 25.2451C23.4779 25.1963 20.8385 24.2201 20.8385 21.1941C20.7897 18.6561 22.8913 17.4359 22.9891 17.3871C21.8649 15.63 20.0076 15.4348 19.3722 15.386Z" fill="#231F20"/>
<path d="M33.741 11.9207C37.3578 11.9207 39.8505 14.4098 39.8505 17.9728C39.8505 21.5845 37.309 24.0737 33.6432 24.0737H29.6842V30.3699H26.8005V11.9207H33.741ZM29.6842 21.6821H32.959C35.4517 21.6821 36.8691 20.3155 36.8691 18.0216C36.8691 15.6788 35.4517 14.361 32.959 14.361H29.6354V21.6821H29.6842ZM40.5837 26.6117C40.5837 24.2689 42.3921 22.8047 45.6179 22.6095L49.3325 22.4143V21.3893C49.3325 19.8763 48.3061 18.9977 46.6443 18.9977C45.0314 18.9977 44.0539 19.7787 43.8095 20.95H41.1702C41.3168 18.5097 43.4185 16.7038 46.7421 16.7038C50.0168 16.7038 52.1185 18.412 52.1185 21.1453V30.4187H49.4792V28.2223H49.4303C48.6483 29.7354 46.9376 30.6627 45.1781 30.6627C42.441 30.6627 40.5837 29.0033 40.5837 26.6117ZM49.3325 25.3915V24.3177L46.009 24.513C44.3472 24.6106 43.4185 25.3427 43.4185 26.5141C43.4185 27.6855 44.396 28.4664 45.8623 28.4664C47.8174 28.4664 49.3325 27.1486 49.3325 25.3915ZM54.5623 35.397V33.1519C54.7578 33.2007 55.2466 33.2007 55.4421 33.2007C56.7129 33.2007 57.3971 32.6638 57.837 31.2972C57.837 31.2484 58.0814 30.4675 58.0814 30.4675L53.1938 16.9966H56.1752L59.5966 27.9783H59.6455L63.0668 16.9966H65.9994L60.9651 31.1996C59.7921 34.4697 58.4724 35.4946 55.6865 35.4946C55.491 35.4458 54.8067 35.4458 54.5623 35.397Z" fill="#231F20"/>
</svg>
