<svg width="74" height="46" viewBox="0 0 74 46" fill="none" xmlns="http://www.w3.org/2000/svg">
<rect width="74" height="46" rx="4" fill="white"/>
<path d="M26.8275 22.8448V27.7689H22.8585V22.7446C22.8585 20.0405 20.6571 17.8372 17.9555 17.8372H16.7882C14.0865 17.8372 11.8852 20.0405 11.8852 22.7446V27.7856H7.93286V22.8448C7.93286 18.0041 11.8686 14.0648 16.7048 14.0648H18.0389C22.8918 14.0648 26.8275 18.0041 26.8275 22.8448Z" fill="#005596"/>
<path d="M63.1326 21.0253C65.1338 22.6111 66.4345 25.0481 66.4846 27.7856H62.5155C62.4988 25.0982 60.3142 22.9115 57.6126 22.9115H56.4452C53.7603 22.9115 51.5756 25.0815 51.5423 27.7689H47.5732C47.6233 25.0314 48.924 22.5944 50.9252 21.0087C48.8907 19.4062 47.5732 16.9024 47.5732 14.0982V14.0648H51.5423V14.2317C51.5423 16.9358 53.7436 19.1392 56.4452 19.1392H57.6126C60.3142 19.1392 62.5155 16.9358 62.5155 14.2317V14.0648H66.4846V14.1316C66.4846 16.9191 65.1671 19.4229 63.1326 21.0253Z" fill="#005596"/>
<path d="M46.0056 14.0648V14.8827C46.0056 19.2894 42.7703 22.9282 38.5344 23.5625V27.7689H34.5654V23.5625C30.3462 22.9282 27.0942 19.2727 27.0942 14.8827V14.0648H31.0633V14.9996C31.0633 17.7037 33.2646 19.907 35.9662 19.907H37.1336C39.8352 19.907 42.0365 17.7037 42.0365 14.9996V14.0648H46.0056Z" fill="#005596"/>
<path d="M10.3009 30.707V31.7919C9.73387 32.2092 8.83333 32.1759 8.31636 31.6918C7.79938 31.191 7.79938 30.2229 8.29968 29.7222C8.74995 29.2715 9.5671 29.2214 10.1008 29.5552C10.1675 29.6053 10.2342 29.6387 10.2842 29.7055L10.1341 29.9391C10.0007 30.1228 9.81725 29.8724 9.66716 29.839C9.45037 29.7555 9.13351 29.7555 8.91672 29.839C8.2163 30.1228 8.23297 31.358 8.95007 31.625C9.2169 31.7252 9.5671 31.7085 9.81725 31.575V31.0909H9.48372C9.41702 31.0909 9.38366 31.0575 9.38366 30.9907V30.707H10.3009Z" fill="#005596"/>
<path d="M15.7205 32.042C15.6371 32.0253 15.2869 32.0754 15.2369 32.0086C15.1702 31.9752 15.0034 31.4411 14.9701 31.3743H13.8527C13.8194 31.4411 13.6693 31.9752 13.6026 31.9919C13.5526 32.0587 13.1857 32.0086 13.1023 32.0253L14.1529 29.3379H14.6532L15.7205 32.042ZM14.8367 31.0405C14.7533 30.8068 14.4698 30.0723 14.4031 29.822C14.353 30.0556 14.0529 30.7901 13.9862 31.0405H14.8367Z" fill="#005596"/>
<path d="M21.5741 29.3712V32.0586H21.1405C21.1405 31.9251 21.1238 30.1724 21.1572 30.1057L20.34 31.6246C20.3067 31.6914 20.24 31.7415 20.1566 31.7415C20.0565 31.7415 19.9565 31.7415 19.9064 31.6246L19.0893 30.089C19.1226 30.1724 19.106 31.9251 19.106 32.0586H18.6724V29.3712H19.0559C19.1226 29.3712 19.1893 29.3712 19.2227 29.4547C19.3061 29.6216 20.1066 31.0404 20.1399 31.1906C20.1733 31.0404 20.9571 29.6216 21.0404 29.4547C21.0738 29.3879 21.1405 29.3712 21.2072 29.3712H21.5741Z" fill="#005596"/>
<path d="M25.3431 32.0419H24.8428V29.3712H25.3431V32.0419Z" fill="#005596"/>
<path d="M30.8798 29.3712V32.0586H30.6296C30.5462 32.0586 30.4962 32.0419 30.4462 31.9752L29.0453 30.1891C29.062 30.2726 29.0453 31.9251 29.062 32.0586H28.6284V29.3712H28.8952C28.962 29.3712 29.012 29.3879 29.062 29.4547L30.4629 31.2574C30.4462 31.1406 30.4462 29.5381 30.4462 29.3879C30.4462 29.3712 30.8798 29.3712 30.8798 29.3712Z" fill="#005596"/>
<path d="M36.3663 30.7066V31.7916C35.7993 32.2089 34.8988 32.1755 34.3818 31.6914C33.8648 31.1907 33.8648 30.2225 34.3651 29.7218C34.8154 29.2711 35.6325 29.221 36.1662 29.5549C36.2329 29.6049 36.2996 29.6383 36.3496 29.7051L36.1995 29.9388C36.0661 30.1224 35.8827 29.872 35.7326 29.8386C35.5158 29.7552 35.1989 29.7552 34.9821 29.8386C34.2817 30.1224 34.2984 31.3576 35.0155 31.6247C35.2823 31.7248 35.6325 31.7081 35.8827 31.5746V31.0905H35.5491C35.4824 31.0905 35.4491 31.0571 35.4491 30.9904V30.7066H36.3663Z" fill="#005596"/>
<path d="M45.305 30.7066V31.7916C44.738 32.2089 43.8375 32.1755 43.3205 31.6914C42.8035 31.1907 42.8035 30.2225 43.3038 29.7218C43.7541 29.2711 44.5713 29.221 45.1049 29.5549C45.1716 29.6049 45.2383 29.6383 45.2883 29.7051L45.1383 29.9388C45.0048 30.1224 44.8214 29.872 44.6713 29.8386C44.4545 29.7552 44.1377 29.7552 43.9209 29.8386C43.2204 30.1224 43.2371 31.3576 43.9542 31.6247C44.221 31.7248 44.5713 31.7081 44.8214 31.5746V31.0905H44.4879C44.4212 31.0905 44.3878 31.0571 44.3878 30.9904V30.7066H45.305Z" fill="#005596"/>
<path d="M50.5414 32.0419H50.0912C50.0078 32.0419 49.9411 32.0085 49.9077 31.9418L49.3407 31.0905C49.274 30.9569 49.0739 31.007 48.9405 31.007V32.0586H48.4402V29.3712C48.7404 29.3879 49.4575 29.3378 49.7243 29.4213C50.5081 29.5882 50.4414 30.7233 49.6909 30.9069C49.7576 30.9403 49.8077 30.9903 49.8577 31.0571C49.8744 31.0571 50.5414 32.0419 50.5414 32.0419ZM49.2573 30.6398C49.4241 30.6398 49.5575 30.6064 49.6743 30.5063C49.8577 30.356 49.8577 30.0055 49.6743 29.8553C49.5408 29.7217 49.1573 29.7384 48.9405 29.7384V30.6231H49.2573V30.6398Z" fill="#005596"/>
<path d="M56.0282 30.7066C56.0449 32.526 53.2932 32.526 53.3099 30.7066C53.2932 28.8872 56.0449 28.8872 56.0282 30.7066ZM55.5112 30.7066C55.5612 29.438 53.7602 29.438 53.8102 30.7066C53.7768 31.9752 55.5779 31.9752 55.5112 30.7066Z" fill="#005596"/>
<path d="M60.2139 31.6413C60.5975 31.658 60.8476 31.3242 60.831 30.9736V29.3712H61.3313V30.9736C61.3479 31.6079 60.8476 32.1087 60.2139 32.0753C59.5802 32.1087 59.0799 31.5912 59.0966 30.9736V29.3712H59.5969V30.9736C59.5802 31.3409 59.8304 31.658 60.2139 31.6413Z" fill="#005596"/>
<path d="M65.4336 29.3712C65.8505 29.3712 66.2508 29.4881 66.4175 29.8887C66.601 30.3393 66.4008 30.9236 65.9005 31.0571C65.6837 31.1406 65.3169 31.1239 65.0667 31.1239V32.0753H64.5664V29.3712H65.4336ZM65.4336 30.7066C65.6504 30.7066 65.8672 30.6231 65.9506 30.4228C66.034 30.1724 65.9672 29.8553 65.6837 29.7885C65.5503 29.7384 65.2168 29.7551 65.0667 29.7551V30.7233H65.4336V30.7066Z" fill="#005596"/>
</svg>
