<svg width="74" height="46" viewBox="0 0 74 46" fill="none" xmlns="http://www.w3.org/2000/svg">
<rect width="74" height="46" rx="4" fill="white"/>
<path fill-rule="evenodd" clip-rule="evenodd" d="M49.6044 17.772C50.9239 17.772 51.9934 16.7143 51.9934 15.4099C51.9934 14.1048 50.9239 13.046 49.6044 13.046C48.2864 13.046 47.2174 14.1048 47.2174 15.4099C47.2174 16.7143 48.2864 17.772 49.6044 17.772ZM31.3078 19.0477C31.2 19.3156 30.4241 21.4842 28.5477 23.7318V14.1216L23.5479 15.0993V32.5189H28.5477V27.1343C29.9957 29.2834 30.7108 32.5189 30.7108 32.5189H36.6995C36.1071 30.0821 33.5158 25.589 33.5158 25.589C35.8414 22.6715 36.8629 19.5627 37.0254 19.0477H31.3078ZM44.4519 18.8658C39.9737 19.008 37.7004 20.9961 37.7004 24.948V32.5189H42.586V26.345C42.586 23.9786 42.8991 22.9643 45.737 22.8675V18.9352C45.2593 18.8348 44.4519 18.8658 44.4519 18.8658ZM15.1628 20.9658C14.5504 20.926 13.1326 20.8353 13.1326 19.5724C13.1326 18.0483 15.1738 18.0483 15.9395 18.0483C17.2856 18.0483 19.0291 18.442 20.2742 18.8105C20.2742 18.8105 20.9687 19.0527 21.5598 19.3009L21.6147 19.3156V15.1417L21.5393 15.1196C20.0699 14.6109 18.3613 14.1216 15.1936 14.1216C9.73185 14.1216 7.79663 17.2699 7.79663 19.967C7.79663 21.5218 8.47011 25.1809 14.7252 25.603C15.2554 25.6352 16.6627 25.7155 16.6627 27.0206C16.6627 28.0981 15.5106 28.7336 13.5728 28.7336C11.4492 28.7336 9.38921 28.1977 8.13799 27.6895V31.9883C10.0111 32.4742 12.1226 32.717 14.5974 32.717C19.9377 32.717 22.3295 29.7382 22.3295 26.7859C22.3295 23.4384 19.6531 21.2635 15.1628 20.9658ZM47.1825 32.5189H52.0285V19.0629H47.1825V32.5189ZM61.1533 14.9794V32.5189H66.0001V14.1216L61.1533 14.9794ZM54.0813 14.9794L58.9235 14.1216V32.5189H54.0813V14.9794Z" fill="url(#paint0_linear_455:3815)"/>
<defs>
<linearGradient id="paint0_linear_455:3815" x1="23.5372" y1="13.046" x2="27.8219" y2="37.3247" gradientUnits="userSpaceOnUse">
<stop stop-color="#6B195F"/>
<stop offset="1" stop-color="#4C255B"/>
</linearGradient>
</defs>
</svg>
