<svg width="74" height="46" viewBox="0 0 74 46" fill="none" xmlns="http://www.w3.org/2000/svg">
<rect width="74" height="46" rx="4" fill="white"/>
<path d="M11.7041 23.3713H6V29.0475H11.7041V23.3713Z" fill="#231F20"/>
<path d="M6.00586 14.5315V21.5968H7.5164C11.4863 21.5968 13.4986 23.5992 13.4986 27.5498V29.0529H20.5986V14.5315H6.00586ZM17.583 17.5324C17.583 19.4588 17.583 24.1202 17.583 26.0466C17.0377 26.0466 16.945 26.0466 16.4215 26.0466C15.9198 21.8356 13.2586 19.1875 9.02693 18.6882C9.02693 18.1618 9.02693 18.0696 9.02693 17.5269C10.9628 17.5324 15.6471 17.5324 17.583 17.5324Z" fill="#5FBA46"/>
<path d="M26.4158 23.4031H23.7437V29.0467H22.2495V22.2092H27.9099V29.0467H26.4158V23.4031Z" fill="#5FBA46"/>
<path d="M28.99 24.1639H30.0261L30.1897 24.7499H30.2333C30.4242 24.5003 30.6478 24.3212 30.9041 24.2018C31.1604 24.0825 31.4767 24.0282 31.8475 24.0282C32.5291 24.0282 33.0417 24.2236 33.3853 24.6088C33.7288 24.9941 33.8979 25.6182 33.8979 26.481C33.8979 26.8988 33.8434 27.2733 33.7343 27.6097C33.6252 27.9462 33.4616 28.2283 33.249 28.4671C33.0363 28.7004 32.7745 28.8795 32.4637 29.0043C32.1529 29.1291 31.7984 29.1888 31.4003 29.1888C31.1767 29.1888 30.9913 29.1725 30.8441 29.1454C30.6969 29.1183 30.5551 29.0694 30.4078 29.0043V31.0067H28.99V24.1639ZM31.4221 25.1027C31.144 25.1027 30.9313 25.1623 30.7732 25.2872C30.6151 25.412 30.4951 25.5965 30.4078 25.8461V27.8756C30.5114 27.9462 30.6205 28.0058 30.7405 28.0438C30.8604 28.0872 31.0186 28.1089 31.2149 28.1089C31.6239 28.1089 31.9293 27.9787 32.1311 27.7237C32.3328 27.4686 32.4364 27.0399 32.4364 26.4484C32.4364 26.0197 32.3546 25.6887 32.1965 25.4499C32.0329 25.222 31.7766 25.1027 31.4221 25.1027Z" fill="#5FBA46"/>
<path d="M38.0152 26.823L38.0698 26.1284H38.0371L37.5681 26.8393L35.6267 29.0479H34.7324V24.164H36.1503V26.4866L36.0848 27.1486H36.1284L36.5756 26.454L38.5388 24.1586H39.4331V29.0425H38.0152V26.823Z" fill="#5FBA46"/>
<path d="M40.5017 24.1746C40.758 24.1529 41.0634 24.1366 41.4233 24.1149C41.7832 24.0932 42.1704 24.0878 42.5848 24.0878C43.3864 24.0878 43.9536 24.1909 44.2917 24.3971C44.6298 24.6033 44.7988 24.9072 44.7988 25.3196C44.7988 25.5475 44.7279 25.77 44.5807 25.9816C44.4335 26.1987 44.2044 26.3506 43.8936 26.4483V26.4863C44.2862 26.5623 44.5698 26.7034 44.7443 26.9041C44.9188 27.1049 45.006 27.36 45.006 27.6693C45.006 28.1577 44.7988 28.5212 44.3789 28.7654C43.959 29.0042 43.2883 29.129 42.3667 29.129C42.0613 29.129 41.7396 29.1182 41.396 29.1019C41.0525 29.0856 40.758 29.0639 40.5017 29.0368V24.1746ZM42.6394 26.1607C42.8738 26.1607 43.0647 26.1119 43.2119 26.0088C43.3592 25.9057 43.4355 25.7808 43.4355 25.6235C43.4355 25.4553 43.3701 25.325 43.2447 25.2382C43.1192 25.1514 42.8848 25.108 42.5521 25.108C42.3831 25.108 42.2522 25.1134 42.154 25.1188C42.0559 25.1242 41.9686 25.1297 41.8868 25.1405V26.1661H42.6394V26.1607ZM41.8868 28.0708C41.9904 28.0817 42.0831 28.0925 42.1704 28.098C42.2576 28.1034 42.3667 28.1088 42.4976 28.1088C42.8902 28.1088 43.1683 28.06 43.3374 27.9623C43.5064 27.8646 43.5882 27.7127 43.5882 27.5119C43.5882 27.3437 43.5173 27.2026 43.3755 27.0941C43.2338 26.9855 42.9829 26.9313 42.6175 26.9313H41.8868V28.0708Z" fill="#5FBA46"/>
<path d="M45.8996 24.4516C46.1886 24.3323 46.5376 24.24 46.9357 24.1749C47.3338 24.1043 47.7537 24.0718 48.19 24.0718C48.5662 24.0718 48.8825 24.1152 49.1388 24.1966C49.3951 24.278 49.5969 24.3919 49.7441 24.5439C49.8914 24.6958 50.0004 24.8749 50.0604 25.0811C50.1204 25.2873 50.1531 25.5261 50.1531 25.7866C50.1531 26.0742 50.1422 26.3618 50.1204 26.6494C50.0986 26.937 50.0877 27.2246 50.0822 27.5068C50.0768 27.789 50.0877 28.0603 50.1095 28.3208C50.1313 28.5867 50.1858 28.8363 50.2731 29.0696H49.117L48.888 28.3967H48.8334C48.6862 28.5975 48.4844 28.7712 48.2281 28.9177C47.9718 29.0642 47.6392 29.1402 47.2302 29.1402C46.9739 29.1402 46.7449 29.1076 46.5431 29.0371C46.3413 28.9665 46.1668 28.8688 46.0196 28.744C45.8724 28.6192 45.7633 28.4673 45.6815 28.2936C45.5997 28.12 45.5615 27.9246 45.5615 27.713C45.5615 27.4145 45.6379 27.1595 45.7851 26.9533C45.9323 26.7471 46.1505 26.5843 46.4286 26.454C46.7067 26.3292 47.0448 26.237 47.432 26.1881C47.8192 26.1393 48.2554 26.123 48.7353 26.1447C48.7844 25.7811 48.7571 25.5207 48.648 25.3579C48.539 25.2005 48.2936 25.1191 47.9173 25.1191C47.6337 25.1191 47.3338 25.1462 47.0175 25.1951C46.7012 25.2493 46.4395 25.3145 46.2377 25.4013L45.8996 24.4516ZM47.6992 28.082C47.9827 28.082 48.2063 28.0277 48.3754 27.9138C48.5444 27.7998 48.6644 27.6804 48.7462 27.5448V26.9099C48.5226 26.8882 48.3045 26.8882 48.0973 26.899C47.89 26.9099 47.7046 26.9424 47.5465 26.9858C47.3884 27.0292 47.2575 27.0944 47.1648 27.1812C47.0721 27.268 47.023 27.3711 47.023 27.5014C47.023 27.6859 47.083 27.8269 47.2029 27.9246C47.3229 28.0332 47.4865 28.082 47.6992 28.082Z" fill="#5FBA46"/>
<path d="M55.2087 25.2872H53.6709V29.0478H52.2094V25.2872H50.6716V24.1639H55.2087V25.2872Z" fill="#5FBA46"/>
<path d="M62.1008 29.0368H57.0838V27.8159L58.7743 26.1173C59.2542 25.6181 59.5705 25.2708 59.7177 25.0917C59.865 24.9072 59.9686 24.7499 60.0286 24.6196C60.0885 24.4894 60.1158 24.3483 60.1158 24.2072C60.1158 24.0281 60.0558 23.887 59.9413 23.7839C59.8268 23.6808 59.6632 23.6266 59.4505 23.6266C59.2324 23.6266 59.0143 23.6863 58.7907 23.8111C58.5671 23.9359 58.3163 24.1204 58.0381 24.3591L57.0129 23.1653C57.3674 22.8506 57.6673 22.6227 57.9127 22.487C58.1581 22.3513 58.4199 22.2482 58.7034 22.1723C58.987 22.1017 59.3087 22.0637 59.6632 22.0637C60.1104 22.0637 60.5084 22.1397 60.8629 22.2971C61.2119 22.4544 61.4846 22.6769 61.6809 22.97C61.8772 23.2576 61.9699 23.5832 61.9699 23.9467C61.9699 24.2181 61.9372 24.4677 61.8663 24.6956C61.8009 24.9235 61.6918 25.1514 61.55 25.3685C61.4082 25.591 61.2174 25.8243 60.9829 26.0685C60.7484 26.3127 60.2467 26.7794 59.4832 27.4631V27.512H62.1008V29.0368Z" fill="#231F20"/>
<path d="M68.0015 27.7018H67.238V29.0313H65.3948V27.7018H62.6355V26.3397L65.5093 22.1559H67.2326V26.318H67.996V27.7018H68.0015ZM65.3948 26.3126V25.5149C65.3948 25.363 65.4003 25.1622 65.4112 24.9071C65.4221 24.6521 65.433 24.5164 65.4384 24.5056H65.3839C65.2749 24.7498 65.1549 24.9723 65.0186 25.1839L64.2551 26.318H65.3948V26.3126Z" fill="#231F20"/>
</svg>
