<svg width="74" height="46" viewBox="0 0 74 46" fill="none" xmlns="http://www.w3.org/2000/svg">
<rect width="74" height="46" rx="4" fill="white"/>
<path d="M64.0653 27.9504H6.31546C4.7554 27.9504 3.63975 26.4352 4.10731 24.9432L5.47294 20.5739C5.95901 19.0263 7.38945 17.9745 9.00505 17.9745H66.7549C68.315 17.9745 69.4306 19.4896 68.9631 20.9816L67.5974 25.351C67.116 26.8986 65.6856 27.9504 64.0653 27.9504Z" fill="#2285C6"/>
<path d="M55.7001 31.912H40.4653C37.6553 31.912 35.6508 29.1875 36.4887 26.5047L38.8543 18.9011C39.7524 15.9913 42.4373 14.0128 45.4787 14.0128H60.7136C63.5235 14.0128 65.528 16.7373 64.6901 19.4201L62.3292 27.0236C61.4265 29.9288 58.7369 31.912 55.7001 31.912Z" fill="#080808"/>
<path d="M21.4624 25.9209C21.268 25.9209 21.0782 25.9209 20.8838 25.9209C20.7634 25.9209 20.7032 25.9023 20.7634 25.7448C20.893 25.4019 20.981 25.0405 21.0967 24.693C21.1569 24.5169 21.0875 24.4706 20.9254 24.4706C20.6014 24.4752 20.2773 24.4752 19.9533 24.4706C19.8005 24.4706 19.7172 24.5216 19.6709 24.6791C19.5691 25.0312 19.4441 25.3787 19.3422 25.7309C19.3006 25.8699 19.2311 25.9301 19.083 25.9255C18.7127 25.9162 18.3423 25.9162 17.972 25.9255C17.7961 25.9301 17.7683 25.8745 17.8238 25.7031C18.1155 24.8042 18.384 23.9007 18.6756 23.0018C18.8747 22.3901 18.9904 21.7461 19.2959 21.1762C20.0551 19.7815 21.2171 19.9993 22.5827 19.9946C23.1984 19.9993 23.615 20.3653 23.7076 20.9677C23.74 21.1901 23.6613 21.3986 23.5965 21.5978C23.328 22.4689 23.041 23.34 22.7679 24.2111C22.6151 24.693 22.467 25.1795 22.3281 25.666C22.2772 25.8421 22.2031 25.9487 21.9948 25.9301C21.8189 25.907 21.6383 25.9255 21.4624 25.9209ZM21.4485 22.9925C21.5921 22.9971 21.6707 22.9276 21.7124 22.7886C21.8235 22.4226 21.9346 22.0519 22.0642 21.6905C22.1198 21.5283 22.0735 21.482 21.9161 21.482C21.5689 21.4866 21.2217 21.4913 20.8745 21.482C20.7218 21.4774 20.6523 21.5469 20.6107 21.6812C20.4949 22.0612 20.3792 22.4458 20.2542 22.8257C20.2172 22.9415 20.2496 22.9879 20.3653 22.9879C20.5458 22.9925 21.2726 22.9879 21.4485 22.9925Z" fill="#F8FAFC"/>
<path d="M12.426 19.9947C13.176 19.9947 13.6713 20.6295 13.4722 21.3616C13.2963 21.9964 13.1436 22.6451 12.8565 23.2382C12.2316 24.5355 11.0511 24.5216 9.78736 24.466C9.61144 24.4568 9.53275 24.5216 9.48645 24.6746C9.37535 25.0267 9.25499 25.3742 9.15778 25.731C9.12074 25.87 9.06056 25.9256 8.92169 25.921C8.55135 25.9163 8.18101 25.9117 7.81067 25.921C7.61624 25.9256 7.58383 25.8422 7.63476 25.68C8.02824 24.4614 9.19018 20.7871 9.38461 20.1708C9.43553 20.0133 9.52349 19.9808 9.67625 19.9808C10.1392 19.9947 11.9724 19.9762 12.426 19.9947ZM11.1715 22.9926C11.4076 23.025 11.5002 22.9046 11.5557 22.7007C11.6529 22.3624 11.7502 22.0242 11.8751 21.6952C11.9307 21.5423 11.889 21.4913 11.7502 21.4913C11.3798 21.4867 11.0141 21.4867 10.6438 21.4913C10.5651 21.4913 10.4817 21.5099 10.454 21.5979C10.3243 22.0057 10.1947 22.4134 10.0697 22.8258C10.0327 22.9416 10.079 23.0019 10.204 22.9972C10.3799 22.9926 11.028 22.9787 11.1715 22.9926Z" fill="#F8FAFC"/>
<path d="M26.0729 19.99C26.2489 19.9761 26.2998 20.0548 26.2535 20.2077C26.1609 20.5182 26.0637 20.824 25.9665 21.1298C25.7859 21.6951 25.61 22.2557 25.4295 22.8164C25.3924 22.9322 25.4341 22.9878 25.5637 22.9878C25.9202 22.9832 26.272 22.9832 26.6285 22.9878C26.7812 22.9878 26.846 22.8905 26.8877 22.7654C27.1516 21.9175 27.4108 21.0649 27.67 20.217C27.721 20.0595 27.8043 19.9761 27.9895 19.9807C28.3274 19.9946 28.6653 19.99 29.0079 19.9807C29.1931 19.9761 29.2671 20.0363 29.2069 20.2263C28.9246 21.1669 28.6283 22.1028 28.3181 23.0388C28.1144 23.6828 27.3321 24.3501 26.6655 24.4103C26.4803 24.4288 26.3831 24.5076 26.3322 24.6698C26.2303 24.9988 26.1192 25.3277 26.0313 25.6613C25.985 25.8328 25.9109 25.9301 25.7165 25.9255C25.3462 25.9162 24.9758 25.9162 24.6055 25.9116C24.4712 25.9116 24.4157 25.8837 24.4712 25.7216C24.6008 25.3694 24.6981 25.0034 24.8138 24.6466C24.8555 24.5215 24.8369 24.4288 24.6888 24.4196C24.0453 24.3779 23.6565 23.7616 23.8416 23.062C24.1101 22.0936 24.4481 21.1437 24.7351 20.1799C24.7768 20.0363 24.8416 19.9714 24.9897 19.9761C25.1749 19.9946 25.897 19.9992 26.0729 19.99Z" fill="#F8FAFC"/>
<path d="M12.9166 25.9255C12.7129 25.9301 12.6713 25.8513 12.7268 25.6753C12.9629 24.9524 14.1341 21.2642 14.4767 20.1429C14.5091 20.041 14.5693 19.99 14.6757 19.99C15.0692 19.99 15.4627 19.99 15.8562 19.9854C16.0321 19.9854 16.0182 20.1012 15.9858 20.2078C15.7173 21.1298 15.4072 22.038 15.1201 22.9554C14.9859 23.3724 14.8655 23.7894 14.7267 24.2065C14.6665 24.3779 14.7267 24.4335 14.8933 24.4289C15.2405 24.4242 15.5877 24.4242 15.9349 24.4289C16.0553 24.4289 16.1062 24.3825 16.1432 24.2621C16.2497 23.8867 16.3839 23.5161 16.495 23.1408C16.5367 22.9971 16.6015 22.9369 16.7543 22.9415C17.1153 22.9508 17.4811 22.9508 17.8421 22.9415C18.0134 22.9369 18.0736 23.0064 18.0227 23.1639C17.7496 24.0257 17.4672 24.8876 17.1987 25.754C17.157 25.893 17.0737 25.9255 16.9441 25.9208C16.2682 25.9208 13.5879 25.9162 12.9166 25.9255Z" fill="#F8FAFC"/>
<path d="M34.7252 21.7507C35.4844 21.7831 35.9242 22.4596 35.702 23.1824C35.452 23.9979 35.1835 24.818 34.9567 25.6382C34.9011 25.8328 34.8224 25.9393 34.591 25.9254C34.2438 25.9023 33.9429 25.9208 33.5957 25.9208C33.4476 25.9208 33.3735 25.9115 33.4383 25.7123C33.679 24.957 33.892 24.1971 34.1142 23.4372C34.1558 23.2982 34.1095 23.2334 33.9614 23.2334C33.6142 23.238 33.267 23.2426 32.9198 23.2334C32.7717 23.2287 32.7115 23.3121 32.6791 23.4326C32.5726 23.794 32.4662 24.1554 32.3643 24.5169C32.2393 24.9524 32.1097 25.3879 31.9847 25.8235C31.9569 25.9208 31.8829 25.9254 31.8042 25.9254C31.4014 25.9254 31.0033 25.9254 30.6006 25.9254C30.4617 25.9254 30.4293 25.8745 30.4663 25.7401C30.7209 24.8783 30.9385 24.0025 31.2394 23.1592C31.5033 22.4086 32.2717 21.7924 33.1328 21.7507C33.392 21.7368 34.4567 21.7368 34.7252 21.7507Z" fill="#F8FAFC"/>
<path d="M29.7303 21.8942C29.5637 21.8988 29.5266 21.8247 29.5822 21.681C29.7396 21.2408 29.9109 20.8053 30.0451 20.3605C30.1053 20.1612 30.2303 20.1473 30.3738 20.152C30.8599 20.1751 31.3413 20.1751 31.8227 20.152C32.0496 20.1427 32.0866 20.2076 32.0079 20.4346C31.8644 20.8609 31.7209 21.2918 31.582 21.7227C31.5404 21.8571 31.4524 21.8988 31.3228 21.8988C31.0589 21.8895 29.9988 21.8895 29.7303 21.8942Z" fill="#F8FAFC"/>
<path d="M44.1086 19.5217L41.8033 26.5507C41.7662 26.6712 41.8542 26.7917 41.9792 26.7917H45.3261C45.4095 26.7917 45.4789 26.7407 45.502 26.6619L45.9696 25.1283C46.0066 25.0078 45.9187 24.8873 45.7937 24.8873H44.3494C44.2197 24.8873 44.1318 24.7622 44.1735 24.6417L45.303 21.4215C45.3308 21.3473 45.4002 21.2964 45.4789 21.2964H50.4183C50.5433 21.2964 50.6313 21.4168 50.5942 21.5373L48.9786 26.56C48.2379 28.8582 46.1038 30.4151 43.692 30.4151H40.5488C38.7341 30.4151 37.4425 28.6543 37.9888 26.9214L40.2803 19.619C41.007 17.3023 43.155 15.7223 45.5807 15.7223H52.1867L51.0664 19.2576C51.0433 19.3364 50.9692 19.3874 50.8905 19.3874H44.2846C44.2012 19.392 44.1318 19.443 44.1086 19.5217Z" fill="#EA1F24"/>
<path d="M52.0803 19.4015L49.724 26.9263C49.1824 28.6592 50.4739 30.4153 52.284 30.4153H55.4411C57.8483 30.4153 59.9778 28.8677 60.7231 26.5788L63.1812 19.0262C63.746 17.2887 62.4544 15.5048 60.6305 15.5048H57.3808C54.9504 15.5048 52.8071 17.0848 52.0803 19.4015ZM56.8484 26.7919H53.9088C53.7838 26.7919 53.6959 26.6668 53.7329 26.551L56.0059 19.5174C56.029 19.4432 56.1031 19.3876 56.1818 19.3876H59.1121C59.2371 19.3876 59.3251 19.5127 59.288 19.6286L57.029 26.6622C57.0012 26.741 56.9317 26.7919 56.8484 26.7919Z" fill="#EA1F24"/>
</svg>
