<svg width="74" height="46" viewBox="0 0 74 46" fill="none" xmlns="http://www.w3.org/2000/svg">
<rect width="74" height="46" rx="4" fill="white"/>
<path fill-rule="evenodd" clip-rule="evenodd" d="M40.3504 15.199C40.1822 15.0742 39.9885 15.014 39.7966 15.014C39.4937 15.014 39.1946 15.1645 39.0076 15.4449L33.8122 23.1897C33.5055 23.646 33.6105 24.2764 34.0473 24.5967C34.2156 24.721 34.4089 24.7808 34.6008 24.7808C34.9041 24.7808 35.2027 24.6317 35.3905 24.352L40.5847 16.6061C40.8911 16.1505 40.7864 15.5196 40.3504 15.199Z" fill="#E46F2A"/>
<path fill-rule="evenodd" clip-rule="evenodd" d="M68.5038 27.7304L62.9558 15.6289C62.7896 15.2659 62.445 15.0542 62.0855 15.0542C61.9459 15.0542 61.8043 15.0863 61.669 15.1538C61.1888 15.3953 60.9863 15.9984 61.2168 16.5016L66.7643 28.6044C66.9299 28.967 67.275 29.1782 67.635 29.1782C67.7746 29.1782 67.9162 29.1458 68.0516 29.0783C68.5318 28.8369 68.7346 28.2337 68.5038 27.7304Z" fill="#E46F2A"/>
<path fill-rule="evenodd" clip-rule="evenodd" d="M56.3882 19.9793C56.3959 19.9272 56.404 19.8741 56.404 19.8192V18.6786C56.404 18.6412 56.3967 18.6055 56.3935 18.5688C56.3935 18.5615 56.3948 18.5551 56.3948 18.5478C56.3948 16.6215 54.9 15.0542 53.0627 15.0542C53.058 15.0542 53.0525 15.0562 53.0478 15.0562C53.0417 15.0562 53.0373 15.0542 53.0316 15.0542H50.6334C50.1006 15.0542 49.6696 15.507 49.6696 16.0651C49.6696 16.6235 50.1006 17.0756 50.6334 17.0756H53.0347C53.0394 17.0756 53.0437 17.0748 53.0487 17.0748C53.0533 17.0748 53.058 17.0756 53.0627 17.0756C53.8368 17.0756 54.4667 17.7364 54.4667 18.5478C54.4667 18.5851 54.4733 18.6201 54.4775 18.6567C54.4771 18.664 54.4753 18.6714 54.4753 18.6786V19.7476C54.472 19.7769 54.4663 19.8053 54.4663 19.8354C54.4663 20.6459 53.8368 21.3068 53.0627 21.3068C53.058 21.3068 53.0533 21.3076 53.0487 21.3076C53.0437 21.3076 53.0389 21.3068 53.0347 21.3068H50.6334C50.1006 21.3068 49.6692 21.7587 49.6692 22.3168C49.6692 22.8749 50.1006 23.3277 50.6334 23.3277H53.0316C53.0367 23.3277 53.0417 23.3253 53.0467 23.3253C53.0525 23.3253 53.0572 23.3277 53.0627 23.3277C54.8537 23.3277 56.3152 21.8384 56.3882 19.9793Z" fill="#E46F2A"/>
<path fill-rule="evenodd" clip-rule="evenodd" d="M44.7176 15.0542C42.8803 15.0542 41.385 16.6215 41.385 18.5478C41.385 19.1057 41.8176 19.5578 42.3497 19.5578C42.8822 19.5578 43.3143 19.1057 43.3143 18.5478C43.3143 17.7364 43.9437 17.0756 44.7176 17.0756C45.4918 17.0756 46.1216 17.7364 46.1216 18.5478C46.1216 19.1057 46.5533 19.5578 47.0863 19.5578C47.6188 19.5578 48.0505 19.1057 48.0505 18.5478C48.0505 16.6215 46.5552 15.0542 44.7176 15.0542Z" fill="#E46F2A"/>
<mask id="mask0_455:4739" style="mask-type:alpha" maskUnits="userSpaceOnUse" x="5" y="15" width="44" height="17">
<path d="M5.14648 15.0542H48.0507V31.0282H5.14648V15.0542Z" fill="white"/>
</mask>
<g mask="url(#mask0_455:4739)">
<path fill-rule="evenodd" clip-rule="evenodd" d="M47.0863 24.6787C46.5533 24.6787 46.1216 25.132 46.1216 25.6901C46.1216 26.5013 45.4918 27.1615 44.7176 27.1615C43.9437 27.1615 43.3143 26.5013 43.3143 25.6901C43.3143 25.132 42.8822 24.6787 42.3497 24.6787C41.8176 24.6787 41.385 25.132 41.385 25.6901C41.385 27.6151 42.8803 29.1823 44.7176 29.1823C46.5552 29.1823 48.0505 27.6151 48.0505 25.6901C48.0505 25.132 47.6188 24.6787 47.0863 24.6787Z" fill="#E46F2A"/>
<path fill-rule="evenodd" clip-rule="evenodd" d="M8.47372 15.0542C6.63688 15.0542 5.14087 16.6215 5.14087 18.5478C5.14087 19.1057 5.57223 19.5578 6.10552 19.5578C6.63763 19.5578 7.06975 19.1057 7.06975 18.5478C7.06975 17.7364 7.69959 17.0756 8.47372 17.0756C9.24753 17.0756 9.87748 17.7364 9.87748 18.5478C9.87748 19.1057 10.3092 19.5578 10.842 19.5578C11.375 19.5578 11.8063 19.1057 11.8063 18.5478C11.8063 16.6215 10.3114 15.0542 8.47372 15.0542Z" fill="#E46F2A"/>
<path fill-rule="evenodd" clip-rule="evenodd" d="M10.8411 24.6787C10.3082 24.6787 9.87651 25.132 9.87651 25.6901C9.87651 26.5013 9.24656 27.1615 8.47275 27.1615C7.69862 27.1615 7.06877 26.5013 7.06877 25.6901C7.06877 25.132 6.63666 24.6787 6.10455 24.6787C5.57126 24.6787 5.13989 25.132 5.13989 25.6901C5.13989 27.6151 6.6359 29.1823 8.47275 29.1823C8.73735 29.1823 8.9941 29.1458 9.24236 29.0856L9.98317 30.5082C10.1538 30.8354 10.4723 31.0244 10.8039 31.0342C10.8123 31.035 10.8221 31.035 10.8311 31.035C10.9877 31.035 11.1451 30.9948 11.2918 30.9115C11.7603 30.6428 11.9322 30.0295 11.6766 29.54L10.9086 28.0654C11.4632 27.441 11.8053 26.6078 11.8053 25.6901C11.8053 25.132 11.374 24.6787 10.8411 24.6787Z" fill="#E46F2A"/>
</g>
<path fill-rule="evenodd" clip-rule="evenodd" d="M31.3965 24.6788C30.8647 24.6788 30.4323 25.1321 30.4323 25.6902C30.4323 26.5014 29.802 27.1616 29.0282 27.1616C28.2544 27.1616 27.6241 26.5014 27.6241 25.6902C27.6241 25.1321 27.1928 24.6788 26.6599 24.6788C26.1278 24.6788 25.6953 25.1321 25.6953 25.6902C25.6953 27.6152 27.1905 29.1824 29.0282 29.1824C30.8659 29.1824 32.3615 27.6152 32.3615 25.6902C32.3615 25.1321 31.9293 24.6788 31.3965 24.6788Z" fill="#E46F2A"/>
<path fill-rule="evenodd" clip-rule="evenodd" d="M19.2211 24.6788C18.689 24.6788 18.2576 25.1321 18.2576 25.6902C18.2576 26.5014 17.6269 27.1616 16.8528 27.1616C16.079 27.1616 15.4491 26.5014 15.4491 25.6902C15.4491 25.1321 15.0178 24.6788 14.4852 24.6788C13.9524 24.6788 13.5203 25.1321 13.5203 25.6902C13.5203 27.6152 15.0151 29.1824 16.8528 29.1824C18.6896 29.1824 20.1857 27.6152 20.1857 25.6902C20.1857 25.1321 19.754 24.6788 19.2211 24.6788Z" fill="#E46F2A"/>
<path fill-rule="evenodd" clip-rule="evenodd" d="M29.0282 15.0542C27.1905 15.0542 25.6953 16.6215 25.6953 18.5478C25.6953 19.1057 26.1278 19.5578 26.6599 19.5578C27.1928 19.5578 27.6241 19.1057 27.6241 18.5478C27.6241 17.7364 28.2544 17.0756 29.0282 17.0756C29.802 17.0756 30.4323 17.7364 30.4323 18.5478C30.4323 19.1057 30.8647 19.5578 31.3965 19.5578C31.9293 19.5578 32.3615 19.1057 32.3615 18.5478C32.3615 16.6215 30.8659 15.0542 29.0282 15.0542Z" fill="#E46F2A"/>
<path fill-rule="evenodd" clip-rule="evenodd" d="M42.3498 20.1327C42.2937 20.1327 42.2385 20.1281 42.1826 20.1225L45.6304 25.2634C45.81 24.596 46.3934 24.1042 47.0864 24.1042C47.1294 24.1042 47.1725 24.1082 47.2163 24.1114L43.7953 19.0125C43.6062 19.6608 43.0298 20.1327 42.3498 20.1327Z" fill="#E46F2A"/>
<path fill-rule="evenodd" clip-rule="evenodd" d="M35.5657 19.576V16.0651C35.5657 15.507 35.1337 15.0542 34.6011 15.0542C34.0686 15.0542 33.6365 15.507 33.6365 16.0651V22.4514L35.5657 19.576Z" fill="#E46F2A"/>
<path fill-rule="evenodd" clip-rule="evenodd" d="M26.6598 24.1041C27.0263 24.1041 27.3626 24.2427 27.6252 24.47V19.7667C27.3626 19.9948 27.0263 20.1326 26.6598 20.1326C26.2944 20.1326 25.9582 19.996 25.6963 19.7688V24.4691C25.9582 24.2418 26.2944 24.1041 26.6598 24.1041Z" fill="#E46F2A"/>
<path fill-rule="evenodd" clip-rule="evenodd" d="M68.6149 26.646V16.0651C68.6149 15.507 68.1839 15.0542 67.6511 15.0542C67.1178 15.0542 66.6865 15.507 66.6865 16.0651V22.4388L68.6149 26.646Z" fill="#E46F2A"/>
<path fill-rule="evenodd" clip-rule="evenodd" d="M50.6335 20.7313H51.6001V17.6511H50.6335C50.2686 17.6511 49.9335 17.5145 49.6709 17.2882V21.0939C49.9335 20.8686 50.2686 20.7313 50.6335 20.7313Z" fill="#E46F2A"/>
<path fill-rule="evenodd" clip-rule="evenodd" d="M58.6144 15.0542C58.0811 15.0542 57.6494 15.507 57.6494 16.0651V28.1695C57.6494 28.728 58.0811 29.1799 58.6144 29.1799C59.1477 29.1799 59.5782 28.728 59.5782 28.1695V16.0651C59.5782 15.507 59.1477 15.0542 58.6144 15.0542Z" fill="#E46F2A"/>
<path fill-rule="evenodd" clip-rule="evenodd" d="M34.6007 25.3556C34.2877 25.3556 33.9875 25.2557 33.7311 25.0678C33.6985 25.0438 33.6679 25.0162 33.6365 24.9897V28.1695C33.6365 28.728 34.0686 29.18 34.6011 29.18C35.1337 29.18 35.5657 28.728 35.5657 28.1695V24.9897C35.2969 25.2219 34.9571 25.3556 34.6007 25.3556Z" fill="#E46F2A"/>
<path fill-rule="evenodd" clip-rule="evenodd" d="M22.9383 15.0542C22.4066 15.0542 21.9741 15.507 21.9741 16.0651V28.1695C21.9741 28.728 22.4066 29.1799 22.9383 29.1799C23.4713 29.1799 23.9033 28.728 23.9033 28.1695V16.0651C23.9033 15.507 23.4713 15.0542 22.9383 15.0542Z" fill="#E46F2A"/>
<path fill-rule="evenodd" clip-rule="evenodd" d="M37.8918 21.6215L36.6177 23.5196L38.9227 28.6016C39.0882 28.9661 39.4339 29.1783 39.7949 29.1783C39.9331 29.1783 40.0742 29.1466 40.2085 29.0808C40.6894 28.8409 40.8934 28.2378 40.6646 27.7333L37.8918 21.6215Z" fill="#E46F2A"/>
<path fill-rule="evenodd" clip-rule="evenodd" d="M61.1223 17.6218V28.1695C61.1223 28.728 61.554 29.1799 62.0869 29.1799C62.6191 29.1799 63.0508 28.728 63.0508 28.1695V21.8291L61.1223 17.6218Z" fill="#E46F2A"/>
<path fill-rule="evenodd" clip-rule="evenodd" d="M50.6335 23.9024C50.2686 23.9024 49.9335 23.765 49.6709 23.5406V28.1694C49.6709 28.7279 50.103 29.1799 50.6356 29.1799C51.1677 29.1799 51.6001 28.7279 51.6001 28.1694V23.9024H50.6335Z" fill="#E46F2A"/>
<path fill-rule="evenodd" clip-rule="evenodd" d="M14.4852 24.1041C14.8514 24.1041 15.1877 24.2426 15.4502 24.4699V16.0651C15.4502 15.507 15.0178 15.0542 14.4852 15.0542C13.9524 15.0542 13.5203 15.507 13.5203 16.0651V24.469C13.7836 24.2417 14.1187 24.1041 14.4852 24.1041Z" fill="#E46F2A"/>
<mask id="mask1_455:4739" style="mask-type:alpha" maskUnits="userSpaceOnUse" x="5" y="15" width="16" height="10">
<path d="M5.14648 15.0542H20.1852V24.4699H5.14648V15.0542Z" fill="white"/>
</mask>
<g mask="url(#mask1_455:4739)">
<path fill-rule="evenodd" clip-rule="evenodd" d="M19.2213 24.1041C19.5874 24.1041 19.9233 24.2417 20.1851 24.469V16.0651C20.1851 15.507 19.7541 15.0542 19.2213 15.0542C18.6883 15.0542 18.2578 15.507 18.2578 16.0651V24.4699C18.5196 24.2417 18.8558 24.1041 19.2213 24.1041Z" fill="#E46F2A"/>
<path fill-rule="evenodd" clip-rule="evenodd" d="M6.10453 24.1041C6.4703 24.1041 6.80813 24.2427 7.0695 24.47V19.7667C6.80813 19.9948 6.4703 20.1326 6.10453 20.1326C5.73832 20.1326 5.40243 19.996 5.14062 19.7688V24.4691C5.40243 24.2418 5.73832 24.1041 6.10453 24.1041Z" fill="#E46F2A"/>
</g>
<path fill-rule="evenodd" clip-rule="evenodd" d="M10.8413 20.1326C10.4744 20.1326 10.1385 19.9948 9.87671 19.7667V24.47C10.1385 24.2418 10.4744 24.1041 10.8413 24.1041C11.207 24.1041 11.5429 24.2418 11.8047 24.4691V19.7688C11.5429 19.9948 11.207 20.1326 10.8413 20.1326Z" fill="#E46F2A"/>
</svg>
