<svg width="74" height="46" viewBox="0 0 74 46" fill="none" xmlns="http://www.w3.org/2000/svg">
<rect width="74" height="46" rx="4" fill="white"/>
<path d="M32.866 31.8871H27.8435L30.9849 12.3539H36.0072L32.866 31.8871Z" fill="#00579F"/>
<path d="M51.0735 12.8315C50.0828 12.4363 48.5115 11.9999 46.5687 11.9999C41.6088 11.9999 38.1161 14.6596 38.0947 18.4622C38.0535 21.2677 40.5953 22.826 42.4965 23.7614C44.4396 24.7173 45.1001 25.3412 45.1001 26.1933C45.0804 27.5018 43.53 28.105 42.0839 28.105C40.0787 28.105 39.0043 27.7941 37.3715 27.066L36.7102 26.7539L36.0073 31.1387C37.1853 31.6784 39.3556 32.1573 41.6088 32.1783C46.8788 32.1783 50.3097 29.5597 50.3503 25.5075C50.3704 23.2839 49.0282 21.5801 46.1345 20.1878C44.3778 19.294 43.302 18.6914 43.302 17.7769C43.3226 16.9456 44.2119 16.0941 46.1949 16.0941C47.8277 16.0524 49.0273 16.4471 49.9362 16.842L50.3904 17.0495L51.0735 12.8315Z" fill="#00579F"/>
<path d="M57.7487 24.9672C58.1623 23.845 59.7539 19.5019 59.7539 19.5019C59.733 19.5437 60.1667 18.3591 60.4147 17.6319L60.7657 19.315C60.7657 19.315 61.7168 23.9906 61.9233 24.9672C61.1384 24.9672 58.7407 24.9672 57.7487 24.9672ZM63.9483 12.3539H60.0634C58.8654 12.3539 57.9552 12.7069 57.4383 13.9746L49.978 31.8868H55.248C55.248 31.8868 56.1156 29.476 56.3021 28.9567C56.8802 28.9567 62.0068 28.9567 62.7506 28.9567C62.8948 29.6425 63.3498 31.8868 63.3498 31.8868H68.0002L63.9483 12.3539Z" fill="#00579F"/>
<path d="M23.6494 12.3539L18.7307 25.6737L18.1932 22.9723C17.2838 19.8552 14.4319 16.4686 11.2493 14.7846L15.7546 31.8664H21.0658L28.9603 12.3539H23.6494Z" fill="#00579F"/>
<path d="M14.163 12.3539H6.0823L5.99963 12.7486C12.3031 14.3695 16.4778 18.2768 18.1929 22.9731L16.4363 13.9958C16.1471 12.7483 15.2583 12.395 14.163 12.3539Z" fill="#FAA61A"/>
</svg>
