<svg width="74" height="46" viewBox="0 0 74 46" fill="none" xmlns="http://www.w3.org/2000/svg">
<rect width="74" height="46" rx="4" fill="white"/>
<path d="M59.742 26.7588C59.3291 26.7588 58.9162 26.7588 58.5032 26.7588C58.6212 26.2865 58.7785 25.8338 58.8572 25.3615C58.4443 25.7748 58.0117 26.1487 57.4808 26.4045C56.6746 26.7982 55.5539 26.9162 54.728 26.5423C54.1185 26.2668 53.7449 25.7748 53.4893 25.1647C52.6045 25.8535 51.6607 26.4636 50.5399 26.6801C49.5174 26.8966 48.2197 26.7588 47.8461 25.6173C47.8068 25.5189 47.7675 25.4205 47.7282 25.3221C47.6298 25.3221 47.6102 25.3812 47.5512 25.4402C47.0006 26.0503 46.1551 26.8769 45.2703 26.7391C44.4445 26.5817 44.4445 25.7354 44.6411 25.0663C45.0934 23.3737 45.5653 21.6812 45.9978 19.969C45.6832 19.969 45.3686 19.969 45.054 19.969C45.054 19.9887 45.054 20.0084 45.054 20.028C45.1524 20.402 45.113 20.7562 45.0147 21.1302C44.6215 22.4684 43.9333 23.7083 43.2451 24.9088C42.2226 26.5817 40.1581 30.3407 37.7986 29.5731C37.5626 29.4944 37.366 29.3763 37.248 29.1598C36.7171 28.1758 37.8575 27.3689 38.7424 27.8412C38.9783 27.9593 39.1946 28.1167 39.4306 28.2348C39.5682 28.2939 39.7255 28.2939 39.8435 28.1955C40.1384 27.979 40.3744 27.6838 40.4923 27.3295C40.571 27.0934 40.5317 26.8572 40.512 26.621C40.3154 24.9679 40.0008 23.3147 39.6075 21.6812C39.5485 21.4254 39.4699 21.1498 39.3912 20.894C39.3519 20.7365 39.2733 20.5791 39.1553 20.461C39.0963 20.402 39.057 20.3429 38.9586 20.3626C38.4867 21.9174 38.0738 23.4721 37.6216 25.0269C37.5823 25.145 37.5626 25.2434 37.6019 25.3615C37.7199 25.7157 38.0345 25.578 38.2115 25.3812C38.4278 25.1253 38.6244 24.8695 38.821 24.5939C38.939 24.6727 39.057 24.7514 39.1749 24.8301C39.0963 24.9679 39.0176 25.0859 38.939 25.204C38.2705 26.2274 37.366 27.054 36.0683 26.6997C35.616 26.5817 35.4391 26.1881 35.4587 25.7551C35.4587 25.5386 35.498 25.3024 35.5177 25.0859C35.5177 25.0466 35.5177 25.0269 35.5177 24.9482C35.2228 25.3418 35.0065 25.696 34.6525 26.0306C34.2593 26.4045 33.8267 26.6604 33.2958 26.7391C32.5487 26.8769 31.6245 26.6801 31.2706 25.9322C31.1919 25.7748 31.1526 25.637 31.074 25.4992C30.6217 26.0306 30.1302 26.6013 29.4223 26.7391C28.6948 26.8769 27.9476 26.7588 27.751 25.9519C27.692 25.696 27.692 25.4599 27.751 25.204C27.8493 24.8104 27.928 24.4365 28.0263 24.0429C28.0459 23.9838 28.0459 23.9248 28.0459 23.8461C27.4167 24.9482 26.6499 26.07 25.4111 26.562C24.6836 26.8375 23.8381 26.9162 23.1499 26.5029C23.1106 26.4833 23.0516 26.4439 22.9926 26.4242C22.973 26.4636 22.9533 26.4833 22.9533 26.5029C22.796 27.0934 22.6191 27.6641 22.4618 28.2545C22.4224 28.3923 22.4224 28.53 22.4224 28.6875C22.4421 28.9827 22.5601 29.1008 22.796 29.1598C22.973 29.1992 23.1499 29.2189 23.3466 29.2385C23.3466 29.3566 23.3466 29.4747 23.3466 29.5928C21.9505 29.5928 20.5545 29.5928 19.1584 29.5928C19.1584 29.4747 19.1584 29.3566 19.1584 29.2189C19.2371 29.1992 19.3354 29.1992 19.4141 29.1795C19.6697 29.1598 19.8663 29.0417 19.9843 28.8056C20.0629 28.6284 20.1416 28.4513 20.1809 28.2742C20.7904 25.9519 21.4 23.6099 21.9899 21.2679C22.0685 20.9333 22.1472 20.5201 21.6949 20.4217C21.5573 20.3823 21.4 20.3823 21.2623 20.3626C21.2623 20.2445 21.2623 20.1461 21.2623 20.0477C22.3831 19.9493 23.5039 19.8312 24.6246 19.6344C24.5263 20.1068 24.3494 20.5594 24.2707 21.0318C24.8606 20.3823 25.4701 19.6344 26.3746 19.477C27.2791 19.3195 28.2229 19.7132 28.4588 20.6578C28.5572 20.9924 28.5768 21.3073 28.5572 21.6615C28.5572 21.6812 28.5572 21.7009 28.5572 21.7206C28.5572 21.7206 28.5572 21.7206 28.5768 21.7403C28.6358 21.6812 28.6555 21.6025 28.6751 21.5238C28.7538 21.2482 28.8324 20.953 28.9111 20.6775C29.1864 19.5951 29.5206 18.5323 29.7762 17.4302C29.7959 17.3712 29.7959 17.3121 29.7959 17.2531C29.8156 17.0366 29.6583 16.8792 29.4813 16.8595C29.383 16.8398 29.2847 16.8398 29.1667 16.8201C29.1077 16.8201 29.0684 16.8201 28.9897 16.8004C28.9897 16.6823 28.9897 16.6036 28.9897 16.4659C30.1498 16.3478 31.2902 16.21 32.4307 15.9935C31.6638 18.9259 30.8773 21.8583 30.0908 24.7907C30.0515 24.9088 30.0318 25.0269 30.0122 25.1253C29.9729 25.3221 30.2285 25.5583 30.4054 25.4205C30.6217 25.2434 30.9363 24.9088 30.9756 24.6333C31.133 22.5668 32.7649 19.9296 34.8885 19.477C35.4587 19.3589 36.1862 19.4967 36.4615 20.0674C36.5008 20.1658 36.5402 20.2642 36.5795 20.3429C36.5991 20.3823 36.6188 20.4217 36.6581 20.461C36.7368 20.2052 36.7958 19.9493 36.8744 19.6935C36.9137 19.6935 36.9531 19.6935 36.9924 19.6935C37.6019 19.6935 38.2115 19.6935 38.8407 19.6935C38.9193 19.6935 38.9783 19.6935 39.0176 19.7722C39.0373 19.8312 39.0963 19.8116 39.1356 19.8116C39.7845 19.7328 40.4137 19.6344 41.0625 19.5754C41.1215 19.5754 41.1805 19.5754 41.2395 19.5754C41.3968 19.8312 41.5148 20.1264 41.5934 20.4217C41.9867 21.819 42.1833 23.2557 42.5176 24.653C42.8715 24.0035 43.1664 23.3541 43.481 22.7046C43.5597 22.5275 43.6187 22.3503 43.6777 22.1535C43.6973 22.0551 43.717 21.9567 43.717 21.8583C43.7367 21.6812 43.6777 21.5434 43.5597 21.4254C43.4614 21.327 43.3434 21.2482 43.2254 21.1498C43.0681 21.0318 42.9501 20.894 42.8912 20.6972C42.6552 19.8509 43.54 19.2605 44.3069 19.5163C44.4838 19.5754 44.6608 19.5754 44.8378 19.5163C45.9979 19.1818 46.804 18.2371 47.3546 17.194C47.3939 17.1153 47.4332 17.0563 47.4725 16.9776C47.6102 16.9776 47.7675 16.9776 47.9248 16.9776C47.7282 17.8041 47.5119 18.611 47.3152 19.4376C47.7478 19.4573 48.1607 19.4376 48.5933 19.4573C48.554 19.6344 48.5147 19.7919 48.4753 19.969C48.0428 19.969 47.6102 19.969 47.1579 19.969C47.1383 20.028 47.1186 20.0674 47.1186 20.1068C46.686 21.7206 46.2338 23.3344 45.8209 24.9679C45.7816 25.1253 45.7816 25.2827 45.8012 25.4402C45.8405 25.696 46.0372 25.8535 46.2928 25.7944C46.745 25.696 47.1776 25.145 47.4922 24.8301C47.5709 24.7514 47.6298 24.653 47.6298 24.5349C47.6888 22.2519 49.4978 19.8706 51.7983 19.536C52.2505 19.477 52.7028 19.4573 53.1354 19.6148C53.5483 19.7328 53.9219 20.0477 54.0202 20.4807C54.0988 21.0514 54.0005 21.5631 53.6073 21.9961C52.7814 22.9211 51.5624 23.3344 50.3826 23.5509C49.9697 23.6296 49.5568 23.6493 49.1439 23.728C48.8686 24.712 48.9079 25.8141 50.068 26.0109C50.7955 26.1487 51.7983 25.5386 52.4078 25.145C52.6635 24.9679 52.8994 24.7907 53.155 24.5939C53.214 24.5546 53.2533 24.4955 53.2533 24.4168C53.273 21.7009 55.8881 18.9456 58.6802 19.6148C59.3684 19.7919 59.9189 20.3823 59.742 21.1302C59.6437 21.6025 59.1128 21.8977 58.6605 21.7599C58.1886 21.6222 58.1493 21.0908 58.3459 20.7169C58.4049 20.6185 58.4443 20.5004 58.5032 20.402C58.5622 20.2642 58.5426 20.1855 58.4246 20.1068C58.3459 20.0674 58.2673 20.028 58.1886 20.0084C56.0651 19.7328 54.3741 23.0195 54.905 24.8104C55.1016 25.5189 55.8488 26.07 56.6353 25.9716C56.8712 25.9519 57.0679 25.8535 57.2842 25.7551C58.11 25.3812 58.6605 24.712 59.2111 24.0429C59.3291 23.9051 59.3684 23.7477 59.4274 23.5902C59.9386 21.7993 60.4695 20.0084 60.9807 18.2371C61.0397 18.0009 61.0987 17.7648 61.1577 17.5286C61.1773 17.4696 61.1773 17.4302 61.1577 17.3712C61.1184 17.1547 61.0594 17.0563 60.8431 17.0366C60.4695 16.9972 60.1156 16.9972 59.7616 16.9972C59.742 16.8595 59.801 16.7414 59.8206 16.6233C60.6071 16.5839 61.3543 16.4659 62.1015 16.2297C62.3374 16.151 62.4947 16.1313 62.7897 16.1707C62.2195 18.2371 61.5706 20.2839 61.0201 22.3503C62.1015 21.4057 63.1633 20.402 64.4807 19.7919C64.7559 19.6738 65.0312 19.5754 65.3458 19.5557C65.6801 19.5163 66.0733 19.6344 66.1323 20.0084C66.1716 20.2248 66.152 20.4217 66.093 20.6381C65.6408 22.1732 65.1492 23.6886 64.6969 25.204C64.6576 25.3615 64.6576 25.5189 64.638 25.6764C64.638 25.7157 64.6576 25.7551 64.6969 25.7944C64.7166 25.8141 64.7559 25.8338 64.7756 25.8535C64.8739 25.9322 64.9526 25.9322 65.0509 25.8732C65.2868 25.7354 65.5031 25.578 65.6997 25.4008C65.857 25.2434 65.9947 25.1056 66.152 24.9482C66.2306 25.0072 66.3093 25.0859 66.3879 25.145C65.7587 25.8732 64.6576 27.0146 63.5958 26.7588C63.3206 26.6801 63.1633 26.4833 63.1829 26.2077C63.1829 26.07 63.2223 25.9125 63.2616 25.7944C63.6352 24.5742 64.0088 23.3737 64.3824 22.1732C64.4807 21.8387 64.579 21.5238 64.6773 21.1892C64.7363 20.9727 64.7363 20.7169 64.461 20.6578C64.1267 20.5791 63.8121 20.7562 63.5369 20.9333C62.7897 21.4057 62.0818 21.9567 61.4723 22.5865C60.8038 23.2557 60.7055 23.728 60.4498 24.5939C60.1746 25.2827 59.9779 26.0109 59.742 26.7588ZM26.119 21.5631C26.1387 21.0318 25.8241 20.4807 25.2735 20.7365C24.664 20.9924 24.3297 21.7206 24.1134 22.2913C23.7595 23.2557 23.5039 24.22 23.2483 25.204C23.2089 25.3615 23.1893 25.5386 23.1696 25.7157C23.1499 26.0503 23.5235 26.2471 23.8185 26.1684C24.0151 26.129 24.1921 26.0109 24.3494 25.8732C24.6246 25.6173 24.8606 25.3024 25.0376 24.9679C25.4505 24.1806 25.7651 23.3344 25.9814 22.4684C26.0403 22.1732 26.0993 21.8583 26.119 21.5631ZM36.3042 21.0121C36.3042 20.8743 36.3042 20.7169 36.2256 20.5594C36.0879 20.3036 35.8323 20.2052 35.5767 20.3036C35.4587 20.3429 35.3407 20.402 35.2621 20.4807C35.1245 20.6185 34.9868 20.7759 34.8688 20.9333C34.161 21.9567 33.2958 23.7673 33.4335 25.0269C33.4728 25.2631 33.6301 25.4992 33.866 25.5386C34.5739 25.637 35.1048 24.6727 35.3801 24.1216C35.7143 23.4131 35.9699 22.6652 36.1666 21.8977C36.2452 21.6222 36.3239 21.3466 36.3042 21.0121ZM49.3601 23.1966C49.4388 23.1966 49.4781 23.1966 49.5371 23.1966C49.7927 23.1572 50.0483 23.1376 50.304 23.0982C51.3264 22.9014 52.4865 22.311 52.9191 21.3073C53.0567 20.9924 53.1354 20.402 52.8011 20.1855C52.7028 20.1264 52.5848 20.0871 52.4668 20.0674C50.7955 20.0084 49.7731 21.7796 49.3601 23.1966Z" fill="#353C7A"/>
<path d="M7.71492 29.455C6.39753 29.455 4.98183 29.2582 3.93971 28.412C2.56333 27.3099 2.87793 25.4599 3.74309 24.1216C4.74588 22.5472 6.24023 21.386 7.81324 20.4413C8.02952 20.3233 7.9902 20.3823 7.9902 20.1461C7.9902 19.6344 7.9902 19.1227 7.9902 18.6111C7.9902 18.3946 8.04919 18.1781 8.20649 18.0206C8.48176 17.7254 8.934 17.6664 9.30759 17.8829C9.87781 18.2174 10.448 18.552 11.0182 18.9063C11.0772 18.9456 11.1362 18.9456 11.2149 18.9259C13.2794 18.2568 15.5406 17.8829 17.6838 18.4142C20.181 19.044 20.9478 21.0514 19.6698 23.2557C18.5687 25.1056 16.7794 26.4242 14.9311 27.4476C12.7092 28.6285 10.2317 29.4157 7.71492 29.455ZM7.9902 23.4131C7.95087 23.4525 7.93121 23.4525 7.93121 23.4721C7.49864 23.9445 7.14471 24.4759 6.92842 25.0663C6.29922 26.621 7.08572 27.7035 8.71771 27.7822C11.2738 27.8216 14.1053 26.2668 15.7766 24.3578C16.4254 23.5902 17.0546 22.6652 17.0546 21.6222C17.0153 20.3233 15.7962 19.9296 14.6755 19.9887C14.1839 20.0084 13.6923 20.0674 13.2204 20.2249C13.2008 20.2249 13.1615 20.2445 13.1221 20.2642C13.7513 20.6381 14.3805 20.953 15.0097 21.3073C15.2653 21.4451 15.521 21.5828 15.7569 21.7206C16.2681 22.0158 16.2878 22.6456 15.8159 22.9801C13.6727 24.2594 11.5098 25.4992 9.36658 26.7391C9.26827 26.7982 9.16995 26.8572 9.07164 26.8966C8.71771 27.0343 8.16716 26.8572 8.04919 26.4046C8.00986 26.2668 7.9902 26.129 7.9902 25.9716C7.9902 25.1253 7.9902 24.2791 7.9902 23.4131ZM8.91434 22.2913C8.934 23.0982 8.934 23.9051 8.934 24.7317C8.934 24.8498 8.95367 24.9679 8.97333 25.086C8.99299 25.145 9.01265 25.204 9.05198 25.2434C9.13063 25.3024 9.20928 25.3615 9.30759 25.4205C9.46489 25.4992 9.62219 25.4796 9.75983 25.4008C11.2149 24.5546 12.6896 23.7083 14.1446 22.8621C14.2036 22.8227 14.2822 22.7833 14.3215 22.7243C14.5378 22.5078 14.5378 22.1732 14.3019 21.9567C14.2429 21.8977 14.1642 21.8583 14.1053 21.819C12.7289 20.9924 11.3328 20.1658 9.95646 19.3196C9.85814 19.2605 9.77949 19.2015 9.68118 19.1621C9.28793 19.0047 8.89468 19.3786 8.91434 19.7722C8.934 20.6185 8.91434 21.4647 8.91434 22.2913ZM13.2008 27.2311C13.2008 27.2115 13.1811 27.2115 13.1811 27.1918C13.0631 27.2311 12.9452 27.2705 12.8272 27.3099C11.8244 27.7035 10.7823 27.979 9.72051 28.0774C8.00986 28.2742 5.37508 28.0184 5.15879 25.8732C5.13913 25.8732 5.13913 25.8732 5.13913 25.8929C5.13913 25.9125 5.11947 25.9322 5.11947 25.9519C4.80486 26.9359 5.11947 28.0971 6.10259 28.5694C8.10817 29.5928 11.3918 28.3529 13.2008 27.2311ZM18.3524 21.0121H18.372C18.372 20.9924 18.3917 20.953 18.3917 20.9334C18.4114 20.2052 18.1361 19.6148 17.5462 19.2015C16.0715 18.2174 13.535 18.8275 12.021 19.4967C12.139 19.5754 12.2373 19.6344 12.3356 19.6935C12.4339 19.7525 12.5323 19.7722 12.6502 19.7328C14.0856 19.418 15.6389 19.2802 17.035 19.8312C17.6249 20.0871 18.0181 20.4217 18.3524 21.0121Z" fill="#353C7A"/>
<path d="M43.324 27.8806C43.5992 27.8806 43.8745 27.9987 43.9925 28.2349C44.0318 28.3136 44.0908 28.4907 43.9728 28.4907H43.7959C43.7369 28.4907 43.7172 28.471 43.6779 28.412C43.6582 28.3726 43.6189 28.3136 43.5599 28.2939C43.4026 28.1955 42.9897 28.2152 42.97 28.471C42.97 28.6285 43.1077 28.6678 43.2453 28.7072C43.4616 28.7662 43.7959 28.8056 43.9532 28.9827C44.1105 29.1402 44.1301 29.4157 44.0515 29.6125C43.8155 30.1045 42.9111 30.1045 42.6358 29.6519C42.5965 29.5731 42.5768 29.4944 42.5571 29.4157C42.5571 29.3763 42.5965 29.337 42.6358 29.337H42.8127C42.8717 29.337 42.8914 29.3567 42.9307 29.4157C42.97 29.5141 43.0487 29.5731 43.1667 29.6125C43.3043 29.6519 43.5009 29.6322 43.6189 29.5731C43.6582 29.5535 43.6779 29.5338 43.7172 29.4944C43.7565 29.4354 43.7565 29.337 43.7172 29.2779C43.6386 29.1992 43.5403 29.1795 43.4223 29.1599C43.2846 29.1205 43.0684 29.0811 42.9307 29.0024C42.7144 28.904 42.6358 28.7269 42.6358 28.4907C42.6161 28.1168 42.97 27.8806 43.324 27.8806Z" fill="#353C7A"/>
<path d="M44.3464 28.6678C44.3661 28.3529 44.4841 28.0577 44.779 27.9397C44.956 27.8609 45.2706 27.8609 45.4475 27.9397C45.8015 28.0774 45.8998 28.4514 45.8998 28.7859C45.8998 29.1205 45.9194 29.4944 45.7032 29.7503C45.5655 29.9077 45.3492 29.9864 45.1329 29.9864C44.897 29.9864 44.7004 29.9274 44.5627 29.7503C44.4054 29.5731 44.3661 29.3173 44.3661 29.0614C44.3464 28.9434 44.3464 28.8056 44.3464 28.6678ZM45.5459 28.6875C45.5262 28.4317 45.3886 28.2545 45.1133 28.2545C44.8577 28.2545 44.7004 28.4317 44.6807 28.6875C44.6807 28.8253 44.6807 29.0418 44.6807 29.1795C44.7004 29.4354 44.838 29.6125 45.1133 29.6125C45.3689 29.6125 45.5262 29.4354 45.5459 29.1795C45.5655 29.0418 45.5655 28.8253 45.5459 28.6875Z" fill="#353C7A"/>
<path d="M47.7088 27.9199C47.7481 27.9199 47.7875 27.9593 47.7875 27.9986V29.1992C47.7875 29.6715 47.5122 30.0061 47.0206 30.0061C46.6863 30.0061 46.4111 29.8486 46.3128 29.5337C46.2734 29.4353 46.2734 29.3172 46.2734 29.1992V27.9986C46.2734 27.9593 46.3128 27.9199 46.3521 27.9199H46.5684C46.6077 27.9199 46.647 27.9593 46.647 27.9986V29.1795C46.647 29.2582 46.647 29.3369 46.6667 29.3763C46.7257 29.5534 46.8633 29.6321 47.0403 29.6125C47.2172 29.6125 47.3549 29.5337 47.4139 29.3763C47.4335 29.3172 47.4532 29.2582 47.4532 29.1795V27.9986C47.4532 27.9593 47.4925 27.9199 47.5318 27.9199C47.4925 27.9199 47.7088 27.9199 47.7088 27.9199Z" fill="#353C7A"/>
<path d="M48.9279 27.9199C49.3604 27.9199 49.5964 28.1364 49.5964 28.5694C49.5964 28.8449 49.4981 29.0614 49.2425 29.1598L49.6161 29.888C49.6161 29.9077 49.6161 29.9077 49.6161 29.9273C49.6161 29.9667 49.5964 29.9864 49.5571 29.9864H49.3408C49.2818 29.9864 49.2425 29.947 49.2228 29.9077L48.8689 29.2188H48.5149V29.9077C48.5149 29.9273 48.5149 29.947 48.4953 29.9667C48.4756 29.9864 48.456 29.9864 48.4363 29.9864H48.22C48.1807 29.9864 48.1414 29.947 48.1414 29.9077V28.0183C48.1414 27.979 48.1807 27.9396 48.22 27.9396C48.2397 27.9199 48.9279 27.9199 48.9279 27.9199ZM48.5346 28.8252H48.9279C49.1245 28.8252 49.2621 28.7662 49.2621 28.5497C49.2621 28.4316 49.2228 28.3726 49.1638 28.3332C49.1048 28.2939 49.0262 28.2742 48.9279 28.2742H48.5346V28.8252Z" fill="#353C7A"/>
<path d="M51.0907 29.3173C51.0907 29.278 51.13 29.2386 51.1693 29.2386H51.3856C51.4249 29.2386 51.4643 29.278 51.4643 29.3173C51.4643 29.396 51.4446 29.4748 51.4053 29.5535C51.3659 29.6322 51.3266 29.7109 51.2676 29.77C51.1103 29.9274 50.9137 29.9865 50.6778 29.9865C50.4615 29.9865 50.2648 29.9077 50.1075 29.7503C49.9109 29.5338 49.8716 29.2189 49.8913 28.9237C49.8913 28.6285 49.9109 28.3136 50.1075 28.0971C50.2452 27.9397 50.4418 27.861 50.6778 27.861C50.9137 27.861 51.1103 27.92 51.2676 28.0774C51.3856 28.1955 51.4446 28.3727 51.4643 28.5301C51.4643 28.5498 51.4643 28.5695 51.4446 28.5891C51.4249 28.6088 51.4053 28.6088 51.3856 28.6088H51.1693C51.13 28.6088 51.0907 28.5695 51.0907 28.5301C51.071 28.3923 50.9727 28.2939 50.8547 28.2349C50.5205 28.1365 50.2648 28.2939 50.2452 28.6482C50.2452 28.7269 50.2452 28.8056 50.2452 28.8843C50.2452 29.0418 50.2452 29.1599 50.2845 29.2976C50.3435 29.4748 50.5008 29.5732 50.6778 29.5732C50.8744 29.6322 51.071 29.5141 51.0907 29.3173Z" fill="#353C7A"/>
<path d="M53.0175 29.5928C53.0569 29.5928 53.0962 29.6321 53.0962 29.6715V29.888C53.0962 29.9077 53.0962 29.9273 53.0765 29.947C53.0569 29.9667 53.0372 29.9667 53.0175 29.9667H51.8575C51.8181 29.9667 51.7788 29.9273 51.7788 29.888V27.9986C51.7788 27.979 51.7788 27.9593 51.7985 27.9396C51.8181 27.9199 51.8378 27.9199 51.8575 27.9199H52.9979C53.0372 27.9199 53.0765 27.9593 53.0765 27.9986V28.2151C53.0765 28.2545 53.0372 28.2939 52.9979 28.2939H52.1327V28.7662H52.9389C52.9782 28.7662 53.0175 28.8055 53.0175 28.8449V29.0614C53.0175 29.1008 52.9782 29.1401 52.9389 29.1401H52.1327V29.6321H53.0175V29.5928Z" fill="#353C7A"/>
<path d="M53.9614 28.6678C53.9811 28.3529 54.0991 28.0577 54.394 27.9397C54.571 27.8609 54.8856 27.8609 55.0625 27.9397C55.4165 28.0774 55.5148 28.4514 55.5148 28.7859C55.5148 29.1205 55.5344 29.4944 55.3181 29.7503C55.1805 29.9077 54.9642 29.9864 54.7479 29.9864C54.512 29.9864 54.3153 29.9274 54.1777 29.7503C54.0204 29.5731 53.9811 29.3173 53.9811 29.0614C53.9614 28.9434 53.9614 28.8056 53.9614 28.6678ZM55.1608 28.6875C55.1412 28.4317 55.0035 28.2545 54.7283 28.2545C54.4727 28.2545 54.3153 28.4317 54.2957 28.6875C54.2957 28.8253 54.2957 29.0418 54.2957 29.1795C54.3153 29.4354 54.453 29.6125 54.7283 29.6125C54.9839 29.6125 55.1412 29.4354 55.1608 29.1795C55.1805 29.0418 55.1805 28.8253 55.1608 28.6875Z" fill="#353C7A"/>
<path d="M57.0877 27.9199C57.1271 27.9199 57.1664 27.9593 57.1664 27.9986V28.2151C57.1664 28.2545 57.1271 28.2939 57.0877 28.2939H56.2422V28.8646H57.0287C57.0681 28.8646 57.1074 28.904 57.1074 28.9433V29.1598C57.1074 29.1795 57.1074 29.1992 57.0877 29.2188C57.0681 29.2385 57.0484 29.2385 57.0287 29.2385H56.2422V29.9077C56.2422 29.947 56.2029 29.9864 56.1636 29.9864H55.9473C55.908 29.9864 55.8687 29.947 55.8687 29.9077V28.0183C55.8687 27.9986 55.8687 27.979 55.8883 27.9593C55.908 27.9396 55.9276 27.9396 55.9473 27.9396H57.0877V27.9199Z" fill="#353C7A"/>
<path d="M58.6606 27.8806C58.9359 27.8806 59.2112 27.9987 59.3292 28.2349C59.3685 28.3136 59.4275 28.4907 59.3095 28.4907H59.1325C59.0735 28.4907 59.0539 28.471 59.0146 28.412C58.9949 28.3726 58.9556 28.3136 58.8966 28.2939C58.7393 28.1955 58.3264 28.2152 58.3067 28.471C58.3067 28.6285 58.4444 28.6678 58.582 28.7072C58.7983 28.7662 59.1325 28.8056 59.2898 28.9827C59.4471 29.1402 59.4668 29.4157 59.3881 29.6125C59.1522 30.1045 58.2477 30.1045 57.9724 29.6519C57.9331 29.5731 57.9135 29.4944 57.8938 29.4157C57.8938 29.3763 57.9331 29.337 57.9724 29.337H58.1494C58.2084 29.337 58.2281 29.3567 58.2674 29.4157C58.3067 29.5141 58.3854 29.5731 58.5033 29.6125C58.641 29.6519 58.8376 29.6322 58.9556 29.5731C58.9949 29.5535 59.0146 29.5338 59.0539 29.4944C59.0932 29.4354 59.0932 29.337 59.0539 29.2779C58.9752 29.1992 58.8769 29.1795 58.7589 29.1599C58.6213 29.1205 58.405 29.0811 58.2674 29.0024C58.0511 28.904 57.9724 28.7269 57.9724 28.4907C57.9528 28.1168 58.3067 27.8806 58.6606 27.8806Z" fill="#353C7A"/>
<path d="M61.1973 27.9199C61.2367 27.9199 61.276 27.9593 61.276 27.9986V29.1992C61.276 29.6715 61.0007 30.0061 60.5091 30.0061C60.1749 30.0061 59.8996 29.8486 59.8013 29.5337C59.762 29.4353 59.762 29.3172 59.762 29.1992V27.9986C59.762 27.9593 59.8013 27.9199 59.8406 27.9199H60.0569C60.0962 27.9199 60.1356 27.9593 60.1356 27.9986V29.1795C60.1356 29.2582 60.1356 29.3369 60.1552 29.3763C60.2142 29.5534 60.3518 29.6321 60.5288 29.6125C60.7058 29.6125 60.8434 29.5337 60.9024 29.3763C60.9221 29.3172 60.9417 29.2582 60.9417 29.1795V27.9986C60.9417 27.9593 60.981 27.9199 61.0204 27.9199C60.981 27.9199 61.1973 27.9199 61.1973 27.9199Z" fill="#353C7A"/>
<path d="M62.8097 29.3173C62.8097 29.278 62.849 29.2386 62.8883 29.2386H63.1046C63.1439 29.2386 63.1833 29.278 63.1833 29.3173C63.1833 29.396 63.1636 29.4748 63.1243 29.5535C63.0849 29.6322 63.0456 29.7109 62.9866 29.77C62.8293 29.9274 62.6327 29.9865 62.3968 29.9865C62.1805 29.9865 61.9838 29.9077 61.8265 29.7503C61.6299 29.5338 61.5906 29.2189 61.6102 28.9237C61.6102 28.6285 61.6299 28.3136 61.8265 28.0971C61.9642 27.9397 62.1608 27.861 62.3968 27.861C62.6327 27.861 62.8293 27.92 62.9866 28.0774C63.1046 28.1955 63.1636 28.3727 63.1833 28.5301C63.1833 28.5498 63.1833 28.5695 63.1636 28.5891C63.1439 28.6088 63.1243 28.6088 63.1046 28.6088H62.8883C62.849 28.6088 62.8097 28.5695 62.8097 28.5301C62.79 28.3923 62.6917 28.2939 62.5737 28.2349C62.2394 28.1365 61.9838 28.2939 61.9642 28.6482C61.9642 28.7269 61.9642 28.8056 61.9642 28.8843C61.9642 29.0418 61.9642 29.1599 62.0035 29.2976C62.0625 29.4748 62.2198 29.5732 62.3968 29.5732C62.5737 29.6322 62.7703 29.5141 62.8097 29.3173Z" fill="#353C7A"/>
<path d="M64.6185 29.3173C64.6185 29.278 64.6578 29.2386 64.6972 29.2386H64.9134C64.9528 29.2386 64.9921 29.278 64.9921 29.3173C64.9921 29.396 64.9724 29.4748 64.9331 29.5535C64.8938 29.6322 64.8545 29.7109 64.7955 29.77C64.6382 29.9274 64.4415 29.9865 64.2056 29.9865C63.9893 29.9865 63.7927 29.9077 63.6354 29.7503C63.4387 29.5338 63.3994 29.2189 63.4191 28.9237C63.4191 28.6285 63.4387 28.3136 63.6354 28.0971C63.773 27.9397 63.9696 27.861 64.2056 27.861C64.4415 27.861 64.6382 27.92 64.7955 28.0774C64.9134 28.1955 64.9724 28.3727 64.9921 28.5301C64.9921 28.5498 64.9921 28.5695 64.9724 28.5891C64.9528 28.6088 64.9331 28.6088 64.9134 28.6088H64.6972C64.6578 28.6088 64.6185 28.5695 64.6185 28.5301C64.5988 28.3923 64.5005 28.2939 64.3826 28.2349C64.0483 28.1365 63.7927 28.2939 63.773 28.6482C63.773 28.7269 63.773 28.8056 63.773 28.8843C63.773 29.0418 63.773 29.1599 63.8123 29.2976C63.8713 29.4748 64.0286 29.5732 64.2056 29.5732C64.4022 29.6322 64.5988 29.5141 64.6185 29.3173Z" fill="#353C7A"/>
<path d="M66.5454 29.5928C66.5847 29.5928 66.624 29.6321 66.624 29.6715V29.888C66.624 29.9077 66.624 29.9273 66.6044 29.947C66.5847 29.9667 66.565 29.9667 66.5454 29.9667H65.3853C65.346 29.9667 65.3066 29.9273 65.3066 29.888V27.9986C65.3066 27.979 65.3066 27.9593 65.3263 27.9396C65.346 27.9199 65.3656 27.9199 65.3853 27.9199H66.5257C66.565 27.9199 66.6044 27.9593 66.6044 27.9986V28.2151C66.6044 28.2545 66.565 28.2939 66.5257 28.2939H65.6606V28.7662H66.4667C66.5061 28.7662 66.5454 28.8055 66.5454 28.8449V29.0614C66.5454 29.1008 66.5061 29.1401 66.4667 29.1401H65.6606V29.6321H66.5454V29.5928Z" fill="#353C7A"/>
<path d="M67.5876 27.8806C67.8629 27.8806 68.1382 27.9987 68.2562 28.2349C68.2955 28.3136 68.3545 28.4907 68.2365 28.4907H68.0595C68.0006 28.4907 67.9809 28.471 67.9416 28.412C67.9219 28.3726 67.8826 28.3136 67.8236 28.2939C67.6663 28.1955 67.2534 28.2152 67.2337 28.471C67.2337 28.6285 67.3714 28.6678 67.509 28.7072C67.7253 28.7662 68.0595 28.8056 68.2168 28.9827C68.3741 29.1402 68.3938 29.4157 68.3152 29.6125C68.0792 30.1045 67.1747 30.1045 66.8994 29.6519C66.8601 29.5731 66.8405 29.4944 66.8208 29.4157C66.8208 29.3763 66.8601 29.337 66.8994 29.337H67.0764C67.1354 29.337 67.1551 29.3567 67.1944 29.4157C67.2337 29.5141 67.3124 29.5731 67.4303 29.6125C67.568 29.6519 67.7646 29.6322 67.8826 29.5731C67.9219 29.5535 67.9416 29.5338 67.9809 29.4944C68.0202 29.4354 68.0202 29.337 67.9809 29.2779C67.9022 29.1992 67.8039 29.1795 67.686 29.1599C67.5483 29.1205 67.332 29.0811 67.1944 29.0024C66.9781 28.904 66.8994 28.7269 66.8994 28.4907C66.8798 28.1168 67.2337 27.8806 67.5876 27.8806Z" fill="#353C7A"/>
<path d="M69.2983 27.8806C69.5736 27.8806 69.8489 27.9987 69.9669 28.2349C70.0062 28.3136 70.0652 28.4907 69.9472 28.4907H69.7702C69.7113 28.4907 69.6916 28.471 69.6523 28.412C69.6326 28.3726 69.5933 28.3136 69.5343 28.2939C69.377 28.1955 68.9641 28.2152 68.9444 28.471C68.9444 28.6285 69.082 28.6678 69.2197 28.7072C69.436 28.7662 69.7702 28.8056 69.9275 28.9827C70.0848 29.1402 70.1045 29.4157 70.0259 29.6125C69.7899 30.1045 68.8854 30.1045 68.6101 29.6519C68.5708 29.5731 68.5512 29.4944 68.5315 29.4157C68.5315 29.3763 68.5708 29.337 68.6101 29.337H68.7871C68.8461 29.337 68.8658 29.3567 68.9051 29.4157C68.9444 29.5141 69.0231 29.5731 69.141 29.6125C69.2787 29.6519 69.4753 29.6322 69.5933 29.5731C69.6326 29.5535 69.6523 29.5338 69.6916 29.4944C69.7309 29.4354 69.7309 29.337 69.6916 29.2779C69.6129 29.1992 69.5146 29.1795 69.3967 29.1599C69.259 29.1205 69.0427 29.0811 68.9051 29.0024C68.6888 28.904 68.6101 28.7269 68.6101 28.4907C68.5905 28.1168 68.9444 27.8806 69.2983 27.8806Z" fill="#353C7A"/>
</svg>
