<svg width="74" height="46" viewBox="0 0 74 46" fill="none" xmlns="http://www.w3.org/2000/svg">
<rect width="74" height="46" rx="4" fill="white"/>
<path fill-rule="evenodd" clip-rule="evenodd" d="M50.0332 22.9547H44.124L42.1738 18.2732H52.0002L50.0332 22.9547ZM51.0732 25.3754L48.8177 30.0569H46.8088L44.5717 25.3754H51.0732ZM41.0993 25.3754L43.102 30.0845H25.6973L23.6087 25.3754H41.0993ZM21.9843 18.3504H37.1931L35.219 23.0319H24.0421L21.9843 18.3504Z" fill="#00B27A"/>
<path fill-rule="evenodd" clip-rule="evenodd" d="M35.1836 23.0415L34.2872 25.3822H28.8466L29.7759 23.0415H35.1836ZM26.5775 30.1093H32.4681L30.0481 35.4848H24.0736L26.5775 30.1093ZM34.9298 9.7041H39.2582L50.2441 35.4525H44.2472L37.1907 18.3678H31.2331L34.9298 9.7041Z" fill="#231F20"/>
</svg>
