<svg width="74" height="46" viewBox="0 0 74 46" fill="none" xmlns="http://www.w3.org/2000/svg">
<rect width="74" height="46" rx="4" fill="white"/>
<path d="M36.7912 6.00203C39.4244 6.00203 41.9293 6.59999 44.1767 7.66967C44.5291 7.82685 44.8837 8.01611 45.2352 8.20554L43.6949 9.56068L41.3839 7.19799L37.4033 10.6614L35.0589 8.17452L27.7381 14.6298L32.4258 19.6989L30.5956 21.2713L35.2196 26.3404L33.3894 27.9149L40.0052 35.1254L43.9201 31.5977L47.325 35.3779C46.6503 35.8817 45.912 36.3864 45.11 36.8261C42.6697 38.1813 39.8436 38.9655 36.8245 38.9655C27.5452 38.9655 20.0001 31.5687 20.0001 22.4693C19.9686 13.4329 27.5139 6 36.7922 6L36.7912 6.00203ZM33.7085 21.4606L37.7234 17.933L41.3193 21.8703L37.3042 25.3959L33.7085 21.4606ZM36.5659 28.2625L40.5496 24.7038L44.1767 28.6401L40.1617 32.1677L36.5659 28.2625ZM30.8531 14.7539L34.865 11.2283L38.4628 15.1636L34.4479 18.6913L30.8531 14.7539ZM38.2052 12.866L41.1899 10.2208L43.8878 13.1484L40.9 15.8247L38.2032 12.866H38.2052ZM43.5343 24.9872L46.5189 22.343L49.2168 25.3017L46.2301 27.948L43.5343 24.9872ZM46.1665 30.9387L49.1532 28.2935L51.849 31.2212L48.8632 33.8974L46.1665 30.9387ZM47.3866 17.3351L49.3785 15.5733L51.1753 17.5254L49.1855 19.2882L47.3866 17.3351ZM44.8181 11.5108L46.8099 9.71699L48.6088 11.7011L46.617 13.4649L44.8181 11.5108ZM49.9249 23.1624L51.9146 21.3986L53.7438 23.3507L51.7207 25.1134L49.9249 23.1624ZM40.9668 18.7844L43.9524 16.1402L46.6493 19.0679L43.6646 21.7131L40.9668 18.7844Z" fill="#006CB4"/>
</svg>
