<svg width="74" height="46" viewBox="0 0 74 46" fill="none" xmlns="http://www.w3.org/2000/svg">
<rect width="74" height="46" rx="4" fill="white"/>
<path d="M43.8923 11.3451H30.2653V34.6095H43.8923V11.3451Z" fill="#FF5F00"/>
<path d="M31.6692 22.9795C31.6675 20.7393 32.1533 18.5281 33.0899 16.5132C34.0265 14.4983 35.3893 12.7325 37.0752 11.3493C34.9871 9.63409 32.4795 8.56748 29.839 8.27141C27.1985 7.97534 24.5315 8.46176 22.1429 9.67507C19.7543 10.8884 17.7405 12.7796 16.3316 15.1327C14.9227 17.4857 14.1755 20.2056 14.1755 22.9815C14.1755 25.7574 14.9227 28.4773 16.3316 30.8304C17.7405 33.1834 19.7543 35.0747 22.1429 36.288C24.5315 37.5013 27.1985 37.9877 29.839 37.6917C32.4795 37.3956 34.9871 36.329 37.0752 34.6137C35.3888 33.2302 34.0257 31.4637 33.089 29.448C32.1524 27.4323 31.6669 25.2203 31.6692 22.9795Z" fill="#EB001B"/>
<path d="M59.9775 22.9796C59.9775 25.7557 59.2301 28.4757 57.821 30.8289C56.4118 33.182 54.3977 35.0732 52.0088 36.2864C49.6199 37.4995 46.9527 37.9856 44.312 37.6891C41.6713 37.3926 39.1637 36.3255 37.0758 34.6097C38.761 33.2254 40.1234 31.459 41.0603 29.444C41.9971 27.429 42.4839 25.2179 42.4839 22.9775C42.4839 20.7371 41.9971 18.526 41.0603 16.511C40.1234 14.496 38.761 12.7297 37.0758 11.3453C39.1637 9.62953 41.6713 8.5624 44.312 8.2659C46.9527 7.96941 49.6199 8.45551 52.0088 9.66865C54.3977 10.8818 56.4118 12.773 57.821 15.1261C59.2301 17.4793 59.9775 20.1993 59.9775 22.9755V22.9796Z" fill="#F79E1B"/>
</svg>
