<svg width="74" height="46" viewBox="0 0 74 46" fill="none" xmlns="http://www.w3.org/2000/svg">
<rect width="74" height="46" rx="4" fill="white"/>
<path d="M30.7533 35.089C30.6367 34.7717 30.4253 34.5554 30.2722 34.2743C29.9005 33.7912 29.4631 33.373 29.0258 32.9549C28.8727 32.9044 28.8071 32.7602 28.6613 32.7025C28.5665 32.58 28.4135 32.5151 28.2895 32.4214C28.0417 32.2339 27.772 32.0753 27.495 31.9167C26.9702 31.5851 26.3215 31.376 25.68 31.1597C24.9875 30.9939 24.2586 30.8713 23.5005 30.7704C22.7498 30.6622 21.999 30.5613 21.4304 30.2657C21.1024 30.172 20.8619 29.9917 20.5776 29.8475C20.3152 29.6745 20.0309 29.5303 19.8122 29.314C19.5425 29.1554 19.3749 28.8886 19.1635 28.6723C19.0906 28.5281 18.9667 28.4416 18.9084 28.283C18.8355 28.2542 18.8136 28.1677 18.7699 28.1172C18.7188 28.0595 18.7188 27.9442 18.6314 27.9225C18.5876 28.2181 18.6022 28.5714 18.6314 28.8742C18.6678 29.004 18.6824 29.1626 18.7188 29.2924C18.7407 29.4077 18.85 29.5952 18.8063 29.6817C16.5321 29.5663 14.8701 28.8526 13.4269 27.9153C12.7125 27.4467 12.1002 26.8771 11.5317 26.2643C11.2839 25.9255 11.0142 25.601 10.7955 25.2261C10.5695 24.8584 10.38 24.4403 10.1759 24.0509C9.8406 23.2074 9.52716 22.3422 9.41054 21.2824C9.25746 20.2947 9.29391 19.033 9.51988 18.1174C9.60006 17.6127 9.76771 17.1873 9.91349 16.7475C10.0083 16.5457 10.1103 16.3438 10.1978 16.1347C10.3217 15.9617 10.3873 15.7238 10.5404 15.5724C10.9558 14.8009 11.5754 14.2242 12.2096 13.669C12.8948 13.1715 13.6747 12.7678 14.615 12.5227C15.5189 12.3208 16.7508 12.2847 17.7275 12.4938C19.7102 12.8976 21.2044 13.7772 22.4582 14.9019C23.7265 16.0049 24.7033 17.4036 25.3739 19.1051C26.0663 20.7201 26.3069 23.2362 25.6873 25.0675C25.4322 24.9233 25.1771 24.7863 24.9219 24.6493C24.6158 24.5628 24.3169 24.4619 23.9598 24.4258C23.5297 24.4186 23.1069 24.4258 22.8299 24.5628C23.3912 24.5051 23.8431 24.6566 24.193 24.7863C24.3971 24.8656 24.5137 24.9161 24.6741 25.0098C24.9875 25.1901 25.2645 25.3559 25.4978 25.601C26.1611 26.1778 26.6349 26.942 26.8609 27.9514C26.8609 27.9802 26.8973 27.973 26.89 27.9225C26.9192 27.9153 26.9338 27.8937 26.9483 27.8649C26.9848 27.8216 27.0285 27.7783 27.065 27.7279C27.1378 27.6414 27.2107 27.5548 27.2618 27.4467C27.4148 27.2665 27.5388 27.0646 27.6554 26.8555C27.9251 26.4662 28.1292 26.0192 28.3624 25.5938C28.7633 24.6854 29.0914 23.7049 29.2955 22.5946C29.7036 20.1289 29.2153 17.7929 28.3624 16.0698C27.4877 14.3323 26.2631 12.9408 24.6814 11.8954C23.0851 10.8572 21.219 10.093 18.6532 10.0209C18.6387 9.97044 18.6168 10.0281 18.5658 10.0209C17.21 9.97765 16.1166 10.1651 15.0305 10.4391C14.5275 10.6049 14.0027 10.7491 13.5581 10.9726C13.0478 11.1384 12.6396 11.4124 12.1731 11.6142C12.0055 11.7729 11.7504 11.8522 11.5754 12.0036C11.3495 12.1117 11.1818 12.2847 10.9558 12.3929C10.5914 12.7101 10.2051 12.9913 9.84789 13.3157C9.49801 13.633 9.19186 13.9934 8.85656 14.3251C8.80553 14.4404 8.71806 14.5197 8.63059 14.6063C8.57228 14.7144 8.49939 14.8081 8.40463 14.8874C8.36818 15.0172 8.25156 15.0677 8.20782 15.1975C8.11306 15.2696 8.09119 15.4137 7.98186 15.4786C7.8871 15.7093 7.71944 15.8752 7.61011 16.0915C7.4789 16.3005 7.37685 16.5312 7.24565 16.7331C7.04155 17.2017 6.82287 17.656 6.65522 18.1606C6.48028 18.6509 6.3345 19.17 6.23245 19.7323C6.12311 20.2586 6.02106 20.9436 6.03564 21.4987C5.96275 21.7006 6.02106 22.0755 6.03564 22.3134C6.03564 22.3567 6.00649 22.3711 6.00649 22.3999C6.00649 22.6667 6.07938 22.9911 6.09396 23.1569C6.15227 23.7698 6.26161 24.3393 6.43655 24.8368C6.54589 25.3919 6.77914 25.8245 6.94679 26.322C7.20191 26.7401 7.37685 27.2376 7.683 27.6125C7.90896 28.0523 8.22969 28.3984 8.53583 28.7589C8.86385 29.1049 9.19186 29.4582 9.58548 29.7394C10.3071 30.3594 11.1527 30.8569 12.0784 31.2822C13.8059 32.1114 16.3863 32.6521 18.7043 32.5151C19.2947 32.4358 19.8924 32.3637 20.4318 32.2339C20.9275 32.0537 21.5033 31.9455 22.101 31.8734C23.4641 31.7869 24.6449 31.9095 25.6946 32.2123C26.7588 32.4935 27.6773 32.9188 28.4718 33.474C28.8945 33.7191 29.2444 34.0363 29.6016 34.3391C29.9661 34.6492 30.2576 35.0313 30.5929 35.3773C30.6367 35.5071 30.7241 35.6008 30.7897 35.7162C30.8772 35.8099 30.8335 36.0262 31.0449 35.9974C31.1761 35.8676 31.023 35.6801 31.0157 35.5215C30.8845 35.3845 30.8553 35.2043 30.7533 35.089Z" fill="#FCB316"/>
<path d="M25.5498 27.2906C25.5196 27.2906 25.5121 27.3129 25.4894 27.3203C25.4366 27.4315 25.4592 27.6095 25.4894 27.7207C25.648 28.0396 25.7009 28.4549 26.0483 28.5883C26.2144 28.5364 26.1993 28.2991 26.1917 28.0693C26.1162 27.7875 26.0105 27.5353 25.8368 27.35C25.716 27.3055 25.6329 27.2313 25.5498 27.2906ZM23.4958 28.0989C23.4958 28.0841 23.4731 28.0693 23.4656 28.0989C23.1786 28.0618 23.0804 28.2176 22.9369 28.3288C22.6877 28.9739 23.088 29.6043 23.7903 29.5968C24.0697 29.5301 24.2434 29.3521 24.2887 29.0481C24.2509 28.5068 24.0168 28.1582 23.4958 28.0989Z" fill="#FCB316"/>
<path d="M39.835 26.1661C39.9439 26.6212 40.1764 26.9462 40.4379 27.2496C40.6994 27.5529 41.0045 27.8058 41.375 27.9935C41.7237 28.2102 42.1014 28.3908 42.5373 28.5136C42.748 28.5858 42.9514 28.6725 43.2129 28.7014C43.3945 28.8025 43.6124 28.8531 43.6269 29.1131C43.6197 29.4237 43.409 29.5393 43.1402 29.597C42.8715 29.5393 42.5373 29.5465 42.3121 29.4454C41.7455 29.3804 41.2878 29.1998 40.8084 29.0336C39.8931 28.6797 39.1231 28.1669 38.4838 27.5385C38.3531 27.3218 38.1714 27.1485 38.0334 26.939C37.8954 26.7295 37.801 26.4767 37.6557 26.2673C36.537 26.1228 35.7742 25.6172 35.1059 25.0321C34.4884 24.3315 33.9945 23.4937 33.7911 22.3813C33.5514 21.3123 33.624 19.9761 33.9073 18.9432C34.5248 16.9425 35.8178 15.6134 38.2586 15.4329C38.9342 15.4545 39.5226 15.534 40.0602 15.7362C40.605 15.9312 41.1208 16.2924 41.5276 16.668C41.5639 16.6969 41.5784 16.7041 41.6002 16.7402C41.6874 16.863 41.898 17.0364 42.0143 17.188C42.0361 17.2169 42.0288 17.2675 42.0506 17.3036C42.0942 17.3686 42.1596 17.3975 42.2031 17.4553C42.2249 17.4914 42.2177 17.5347 42.2395 17.5636C42.2685 17.607 42.3048 17.672 42.3484 17.7514C42.363 17.7803 42.4138 17.802 42.4211 17.8237C42.4864 17.9464 42.5155 18.0981 42.5736 18.2354C42.6317 18.3798 42.7116 18.5026 42.7625 18.6471C42.9078 19.0732 43.0022 19.5788 43.0603 20.0989C43.2056 21.6012 42.9078 22.9447 42.3484 23.9415C42.0869 24.4615 41.7237 24.8877 41.2951 25.2488C40.9028 25.6605 40.3653 25.9061 39.835 26.1661ZM38.0334 16.7619C37.7065 16.7836 37.5104 16.9352 37.2416 17.0219C37.0673 17.1808 36.8493 17.3036 36.7186 17.5058C36.5007 17.6286 36.4425 17.9031 36.2682 18.062C36.1229 18.4232 35.9849 18.8276 35.8905 19.2971C35.8033 19.7594 35.7452 20.2795 35.7379 20.7923C35.7306 22.078 36.0067 23.3564 36.5224 24.1148C36.8276 24.4832 37.198 24.7866 37.6484 25.0105C37.9099 25.0321 38.1133 25.1188 38.3966 25.126C38.5565 25.0683 38.818 25.126 38.9197 25.0105C39.1521 25.0249 39.203 24.8732 39.4064 24.8588C39.5153 24.7504 39.6316 24.6638 39.7841 24.5988C39.9221 24.4471 40.0529 24.2954 40.1982 24.1509C40.2708 24.0426 40.3144 23.8909 40.4234 23.8115C41.0772 22.5691 41.1498 20.2939 40.7212 18.8493C40.5614 18.322 40.3362 17.8959 40.082 17.542C39.8059 17.2603 39.479 17.0219 39.1085 16.8341C38.8107 16.7691 38.5274 16.6897 38.1351 16.7258C38.1133 16.7258 38.0915 16.733 38.0988 16.7619C38.0843 16.7619 38.0625 16.7619 38.0334 16.7619ZM45.9588 15.7146C46.5472 15.7362 47.2373 15.664 47.7603 15.7507C47.8766 15.9312 47.833 16.1479 47.833 16.3502C47.8766 19.0877 47.833 22.0274 47.833 24.8227C47.833 25.0466 47.8402 25.2777 47.833 25.4944C47.8257 25.6822 47.8766 25.8845 47.7603 26.0578C47.4988 26.1228 47.1211 26.0939 46.7869 26.0939C46.431 26.0939 46.0823 26.1445 45.8498 26.0217C45.7844 22.7136 45.7844 19.1455 45.8498 15.8301C45.8644 15.7723 45.9007 15.7362 45.9588 15.7146ZM50.4627 15.7146H52.2279C52.3877 15.9312 52.4385 16.2563 52.4894 16.5741C53.0197 18.5821 53.5427 20.5973 54.0294 22.6558C54.1457 22.6702 54.1093 22.533 54.1457 22.468C54.1965 22.4174 54.1675 22.2947 54.2183 22.2441C54.2401 22.078 54.3418 21.9913 54.3345 21.7963C54.4653 21.5435 54.5089 21.1968 54.6324 20.9367C54.7849 20.33 54.9883 19.7666 55.1627 19.1816C55.3297 18.5748 55.5549 18.0259 55.6857 17.3903C55.9327 16.8774 55.9908 16.1768 56.2886 15.7146H57.0369C57.3056 16.2202 57.4073 16.8919 57.6398 17.4336C57.7923 18.0403 58.003 18.5893 58.1628 19.1888C58.5333 20.3517 58.9183 21.5001 59.2525 22.6991C59.405 22.4752 59.405 22.0996 59.514 21.8396C59.5794 21.5435 59.6375 21.2401 59.7392 20.9801C60.0298 19.7955 60.3058 18.6037 60.6399 17.4697C60.7634 16.8774 60.8869 16.2707 61.0903 15.7507C61.5262 15.6857 62.1945 15.6857 62.6304 15.7507C62.6667 16.1913 62.4633 16.668 62.3325 17.058C62.2599 17.5347 62.0856 17.9031 61.9911 18.3654C61.7223 19.2105 61.5189 20.1061 61.2429 20.944C61.0322 21.8396 60.7489 22.663 60.531 23.5587C60.3857 23.9704 60.284 24.4254 60.1532 24.866C60.008 25.2705 59.9571 25.7689 59.7392 26.1011H58.6859C58.4171 25.6316 58.3226 24.996 58.0829 24.4976C57.5599 22.8508 56.9787 21.269 56.4702 19.6077C56.2959 19.7883 56.2959 20.1567 56.1724 20.3878C56.0925 20.6695 56.0126 20.9512 55.9109 21.2112C55.7656 21.7818 55.5477 22.2658 55.4242 22.8508C55.2135 23.3636 55.061 23.9343 54.9011 24.4976C54.6832 24.9888 54.6033 25.6172 54.3345 26.065C54.0585 26.1517 53.6226 26.0795 53.2812 26.1011C53.0197 25.805 52.9906 25.2705 52.8308 24.866C52.7073 24.4471 52.6202 23.9848 52.4603 23.5948C52.2569 22.6847 51.9518 21.8829 51.7484 20.9801C51.4797 20.1422 51.2472 19.2682 51.0002 18.4015C50.8622 17.9898 50.7605 17.5492 50.6225 17.1303C50.5571 16.6824 50.252 16.2779 50.361 15.7868C50.3755 15.7507 50.4191 15.729 50.4627 15.7146ZM65.2891 15.7146C65.8775 15.7362 66.5604 15.664 67.0907 15.7507C67.2214 16.1407 67.1633 16.5596 67.1633 16.9786V24.8155C67.1633 25.2416 67.2141 25.6533 67.0907 26.0506C66.6839 26.0939 66.0882 26.1156 65.5869 26.0867C65.4417 26.0795 65.2673 26.1228 65.1729 26.0145C65.0421 25.6244 65.1002 25.2127 65.1002 24.7793V17.0219C65.1002 16.5524 65.0567 16.0974 65.1729 15.7868C65.2019 15.7507 65.2455 15.729 65.2891 15.7146Z" fill="#0269B3"/>
</svg>
