<svg width="74" height="46" viewBox="0 0 74 46" fill="none" xmlns="http://www.w3.org/2000/svg">
<rect width="74" height="46" rx="4" fill="white"/>
<path d="M37.9987 12.011H37.3757V33.6238H37.9987V29.4653H45.8675V26.9475H39.8131V24.0479H44.9887V21.5111H39.8131V18.7063H45.8675V16.1695H37.9987V12.011Z" fill="#78BD1F"/>
<path d="M13.5062 24.3229L11.2701 20.7002L8.40399 16.2145L8.37557 16.1694H5.99976V29.4653H8.63612V21.2929L10.6021 24.477L13.7644 29.4653H16.1591V16.1694H13.5062V24.3229Z" fill="#1A161B"/>
<path d="M17.6423 29.4653H26.3497V26.9474H20.2953V24.0478H25.4709V21.511H20.2953V18.7063H26.3497V16.1694H17.6423V29.4653Z" fill="#1A161B"/>
<path d="M27.4175 18.7252H30.4613V29.4653H33.1142V18.7252H36.139V16.1694H27.4175V18.7252Z" fill="#1A161B"/>
<path d="M54.7008 24.3442L52.4647 20.7239L49.5986 16.2382L49.5701 16.1908H47.1943V29.4866H49.8283V21.3142L51.7944 24.4983L54.9589 29.4866H57.3537V16.1908H54.7008V24.3442Z" fill="#78BD1F"/>
<path d="M58.438 16.1908V18.7466H61.4818V29.4866H64.1347V18.7466H67.1596V16.1908H58.438Z" fill="#78BD1F"/>
</svg>
