<svg width="32" height="32" viewBox="0 0 32 32" fill="none" xmlns="http://www.w3.org/2000/svg">
<path fill-rule="evenodd" clip-rule="evenodd" d="M9.94963 10.7071C10.3402 10.3166 10.9733 10.3166 11.3638 10.7071L21.2633 20.6066C21.6539 20.9971 21.6539 21.6303 21.2633 22.0208L20.5562 22.7279L9.24253 11.4142L9.94963 10.7071ZM7.82831 12.8284L19.142 24.1421L17.0207 26.2635C16.6302 26.654 15.997 26.654 15.6065 26.2635L11.4766 22.1336L5.76829 27.8419C5.91754 28.1982 6 28.5895 6 29C6 30.6569 4.65685 32 3 32C1.34315 32 2.03545e-07 30.6569 -4.70805e-07 29C-1.3363e-07 27.3431 1.34315 26 3 26C3.51505 26 3.99979 26.1298 4.42328 26.3585L10.0624 20.7194L5.70699 16.364C5.31647 15.9734 5.31647 15.3403 5.70699 14.9497L7.82831 12.8284Z" fill="#C72A50"/>
<path fill-rule="evenodd" clip-rule="evenodd" d="M15 2C15 0.89543 15.8954 0 17 0H30C31.1046 0 32 0.895431 32 2V15C32 16.1046 31.1046 17 30 17H20.4852L15 11.5148V2ZM28.762 4.45238C28.762 5.12301 28.2183 5.66667 27.5477 5.66667C26.877 5.66667 26.3334 5.12301 26.3334 4.45238C26.3334 3.78175 26.877 3.2381 27.5477 3.2381C28.2183 3.2381 28.762 3.78175 28.762 4.45238ZM20.6667 4.45238C20.6667 5.12302 20.123 5.66667 19.4524 5.66667C18.7817 5.66667 18.2381 5.12302 18.2381 4.45238C18.2381 3.78175 18.7817 3.2381 19.4524 3.2381C20.123 3.2381 20.6667 3.78175 20.6667 4.45238ZM24.7143 8.5C24.7143 9.17063 24.1707 9.71429 23.5001 9.71429C22.8294 9.71429 22.2858 9.17063 22.2858 8.5C22.2858 7.82937 22.8294 7.28571 23.5001 7.28571C24.1707 7.28571 24.7143 7.82937 24.7143 8.5ZM19.4524 13.7619C20.1231 13.7619 20.6667 13.2183 20.6667 12.5476C20.6667 11.877 20.1231 11.3333 19.4524 11.3333C18.7818 11.3333 18.2382 11.877 18.2382 12.5476C18.2382 13.2183 18.7818 13.7619 19.4524 13.7619ZM27.5477 13.7619C28.2183 13.7619 28.762 13.2183 28.762 12.5476C28.762 11.877 28.2183 11.3333 27.5477 11.3333C26.877 11.3333 26.3334 11.877 26.3334 12.5476C26.3334 13.2183 26.877 13.7619 27.5477 13.7619Z" fill="#C72A50"/>
</svg>
