<svg width="32" height="32" viewBox="0 0 32 32" fill="none" xmlns="http://www.w3.org/2000/svg">
<path d="M0 20L0 4C0 2.89551 0.895386 2 2 2H8V22H2C0.895386 22 0 21.1046 0 20Z" fill="#4A5465"/>
<path d="M28.3065 20.0001H22.3983C21.8817 20.0001 21.6229 20.3449 21.536 20.4933C21.4491 20.6408 21.2733 21.0343 21.5233 21.4855L23.6063 25.2365C24.0634 26.0578 24.1102 27.0236 23.7362 27.8859C23.3622 28.7492 22.6239 29.3752 21.7108 29.6027L20.2421 29.9699C19.8846 30.0597 19.5057 29.9455 19.2567 29.6691L11.2821 20.8097C10.455 19.8888 9.99988 18.7013 9.99988 17.465V7C9.99988 4.24316 12.243 2 14.9999 2L24.9481 2.00098C27.1942 2.00098 29.1776 3.51367 29.7704 5.67872L31.9051 15.4757C31.9676 15.7482 31.9999 16.0275 31.9999 16.3068C31.9999 18.3429 30.3426 20.0002 28.3065 20.0002L28.3065 20.0001Z" fill="#4A5465"/>
</svg>
