<svg width="65" height="32" viewBox="0 0 65 32" fill="none" xmlns="http://www.w3.org/2000/svg">
<path d="M8.12902 16.5H13.094C16.574 16.5 18.959 14.475 18.959 11.25C18.959 8.02504 16.574 6.00004 13.094 6.00004H8.12902V16.5ZM11.099 14.13V8.37004H12.974C14.759 8.37004 15.959 9.43504 15.959 11.25C15.959 13.065 14.759 14.13 12.974 14.13H11.099Z" fill="white"/>
<path d="M33.4066 16.5L33.3766 6.00004H30.9316L27.3316 12.06L23.6416 6.00004H21.1966V16.5H23.9416V11.085L26.6266 15.465H27.9466L30.6466 10.935L30.6766 16.5H33.4066Z" fill="white"/>
<path d="M41.4181 16.71C43.3531 16.71 44.9131 16.005 45.9331 14.73L44.0431 13.02C43.3831 13.815 42.5731 14.25 41.5681 14.25C39.8431 14.25 38.6431 13.05 38.6431 11.25C38.6431 9.45004 39.8431 8.25004 41.5681 8.25004C42.5731 8.25004 43.3831 8.68504 44.0431 9.48004L45.9331 7.77004C44.9131 6.49504 43.3531 5.79004 41.4181 5.79004C38.0881 5.79004 35.6431 8.05504 35.6431 11.25C35.6431 14.445 38.0881 16.71 41.4181 16.71Z" fill="white"/>
<path d="M55.6166 16.5H58.7066L54.0566 6.00004H51.1316L46.4966 16.5H49.5266L50.3516 14.46H54.7916L55.6166 16.5ZM51.2216 12.27L52.5716 8.91004L53.9216 12.27H51.2216Z" fill="white"/>
<path d="M10.0577 20.6H7.81766V25.5H9.20366V24.219H10.0577C11.3947 24.219 12.2347 23.526 12.2347 22.413C12.2347 21.293 11.3947 20.6 10.0577 20.6ZM9.97366 23.127H9.20366V21.692H9.97366C10.5477 21.692 10.8347 21.958 10.8347 22.413C10.8347 22.861 10.5477 23.127 9.97366 23.127Z" fill="white"/>
<path d="M16.6414 25.5H18.1254L17.0684 23.96C17.6774 23.666 18.0274 23.134 18.0274 22.413C18.0274 21.293 17.1874 20.6 15.8504 20.6H13.6104V25.5H14.9964V24.198H15.7524L16.6414 25.5ZM16.6274 22.413C16.6274 22.861 16.3404 23.127 15.7664 23.127H14.9964V21.692H15.7664C16.3404 21.692 16.6274 21.958 16.6274 22.413Z" fill="white"/>
<path d="M21.9631 25.598C23.5311 25.598 24.6861 24.52 24.6861 23.05C24.6861 21.58 23.5311 20.502 21.9631 20.502C20.3951 20.502 19.2401 21.58 19.2401 23.05C19.2401 24.52 20.3951 25.598 21.9631 25.598ZM21.9631 24.45C21.2211 24.45 20.6401 23.897 20.6401 23.05C20.6401 22.203 21.2211 21.65 21.9631 21.65C22.7051 21.65 23.2861 22.203 23.2861 23.05C23.2861 23.897 22.7051 24.45 21.9631 24.45Z" fill="white"/>
<path d="M27.0866 25.5H28.4726V21.699H29.9706V20.6H25.5816V21.699H27.0866V25.5Z" fill="white"/>
<path d="M32.559 24.429V23.533H34.736V22.497H32.559V21.671H35.03V20.6H31.187V25.5H35.121V24.429H32.559Z" fill="white"/>
<path d="M39.0263 25.598C39.9293 25.598 40.6573 25.269 41.1333 24.674L40.2513 23.876C39.9433 24.247 39.5653 24.45 39.0963 24.45C38.2913 24.45 37.7313 23.89 37.7313 23.05C37.7313 22.21 38.2913 21.65 39.0963 21.65C39.5653 21.65 39.9433 21.853 40.2513 22.224L41.1333 21.426C40.6573 20.831 39.9293 20.502 39.0263 20.502C37.4723 20.502 36.3313 21.559 36.3313 23.05C36.3313 24.541 37.4723 25.598 39.0263 25.598Z" fill="white"/>
<path d="M43.4532 25.5H44.8392V21.699H46.3372V20.6H41.9482V21.699H43.4532V25.5Z" fill="white"/>
<path d="M48.9256 24.429V23.533H51.1026V22.497H48.9256V21.671H51.3966V20.6H47.5536V25.5H51.4876V24.429H48.9256Z" fill="white"/>
<path d="M52.9567 25.5H55.2737C56.8977 25.5 58.0107 24.555 58.0107 23.05C58.0107 21.545 56.8977 20.6 55.2737 20.6H52.9567V25.5ZM54.3427 24.394V21.706H55.2177C56.0507 21.706 56.6107 22.203 56.6107 23.05C56.6107 23.897 56.0507 24.394 55.2177 24.394H54.3427Z" fill="white"/>
<path d="M3.78879 2H61.7888V-2H3.78879V2ZM62.7888 3V29H66.7888V3H62.7888ZM61.7888 30H3.78879V34H61.7888V30ZM2.78879 29V3H-1.21121V29H2.78879ZM3.78879 30C3.2365 30 2.78879 29.5523 2.78879 29H-1.21121C-1.21121 31.7614 1.02736 34 3.78879 34V30ZM62.7888 29C62.7888 29.5523 62.3411 30 61.7888 30V34C64.5502 34 66.7888 31.7614 66.7888 29H62.7888ZM61.7888 2C62.3411 2 62.7888 2.44772 62.7888 3H66.7888C66.7888 0.238576 64.5502 -2 61.7888 -2V2ZM3.78879 -2C1.02736 -2 -1.21121 0.238576 -1.21121 3H2.78879C2.78879 2.44772 3.2365 2 3.78879 2V-2Z" fill="white"/>
</svg>
