<svg width="111" height="32" viewBox="0 0 111 32" fill="none" xmlns="http://www.w3.org/2000/svg">
<path d="M0.0698242 8.92582L0.563593 11.1478C0.563593 11.1478 6.37487 17.5478 11.2366 32C11.2366 32 17.2568 17.4528 43.0467 0.87359L42.2491 0C42.2491 0 26.7333 6.68487 12.1861 20.8522C12.1861 20.8522 4.72264 12.0214 0.0698242 8.92582Z" fill="#5383FF"/>
<path d="M22.6121 7.82432C22.6121 7.82432 19.1557 12.3062 13.5913 12.4961C11.5972 12.5721 10.6287 10.654 10.6287 10.654C10.6287 10.654 17.6554 10.0653 17.6554 4.74776C17.6554 0.303846 11.1035 1.70919 9.39427 2.7537C7.66608 3.79821 5.55806 5.84925 5.40614 8.508L2.10168 7.36853L2.78536 9.30562L6.18477 10.9578C6.18477 10.9578 8.02691 15.7056 12.9646 15.4208C17.9023 15.1359 18.8898 13.6736 23.3337 8.83085L22.6121 7.82432ZM11.5403 4.4439C13.4584 3.3804 14.9776 3.66527 15.1676 4.4439C15.3575 5.22254 15.4334 7.36853 12.7177 8.03322C10.002 8.69791 10.002 8.69791 10.002 8.69791C10.002 8.69791 9.62216 5.50741 11.5403 4.4439Z" fill="#5383FF"/>
<path d="M27.4175 25.4289C26.6579 25.4289 25.9932 25.3149 25.4234 25.068C24.8537 24.8212 24.3789 24.4793 24.0181 24.0615C23.6573 23.6247 23.4104 23.112 23.2585 22.5042C22.9166 20.947 23.3344 19.1428 24.151 17.7375C24.6448 16.8639 25.2905 16.1042 26.0502 15.4585C26.8098 14.8129 27.6834 14.3001 28.6519 13.9203C30.3991 13.1986 33.3617 13.0467 34.7291 14.2241C36.4003 15.6864 35.4507 18.687 33.4187 19.5796C32.0703 20.3583 29.1837 20.6811 26.8858 20.5292C26.7718 21.3078 26.8478 21.9155 27.0757 22.3143C27.5504 23.1689 29.1267 22.979 29.9433 22.5422C30.4371 22.2953 30.8359 21.9345 31.1777 21.4977L33.8555 22.3903C33.4757 22.8461 33.0579 23.2639 32.5451 23.6437C32.0513 24.0235 31.5196 24.3464 30.9499 24.6123C30.3801 24.8781 29.8104 25.106 29.2027 25.239C28.6139 25.3529 28.0062 25.4289 27.4175 25.4289ZM30.741 15.8764C30.0763 15.8764 29.4685 16.1042 28.9178 16.56C28.3671 17.0158 27.9303 17.6045 27.5694 18.3072H28.3671C29.6775 18.3072 30.589 18.1933 31.1398 17.9654C31.9754 17.6805 32.4122 16.712 31.7475 16.1422C31.5196 15.9713 31.1777 15.8764 30.741 15.8764Z" fill="white"/>
<path d="M41.2618 25.3337C40.3313 25.3337 39.5336 25.1438 38.85 24.764C38.1663 24.3842 37.6345 23.8904 37.2167 23.2447C36.7989 22.618 36.514 21.8963 36.3621 21.0987C36.0773 19.5414 36.2862 17.9082 36.9319 16.4079C37.2547 15.6672 37.6535 14.9456 38.1283 14.2619C38.6221 13.5782 39.1728 12.9325 39.8185 12.3438C40.4642 11.7551 41.1669 11.2423 41.9075 10.7865C42.6672 10.3497 43.4648 9.9889 44.3194 9.72303C46.1425 9.1343 48.9152 9.1343 50.3016 10.2928C51.1182 10.9385 51.612 11.7551 51.7639 12.7806L48.2885 14.7367C48.2695 14.3189 48.1936 13.977 48.0416 13.7112C47.8897 13.4453 47.6998 13.2174 47.4529 13.0465C47.206 12.8755 46.9402 12.7616 46.6363 12.6856C45.6108 12.4577 44.5093 12.6287 43.5977 13.1224C42.933 13.4833 42.3633 13.958 41.8695 14.5278C41.3758 15.0975 40.958 15.7242 40.6541 16.4079C40.1413 17.5284 39.8945 18.6678 40.0464 19.8073C40.1034 20.2441 40.2363 20.6429 40.4452 20.9847C40.6351 21.3266 40.92 21.5925 41.2618 21.8014C41.8885 22.1622 42.7241 22.1622 43.4648 21.9723C43.8066 21.8963 44.1675 21.7634 44.5093 21.5925C44.8701 21.4215 45.212 21.1936 45.5538 20.9278C45.8956 20.6619 46.1995 20.3201 46.4844 19.9212L48.8773 21.6684C48.4405 22.2382 47.9277 22.7699 47.32 23.2257C46.7123 23.6815 46.0666 24.0613 45.3829 24.3842C44.6992 24.688 43.9965 24.9349 43.2939 25.0868C42.5532 25.2577 41.8885 25.3337 41.2618 25.3337Z" fill="white"/>
<path d="M55.9041 25.3338C54.9356 25.3338 54.119 25.1439 53.4163 24.783C52.7326 24.4222 52.1629 23.9284 51.7451 23.3207C51.3273 22.713 51.0424 22.0103 50.8905 21.2127C50.5866 19.6174 50.8335 17.8893 51.4982 16.389C51.84 15.6103 52.2578 14.8887 52.7896 14.186C53.3024 13.4833 53.8911 12.8376 54.5558 12.2489C55.2205 11.6602 55.9231 11.1474 56.6828 10.7106C57.4424 10.2738 58.24 9.95097 59.0567 9.70409C60.6139 9.22931 62.589 9.13436 63.9753 9.894C64.659 10.2548 65.2098 10.7486 65.6276 11.3563C66.0454 11.964 66.3302 12.6667 66.4822 13.4643C66.862 15.5154 66.3872 17.5474 65.3047 19.3896C64.64 20.51 63.8234 21.5166 62.8359 22.3901C61.8483 23.2637 60.7659 23.9854 59.5694 24.5171C58.373 25.0679 57.1386 25.3338 55.9041 25.3338ZM57.0436 22.0863C57.8222 22.0863 58.5249 21.8964 59.1896 21.5355C59.8543 21.1747 60.424 20.6999 60.9178 20.1302C61.4116 19.5605 61.8294 18.9338 62.1522 18.2311C62.665 17.1106 62.9308 15.9712 62.7789 14.8127C62.7219 14.3759 62.589 13.9961 62.3991 13.6732C62.2092 13.3314 61.9433 13.0845 61.6015 12.8756C60.6139 12.3439 59.1896 12.5907 58.2021 13.1225C57.5374 13.4833 56.9676 13.9391 56.4549 14.5088C55.9611 15.0786 55.5433 15.7053 55.2205 16.389C54.7077 17.5094 54.4418 18.6679 54.5937 19.8263C54.6507 20.2631 54.7837 20.643 54.9736 20.9848C55.1635 21.3266 55.4294 21.5925 55.7712 21.7824C56.113 21.9913 56.5498 22.0863 57.0436 22.0863Z" fill="white"/>
<path d="M76.4146 23.6436C75.636 24.2133 74.8763 24.6311 74.1737 24.897C72.7873 25.4477 71.0212 25.4667 69.7298 24.84C69.0841 24.5362 68.5333 24.0994 68.0965 23.5296C67.6597 22.9599 67.3559 22.2952 67.185 21.4976C66.7482 19.4465 67.2989 17.0157 68.4004 15.1735C69.0841 14.0151 69.9197 12.9896 70.9262 12.135C71.9327 11.2614 73.0152 10.5777 74.2306 10.0839C76.3766 9.15337 79.3772 8.92547 81.1814 10.2548C82.017 10.8626 82.5298 11.7172 82.6817 12.7807L79.2443 14.8127C79.1493 14.11 78.8455 13.5593 78.3707 13.1605C77.3642 12.3439 75.8069 12.4388 74.6485 13.0465C74.0217 13.3694 73.452 13.7872 72.9393 14.3379C72.4265 14.8697 71.9897 15.4964 71.6289 16.2181C70.9072 17.6614 70.4894 19.6365 71.363 21.0608C71.5719 21.3836 71.8568 21.6305 72.1986 21.8204C74.0787 22.5611 75.7499 21.6875 77.649 20.1302L77.82 19.6175H74.9523L75.8639 16.9777H81.7511L78.8835 25.2008H75.8639L76.4146 23.6436Z" fill="white"/>
<path d="M81.2952 25.2006L87.2204 9.43799H94.5509C95.2156 9.43799 95.8044 9.57093 96.2791 9.81781C96.7539 10.0647 97.1527 10.4065 97.4566 10.8243C97.7604 11.2421 97.9693 11.7169 98.0833 12.2487C98.3112 13.3502 98.1213 14.4896 97.6275 15.5151C97.3616 16.0469 97.0388 16.5596 96.64 17.0344C96.2412 17.5092 95.7854 17.965 95.2726 18.3638C94.7598 18.7626 94.2091 19.1045 93.6204 19.3703L94.9498 25.2386H90.5058L89.3664 20.149H87.1254L85.2263 25.2386H81.2952V25.2006ZM91.6073 16.9395C91.8542 16.9395 92.1011 16.8635 92.367 16.7306C92.6328 16.5976 92.8797 16.3887 93.1076 16.1608C93.3355 15.914 93.5254 15.6291 93.6963 15.3062C94.0192 14.6795 94.2281 13.654 93.8673 13.0843C93.6774 12.7804 93.4305 12.6475 93.1076 12.6475H89.9551L88.3409 16.9585H91.6073V16.9395Z" fill="white"/>
<path d="M107.181 9.43799H110.789L110.713 25.2006H106.63L106.782 21.6683H101.882L99.3942 25.2006H95.2921L107.181 9.43799ZM107.086 19.1614L107.427 13.578L103.458 19.1614H107.086Z" fill="white"/>
</svg>
