<svg width="113" height="32" viewBox="0 0 113 32" fill="none" xmlns="http://www.w3.org/2000/svg">
<path d="M42.8521 12.1807C42.9311 12.4553 42.8324 12.6183 42.6153 12.6917L40.4873 13.3208C40.2308 13.3996 40.0926 13.3208 40.0137 13.0659C39.6848 11.9837 38.97 11.3939 37.6686 11.3939C35.659 11.3939 34.9892 12.5735 34.9892 14.1666V17.8257C34.9892 19.4188 35.659 20.5984 37.6686 20.5984C39.3241 20.5984 40.1902 19.8324 40.1902 18.1594V17.6878H37.9844C37.8068 17.6878 37.6884 17.5893 37.6884 17.3727V15.3473C37.6839 15.3065 37.6883 15.2652 37.7013 15.2263C37.7143 15.1874 37.7356 15.1517 37.7638 15.1218C37.7919 15.0919 37.8262 15.0683 37.8642 15.0529C37.9023 15.0374 37.9433 15.0303 37.9844 15.0322H42.7929C42.9903 15.0322 43.1087 15.1306 43.1087 15.3276V18.3563C43.1087 21.2472 40.9796 23.4313 37.6686 23.4313C33.747 23.4313 31.915 21.1105 31.915 17.9241V14.0682C31.915 10.8818 33.747 8.56104 37.6686 8.56104C40.8414 8.56104 42.2809 10.3708 42.8521 12.1807V12.1807ZM53.6489 15.7992V22.8995C53.6513 22.9388 53.6453 22.9782 53.6314 23.015C53.6174 23.0519 53.5958 23.0854 53.5679 23.1133C53.5401 23.1412 53.5066 23.1629 53.4697 23.177C53.4329 23.191 53.3934 23.1972 53.354 23.1949H51.1855C51.1447 23.1992 51.1034 23.1947 51.0646 23.1816C51.0257 23.1685 50.9901 23.1472 50.9603 23.1192C50.9304 23.0912 50.9069 23.057 50.8915 23.0191C50.8761 22.9812 50.869 22.9404 50.8708 22.8995V21.7396C50.5632 22.2574 50.1243 22.685 49.5982 22.9793C49.0721 23.2737 48.4775 23.4243 47.8745 23.4159C45.8254 23.4159 44.5054 22.0974 44.5054 20.0721C44.5054 18.1025 45.7465 16.9251 48.7812 16.7085C49.4375 16.6526 50.0972 16.646 50.7546 16.6888V15.902C50.7546 14.8396 50.2064 14.4271 49.257 14.4271C48.2911 14.4271 48.0148 14.8199 47.7594 15.4304C47.6607 15.6657 47.5818 15.7051 47.3647 15.6493L45.1972 15.1022C44.9779 15.0431 44.9604 14.9249 44.9999 14.7674C45.2959 13.2136 46.7738 12.0734 49.3754 12.0734C52.1119 12.0625 53.6489 13.3602 53.6489 15.7992V15.7992ZM50.7524 19.5195V18.492C50.1736 18.4713 49.594 18.4911 49.018 18.5511C47.914 18.689 47.323 19.0227 47.323 19.8642C47.323 20.6301 47.835 21.0448 48.6825 21.0448C49.6484 21.0514 50.3972 20.5196 50.7524 19.5173V19.5195ZM61.4757 12.0625C62.8549 12.0625 63.7616 12.8689 64.1749 14.0321C64.9829 12.8525 65.9686 12.0625 67.3478 12.0625C69.2598 12.0625 70.3441 13.5769 70.3441 15.8386V22.8995C70.3441 23.0767 70.1862 23.1949 69.9888 23.1949H67.7227C67.5254 23.1949 67.3675 23.0767 67.3675 22.8995V16.3496C67.3675 15.3648 66.9344 14.7761 66.1615 14.7761C65.3535 14.7761 64.7626 15.4458 64.4666 16.4678V22.8995C64.4694 22.9374 64.4644 22.9754 64.4518 23.0112C64.4392 23.0471 64.4193 23.0799 64.3933 23.1077C64.3674 23.1354 64.3359 23.1575 64.301 23.1725C64.266 23.1876 64.2283 23.1952 64.1903 23.1949H61.7465C61.57 23.1949 61.4911 23.0767 61.4911 22.8995V16.3496C61.4911 15.3648 61.0525 14.7761 60.2851 14.7761C59.4574 14.7761 58.8664 15.4852 58.5902 16.4874V22.8995C58.5943 22.9392 58.5895 22.9793 58.5761 23.0169C58.5627 23.0546 58.5412 23.0888 58.5129 23.117C58.4847 23.1453 58.4505 23.167 58.4129 23.1804C58.3752 23.1939 58.335 23.1989 58.2952 23.1949H55.8986C55.8587 23.199 55.8184 23.1942 55.7807 23.1808C55.7429 23.1674 55.7085 23.1458 55.6802 23.1175C55.6518 23.0892 55.6302 23.055 55.6167 23.0172C55.6033 22.9795 55.5985 22.9393 55.6026 22.8995V12.5735C55.6023 12.5355 55.61 12.498 55.625 12.4631C55.6401 12.4283 55.6622 12.397 55.6901 12.3712C55.7179 12.3453 55.7508 12.3256 55.7867 12.3131C55.8226 12.3007 55.8607 12.2958 55.8986 12.2988H58.201C58.2388 12.2958 58.2768 12.3007 58.3127 12.3131C58.3485 12.3256 58.3814 12.3454 58.4091 12.3712C58.4369 12.397 58.4589 12.4284 58.4739 12.4632C58.4888 12.498 58.4963 12.5356 58.4959 12.5735V13.8132C59.1504 12.9116 60.0954 12.0625 61.4757 12.0625V12.0625ZM82.7448 12.2988C82.804 12.5538 82.7251 12.7507 82.4894 12.8098L80.3997 13.4193C80.1432 13.4981 80.0061 13.3996 79.9272 13.1633C79.6312 12.1785 79.1192 11.3939 77.6611 11.3939C75.8674 11.3939 75.2952 12.5735 75.2952 14.1666V17.8257C75.2952 19.4188 75.9464 20.5984 77.6611 20.5984C79.1959 20.5984 79.7891 19.7329 80.0259 18.6518C80.0851 18.4154 80.2451 18.2973 80.4984 18.3957L82.5869 19.0643C82.8238 19.1431 82.9027 19.3203 82.8435 19.5753C82.3512 21.7002 80.8141 23.4313 77.6216 23.4313C74.0344 23.4313 72.221 21.1105 72.221 17.9241V14.0682C72.221 10.8818 74.0738 8.56104 77.6216 8.56104C80.7352 8.56104 82.1934 10.2133 82.7448 12.2988V12.2988ZM93.2357 15.7992V22.8995C93.2381 22.9388 93.2321 22.9782 93.2182 23.015C93.2042 23.0519 93.1826 23.0854 93.1547 23.1133C93.1269 23.1412 93.0934 23.1629 93.0565 23.177C93.0197 23.191 92.9802 23.1972 92.9408 23.1949H90.7722C90.7315 23.1992 90.6902 23.1947 90.6514 23.1816C90.6125 23.1685 90.5769 23.1472 90.547 23.1192C90.5172 23.0912 90.4937 23.057 90.4783 23.0191C90.4628 22.9812 90.4558 22.9404 90.4576 22.8995V21.7396C90.1502 22.2575 89.7113 22.6853 89.1851 22.9796C88.659 23.274 88.0644 23.4245 87.4613 23.4159C85.4122 23.4159 84.0922 22.0974 84.0922 20.0721C84.0922 18.1025 85.3333 16.9251 88.368 16.7085C89.0243 16.6526 89.684 16.646 90.3414 16.6888V15.902C90.3414 14.8396 89.7932 14.4271 88.8438 14.4271C87.8779 14.4271 87.6016 14.8199 87.3462 15.4304C87.2475 15.6657 87.1686 15.7051 86.9515 15.6493L84.784 15.1022C84.5647 15.0431 84.5472 14.9249 84.5867 14.7674C84.8827 13.2136 86.3606 12.0734 88.9622 12.0734C91.6987 12.0625 93.2357 13.3602 93.2357 15.7992ZM90.3392 19.5195V18.492C89.7604 18.4713 89.1808 18.4911 88.6048 18.5511C87.5007 18.689 86.9098 19.0227 86.9098 19.8642C86.9098 20.6301 87.4229 21.0448 88.2693 21.0448C89.2352 21.0514 89.984 20.5196 90.3392 19.5173V19.5195ZM101.674 12.4947V14.5999C101.674 14.8549 101.576 14.9534 101.319 14.9534H101.003C99.4268 14.9534 98.5015 15.6613 98.1857 16.842V22.8995C98.1893 22.9363 98.1854 22.9734 98.1741 23.0086C98.1628 23.0438 98.1444 23.0764 98.1201 23.1042C98.0958 23.1321 98.066 23.1547 98.0326 23.1707C97.9992 23.1866 97.9629 23.1956 97.9259 23.1971H95.446C95.4095 23.1952 95.3738 23.186 95.341 23.1699C95.3082 23.1539 95.279 23.1314 95.2551 23.1038C95.2312 23.0762 95.2132 23.044 95.2021 23.0093C95.191 22.9746 95.1871 22.938 95.1905 22.9017V12.5735C95.1885 12.5352 95.1949 12.4969 95.2092 12.4613C95.2236 12.4257 95.2456 12.3937 95.2738 12.3675C95.3019 12.3413 95.3354 12.3216 95.372 12.3097C95.4085 12.2979 95.4473 12.2941 95.4854 12.2988H97.7318C97.9686 12.2988 98.0279 12.4553 98.0279 12.6129V14.0682C98.5398 13.1053 99.5057 12.161 101.201 12.161C101.595 12.161 101.674 12.2201 101.674 12.4947V12.4947ZM105.547 18.6518V19.0643C105.547 20.2056 106.139 21.012 107.538 21.012C108.897 21.012 109.272 20.4999 109.626 19.851C109.804 19.5556 109.883 19.5228 110.197 19.6541L111.755 20.4408C112.07 20.5984 112.09 20.7559 111.951 21.0514C111.282 22.5657 109.606 23.4313 107.518 23.4313C104.365 23.4313 102.709 21.5624 102.709 19.0052V16.4885C102.709 14.0102 104.266 12.0636 107.498 12.0636C110.568 12.0636 112.07 14.0102 112.07 16.4295V18.1638C112.07 18.4592 111.971 18.6562 111.558 18.6562L105.547 18.6518ZM105.547 16.354V16.7282H109.351V16.354C109.351 15.2926 108.759 14.4665 107.459 14.4665C106.158 14.4665 105.547 15.2882 105.547 16.3496V16.354Z" fill="white"/>
<path d="M14.5248 0H1.29956C1.19352 0.000288773 1.0919 0.0424594 1.01692 0.117296C0.941934 0.192133 0.899681 0.29355 0.899391 0.399385V19.5983C0.899247 21.2269 1.22052 22.8395 1.84486 24.3441C2.46921 25.8488 3.38439 27.2159 4.53816 28.3676C5.69193 29.5192 7.06169 30.4327 8.56921 31.056C10.0767 31.6792 11.6925 32 13.3243 32H14.5302C17.8248 31.9985 20.9838 30.6913 23.3128 28.3656C25.6417 26.04 26.9499 22.8864 26.9496 19.5983V12.4006C26.9496 10.7721 26.6282 9.15962 26.0038 7.65511C25.3794 6.15059 24.4642 4.78356 23.3105 3.63206C22.1567 2.48055 20.787 1.56713 19.2795 0.943941C17.7721 0.320751 16.1564 0 14.5248 0V0ZM22.96 19.8051C22.96 24.4741 19.523 27.9996 14.1772 27.9996C7.84363 27.9996 4.8846 24.2519 4.8846 19.1059V12.881C4.8846 7.73821 7.84473 3.98728 14.1772 3.98728C19.3004 3.98728 21.6236 6.9099 22.5467 9.83142C22.6739 10.2768 22.5149 10.5306 22.1652 10.6575L18.7281 11.6741C18.3137 11.801 18.0912 11.6741 17.9607 11.2615C17.4191 9.51082 16.2734 8.56105 14.1739 8.56105C10.9276 8.56105 9.84556 10.4672 9.84556 13.0396V18.9483C9.84556 21.5208 10.9276 23.4269 14.1739 23.4269C16.8468 23.4269 18.2468 22.1883 18.2468 19.4878V18.7218H14.6859C14.3998 18.7218 14.209 18.5632 14.209 18.2141V14.9425C14.209 14.624 14.3998 14.4336 14.6859 14.4336H22.4513C22.7693 14.4336 22.96 14.5923 22.96 14.9107V19.8051Z" fill="#AF87FF"/>
</svg>
