<svg width="43" height="32" viewBox="0 0 43 32" fill="none" xmlns="http://www.w3.org/2000/svg">
<g clip-path="url(#clip0_1605:6127)">
<path d="M40.9882 0.399902H8.70419C4.33939 0.399902 0.791391 3.9479 0.791391 8.3127V17.8159V29.9807C0.791391 30.8679 1.52339 31.5999 2.41059 31.5999H34.6946C39.0594 31.5999 42.6074 28.0519 42.6074 23.6871V2.0191C42.6074 1.1319 41.8754 0.399902 40.9882 0.399902ZM41.4666 23.7151C41.4666 27.4743 38.4114 30.5295 34.6522 30.5295H2.36819C2.08659 30.5295 1.84739 30.2903 1.84739 30.0087V17.0279C1.84739 16.7463 2.08659 16.5071 2.36819 16.5071H40.9458C41.2274 16.5071 41.4666 16.7463 41.4666 17.0279V23.7151ZM41.4666 15.0287C41.4666 15.3103 41.2274 15.5495 40.9458 15.5495H2.36819C2.08659 15.5495 1.84739 15.3103 1.84739 15.0287V8.3407C1.84739 4.5815 4.90259 1.5263 8.66179 1.5263H40.9458C41.2274 1.5263 41.4666 1.7655 41.4666 2.0471V15.0287Z" fill="white"/>
<path d="M15.0538 7.91825H10.9706C10.9146 7.91825 10.8722 7.96065 10.8722 8.01665V10.0719C10.8722 10.1279 10.9146 10.1703 10.9706 10.1703H12.7586C12.8146 10.1703 12.857 10.2127 12.857 10.2687V10.6207C12.857 10.6487 12.8426 10.6911 12.8146 10.7055C12.5754 10.8887 12.3074 11.0151 12.0122 11.0855C11.7026 11.1703 11.393 11.1983 11.0826 11.1703C10.773 11.1559 10.477 11.0719 10.1818 10.9447C9.88581 10.8183 9.63301 10.6351 9.39301 10.3959C9.13941 10.1423 8.94261 9.84705 8.80181 9.50865C8.67541 9.17105 8.60501 8.83265 8.60501 8.49505C8.60501 8.15745 8.66101 7.81905 8.80181 7.48145C8.92821 7.15745 9.12581 6.86225 9.39301 6.59425C9.64661 6.32705 9.94181 6.12945 10.2802 6.00305C10.6178 5.87665 10.9562 5.80625 11.2938 5.80625C11.6314 5.80625 11.9698 5.87665 12.3074 6.00305C12.6034 6.12945 12.885 6.29905 13.1242 6.52385C13.1666 6.56625 13.2226 6.56625 13.265 6.52385L14.7434 5.04545C14.7858 5.01745 14.7858 4.94705 14.7434 4.90465C14.2786 4.45425 13.7434 4.10225 13.1666 3.87665C12.5474 3.63745 11.9274 3.51025 11.2802 3.51025C10.633 3.51025 10.013 3.63665 9.39381 3.87665C8.78821 4.11665 8.23941 4.48305 7.74661 4.97585C7.26821 5.45425 6.90181 6.00305 6.66261 6.62305C6.42341 7.24225 6.31061 7.86225 6.31061 8.50945C6.31061 9.14305 6.42341 9.77665 6.66261 10.3823C6.90181 10.9879 7.25381 11.5367 7.74661 12.0295C8.22501 12.5223 8.77461 12.8887 9.39381 13.1279C10.013 13.3671 10.633 13.4943 11.2802 13.4943C11.5338 13.4943 11.801 13.4799 12.069 13.4383C12.2946 13.3959 12.5058 13.3535 12.717 13.2831C12.7874 13.2687 12.8578 13.3111 12.8578 13.3815C12.8578 13.4375 12.9002 13.4799 12.9562 13.4799H15.0538C15.1098 13.4799 15.1522 13.4375 15.1522 13.3815V8.01745C15.1522 7.96065 15.0962 7.91825 15.0538 7.91825Z" fill="white"/>
<path d="M22.1362 3.55371H20.0802C20.0378 3.55371 19.9954 3.58171 19.9818 3.62411L16.673 13.3529C16.6586 13.4233 16.701 13.4937 16.7714 13.4937H18.9818C19.0242 13.4937 19.0666 13.4657 19.0802 13.4233L19.4466 12.3529C19.461 12.3105 19.5026 12.2825 19.545 12.2825H22.5298C22.5722 12.2825 22.6146 12.3105 22.6282 12.3529L22.9802 13.4233C22.9946 13.4657 23.0362 13.4937 23.0786 13.4793H25.2754C25.3458 13.4793 25.4018 13.4233 25.3738 13.3529L22.2346 3.62411C22.2202 3.58171 22.1778 3.55371 22.1362 3.55371ZM21.7274 10.0025H20.4042C20.3338 10.0025 20.2914 9.93211 20.3058 9.87611L20.9818 7.89051C21.0242 7.79211 21.1506 7.79211 21.1786 7.89051L21.8266 9.87611C21.8402 9.93211 21.7978 10.0025 21.7274 10.0025Z" fill="white"/>
<path d="M36.3282 3.54004H34.1458C34.1034 3.54004 34.061 3.56804 34.061 3.61044L32.0474 9.49604C32.005 9.58084 31.8786 9.58084 31.8506 9.49604L29.7946 3.61044C29.7802 3.56804 29.7386 3.54004 29.6962 3.54004H27.5138C27.4578 3.54004 27.4154 3.58244 27.4154 3.63844L26.7962 13.3816C26.7962 13.4376 26.8386 13.4944 26.8946 13.4944H28.9922C29.0482 13.4944 29.0906 13.452 29.0906 13.396L29.3162 9.77764C29.3162 9.66484 29.4714 9.65124 29.513 9.74964L30.7802 13.424C30.7946 13.4664 30.8362 13.4944 30.8786 13.4944H33.0186C33.061 13.4944 33.1034 13.4664 33.117 13.424L34.2994 9.91844C34.3274 9.82004 34.4962 9.83364 34.4962 9.94644L34.7074 13.396C34.7074 13.452 34.7498 13.4944 34.8058 13.4944H36.8898C36.9458 13.4944 36.9882 13.4384 36.9882 13.3816L36.4266 3.63844C36.4266 3.58164 36.3842 3.54004 36.3282 3.54004Z" fill="white"/>
<path d="M9.50661 22.3359C9.35141 22.2655 9.18261 22.2095 9.02821 22.1527C8.87301 22.0967 8.71861 22.0399 8.56341 21.9975C8.38021 21.9415 8.22581 21.8847 8.07061 21.8287C7.91541 21.7727 7.77461 21.7023 7.64821 21.6319C7.52181 21.5471 7.42261 21.4207 7.38101 21.2655C7.33861 21.1103 7.35301 20.9559 7.42341 20.8151C7.46581 20.7023 7.54981 20.6319 7.63461 20.5759C7.73301 20.5199 7.81781 20.4911 7.90181 20.4775C7.98661 20.4631 8.05701 20.4631 8.12741 20.4775C8.18341 20.4775 8.21221 20.4919 8.24021 20.4919C8.25461 20.4919 8.25461 20.4919 8.26821 20.4919C8.36661 20.5199 8.47941 20.5623 8.60581 20.6471C8.71861 20.7031 8.78901 20.8303 8.80261 20.9847C8.80261 21.0271 8.84501 21.0695 8.90101 21.0695H10.9282C10.9842 21.0695 11.0266 21.0271 11.0266 20.9711C11.0266 20.6751 10.9706 20.3935 10.8714 20.1119C10.7586 19.8023 10.6042 19.5343 10.4066 19.2815C10.2098 19.0423 9.96981 18.8167 9.68821 18.6479C9.40661 18.4791 9.09701 18.3519 8.75861 18.2679C8.40661 18.1695 8.05461 18.1415 7.71701 18.1695C7.37941 18.1975 7.05541 18.2823 6.75941 18.4087C6.46341 18.5351 6.18181 18.7183 5.94261 18.9439C5.70341 19.1695 5.50581 19.4367 5.33701 19.7463C5.15381 20.0839 5.05541 20.4359 5.02741 20.8023C4.99941 21.1543 5.02741 21.5207 5.12581 21.8583C5.22421 22.1959 5.37941 22.5199 5.59061 22.8159C5.81621 23.1119 6.08341 23.3647 6.39301 23.5623C6.63221 23.7175 6.88581 23.8439 7.12501 23.9287C7.36421 24.0135 7.60341 24.0975 7.82901 24.1679C7.94181 24.2239 8.06821 24.2527 8.18101 24.2943C8.29381 24.3367 8.40661 24.3791 8.50501 24.4207C8.63141 24.4911 8.74421 24.5615 8.81461 24.6319C8.89941 24.7167 8.95541 24.7871 8.99781 24.8711C9.04021 24.9415 9.05381 25.0263 9.06821 25.0967C9.08261 25.1671 9.08261 25.2231 9.08261 25.2655C9.08261 25.3079 9.08261 25.3639 9.06821 25.4343C9.06821 25.5047 9.04021 25.5895 8.99781 25.6599C8.95541 25.7447 8.88501 25.8151 8.81461 25.8991C8.72981 25.9695 8.63141 26.0399 8.50501 26.0959C8.33621 26.1807 8.13861 26.2223 7.95621 26.2087C7.77301 26.2087 7.60421 26.1527 7.43541 26.0399C7.35061 25.9839 7.23861 25.8847 7.12581 25.7303C7.02741 25.5895 6.97061 25.4207 6.95701 25.1951C6.95701 25.1391 6.91461 25.0967 6.85861 25.0967H4.77621C4.72021 25.0967 4.67781 25.1391 4.67781 25.1951C4.69221 25.7439 4.83301 26.2655 5.08581 26.7295C5.35301 27.2367 5.73381 27.6447 6.22661 27.9543C6.50821 28.1231 6.80421 28.2639 7.11381 28.3487C7.42341 28.4335 7.74741 28.4751 8.05701 28.4751C8.31061 28.4751 8.54981 28.4471 8.78901 28.4471C9.04261 28.3911 9.26741 28.3207 9.50741 28.2079C10.0986 27.9263 10.5634 27.5319 10.901 27.0111C11.2386 26.4903 11.4082 25.9127 11.4082 25.2791C11.4082 24.6455 11.2394 24.0543 10.901 23.5335C10.5626 22.9975 10.0978 22.6031 9.50661 22.3359Z" fill="white"/>
<path d="M37.4122 19.8016C37.0322 19.4216 36.5954 19.1256 36.1026 18.9008C35.6098 18.6752 35.0746 18.5632 34.5114 18.5488H32.329C32.273 18.5488 32.2306 18.5912 32.2306 18.6472V28.376C32.2306 28.432 32.273 28.4744 32.329 28.4744H34.413C34.469 28.4744 34.5114 28.432 34.5114 28.376V26.996C34.5114 26.94 34.5538 26.8976 34.6098 26.8976C35.1306 26.8832 35.6378 26.7712 36.1018 26.56C36.5946 26.3344 37.0314 26.0392 37.4114 25.6592C37.7778 25.2792 38.073 24.8424 38.2842 24.336C38.4954 23.8288 38.6082 23.2944 38.6082 22.7312C38.6082 22.1536 38.4954 21.6192 38.2842 21.1264C38.0738 20.6184 37.7922 20.1816 37.4122 19.8016ZM36.1874 23.42C36.1026 23.6456 35.9762 23.8424 35.8074 24.0112C35.6386 24.18 35.4554 24.3208 35.2298 24.4192C35.033 24.5176 34.8354 24.5744 34.6242 24.588C34.5682 24.6024 34.5114 24.5456 34.5114 24.4896V20.9136C34.5114 20.8576 34.5674 20.8152 34.6242 20.8152C34.8354 20.8432 35.0466 20.9 35.2298 20.984C35.4554 21.0824 35.6378 21.2232 35.8074 21.392C35.9626 21.5608 36.089 21.7584 36.1874 21.9832C36.2858 22.2088 36.3282 22.448 36.3282 22.7016C36.3282 22.9552 36.2858 23.1944 36.1874 23.42Z" fill="white"/>
<path d="M28.6402 19.9846C28.1898 19.5478 27.669 19.1958 27.0634 18.9286C26.4578 18.6614 25.8242 18.5342 25.1346 18.5342C24.445 18.5342 23.8114 18.675 23.2058 18.9286C22.6002 19.1822 22.0794 19.5342 21.629 19.9846C21.1922 20.435 20.8402 20.9558 20.573 21.5614C20.3058 22.1526 20.1786 22.8006 20.1786 23.4902C20.1786 24.1662 20.305 24.8134 20.573 25.419C20.8266 26.0246 21.1786 26.5454 21.629 26.9958C22.0794 27.4326 22.6002 27.7846 23.2058 28.0518C23.8114 28.319 24.4586 28.4462 25.1346 28.4462C25.8106 28.4462 26.4578 28.3198 27.0634 28.0518C27.669 27.7982 28.1898 27.4462 28.6402 26.9958C29.0906 26.5454 29.4426 26.0246 29.7106 25.419C29.9778 24.8278 30.105 24.1798 30.105 23.4902C30.105 22.8142 29.9786 22.167 29.7106 21.5614C29.4434 20.9558 29.0914 20.435 28.6402 19.9846ZM27.6266 24.5462C27.4858 24.8838 27.289 25.1654 27.049 25.4054C26.7954 25.6446 26.5138 25.8422 26.1898 25.983C25.8658 26.1238 25.5138 26.1942 25.1482 26.1942C24.7682 26.1942 24.4298 26.1238 24.1066 25.983C23.769 25.8422 23.4874 25.6454 23.2474 25.4054C23.0082 25.1518 22.8106 24.8702 22.6698 24.5462C22.529 24.2222 22.4586 23.8702 22.4586 23.5046C22.4586 23.139 22.529 22.7862 22.6698 22.463C22.8106 22.1254 23.0074 21.8438 23.2474 21.6038C23.501 21.3646 23.7826 21.167 24.1066 21.0262C24.4306 20.8854 24.7826 20.815 25.1482 20.815C25.5146 20.815 25.8666 20.8854 26.1898 21.0262C26.5274 21.167 26.809 21.3638 27.049 21.6038C27.2882 21.8574 27.4858 22.139 27.6266 22.463C27.7674 22.787 27.8378 23.139 27.8378 23.5046C27.8378 23.8702 27.7674 24.2222 27.6266 24.5462Z" fill="white"/>
<path d="M19.0106 18.5479H13.125C13.069 18.5479 13.0266 18.5903 13.0266 18.6463V20.7439C13.0122 20.7999 13.069 20.8423 13.125 20.8423H14.913V28.3751C14.913 28.4311 14.9554 28.4735 15.0114 28.4735H17.109C17.165 28.4735 17.2074 28.4311 17.2074 28.3751V20.8423H19.0098C19.0658 20.8423 19.1082 20.7999 19.1082 20.7439V18.6463C19.109 18.5903 19.0666 18.5479 19.0106 18.5479Z" fill="white"/>
</g>
<defs>
<clipPath id="clip0_1605:6127">
<rect width="42.4" height="32" fill="white" transform="translate(0.49939)"/>
</clipPath>
</defs>
</svg>
