<svg width="32" height="32" viewBox="0 0 32 32" fill="none" xmlns="http://www.w3.org/2000/svg">
<path d="M19.75 16.9375V32H27.25C28.8009 32 30.125 30.7384 30.125 29.1875V16.9375H19.75Z" fill="#FF7D34"/>
<path d="M1.875 16.9375V29.1875C1.875 30.7384 3.13663 32 4.6875 32H12.25V16.9375H1.875Z" fill="#FF7D34"/>
<path d="M29.1875 7.5H25.3511C25.9459 6.71413 26.3125 5.74675 26.3125 4.6875C26.3125 2.10294 24.2096 0 21.625 0C18.3536 0 17.4064 2.35656 16 5.92519C14.5936 2.35656 13.6464 0 10.375 0C7.79044 0 5.6875 2.10294 5.6875 4.6875C5.6875 5.74675 6.05406 6.71413 6.64894 7.5H2.8125C1.26163 7.5 0 8.76163 0 10.3125V12.25C0 13.8009 1.26163 15.0625 2.8125 15.0625H12.25V7.5H10.375C8.82413 7.5 7.5625 6.23837 7.5625 4.6875C7.5625 3.13663 8.82413 1.875 10.375 1.875C12.2967 1.875 12.8433 3.02763 14.2797 6.67238C14.3799 6.92688 14.5047 7.22881 14.6127 7.5H14.125C14.125 21.4801 14.125 18.0137 14.125 32H17.875C17.875 10.0553 17.875 13.595 17.875 7.5H17.3874C17.4953 7.22875 17.6201 6.92688 17.7203 6.67238C19.1567 3.02763 19.7033 1.875 21.625 1.875C23.1759 1.875 24.4375 3.13663 24.4375 4.6875C24.4375 6.23837 23.1759 7.5 21.625 7.5H19.75V15.0625H29.1875C30.7384 15.0625 32 13.8009 32 12.25V10.3125C32 8.76163 30.7384 7.5 29.1875 7.5Z" fill="#FF7D34"/>
</svg>
