<svg width="148" height="30" viewBox="0 0 148 30" fill="none" xmlns="http://www.w3.org/2000/svg">
<path d="M94.0824 10.8874V11.6977C94.1138 12.3161 94.0139 12.9342 93.7892 13.511C93.5645 14.0879 93.2202 14.6104 92.779 15.044C92.34 15.4633 91.8218 15.7907 91.2549 16.0067C90.688 16.2228 90.0837 16.3234 89.4775 16.3024C88.8113 16.3219 88.148 16.207 87.5269 15.9646C86.9059 15.7222 86.3398 15.3573 85.8621 14.8915C85.3975 14.4471 85.0298 13.9109 84.7826 13.3169C84.5353 12.7228 84.4137 12.0838 84.4255 11.4403C84.4216 10.795 84.5463 10.1554 84.7921 9.55894C85.0379 8.96248 85.4 8.42115 85.8572 7.96662C86.3143 7.51209 86.8573 7.15349 87.4545 6.91181C88.0516 6.67013 88.6909 6.55023 89.3348 6.55911C90.167 6.54903 90.9882 6.74902 91.7229 7.14066C92.413 7.50174 92.9969 8.03747 93.4164 8.69463L91.6468 9.74333C91.4138 9.39192 91.083 9.11678 90.6954 8.95204C90.2697 8.74172 89.7998 8.63709 89.3253 8.64697C88.9611 8.63539 88.5985 8.69879 88.2597 8.83326C87.921 8.96772 87.6133 9.17038 87.3559 9.42872C87.0957 9.69336 86.8916 10.008 86.7559 10.3537C86.6202 10.6994 86.5557 11.069 86.5662 11.4403C86.5521 11.8101 86.616 12.1786 86.7537 12.522C86.8914 12.8653 87.0998 13.1757 87.3654 13.4328C87.6534 13.6972 87.991 13.9015 88.3584 14.0341C88.7259 14.1667 89.116 14.2248 89.5061 14.205C90.0085 14.2656 90.5167 14.1558 90.9495 13.8931C91.3824 13.6305 91.7149 13.2301 91.8942 12.7559H89.4014V10.8492L94.0824 10.8874Z" fill="white"/>
<path d="M101.894 16.1117L101.427 14.6436H97.9547L97.4885 16.1117H95.1575L98.3068 6.74024H101.028L104.206 16.1117H101.894ZM98.6017 12.632H100.79L99.6958 9.19037L98.6017 12.632Z" fill="white"/>
<path d="M115.432 6.74024V16.1117H113.301V10.6681L110.885 14.6436H110.637L108.221 10.6681V16.1117H106.089V6.74024H108.221L110.675 10.9064L113.216 6.74024H115.432Z" fill="white"/>
<path d="M123.786 11.2497C124.148 11.4638 124.447 11.7712 124.651 12.14C124.855 12.5087 124.957 12.9255 124.947 13.3471C124.957 13.7211 124.885 14.0929 124.735 14.4358C124.586 14.7786 124.362 15.084 124.081 15.33C123.483 15.8422 122.717 16.1139 121.931 16.0927H118.001V6.7403H121.664C122.433 6.71659 123.183 6.98183 123.767 7.48392C124.038 7.72051 124.255 8.01382 124.401 8.34322C124.547 8.67263 124.62 9.03014 124.614 9.39063C124.627 9.7433 124.559 10.0943 124.415 10.4166C124.272 10.7389 124.057 11.0239 123.786 11.2497ZM121.655 8.75188H120.132V10.4107H121.655C121.763 10.4152 121.871 10.3962 121.971 10.3551C122.071 10.314 122.161 10.2516 122.235 10.1724C122.311 10.0946 122.371 10.0021 122.41 9.90044C122.449 9.79881 122.467 9.69021 122.463 9.5813C122.467 9.47106 122.448 9.36127 122.409 9.25822C122.37 9.15516 122.311 9.06085 122.235 8.98069C122.159 8.9046 122.069 8.84501 121.969 8.80564C121.869 8.76628 121.762 8.74797 121.655 8.75188ZM121.921 14.1002C122.039 14.1068 122.157 14.0881 122.267 14.0453C122.377 14.0026 122.476 13.9368 122.559 13.8523C122.64 13.766 122.703 13.6641 122.744 13.5526C122.785 13.4412 122.803 13.3226 122.796 13.2041C122.802 13.0856 122.783 12.9673 122.742 12.856C122.701 12.7448 122.639 12.6427 122.559 12.5558C122.475 12.4728 122.375 12.408 122.266 12.3653C122.156 12.3227 122.039 12.3031 121.921 12.3079H120.132V14.1002H121.921Z" fill="white"/>
<path d="M129.142 14.0525H132.482V16.1117H127.002V6.74024H129.142V14.0525Z" fill="white"/>
<path d="M136.554 14.0525H140.293V16.1117H134.461V6.74024H140.265V8.79949H136.554V10.3535H139.893V12.3937H136.554V14.0525Z" fill="white"/>
<path d="M93.778 20.2494V29.6209H91.6468V24.1677L89.2302 28.1432H88.9828L86.5662 24.1677V29.6209H84.4255V20.2494H86.5662L89.1065 24.4155L91.6468 20.2494H93.778Z" fill="white"/>
<path d="M102.322 29.6209L101.856 28.1432H98.3829L97.9167 29.6209H95.5762L98.7634 20.2494H101.485L104.662 29.6209H102.322ZM99.0298 26.1411H101.218L100.124 22.6995L99.0298 26.1411Z" fill="white"/>
<path d="M109.534 29.802C108.697 29.8357 107.869 29.62 107.155 29.1824C106.529 28.7807 106.051 28.1847 105.794 27.4854L107.64 26.4176C107.786 26.8151 108.055 27.1554 108.407 27.3887C108.76 27.622 109.178 27.7361 109.6 27.7142C110.447 27.7142 110.875 27.4663 110.875 26.9515C110.873 26.8161 110.834 26.684 110.762 26.5696C110.69 26.4551 110.587 26.363 110.466 26.3032C109.975 26.0706 109.462 25.8885 108.934 25.7598C108.582 25.667 108.239 25.5458 107.907 25.3975C107.601 25.2589 107.313 25.0827 107.05 24.8732C106.771 24.6567 106.549 24.3752 106.403 24.0533C106.253 23.691 106.178 23.3016 106.185 22.9093C106.173 22.5143 106.253 22.1221 106.418 21.7632C106.583 21.4043 106.829 21.0886 107.136 20.8405C107.754 20.3223 108.538 20.0447 109.343 20.0587C110.056 20.046 110.758 20.2343 111.37 20.6021C111.975 20.9801 112.458 21.5267 112.759 22.1752L110.961 23.2334C110.82 22.9164 110.604 22.6383 110.333 22.423C110.051 22.2352 109.719 22.1386 109.381 22.1466C109.118 22.132 108.856 22.2058 108.639 22.3563C108.56 22.4145 108.495 22.4906 108.451 22.5783C108.406 22.6661 108.383 22.7631 108.382 22.8616C108.384 22.9803 108.415 23.0968 108.471 23.2013C108.528 23.3058 108.608 23.3952 108.706 23.4622C109.125 23.7184 109.58 23.9081 110.057 24.0247L110.932 24.3012C111.2 24.4041 111.461 24.5251 111.712 24.6634C111.98 24.7935 112.225 24.9675 112.435 25.1782C112.614 25.3981 112.762 25.642 112.873 25.9028C113.008 26.2255 113.073 26.5732 113.063 26.9229C113.084 27.326 113.008 27.7281 112.842 28.0961C112.677 28.4641 112.427 28.7874 112.112 29.0393C111.369 29.5894 110.456 29.8595 109.534 29.802Z" fill="white"/>
<path d="M121.027 20.2494V22.3086H118.62V29.6209H116.479V22.3086H114.081V20.2494H121.027Z" fill="white"/>
<path d="M125.099 27.5521H128.838V29.6209H122.958V20.2494H128.752V22.3086H125.08V23.834H128.419V25.8646H125.08L125.099 27.5521Z" fill="white"/>
<path d="M135.955 29.6209L134.194 26.5416H133.176V29.6209H131.036V20.2494H134.775C135.197 20.2469 135.615 20.3283 136.005 20.4888C136.395 20.6494 136.749 20.8859 137.048 21.1848C137.346 21.4836 137.582 21.8388 137.742 22.2297C137.902 22.6207 137.984 23.0396 137.981 23.4622C137.986 24.0258 137.82 24.5777 137.505 25.0448C137.199 25.5284 136.769 25.9203 136.259 26.1793L138.267 29.6209H135.955ZM133.176 22.261V24.6635H134.775C134.919 24.6646 135.062 24.6346 135.193 24.5753C135.324 24.5161 135.441 24.4291 135.536 24.3202C135.744 24.0838 135.856 23.7775 135.85 23.4622C135.86 23.1463 135.748 22.8387 135.536 22.6042C135.441 22.4954 135.324 22.4084 135.193 22.3491C135.062 22.2899 134.919 22.2598 134.775 22.261H133.176Z" fill="white"/>
<path d="M147.6 20.2493L144.46 26.0171V29.6208H142.329V26.0171L139.218 20.2493H141.644L143.395 23.8339L145.174 20.2207L147.6 20.2493Z" fill="white"/>
<path d="M75.7271 0H48.8008V29.7H75.7271V0Z" fill="#FF7D34"/>
<path d="M40.3762 0L33.4599 12.0852L26.4583 0H7.65161C10.0992 0.0228934 12.5049 0.639799 14.663 1.79798C16.8211 2.95616 18.6674 4.62117 20.0441 6.65067C18.7272 7.37275 14.3595 9.82399 12.9383 10.5841C9.22436 5.47255 -0.0700398 8.15182 0.299462 14.9355C0.299462 18.8499 2.77228 22.0802 7.0263 22.1752C9.75493 22.3368 12.6446 21.3772 13.4689 19.1919H7.24421V12.2942H22.138C23.1707 21.7952 17.7987 29.6715 7.83162 29.6905C12.4362 29.6905 21.759 29.6905 26.3067 29.6905V14.3084L33.0241 26.1276H33.801L40.5184 14.3084V29.6905H48.8085V0H40.3762Z" fill="white"/>
<path d="M56.6558 19.5915L58.8361 17.7549C59.5545 18.623 60.4554 19.3211 61.4744 19.7992C61.289 20.641 61.0056 21.9857 60.8094 22.7947C59.2024 22.0484 57.7802 20.9545 56.6449 19.5915H56.6558ZM54.2465 15.0327C53.8089 13.5138 53.79 11.9043 54.192 10.3756L57.2118 11.8624C56.9809 12.8509 57.0071 13.8824 57.2881 14.8578L54.2465 15.0327ZM65.2682 23.6146C64.9956 22.6744 64.5923 21.2751 64.3197 20.3349C65.2123 20.284 66.0598 19.9247 66.7181 19.3182L68.8985 21.931C67.911 22.8925 66.6188 23.4766 65.2464 23.5818L65.2682 23.6146ZM56.3832 7.11772C57.4759 6.30636 58.8069 5.88322 60.1662 5.91517L61.0274 8.89969C60.1457 8.90753 59.2898 9.19875 58.5854 9.73055L56.405 7.11772H56.3832ZM59.4357 17.2739C54.9987 11.6984 61.0492 6.61484 65.7479 11.9607C70.1849 17.5253 64.1344 22.6198 59.4357 17.2739ZM67.9391 17.1317C68.1089 16.1716 68.0415 15.1845 67.7429 14.2565L70.3702 14.0816C70.8367 15.4897 70.9564 16.99 70.7191 18.4545L67.9173 17.1317H67.9391ZM63.7637 9.55563C63.9164 8.86689 64.178 7.66434 64.3415 6.96467C65.7747 7.70776 67.0459 8.72979 68.0808 9.97106L66.2275 11.5344C65.5528 10.7098 64.7136 10.0358 63.7637 9.55563ZM68.5932 9.55563C65.1156 4.90939 56.6013 2.71199 53.6905 8.92156C50.5181 16.3883 58.738 26.2165 66.6309 24.3799C73.2374 22.576 72.5506 13.7974 68.5932 9.55563Z" fill="white"/>
<path d="M64.2543 13.1961C61.8668 10.4302 58.7162 13.0758 60.9838 15.9182C63.2513 18.7606 66.511 16.0275 64.2543 13.1961Z" fill="white"/>
</svg>
