<svg width="33" height="33" viewBox="0 0 33 33" fill="none" xmlns="http://www.w3.org/2000/svg">
<path d="M31.6071 8.50002H25.8929V1.64288C25.8929 1.01167 25.3812 0.5 24.75 0.5H1.89288C1.26167 0.5 0.75 1.01167 0.75 1.64288V27.9286C0.75 30.4533 2.79669 32.5 5.32145 32.5H28.1786C30.7033 32.5 32.75 30.4533 32.75 27.9286V9.64283C32.75 9.01169 32.2383 8.50002 31.6071 8.50002ZM9.89283 6.21426H16.75C17.3812 6.21426 17.8928 6.72593 17.8928 7.35714C17.8928 7.98834 17.3812 8.50002 16.75 8.50002H9.89283C9.26162 8.50002 8.74995 7.98834 8.74995 7.35714C8.74995 6.72593 9.26169 6.21426 9.89283 6.21426ZM20.1785 27.9286H6.46426C5.83305 27.9286 5.32138 27.4169 5.32138 26.7857C5.32138 26.1545 5.83305 25.6428 6.46426 25.6428H20.1785C20.8097 25.6428 21.3214 26.1545 21.3214 26.7857C21.3214 27.4169 20.8097 27.9286 20.1785 27.9286ZM20.1785 23.3571H6.46426C5.83305 23.3571 5.32138 22.8454 5.32138 22.2142C5.32138 21.583 5.83305 21.0713 6.46426 21.0713H20.1785C20.8097 21.0713 21.3214 21.583 21.3214 22.2142C21.3214 22.8454 20.8097 23.3571 20.1785 23.3571ZM20.1785 18.7857H6.46426C5.83305 18.7857 5.32138 18.274 5.32138 17.6428C5.32138 17.0116 5.83305 16.5 6.46426 16.5H20.1785C20.8097 16.5 21.3214 17.0116 21.3214 17.6428C21.3214 18.274 20.8097 18.7857 20.1785 18.7857ZM20.1785 14.2143H6.46426C5.83305 14.2143 5.32138 13.7026 5.32138 13.0714C5.32138 12.4402 5.83305 11.9285 6.46426 11.9285H20.1785C20.8097 11.9285 21.3214 12.4402 21.3214 13.0714C21.3214 13.7026 20.8097 14.2143 20.1785 14.2143ZM30.4642 27.9286C30.4642 29.1909 29.4409 30.2142 28.1786 30.2142C26.9162 30.2142 25.8929 29.1909 25.8929 27.9286V10.7857H30.4643V27.9286H30.4642Z" fill="white"/>
</svg>
