<svg width="33" height="33" viewBox="0 0 33 33" fill="none" xmlns="http://www.w3.org/2000/svg">
<g clip-path="url(#clip0_1284:10486)">
<path fill-rule="evenodd" clip-rule="evenodd" d="M18.0333 1.65817C17.3038 0.113942 15.1962 0.113946 14.4667 1.65817L11.063 8.86353C10.7734 9.47674 10.2134 9.90177 9.56571 10.0001L1.95485 11.1555C0.323726 11.4032 -0.327573 13.4974 0.852721 14.6994L6.35998 20.308C6.82868 20.7853 7.04256 21.473 6.93191 22.147L5.63182 30.0665C5.35319 31.7638 7.05833 33.0581 8.51725 32.2567L15.3246 28.5177C15.9039 28.1994 16.5961 28.1995 17.1754 28.5177L23.9827 32.2567C25.4417 33.0581 27.1468 31.7638 26.8682 30.0665L25.5681 22.147C25.4574 21.473 25.6713 20.7853 26.14 20.308L31.6473 14.6994C32.8276 13.4974 32.1763 11.4032 30.5451 11.1555L22.9343 10.0001C22.2866 9.90177 21.7266 9.47674 21.437 8.86353L18.0333 1.65817ZM17.7826 5.71849C17.543 5.2209 16.9453 5.01179 16.4478 5.25142C15.9502 5.49106 15.7411 6.08869 15.9807 6.58628L18.9114 12.6718C19.1544 13.1764 19.6308 13.5378 20.1955 13.6219L26.1963 14.5155L21.8377 18.8694C21.447 19.2597 21.4467 19.8929 21.837 20.2836C22.2273 20.6744 22.8604 20.6747 23.2512 20.2844L27.9932 15.5474C28.9684 14.5733 28.4674 12.8316 27.0434 12.6196L20.6474 11.6672L17.7826 5.71849ZM11.1444 20.3809C11.2356 19.8362 10.8679 19.3207 10.3232 19.2296C9.77848 19.1384 9.263 19.5061 9.17183 20.0508L8.05239 26.7394C7.82585 28.093 9.23619 29.2456 10.535 28.5458L16.3965 25.3879C16.8827 25.1259 17.0645 24.5194 16.8026 24.0332C16.5406 23.547 15.9341 23.3652 15.4479 23.6272L10.1207 26.4972L11.1444 20.3809Z" fill="white"/>
</g>
<defs>
<clipPath id="clip0_1284:10486">
<rect width="32" height="32" fill="white" transform="translate(0.25 0.5)"/>
</clipPath>
</defs>
</svg>
