<svg width="33" height="33" viewBox="0 0 33 33" fill="none" xmlns="http://www.w3.org/2000/svg">
<path d="M31.6531 10.7094C30.9979 9.02553 30.0729 7.47971 28.9197 6.12872C26.5332 3.3307 23.201 1.37606 19.4167 0.740112C18.5479 0.593767 17.6604 0.5 16.75 0.5C15.8395 0.5 14.952 0.593767 14.0833 0.740112C10.2989 1.37606 6.96772 3.33017 4.5802 6.12765C3.42806 7.47924 2.50305 9.02453 1.84795 10.7083C1.14784 12.5063 0.75 14.4547 0.75 16.5C0.75 18.3797 1.09058 20.1755 1.6864 21.851C2.29261 23.5553 3.16866 25.1292 4.28014 26.5121C6.68333 29.5017 10.1374 31.5969 14.0833 32.2599C14.952 32.4062 15.8395 32.5 16.75 32.5C17.6604 32.5 18.5479 32.4062 19.4167 32.2599C23.3625 31.5968 26.8167 29.5016 29.2198 26.5125C30.3313 25.1297 31.2073 23.5558 31.8135 21.8516C32.4093 20.1761 32.75 18.3797 32.75 16.5C32.75 14.4552 32.352 12.5068 31.6531 10.7094ZM29.776 11.7923L26.9781 13.4073C26.448 11.6573 25.4801 10.098 24.2021 8.85206L27.026 7.22185C28.2187 8.54169 29.1583 10.0881 29.776 11.7923ZM25.3052 16.5C25.3052 21.2172 21.4676 25.0552 16.75 25.0552C12.0322 25.0552 8.19473 21.2172 8.19473 16.5C8.19473 11.7829 12.0323 7.9448 16.75 7.9448C21.4676 7.9448 25.3052 11.7829 25.3052 16.5ZM16.75 2.63334C17.6624 2.63334 18.5531 2.72765 19.4167 2.89636V6.16194C18.5625 5.94112 17.6718 5.81145 16.75 5.81145C15.8281 5.81145 14.9374 5.94119 14.0833 6.16194V2.89636C14.9468 2.72765 15.8374 2.63334 16.75 2.63334ZM6.4749 7.22138L9.29891 8.85206C8.02086 10.0974 7.05211 11.6568 6.52185 13.4067L3.7239 11.7917C4.34263 10.0875 5.28225 8.54116 6.4749 7.22138ZM3.56249 20.7678L6.40203 19.1287C6.85412 20.9073 7.74893 22.5069 8.96865 23.8053L6.15616 25.4287C5.01146 24.0719 4.12288 22.4943 3.56249 20.7678ZM16.75 30.3667C15.8374 30.3667 14.9468 30.2724 14.0833 30.1036V26.8381C14.9374 27.0589 15.8281 27.1885 16.75 27.1885C17.6718 27.1885 18.5625 27.0589 19.4167 26.8381V30.1036C18.5531 30.2724 17.6624 30.3667 16.75 30.3667ZM27.3426 25.4287L24.5312 23.8053C25.7509 22.5073 26.6458 20.9073 27.0978 19.1287L29.9374 20.7683C29.377 22.4943 28.4885 24.0719 27.3426 25.4287Z" fill="white"/>
<path d="M17.6541 15.3376C16.2936 14.8256 15.7342 14.4896 15.7342 13.9615C15.7342 13.5136 16.0697 13.0657 17.1103 13.0657C17.7103 13.0657 18.1978 13.1652 18.5854 13.286C18.8051 13.3542 19.0436 13.3288 19.2458 13.2162C19.4468 13.1042 19.5926 12.9141 19.6499 12.6906L19.6645 12.6355C19.7946 12.1256 19.4884 11.6058 18.978 11.474C18.5863 11.3725 18.1207 11.2985 17.5583 11.2735V10.6728C17.5583 10.2645 17.2557 9.90729 16.8492 9.86925C16.383 9.82565 15.9905 10.1919 15.9905 10.6496V11.3855C14.2781 11.7214 13.2864 12.8255 13.2864 14.2333C13.2864 15.7854 14.454 16.5854 16.1666 17.1614C17.35 17.5614 17.8624 17.9453 17.8624 18.553C17.8624 19.1931 17.2385 19.5453 16.3259 19.5453C15.6728 19.5453 15.0571 19.4125 14.5228 19.223C14.2999 19.1432 14.053 19.1625 13.8436 19.2739C13.6343 19.3854 13.4811 19.5791 13.4227 19.8094L13.4155 19.8365C13.2759 20.3818 13.5905 20.9396 14.129 21.1021C14.6571 21.2609 15.2781 21.3729 15.9103 21.4011V22.1157C15.9103 22.5486 16.2612 22.8996 16.6942 22.8996C17.1271 22.8996 17.478 22.5486 17.478 22.1157V21.2891C19.3176 20.9693 20.326 19.7531 20.326 18.3292C20.326 16.8897 19.5583 16.0095 17.6541 15.3376Z" fill="white"/>
</svg>
