<svg width="33" height="33" viewBox="0 0 33 33" fill="none" xmlns="http://www.w3.org/2000/svg">
<g clip-path="url(#clip0_1284:10474)">
<path d="M29.1196 0.5C27.3934 0.5 25.9891 1.90425 25.9891 3.63044C25.9891 4.989 26.8641 6.13644 28.0761 6.56856V15.1087H25.9891V13.3696C25.9891 6.27306 20.2161 0.5 13.1196 0.5C6.02306 0.5 0.25 6.27306 0.25 13.3696V29.3696C0.25 31.0957 1.65425 32.5 3.38044 32.5H22.8587C24.5849 32.5 25.9891 31.0957 25.9891 29.3696V17.1956H29.1196C29.6956 17.1956 30.1631 16.7286 30.1631 16.1521V6.56856C31.375 6.13644 32.25 4.98906 32.25 3.63044C32.25 1.90425 30.8457 0.5 29.1196 0.5ZM6.23231 9.54244C7.26494 6.63044 10.0326 4.67394 13.1196 4.67394C16.2066 4.67394 18.9742 6.63044 20.0068 9.54244C20.1991 10.0856 19.9151 10.6821 19.3716 10.8746C18.8329 11.0674 18.2338 10.7864 18.0394 10.2401C17.3016 8.159 15.3247 6.76088 13.1196 6.76088C10.9144 6.76088 8.9375 8.159 8.19969 10.2402C8.00681 10.783 7.41025 11.0686 6.8675 10.8747C6.324 10.6821 6.04006 10.0856 6.23231 9.54244ZM14.1631 9.89131C14.1631 10.4676 13.6959 10.9348 13.1196 10.9348C12.5433 10.9348 12.0761 10.4676 12.0761 9.89131C12.0761 9.315 12.5433 8.84781 13.1196 8.84781C13.6958 8.84781 14.1631 9.315 14.1631 9.89131ZM18.3369 28.3261H7.90219C7.32612 28.3261 6.85869 27.859 6.85869 27.2826C6.85869 26.7061 7.32612 26.2391 7.90219 26.2391H18.3369C18.913 26.2391 19.3804 26.7061 19.3804 27.2826C19.3804 27.859 18.913 28.3261 18.3369 28.3261ZM21.4674 23.1087C21.4674 23.6851 20.9999 24.1522 20.4239 24.1522H5.81525C5.23919 24.1522 4.77175 23.6851 4.77175 23.1087V14.0652C4.77175 13.4888 5.23919 13.0217 5.81525 13.0217H20.4239C21 13.0217 21.4674 13.4888 21.4674 14.0652V23.1087H21.4674Z" fill="white"/>
<path d="M14.5109 15.1087H11.7283V22.0652H14.5109V15.1087Z" fill="white"/>
<path d="M9.64127 15.1087H6.85864V22.0652H9.64127V15.1087Z" fill="white"/>
<path d="M19.3804 15.1087H16.5978V22.0652H19.3804V15.1087Z" fill="white"/>
</g>
<defs>
<clipPath id="clip0_1284:10474">
<rect width="32" height="32" fill="white" transform="translate(0.25 0.5)"/>
</clipPath>
</defs>
</svg>
