<svg width="34" height="22" viewBox="0 0 34 22" fill="none" xmlns="http://www.w3.org/2000/svg">
<g clip-path="url(#clip0_1606:5940)">
<path d="M33.1045 21.982H0.736746C0.417549 21.982 0.158722 21.7232 0.158722 21.404V0.59609C0.158722 0.276893 0.417549 0.0180664 0.736746 0.0180664H33.1046C33.4238 0.0180664 33.6826 0.276893 33.6826 0.59609V21.404C33.6825 21.7232 33.4237 21.982 33.1045 21.982Z" fill="#F5F5F5"/>
<path d="M33.6825 1.70768H0.158722V0.59609C0.158722 0.276894 0.417549 0.0180664 0.736746 0.0180664H33.1046C33.4238 0.0180664 33.6826 0.276894 33.6826 0.59609L33.6825 1.70768Z" fill="#FF4B55"/>
<path d="M33.6825 6.77637H0.158722V8.46591H33.6825V6.77637Z" fill="#FF4B55"/>
<path d="M33.6825 3.39697H0.158722V5.08652H33.6825V3.39697Z" fill="#FF4B55"/>
<path d="M33.6825 11.8449H0.736746C0.417549 11.8449 0.158722 11.5861 0.158722 11.2669V10.1553H33.6825V11.8449Z" fill="#FF4B55"/>
<path d="M33.6825 16.9141H0.158722V18.6036H33.6825V16.9141Z" fill="#FF4B55"/>
<path d="M33.1045 21.982H0.736746C0.417549 21.982 0.158722 21.7232 0.158722 21.404V20.2925H33.6825V21.4041C33.6825 21.7233 33.4237 21.982 33.1045 21.982Z" fill="#FF4B55"/>
<path d="M33.6825 13.5347H0.158722V15.2242H33.6825V13.5347Z" fill="#FF4B55"/>
<path d="M15.1866 0.0180664H0.736746C0.417549 0.0180664 0.158722 0.276828 0.158722 0.596024V11.2667C0.158722 11.5859 0.417549 11.8447 0.736746 11.8447H15.1867C15.5059 11.8447 15.7647 11.5859 15.7647 11.2667V0.596024C15.7646 0.276828 15.5058 0.0180664 15.1866 0.0180664Z" fill="#41479B"/>
<path d="M1.78176 1.34488L1.9097 1.72857L2.31415 1.73165C2.36653 1.73211 2.3882 1.79889 2.3461 1.82999L2.02075 2.07029L2.1428 2.45588C2.15864 2.50577 2.10174 2.54715 2.05912 2.51664L1.7301 2.28152L1.40108 2.51671C1.35846 2.54715 1.30169 2.50584 1.3174 2.45595L1.43945 2.07036L1.1141 1.83006C1.072 1.79889 1.09367 1.73217 1.14605 1.73171L1.5505 1.72864L1.67844 1.34495C1.69494 1.29518 1.76513 1.29518 1.78176 1.34488Z" fill="#F5F5F5"/>
<path d="M1.78176 3.35216L1.9097 3.73585L2.31415 3.73892C2.36653 3.73938 2.3882 3.80617 2.3461 3.83727L2.02075 4.07757L2.1428 4.46316C2.15864 4.51305 2.10174 4.55443 2.05912 4.52392L1.7301 4.28879L1.40108 4.52398C1.35846 4.55443 1.30169 4.51311 1.3174 4.46322L1.43945 4.07763L1.1141 3.83733C1.072 3.80617 1.09367 3.73945 1.14605 3.73899L1.5505 3.73591L1.67844 3.35222C1.69494 3.30253 1.76513 3.30253 1.78176 3.35216Z" fill="#F5F5F5"/>
<path d="M1.78176 5.35899L1.9097 5.74268L2.31415 5.74576C2.36653 5.74622 2.3882 5.813 2.3461 5.8441L2.02075 6.0844L2.1428 6.46999C2.15864 6.51988 2.10174 6.56126 2.05912 6.53075L1.7301 6.29563L1.40108 6.53081C1.35846 6.56126 1.30169 6.51995 1.3174 6.47005L1.43945 6.08447L1.1141 5.84417C1.072 5.813 1.09367 5.74628 1.14605 5.74582L1.5505 5.74275L1.67844 5.35906C1.69494 5.30936 1.76513 5.30936 1.78176 5.35899Z" fill="#F5F5F5"/>
<path d="M1.78176 7.36637L1.9097 7.75006L2.31415 7.75313C2.36653 7.75359 2.3882 7.82038 2.3461 7.85148L2.02075 8.09178L2.1428 8.47737C2.15864 8.52726 2.10174 8.56864 2.05912 8.53813L1.7301 8.303L1.40108 8.53819C1.35846 8.56864 1.30169 8.52733 1.3174 8.47743L1.43945 8.09184L1.1141 7.85154C1.072 7.82038 1.09367 7.75366 1.14605 7.7532L1.5505 7.75012L1.67844 7.36643C1.69494 7.31667 1.76513 7.31667 1.78176 7.36637Z" fill="#F5F5F5"/>
<path d="M1.78176 9.37325L1.9097 9.75694L2.31415 9.76002C2.36653 9.76048 2.3882 9.82726 2.3461 9.85837L2.02075 10.0987L2.1428 10.4843C2.15864 10.5342 2.10174 10.5755 2.05912 10.545L1.7301 10.3099L1.40108 10.5451C1.35846 10.5755 1.30169 10.5342 1.3174 10.4843L1.43945 10.0987L1.1141 9.85843C1.072 9.82727 1.09367 9.76054 1.14605 9.76009L1.5505 9.75701L1.67844 9.37332C1.69494 9.32349 1.76513 9.32349 1.78176 9.37325Z" fill="#F5F5F5"/>
<path d="M3.33963 2.32873L3.46757 2.71242L3.87202 2.71549C3.9244 2.71595 3.94607 2.78274 3.90397 2.81384L3.57862 3.05414L3.70067 3.43973C3.71651 3.48962 3.65961 3.531 3.61699 3.50049L3.28797 3.2653L2.95895 3.50049C2.91633 3.53094 2.85956 3.48962 2.87527 3.43973L2.99732 3.05414L2.67197 2.81384C2.62987 2.78267 2.65154 2.71595 2.70392 2.71549L3.10837 2.71242L3.23631 2.32873C3.25274 2.2791 3.32306 2.2791 3.33963 2.32873Z" fill="#F5F5F5"/>
<path d="M3.33963 4.3361L3.46757 4.71979L3.87202 4.72287C3.9244 4.72333 3.94607 4.79011 3.90397 4.82121L3.57862 5.06151L3.70067 5.4471C3.71651 5.49699 3.65961 5.53837 3.61699 5.50786L3.28797 5.27267L2.95895 5.50786C2.91633 5.53831 2.85956 5.49706 2.87527 5.4471L2.99732 5.06151L2.67197 4.82121C2.62987 4.79005 2.65154 4.72333 2.70392 4.72287L3.10837 4.71979L3.23631 4.3361C3.25274 4.2864 3.32306 4.2864 3.33963 4.3361Z" fill="#F5F5F5"/>
<path d="M3.33963 6.34342L3.46757 6.72711L3.87202 6.73019C3.9244 6.73065 3.94607 6.79744 3.90397 6.82854L3.57862 7.06884L3.70067 7.45442C3.71651 7.50432 3.65961 7.5457 3.61699 7.51519L3.28797 7.28L2.95895 7.51519C2.91633 7.54563 2.85956 7.50432 2.87527 7.45442L2.99732 7.06884L2.67197 6.82854C2.62987 6.79737 2.65154 6.73065 2.70392 6.73019L3.10837 6.72711L3.23631 6.34342C3.25274 6.29373 3.32306 6.29373 3.33963 6.34342Z" fill="#F5F5F5"/>
<path d="M3.33963 8.35021L3.46757 8.7339L3.87202 8.73698C3.9244 8.73744 3.94607 8.80422 3.90397 8.83532L3.57862 9.07562L3.70067 9.46121C3.71651 9.5111 3.65961 9.55249 3.61699 9.52197L3.28797 9.28678L2.95895 9.52197C2.91633 9.55242 2.85956 9.5111 2.87527 9.46121L2.99732 9.07562L2.67197 8.83532C2.62987 8.80416 2.65154 8.73744 2.70392 8.73698L3.10837 8.7339L3.23631 8.35021C3.25274 8.30058 3.32306 8.30058 3.33963 8.35021Z" fill="#F5F5F5"/>
<path d="M4.89757 1.34489L5.02551 1.72858L5.42996 1.73166C5.48234 1.73212 5.50401 1.7989 5.46191 1.83L5.13656 2.0703L5.25861 2.45589C5.27445 2.50578 5.21755 2.54716 5.17493 2.51665L4.84591 2.28146L4.51689 2.51665C4.47427 2.5471 4.4175 2.50578 4.43321 2.45589L4.55526 2.0703L4.22991 1.83C4.18781 1.79884 4.20948 1.73212 4.26186 1.73166L4.66631 1.72858L4.79425 1.34489C4.81075 1.29519 4.881 1.29519 4.89757 1.34489Z" fill="#F5F5F5"/>
<path d="M4.89757 3.35216L5.02551 3.73586L5.42996 3.73893C5.48234 3.73939 5.50401 3.80618 5.46191 3.83728L5.13656 4.07757L5.25861 4.46316C5.27445 4.51306 5.21755 4.55444 5.17493 4.52393L4.84591 4.28874L4.51689 4.52393C4.47427 4.55437 4.4175 4.51306 4.43321 4.46316L4.55526 4.07757L4.22991 3.83728C4.18781 3.80611 4.20948 3.73939 4.26186 3.73893L4.66631 3.73586L4.79425 3.35216C4.81075 3.30253 4.881 3.30253 4.89757 3.35216Z" fill="#F5F5F5"/>
<path d="M4.89757 5.359L5.02551 5.74269L5.42996 5.74577C5.48234 5.74623 5.50401 5.81301 5.46191 5.84412L5.13656 6.08441L5.25861 6.47C5.27445 6.5199 5.21755 6.56128 5.17493 6.53077L4.84591 6.29558L4.51689 6.53077C4.47427 6.56121 4.4175 6.5199 4.43321 6.47L4.55526 6.08441L4.22991 5.84412C4.18781 5.81295 4.20948 5.74623 4.26186 5.74577L4.66631 5.74269L4.79425 5.359C4.81075 5.30937 4.881 5.30937 4.89757 5.359Z" fill="#F5F5F5"/>
<path d="M4.89757 7.36637L5.02551 7.75006L5.42996 7.75314C5.48234 7.7536 5.50401 7.82039 5.46191 7.85149L5.13656 8.09178L5.25861 8.47737C5.27445 8.52727 5.21755 8.56865 5.17493 8.53814L4.84591 8.30294L4.51689 8.53814C4.47427 8.56858 4.4175 8.52727 4.43321 8.47737L4.55526 8.09178L4.22991 7.85149C4.18781 7.82032 4.20948 7.7536 4.26186 7.75314L4.66631 7.75006L4.79425 7.36637C4.81075 7.31668 4.881 7.31668 4.89757 7.36637Z" fill="#F5F5F5"/>
<path d="M4.89757 9.37326L5.02551 9.75695L5.42996 9.76003C5.48234 9.76049 5.50401 9.82727 5.46191 9.85837L5.13656 10.0987L5.25861 10.4843C5.27445 10.5342 5.21755 10.5755 5.17493 10.545L4.84591 10.3098L4.51689 10.545C4.47427 10.5755 4.4175 10.5342 4.43321 10.4843L4.55526 10.0987L4.22991 9.85837C4.18781 9.82721 4.20948 9.76049 4.26186 9.76003L4.66631 9.75695L4.79425 9.37326C4.81075 9.3235 4.881 9.3235 4.89757 9.37326Z" fill="#F5F5F5"/>
<path d="M6.45535 2.32873L6.58329 2.71242L6.98773 2.71549C7.04011 2.71595 7.06179 2.78274 7.01968 2.81384L6.69433 3.05414L6.81638 3.43973C6.83223 3.48962 6.77533 3.531 6.7327 3.50049L6.40368 3.2653L6.07467 3.50049C6.03204 3.53094 5.97527 3.48962 5.99099 3.43973L6.11304 3.05414L5.78768 2.81384C5.74558 2.78267 5.76726 2.71595 5.81964 2.71549L6.22408 2.71242L6.35202 2.32873C6.36846 2.2791 6.43878 2.2791 6.45535 2.32873Z" fill="#F5F5F5"/>
<path d="M6.45535 4.3361L6.58329 4.71979L6.98773 4.72287C7.04011 4.72333 7.06179 4.79011 7.01968 4.82121L6.69433 5.06151L6.81638 5.4471C6.83223 5.49699 6.77533 5.53837 6.7327 5.50786L6.40368 5.27267L6.07467 5.50786C6.03204 5.53831 5.97527 5.49706 5.99099 5.4471L6.11304 5.06151L5.78768 4.82121C5.74558 4.79005 5.76726 4.72333 5.81964 4.72287L6.22408 4.71979L6.35202 4.3361C6.36846 4.2864 6.43878 4.2864 6.45535 4.3361Z" fill="#F5F5F5"/>
<path d="M6.45535 6.34342L6.58329 6.72711L6.98773 6.73019C7.04011 6.73065 7.06179 6.79744 7.01968 6.82854L6.69433 7.06884L6.81638 7.45442C6.83223 7.50432 6.77533 7.5457 6.7327 7.51519L6.40368 7.28L6.07467 7.51519C6.03204 7.54563 5.97527 7.50432 5.99099 7.45442L6.11304 7.06884L5.78768 6.82854C5.74558 6.79737 5.76726 6.73065 5.81964 6.73019L6.22408 6.72711L6.35202 6.34342C6.36846 6.29373 6.43878 6.29373 6.45535 6.34342Z" fill="#F5F5F5"/>
<path d="M6.45535 8.35021L6.58329 8.7339L6.98773 8.73698C7.04011 8.73744 7.06179 8.80422 7.01968 8.83532L6.69433 9.07562L6.81638 9.46121C6.83223 9.5111 6.77533 9.55249 6.7327 9.52197L6.40368 9.28678L6.07467 9.52197C6.03204 9.55242 5.97527 9.5111 5.99099 9.46121L6.11304 9.07562L5.78768 8.83532C5.74558 8.80416 5.76726 8.73744 5.81964 8.73698L6.22408 8.7339L6.35202 8.35021C6.36846 8.30058 6.43878 8.30058 6.45535 8.35021Z" fill="#F5F5F5"/>
<path d="M8.01323 1.34489L8.14117 1.72858L8.54562 1.73166C8.598 1.73212 8.61967 1.7989 8.57757 1.83L8.25222 2.0703L8.37427 2.45589C8.39011 2.50578 8.33322 2.54716 8.29059 2.51665L7.96151 2.28146L7.63249 2.51665C7.58987 2.5471 7.5331 2.50578 7.54881 2.45589L7.67086 2.0703L7.34551 1.83C7.30341 1.79884 7.32508 1.73212 7.37746 1.73166L7.78191 1.72858L7.90985 1.34489C7.92641 1.29519 7.99667 1.29519 8.01323 1.34489Z" fill="#F5F5F5"/>
<path d="M8.01323 3.35216L8.14117 3.73586L8.54562 3.73893C8.598 3.73939 8.61967 3.80618 8.57757 3.83728L8.25222 4.07757L8.37427 4.46316C8.39011 4.51306 8.33322 4.55444 8.29059 4.52393L7.96151 4.28874L7.63249 4.52393C7.58987 4.55437 7.5331 4.51306 7.54881 4.46316L7.67086 4.07757L7.34551 3.83728C7.30341 3.80611 7.32508 3.73939 7.37746 3.73893L7.78191 3.73586L7.90985 3.35216C7.92641 3.30253 7.99667 3.30253 8.01323 3.35216Z" fill="#F5F5F5"/>
<path d="M8.01323 5.359L8.14117 5.74269L8.54562 5.74577C8.598 5.74623 8.61967 5.81301 8.57757 5.84412L8.25222 6.08441L8.37427 6.47C8.39011 6.5199 8.33322 6.56128 8.29059 6.53077L7.96151 6.29558L7.63249 6.53077C7.58987 6.56121 7.5331 6.5199 7.54881 6.47L7.67086 6.08441L7.34551 5.84412C7.30341 5.81295 7.32508 5.74623 7.37746 5.74577L7.78191 5.74269L7.90985 5.359C7.92641 5.30937 7.99667 5.30937 8.01323 5.359Z" fill="#F5F5F5"/>
<path d="M8.01323 7.36637L8.14117 7.75006L8.54562 7.75314C8.598 7.7536 8.61967 7.82039 8.57757 7.85149L8.25222 8.09178L8.37427 8.47737C8.39011 8.52727 8.33322 8.56865 8.29059 8.53814L7.96151 8.30294L7.63249 8.53814C7.58987 8.56858 7.5331 8.52727 7.54881 8.47737L7.67086 8.09178L7.34551 7.85149C7.30341 7.82032 7.32508 7.7536 7.37746 7.75314L7.78191 7.75006L7.90985 7.36637C7.92641 7.31668 7.99667 7.31668 8.01323 7.36637Z" fill="#F5F5F5"/>
<path d="M8.01323 9.37326L8.14117 9.75695L8.54562 9.76003C8.598 9.76049 8.61967 9.82727 8.57757 9.85837L8.25222 10.0987L8.37427 10.4843C8.39011 10.5342 8.33322 10.5755 8.29059 10.545L7.96151 10.3098L7.63249 10.545C7.58987 10.5755 7.5331 10.5342 7.54881 10.4843L7.67086 10.0987L7.34551 9.85837C7.30341 9.82721 7.32508 9.76049 7.37746 9.76003L7.78191 9.75695L7.90985 9.37326C7.92641 9.3235 7.99667 9.3235 8.01323 9.37326Z" fill="#F5F5F5"/>
<path d="M9.57115 2.32873L9.69909 2.71242L10.1035 2.71549C10.1559 2.71595 10.1776 2.78274 10.1355 2.81384L9.81014 3.05414L9.93219 3.43973C9.94804 3.48962 9.89114 3.531 9.84851 3.50049L9.51949 3.2653L9.19047 3.50049C9.14785 3.53094 9.09108 3.48962 9.1068 3.43973L9.22884 3.05414L8.90349 2.81384C8.86139 2.78267 8.88306 2.71595 8.93544 2.71549L9.33989 2.71242L9.46783 2.32873C9.4844 2.2791 9.55459 2.2791 9.57115 2.32873Z" fill="#F5F5F5"/>
<path d="M9.57115 4.3361L9.69909 4.71979L10.1035 4.72287C10.1559 4.72333 10.1776 4.79011 10.1355 4.82121L9.81014 5.06151L9.93219 5.4471C9.94804 5.49699 9.89114 5.53837 9.84851 5.50786L9.51949 5.27267L9.19047 5.50786C9.14785 5.53831 9.09108 5.49706 9.1068 5.4471L9.22884 5.06151L8.90349 4.82121C8.86139 4.79005 8.88306 4.72333 8.93544 4.72287L9.33989 4.71979L9.46783 4.3361C9.4844 4.2864 9.55459 4.2864 9.57115 4.3361Z" fill="#F5F5F5"/>
<path d="M9.57115 6.34342L9.69909 6.72711L10.1035 6.73019C10.1559 6.73065 10.1776 6.79744 10.1355 6.82854L9.81014 7.06884L9.93219 7.45442C9.94804 7.50432 9.89114 7.5457 9.84851 7.51519L9.51949 7.28L9.19047 7.51519C9.14785 7.54563 9.09108 7.50432 9.1068 7.45442L9.22884 7.06884L8.90349 6.82854C8.86139 6.79737 8.88306 6.73065 8.93544 6.73019L9.33989 6.72711L9.46783 6.34342C9.4844 6.29373 9.55459 6.29373 9.57115 6.34342Z" fill="#F5F5F5"/>
<path d="M9.57115 8.35021L9.69909 8.7339L10.1035 8.73698C10.1559 8.73744 10.1776 8.80422 10.1355 8.83532L9.81014 9.07562L9.93219 9.46121C9.94804 9.5111 9.89114 9.55249 9.84851 9.52197L9.51949 9.28678L9.19047 9.52197C9.14785 9.55242 9.09108 9.5111 9.1068 9.46121L9.22884 9.07562L8.90349 8.83532C8.86139 8.80416 8.88306 8.73744 8.93544 8.73698L9.33989 8.7339L9.46783 8.35021C9.4844 8.30058 9.55459 8.30058 9.57115 8.35021Z" fill="#F5F5F5"/>
<path d="M11.1291 1.34489L11.2571 1.72858L11.6615 1.73166C11.7139 1.73212 11.7356 1.7989 11.6935 1.83L11.3681 2.0703L11.4902 2.45589C11.506 2.50578 11.4491 2.54716 11.4065 2.51665L11.0775 2.28146L10.7485 2.51665C10.7058 2.5471 10.6491 2.50578 10.6648 2.45589L10.7868 2.0703L10.4615 1.83C10.4194 1.79884 10.4411 1.73212 10.4934 1.73166L10.8979 1.72858L11.0258 1.34489C11.0423 1.29519 11.1126 1.29519 11.1291 1.34489Z" fill="#F5F5F5"/>
<path d="M11.1291 3.35216L11.2571 3.73586L11.6615 3.73893C11.7139 3.73939 11.7356 3.80618 11.6935 3.83728L11.3681 4.07757L11.4902 4.46316C11.506 4.51306 11.4491 4.55444 11.4065 4.52393L11.0775 4.28874L10.7485 4.52393C10.7058 4.55437 10.6491 4.51306 10.6648 4.46316L10.7868 4.07757L10.4615 3.83728C10.4194 3.80611 10.4411 3.73939 10.4934 3.73893L10.8979 3.73586L11.0258 3.35216C11.0423 3.30253 11.1126 3.30253 11.1291 3.35216Z" fill="#F5F5F5"/>
<path d="M11.1291 5.359L11.2571 5.74269L11.6615 5.74577C11.7139 5.74623 11.7356 5.81301 11.6935 5.84412L11.3681 6.08441L11.4902 6.47C11.506 6.5199 11.4491 6.56128 11.4065 6.53077L11.0775 6.29558L10.7485 6.53077C10.7058 6.56121 10.6491 6.5199 10.6648 6.47L10.7868 6.08441L10.4615 5.84412C10.4194 5.81295 10.4411 5.74623 10.4934 5.74577L10.8979 5.74269L11.0258 5.359C11.0423 5.30937 11.1126 5.30937 11.1291 5.359Z" fill="#F5F5F5"/>
<path d="M11.1291 7.36637L11.2571 7.75006L11.6615 7.75314C11.7139 7.7536 11.7356 7.82039 11.6935 7.85149L11.3681 8.09178L11.4902 8.47737C11.506 8.52727 11.4491 8.56865 11.4065 8.53814L11.0775 8.30294L10.7485 8.53814C10.7058 8.56858 10.6491 8.52727 10.6648 8.47737L10.7868 8.09178L10.4615 7.85149C10.4194 7.82032 10.4411 7.7536 10.4934 7.75314L10.8979 7.75006L11.0258 7.36637C11.0423 7.31668 11.1126 7.31668 11.1291 7.36637Z" fill="#F5F5F5"/>
<path d="M11.1291 9.37326L11.2571 9.75695L11.6615 9.76003C11.7139 9.76049 11.7356 9.82727 11.6935 9.85837L11.3681 10.0987L11.4902 10.4843C11.506 10.5342 11.4491 10.5755 11.4065 10.545L11.0775 10.3098L10.7485 10.545C10.7058 10.5755 10.6491 10.5342 10.6648 10.4843L10.7868 10.0987L10.4615 9.85837C10.4194 9.82721 10.4411 9.76049 10.4934 9.76003L10.8979 9.75695L11.0258 9.37326C11.0423 9.3235 11.1126 9.3235 11.1291 9.37326Z" fill="#F5F5F5"/>
<path d="M12.687 2.32873L12.815 2.71242L13.2194 2.71549C13.2718 2.71595 13.2935 2.78274 13.2513 2.81384L12.926 3.05414L13.048 3.43973C13.0639 3.48962 13.007 3.531 12.9644 3.50049L12.6353 3.2653L12.3063 3.50049C12.2637 3.53094 12.2069 3.48962 12.2227 3.43973L12.3447 3.05414L12.0194 2.81384C11.9773 2.78267 11.9989 2.71595 12.0513 2.71549L12.4557 2.71242L12.5837 2.32873C12.6002 2.2791 12.6705 2.2791 12.687 2.32873Z" fill="#F5F5F5"/>
<path d="M12.687 4.3361L12.815 4.71979L13.2194 4.72287C13.2718 4.72333 13.2935 4.79011 13.2513 4.82121L12.926 5.06151L13.048 5.4471C13.0639 5.49699 13.007 5.53837 12.9644 5.50786L12.6353 5.27267L12.3063 5.50786C12.2637 5.53831 12.2069 5.49706 12.2227 5.4471L12.3447 5.06151L12.0194 4.82121C11.9773 4.79005 11.9989 4.72333 12.0513 4.72287L12.4557 4.71979L12.5837 4.3361C12.6002 4.2864 12.6705 4.2864 12.687 4.3361Z" fill="#F5F5F5"/>
<path d="M12.687 6.34342L12.815 6.72711L13.2194 6.73019C13.2718 6.73065 13.2935 6.79744 13.2513 6.82854L12.926 7.06884L13.048 7.45442C13.0639 7.50432 13.007 7.5457 12.9644 7.51519L12.6353 7.28L12.3063 7.51519C12.2637 7.54563 12.2069 7.50432 12.2227 7.45442L12.3447 7.06884L12.0194 6.82854C11.9773 6.79737 11.9989 6.73065 12.0513 6.73019L12.4557 6.72711L12.5837 6.34342C12.6002 6.29373 12.6705 6.29373 12.687 6.34342Z" fill="#F5F5F5"/>
<path d="M12.687 8.35021L12.815 8.7339L13.2194 8.73698C13.2718 8.73744 13.2935 8.80422 13.2513 8.83532L12.926 9.07562L13.048 9.46121C13.0639 9.5111 13.007 9.55249 12.9644 9.52197L12.6353 9.28678L12.3063 9.52197C12.2637 9.55242 12.2069 9.5111 12.2227 9.46121L12.3447 9.07562L12.0194 8.83532C11.9773 8.80416 11.9989 8.73744 12.0513 8.73698L12.4557 8.7339L12.5837 8.35021C12.6002 8.30058 12.6705 8.30058 12.687 8.35021Z" fill="#F5F5F5"/>
<path d="M14.245 1.34489L14.3729 1.72858L14.7774 1.73166C14.8297 1.73212 14.8514 1.7989 14.8093 1.83L14.484 2.0703L14.606 2.45589C14.6219 2.50578 14.565 2.54716 14.5223 2.51665L14.1933 2.28146L13.8643 2.51665C13.8217 2.5471 13.7649 2.50578 13.7806 2.45589L13.9027 2.0703L13.5773 1.83C13.5352 1.79884 13.5569 1.73212 13.6093 1.73166L14.0137 1.72858L14.1417 1.34489C14.1582 1.29519 14.2284 1.29519 14.245 1.34489Z" fill="#F5F5F5"/>
<path d="M14.245 3.35216L14.3729 3.73586L14.7774 3.73893C14.8297 3.73939 14.8514 3.80618 14.8093 3.83728L14.484 4.07757L14.606 4.46316C14.6219 4.51306 14.565 4.55444 14.5223 4.52393L14.1933 4.28874L13.8643 4.52393C13.8217 4.55437 13.7649 4.51306 13.7806 4.46316L13.9027 4.07757L13.5773 3.83728C13.5352 3.80611 13.5569 3.73939 13.6093 3.73893L14.0137 3.73586L14.1417 3.35216C14.1582 3.30253 14.2284 3.30253 14.245 3.35216Z" fill="#F5F5F5"/>
<path d="M14.245 5.359L14.3729 5.74269L14.7774 5.74577C14.8297 5.74623 14.8514 5.81301 14.8093 5.84412L14.484 6.08441L14.606 6.47C14.6219 6.5199 14.565 6.56128 14.5223 6.53077L14.1933 6.29558L13.8643 6.53077C13.8217 6.56121 13.7649 6.5199 13.7806 6.47L13.9027 6.08441L13.5773 5.84412C13.5352 5.81295 13.5569 5.74623 13.6093 5.74577L14.0137 5.74269L14.1417 5.359C14.1582 5.30937 14.2284 5.30937 14.245 5.359Z" fill="#F5F5F5"/>
<path d="M14.245 7.36637L14.3729 7.75006L14.7774 7.75314C14.8297 7.7536 14.8514 7.82039 14.8093 7.85149L14.484 8.09178L14.606 8.47737C14.6219 8.52727 14.565 8.56865 14.5223 8.53814L14.1933 8.30294L13.8643 8.53814C13.8217 8.56858 13.7649 8.52727 13.7806 8.47737L13.9027 8.09178L13.5773 7.85149C13.5352 7.82032 13.5569 7.7536 13.6093 7.75314L14.0137 7.75006L14.1417 7.36637C14.1582 7.31668 14.2284 7.31668 14.245 7.36637Z" fill="#F5F5F5"/>
<path d="M14.245 9.37326L14.3729 9.75695L14.7774 9.76003C14.8297 9.76049 14.8514 9.82727 14.8093 9.85837L14.484 10.0987L14.606 10.4843C14.6219 10.5342 14.565 10.5755 14.5223 10.545L14.1933 10.3098L13.8643 10.545C13.8217 10.5755 13.7649 10.5342 13.7806 10.4843L13.9027 10.0987L13.5773 9.85837C13.5352 9.82721 13.5569 9.76049 13.6093 9.76003L14.0137 9.75695L14.1417 9.37326C14.1582 9.3235 14.2284 9.3235 14.245 9.37326Z" fill="#F5F5F5"/>
</g>
<defs>
<clipPath id="clip0_1606:5940">
<rect width="33.5239" height="22" fill="white" transform="translate(0.158722)"/>
</clipPath>
</defs>
</svg>
