<svg width="32" height="32" viewBox="0 0 32 32" fill="none" xmlns="http://www.w3.org/2000/svg">
<path d="M0 12L0 28C0 29.1045 0.895386 30 2 30H8V10H2C0.895386 10 0 10.8954 0 12Z" fill="#6F82EB"/>
<path d="M28.3065 11.9996H22.3983C21.8817 11.9996 21.6229 11.6549 21.536 11.5065C21.4491 11.359 21.2733 10.9654 21.5233 10.5143L23.6063 6.76328C24.0634 5.94199 24.1102 4.97617 23.7362 4.11386C23.3622 3.25058 22.6239 2.62461 21.7108 2.39707L20.2421 2.02988C19.8846 1.94004 19.5057 2.0543 19.2567 2.33066L11.2821 11.19C10.455 12.1109 9.99988 13.2984 9.99988 14.5348V24.9996C9.99988 27.7564 12.243 29.9996 14.9999 29.9996L24.9481 29.9986C27.1942 29.9986 29.1776 28.4859 29.7704 26.3209L31.9051 16.524C31.9676 16.2515 31.9999 15.9722 31.9999 15.693C31.9999 13.6568 30.3426 11.9996 28.3065 11.9996L28.3065 11.9996Z" fill="#6F82EB"/>
</svg>
