<svg width="148" height="30" viewBox="0 0 148 30" fill="none" xmlns="http://www.w3.org/2000/svg">
<path d="M94.0824 10.8873V11.6976C94.1138 12.3161 94.0139 12.9341 93.7892 13.511C93.5645 14.0878 93.2202 14.6103 92.779 15.0439C92.34 15.4633 91.8218 15.7906 91.2549 16.0067C90.688 16.2228 90.0837 16.3233 89.4775 16.3024C88.8113 16.3218 88.148 16.2069 87.5269 15.9645C86.9059 15.7221 86.3398 15.3572 85.8621 14.8914C85.3975 14.447 85.0298 13.9109 84.7826 13.3168C84.5353 12.7228 84.4137 12.0838 84.4255 11.4402C84.4216 10.7949 84.5463 10.1553 84.7921 9.55888C85.0379 8.96242 85.4 8.42109 85.8572 7.96656C86.3143 7.51203 86.8573 7.15343 87.4545 6.91175C88.0516 6.67007 88.6909 6.55017 89.3348 6.55905C90.167 6.54896 90.9882 6.74896 91.7229 7.1406C92.413 7.50168 92.9969 8.03741 93.4164 8.69457L91.6468 9.74327C91.4138 9.39185 91.083 9.11671 90.6954 8.95198C90.2697 8.74166 89.7998 8.63703 89.3253 8.64691C88.9611 8.63533 88.5985 8.69873 88.2597 8.83319C87.921 8.96766 87.6133 9.17032 87.3559 9.42866C87.0957 9.6933 86.8916 10.0079 86.7559 10.3536C86.6202 10.6993 86.5557 11.0689 86.5662 11.4402C86.5521 11.81 86.616 12.1786 86.7537 12.5219C86.8914 12.8652 87.0998 13.1756 87.3654 13.4328C87.6534 13.6971 87.991 13.9015 88.3584 14.034C88.7259 14.1666 89.116 14.2247 89.5061 14.205C90.0085 14.2655 90.5167 14.1557 90.9495 13.8931C91.3824 13.6304 91.7149 13.2301 91.8942 12.7559H89.4014V10.8492L94.0824 10.8873Z" fill="#DFE5EE"/>
<path d="M101.894 16.1117L101.427 14.6436H97.9547L97.4885 16.1117H95.1576L98.3068 6.74023H101.028L104.206 16.1117H101.894ZM98.6017 12.632H100.79L99.6959 9.19036L98.6017 12.632Z" fill="#DFE5EE"/>
<path d="M115.432 6.74023V16.1117H113.301V10.6681L110.885 14.6436H110.637L108.221 10.6681V16.1117H106.089V6.74023H108.221L110.675 10.9064L113.216 6.74023H115.432Z" fill="#DFE5EE"/>
<path d="M123.786 11.2496C124.148 11.4637 124.447 11.7711 124.651 12.1399C124.855 12.5087 124.957 12.9254 124.947 13.347C124.957 13.7211 124.885 14.0929 124.735 14.4357C124.586 14.7785 124.362 15.0839 124.081 15.33C123.483 15.8421 122.717 16.1138 121.931 16.0927H118.001V6.74023H121.664C122.433 6.71652 123.183 6.98176 123.767 7.48385C124.038 7.72045 124.255 8.01375 124.401 8.34316C124.547 8.67256 124.62 9.03007 124.614 9.39057C124.627 9.74324 124.559 10.0942 124.415 10.4165C124.272 10.7388 124.057 11.0238 123.786 11.2496ZM121.655 8.75182H120.132V10.4107H121.655C121.763 10.4152 121.871 10.3962 121.971 10.355C122.071 10.3139 122.161 10.2516 122.235 10.1723C122.311 10.0945 122.371 10.002 122.41 9.90038C122.449 9.79874 122.467 9.69015 122.463 9.58124C122.467 9.471 122.448 9.36121 122.409 9.25815C122.37 9.15509 122.311 9.06078 122.235 8.98062C122.159 8.90454 122.069 8.84495 121.969 8.80558C121.869 8.76621 121.762 8.74791 121.655 8.75182ZM121.921 14.1002C122.039 14.1067 122.157 14.088 122.267 14.0453C122.377 14.0025 122.476 13.9367 122.559 13.8523C122.64 13.766 122.703 13.664 122.744 13.5526C122.785 13.4412 122.803 13.3226 122.796 13.204C122.802 13.0855 122.783 12.9672 122.742 12.856C122.701 12.7447 122.639 12.6426 122.559 12.5557C122.475 12.4727 122.375 12.4079 122.266 12.3653C122.156 12.3226 122.039 12.3031 121.921 12.3078H120.132V14.1002H121.921Z" fill="#DFE5EE"/>
<path d="M129.142 14.0525H132.482V16.1117H127.002V6.74023H129.142V14.0525Z" fill="#DFE5EE"/>
<path d="M136.554 14.0525H140.293V16.1117H134.461V6.74023H140.265V8.79949H136.554V10.3535H139.894V12.3936H136.554V14.0525Z" fill="#DFE5EE"/>
<path d="M93.778 20.2495V29.621H91.6468V24.1678L89.2302 28.1433H88.9828L86.5662 24.1678V29.621H84.4255V20.2495H86.5662L89.1065 24.4157L91.6468 20.2495H93.778Z" fill="#DFE5EE"/>
<path d="M102.322 29.621L101.856 28.1433H98.3829L97.9167 29.621H95.5762L98.7634 20.2495H101.485L104.662 29.621H102.322ZM99.0298 26.1413H101.218L100.124 22.6996L99.0298 26.1413Z" fill="#DFE5EE"/>
<path d="M109.534 29.802C108.697 29.8357 107.869 29.62 107.155 29.1823C106.529 28.7806 106.051 28.1847 105.794 27.4854L107.64 26.4176C107.786 26.8151 108.055 27.1554 108.407 27.3887C108.76 27.622 109.178 27.7361 109.6 27.7142C110.447 27.7142 110.875 27.4663 110.875 26.9515C110.873 26.8161 110.834 26.6839 110.762 26.5695C110.69 26.4551 110.587 26.363 110.466 26.3032C109.975 26.0706 109.462 25.8885 108.934 25.7598C108.582 25.6669 108.239 25.5458 107.907 25.3975C107.601 25.2589 107.313 25.0827 107.05 24.8732C106.771 24.6567 106.549 24.3752 106.403 24.0533C106.253 23.691 106.178 23.3016 106.185 22.9092C106.173 22.5143 106.253 22.1221 106.418 21.7632C106.583 21.4043 106.829 21.0885 107.136 20.8405C107.754 20.3223 108.538 20.0447 109.343 20.0587C110.056 20.046 110.758 20.2343 111.37 20.6021C111.975 20.9801 112.458 21.5267 112.759 22.1752L110.961 23.2334C110.82 22.9163 110.604 22.6383 110.333 22.423C110.051 22.2352 109.719 22.1386 109.381 22.1466C109.118 22.1319 108.856 22.2057 108.639 22.3563C108.56 22.4145 108.495 22.4905 108.451 22.5783C108.406 22.6661 108.383 22.7631 108.382 22.8616C108.384 22.9803 108.415 23.0968 108.471 23.2013C108.528 23.3058 108.608 23.3952 108.706 23.4622C109.125 23.7184 109.58 23.9081 110.057 24.0247L110.932 24.3011C111.2 24.4041 111.461 24.5251 111.712 24.6634C111.98 24.7935 112.225 24.9675 112.435 25.1782C112.614 25.3981 112.762 25.642 112.873 25.9028C113.008 26.2255 113.073 26.5732 113.063 26.9229C113.084 27.326 113.008 27.7281 112.842 28.0961C112.677 28.4641 112.427 28.7874 112.112 29.0393C111.369 29.5894 110.456 29.8595 109.534 29.802Z" fill="#DFE5EE"/>
<path d="M121.027 20.2495V22.3088H118.62V29.621H116.479V22.3088H114.081V20.2495H121.027Z" fill="#DFE5EE"/>
<path d="M125.099 27.5522H128.838V29.621H122.958V20.2495H128.752V22.3088H125.08V23.8341H128.419V25.8648H125.08L125.099 27.5522Z" fill="#DFE5EE"/>
<path d="M135.955 29.6211L134.194 26.5417H133.176V29.6211H131.036V20.2496H134.775C135.197 20.247 135.615 20.3284 136.005 20.489C136.395 20.6495 136.749 20.8861 137.048 21.1849C137.346 21.4838 137.582 21.839 137.742 22.2299C137.902 22.6208 137.984 23.0398 137.981 23.4624C137.986 24.026 137.82 24.5779 137.505 25.045C137.199 25.5285 136.769 25.9205 136.259 26.1794L138.267 29.6211H135.955ZM133.176 22.2612V24.6636H134.775C134.919 24.6648 135.062 24.6347 135.193 24.5755C135.324 24.5162 135.441 24.4292 135.536 24.3204C135.744 24.0839 135.856 23.7777 135.85 23.4624C135.86 23.1464 135.748 22.8388 135.536 22.6044C135.441 22.4955 135.324 22.4085 135.193 22.3493C135.062 22.29 134.919 22.26 134.775 22.2612H133.176Z" fill="#DFE5EE"/>
<path d="M147.6 20.2493L144.46 26.0171V29.6208H142.329V26.0171L139.218 20.2493H141.644L143.395 23.8339L145.174 20.2207L147.6 20.2493Z" fill="#DFE5EE"/>
<path d="M75.7271 0H48.8008V29.7H75.7271V0Z" fill="#4A5465"/>
<path d="M40.3762 0L33.4599 12.0852L26.4583 0H7.65161C10.0992 0.0228934 12.5049 0.639799 14.663 1.79798C16.8211 2.95616 18.6674 4.62117 20.0441 6.65067C18.7272 7.37275 14.3595 9.82399 12.9383 10.5841C9.22436 5.47255 -0.0700398 8.15182 0.299462 14.9355C0.299462 18.8499 2.77228 22.0802 7.0263 22.1752C9.75493 22.3368 12.6446 21.3772 13.4689 19.1919H7.24421V12.2942H22.138C23.1707 21.7952 17.7987 29.6715 7.83162 29.6905C12.4362 29.6905 21.759 29.6905 26.3067 29.6905V14.3084L33.0241 26.1276H33.801L40.5183 14.3084V29.6905H48.8085V0H40.3762Z" fill="#DFE5EE"/>
<path d="M56.6558 19.5916L58.8361 17.755C59.5545 18.6231 60.4554 19.3212 61.4744 19.7993C61.289 20.6411 61.0056 21.9858 60.8093 22.7948C59.2024 22.0485 57.7801 20.9546 56.6449 19.5916H56.6558ZM54.2465 15.0328C53.8089 13.5139 53.79 11.9044 54.192 10.3757L57.2118 11.8624C56.9809 12.851 57.0071 13.8825 57.2881 14.8579L54.2465 15.0328ZM65.2682 23.6147C64.9956 22.6745 64.5923 21.2752 64.3197 20.335C65.2123 20.2841 66.0597 19.9248 66.7181 19.3183L68.8985 21.9311C67.911 22.8926 66.6187 23.4767 65.2464 23.5819L65.2682 23.6147ZM56.3832 7.11782C57.4758 6.30645 58.8069 5.88332 60.1661 5.91526L61.0274 8.89979C60.1457 8.90763 59.2898 9.19884 58.5854 9.73064L56.405 7.11782H56.3832ZM59.4357 17.274C54.9987 11.6985 61.0492 6.61493 65.7479 11.9608C70.1849 17.5254 64.1344 22.6199 59.4357 17.274ZM67.9391 17.1318C68.1089 16.1717 68.0415 15.1846 67.7429 14.2566L70.3702 14.0817C70.8367 15.4898 70.9563 16.9901 70.7191 18.4546L67.9173 17.1318H67.9391ZM63.7637 9.55573C63.9164 8.86699 64.178 7.66444 64.3415 6.96477C65.7747 7.70786 67.0459 8.72989 68.0808 9.97116L66.2275 11.5345C65.5528 10.7099 64.7135 10.0359 63.7637 9.55573ZM68.5932 9.55573C65.1156 4.90949 56.6013 2.71209 53.6905 8.92165C50.5181 16.3884 58.738 26.2166 66.6309 24.38C73.2374 22.5761 72.5506 13.7975 68.5932 9.55573Z" fill="#DFE5EE"/>
<path d="M64.2543 13.1964C61.8668 10.4305 58.7162 13.0761 60.9838 15.9185C63.2513 18.7609 66.511 16.0278 64.2543 13.1964Z" fill="#DFE5EE"/>
</svg>
