<svg width="164" height="32" viewBox="0 0 164 32" fill="none" xmlns="http://www.w3.org/2000/svg">
<g clip-path="url(#clip0_1605:6154)">
<path d="M11.365 29.6951L16.5989 15.3222L1.7379 20.3934C0.0565464 20.9629 1.14129 19.607 1.14129 19.607L3.44638 16.7053C4.53112 15.3222 6.32095 15.3222 6.32095 15.3222C6.32095 15.3222 4.53112 15.3222 3.44638 13.9392L1.14129 11.0375C1.14129 11.0375 0.0565464 9.65445 1.7379 10.2511L16.5989 15.3222V25.2748C16.5989 25.2748 16.5989 27.0104 15.1887 28.068L12.2057 30.2917C12.2057 30.2646 10.7684 31.3222 11.365 29.6951ZM16.5989 5.3697V15.3222L11.365 0.949365C10.7684 -0.677753 12.1786 0.379872 12.1786 0.379872L15.1616 2.6036C16.5989 3.63411 16.5989 5.3697 16.5989 5.3697Z" fill="#DC4569"/>
<path d="M86.9719 23.5391H88.3549L89.0329 21.695H91.6363L92.3414 23.5391H93.7786L90.8498 16.1899H89.7922L86.9719 23.5391ZM89.4125 20.6374L89.9549 19.2001C90.1447 18.6306 90.2532 18.3052 90.3346 18.0611H90.3617C90.4159 18.3052 90.5244 18.6306 90.7414 19.2001L91.2566 20.6645H89.4125V20.6374ZM97.4396 23.6747C98.7956 23.6747 99.7447 23.2137 100.179 22.2645C100.368 21.8849 100.45 21.3967 100.45 20.8272V16.2442H99.121V20.7188C99.121 21.1255 99.0668 21.451 98.9312 21.7221C98.6871 22.2374 98.1719 22.5357 97.4396 22.5357C96.7074 22.5357 96.1922 22.2374 95.9481 21.7221C95.8125 21.451 95.7583 21.1255 95.7583 20.7459V16.2442H94.4295V20.8272C94.4295 21.3696 94.5108 21.8577 94.7007 22.2374C95.1346 23.1865 96.0837 23.6747 97.4396 23.6747ZM103.596 23.5391H104.924V17.356H106.877L107.229 16.2171H101.453V17.356H103.596V23.5391ZM108.179 23.5391H109.507V20.3662H113.006V23.5391H114.362V16.2171H113.006V19.2543H109.507V16.2442H108.179V23.5391ZM119.487 23.6747C121.629 23.6747 123.175 22.1832 123.175 19.9323C123.175 17.7357 121.657 16.1899 119.487 16.1899C117.318 16.1899 115.799 17.7086 115.799 19.9323C115.799 22.156 117.318 23.6747 119.487 23.6747ZM119.487 22.5357C118.131 22.5357 117.236 21.5594 117.236 19.9052C117.236 18.251 118.158 17.2747 119.487 17.2747C120.87 17.2747 121.738 18.2781 121.738 19.9052C121.738 21.5865 120.816 22.5357 119.487 22.5357ZM124.585 23.5391H125.914V20.6916H126.538C126.728 20.7459 126.972 21.0442 127.324 21.695L128.382 23.5391H129.901L128.68 21.3967C128.301 20.7188 128.002 20.3391 127.758 20.2035V20.1764C128.599 19.9052 129.196 19.2543 129.196 18.2781C129.196 17.5459 128.897 16.8679 128.111 16.4882C127.731 16.2984 127.243 16.1899 126.538 16.1899H124.531V23.5391H124.585ZM125.941 19.6069V17.3289H126.565C126.972 17.3289 127.216 17.4103 127.379 17.5459C127.704 17.7357 127.867 18.0882 127.867 18.4679C127.867 18.9289 127.677 19.2543 127.352 19.4442C127.135 19.5527 126.89 19.634 126.538 19.634H125.941V19.6069ZM131.013 23.5391H132.341V16.2171H131.013V23.5391ZM135.487 23.5391H136.816V17.356H138.768L139.148 16.2171H133.372V17.356H135.514V23.5391H135.487ZM142.158 23.5391H143.514V20.6645L146.009 16.2442H144.572L142.863 19.4713H142.836L141.128 16.2442H139.663L142.158 20.6645V23.5391Z" fill="#F6F8FC"/>
<path d="M86.9718 14.0474H88.3006V9.89824C88.3006 9.65418 88.3006 9.27452 88.3006 8.97621H88.3277C88.4633 9.2474 88.6803 9.51858 88.8158 9.73553L90.4158 12.0406H91.0125L92.4497 9.78977C92.5853 9.59994 92.8565 9.16604 92.9379 8.97621H92.965C92.9379 9.27452 92.9379 9.65417 92.9379 9.95248V14.0745H94.2938V6.75248H93.0735L91.3108 9.46434C91.0667 9.844 90.8769 10.1694 90.7142 10.4406H90.687C90.5243 10.1423 90.3345 9.87112 90.0633 9.49146L88.1379 6.72536H86.9175V14.0474H86.9718ZM95.2701 14.0474H96.6531L97.3311 12.2033H99.9345L100.64 14.0474H102.077L99.1481 6.69824H98.0904L95.2701 14.0474ZM97.7379 11.1186L98.2803 9.68129C98.4701 9.1118 98.5786 8.78638 98.6599 8.54231H98.687C98.7413 8.78638 98.8497 9.1118 99.0396 9.68129L99.5548 11.1457H97.7379V11.1186ZM103.08 14.0474H107.012V12.9084H104.409V6.72536H103.08V14.0474ZM108.721 14.0474H110.05V7.86434H112.002L112.382 6.72536H106.606V7.86434H108.748V14.0474H108.721ZM111.704 14.0474H113.087L113.765 12.2033H116.368L117.073 14.0474H118.511L115.582 6.69824H114.524L111.704 14.0474ZM114.172 11.1186L114.714 9.68129C114.904 9.1118 115.012 8.78638 115.094 8.54231H115.121C115.175 8.78638 115.284 9.1118 115.501 9.68129L116.016 11.1457H114.172V11.1186ZM128.084 10.4949H126.728V12.8271C126.429 12.9626 125.996 13.044 125.507 13.044C123.934 13.044 123.012 12.0135 123.012 10.4406C123.012 8.89485 123.935 7.81011 125.697 7.81011C126.484 7.81011 127.135 7.99994 127.704 8.29824V7.05079C127.162 6.86095 126.429 6.69824 125.589 6.69824C123.148 6.69824 121.575 8.32536 121.575 10.5491C121.575 12.6372 122.985 14.183 125.399 14.183C126.429 14.183 127.406 13.9389 128.057 13.5864V10.4949H128.084ZM128.951 14.0474H130.335L131.012 12.2033H133.616L134.321 14.0474H135.758L132.857 6.69824H131.772L128.951 14.0474ZM131.419 11.1186L131.962 9.68129C132.151 9.1118 132.26 8.78638 132.341 8.54231H132.368C132.423 8.78638 132.531 9.1118 132.748 9.68129L133.263 11.1457H131.419V11.1186ZM136.762 14.0474H138.09V9.89824C138.09 9.65418 138.09 9.27452 138.09 8.97621H138.118C138.253 9.2474 138.47 9.51858 138.606 9.73553L140.206 12.0406H140.829L142.267 9.78977C142.402 9.59994 142.673 9.16604 142.755 8.97621H142.782C142.755 9.27452 142.755 9.65417 142.755 9.95248V14.0745H144.111V6.75248H142.89L141.128 9.46434C140.884 9.844 140.694 10.1694 140.531 10.4406H140.504C140.341 10.1423 140.151 9.87112 139.907 9.49146L137.982 6.72536H136.762V14.0474ZM145.928 14.0474H147.257V6.72536H145.928V14.0474ZM155.582 14.0474V6.72536H154.226V10.6304C154.226 11.0372 154.226 11.4711 154.253 11.8508H154.226C154.009 11.4982 153.738 11.1457 153.412 10.7118L150.348 6.69824H149.019V14.0203H150.348V9.87112C150.348 9.43722 150.348 9.03045 150.321 8.73214H150.348C150.592 9.05756 150.836 9.43723 151.162 9.84401L154.335 14.0203H155.582V14.0474ZM163.501 10.4949H162.145V12.8271C161.846 12.9626 161.412 13.044 160.924 13.044C159.351 13.044 158.429 12.0135 158.429 10.4406C158.429 8.89485 159.351 7.81011 161.114 7.81011C161.901 7.81011 162.551 7.99994 163.121 8.29824V7.05079C162.579 6.86095 161.846 6.69824 161.006 6.69824C158.565 6.69824 156.992 8.32536 156.992 10.5491C156.992 12.6372 158.402 14.183 160.816 14.183C161.846 14.183 162.823 13.9389 163.473 13.5864V10.4949H163.501Z" fill="#F6F8FC"/>
<path d="M20.1244 23.6204H25.3854V12.3119C26.3346 11.6068 27.5549 11.2271 28.5583 11.2271C30.5108 11.2271 30.7278 12.6102 30.7278 14.2373V23.6204H35.9888V12.6644V12.3119C36.938 11.6068 38.1312 11.2271 39.1346 11.2271C41.0871 11.2271 41.3312 12.556 41.3312 14.156V23.6204H46.6193V12.8C46.6193 8.18985 43.799 6.69832 40.7617 6.69832C39.0532 6.69832 36.9651 7.43053 34.9583 9.03053C34.0905 7.56612 32.5447 6.69832 30.4566 6.69832C28.4769 6.69832 26.5786 7.64748 25.06 8.78646L24.5718 7.1051H20.1515V23.6204H20.1244ZM56.0295 31.8915C62.321 31.8915 65.2769 29.2068 65.2769 26.2509C65.2769 20.0678 54.4295 22.7526 54.4295 19.9593C54.4295 19.7966 54.4295 19.6068 54.5651 19.2271C55.0532 19.3627 55.7583 19.4441 56.4363 19.4441C60.6668 19.4441 63.6227 17.0305 63.6227 13.2339C63.6227 11.878 63.2159 10.5763 62.4295 9.5729C62.7007 9.46443 63.1888 9.43731 63.4058 9.43731C63.8125 9.43731 64.3549 9.51866 64.7888 9.60002L65.7651 5.96612C65.4939 5.939 64.9244 5.88477 64.5719 5.88477C62.1854 5.88477 61.1278 6.48138 60.1786 7.34917C60.043 7.48477 59.9346 7.56612 59.7719 7.45765C59.0668 7.05087 57.8464 6.69832 56.3278 6.69832C51.2295 6.69832 49.1685 10.0068 49.1685 12.9085C49.1685 15.078 50.1447 17.0848 52.0702 18.1153C50.7413 18.8475 49.8735 19.9865 49.8735 21.1526C49.8735 21.9932 50.2532 22.7797 50.9583 23.1865C49.4668 23.7017 48.0295 25.0576 48.0295 26.9831C48.0295 29.7221 50.8227 31.8915 56.0295 31.8915ZM56.7888 28.339C54.1583 28.339 52.6668 27.3898 52.6668 26.0339C52.6668 25.3017 53.0464 24.7865 53.3719 24.4882C55.0532 25.3559 60.3142 24.8678 60.3142 26.8204C60.3142 27.8509 58.6329 28.339 56.7888 28.339ZM56.4091 15.5932C54.8363 15.5932 54.0769 14.3458 54.0769 13.0712C54.0769 11.3356 55.0803 10.5221 56.3549 10.5221C57.9549 10.5221 58.7685 11.8509 58.7685 13.0983C58.7413 14.7526 57.738 15.5932 56.4091 15.5932ZM77.1549 23.6204H81.4939C81.2227 22.7254 81.2227 21.3966 81.2227 20.3661V12.9627C81.2227 8.94917 79.1346 6.67121 74.0363 6.67121C71.4058 6.67121 69.182 7.29494 67.2295 8.27121L68.8566 11.5797C70.0498 10.956 71.6498 10.5763 73.0329 10.5763C74.8227 10.5763 75.9346 11.2 75.9346 12.7458V12.9085L73.3041 13.017C71.6227 13.0983 70.1312 13.3966 68.938 14.0204C67.2295 14.9153 66.1719 16.2983 66.1719 18.522C66.1719 21.6949 68.5583 23.9187 71.7854 23.9187C73.8464 23.9187 75.2837 23.1593 76.3956 22.1831L77.1549 23.6204ZM75.9346 16.2712V19.3356C75.5549 19.5797 74.6871 19.9322 73.521 19.9322C72.2736 19.9322 71.46 19.3627 71.46 18.2238C71.46 17.5187 71.7041 17.1119 72.1922 16.7865C72.6532 16.5153 73.3041 16.3797 74.1447 16.3254L75.9346 16.2712Z" fill="#F6F8FC"/>
</g>
<defs>
<clipPath id="clip0_1605:6154">
<rect width="162.712" height="32" fill="white" transform="translate(0.788818)"/>
</clipPath>
</defs>
</svg>
