<svg width="32" height="32" viewBox="0 0 32 32" fill="none" xmlns="http://www.w3.org/2000/svg">
<path d="M29.8125 3.875H19.1875C17.9813 3.875 17 4.85631 17 6.0625V29.8125C17 31.0187 17.9813 32 19.1875 32H29.8125C31.0187 32 32 31.0187 32 29.8125V6.0625C32 4.85631 31.0187 3.875 29.8125 3.875ZM24.5 9.5C25.0177 9.5 25.4375 9.91975 25.4375 10.4375C25.4375 10.9552 25.0177 11.375 24.5 11.375C23.9823 11.375 23.5625 10.9552 23.5625 10.4375C23.5625 9.91975 23.9823 9.5 24.5 9.5ZM27.3125 17C27.8302 17 28.25 17.4198 28.25 17.9375C28.25 18.4552 27.8302 18.875 27.3125 18.875H21.6875C21.1698 18.875 20.75 18.4552 20.75 17.9375C20.75 17.4198 21.1698 17 21.6875 17H27.3125ZM21.375 12.625C21.8927 12.625 22.3125 13.0448 22.3125 13.5625C22.3125 14.0802 21.8927 14.5 21.375 14.5C20.8572 14.5 20.4375 14.0802 20.4375 13.5625C20.4375 13.0448 20.8572 12.625 21.375 12.625ZM21.375 29.5C20.8572 29.5 20.4375 29.0802 20.4375 28.5625C20.4375 28.0448 20.8572 27.625 21.375 27.625C21.8927 27.625 22.3125 28.0448 22.3125 28.5625C22.3125 29.0802 21.8927 29.5 21.375 29.5ZM24.5 26.375C23.9823 26.375 23.5625 25.9552 23.5625 25.4375C23.5625 24.9198 23.9823 24.5 24.5 24.5C25.0177 24.5 25.4375 24.9198 25.4375 25.4375C25.4375 25.9552 25.0177 26.375 24.5 26.375ZM27.625 23.25C27.1073 23.25 26.6875 22.8302 26.6875 22.3125C26.6875 21.7948 27.1073 21.375 27.625 21.375C28.1427 21.375 28.5625 21.7948 28.5625 22.3125C28.5625 22.8302 28.1427 23.25 27.625 23.25ZM27.625 8.25C27.1073 8.25 26.6875 7.83025 26.6875 7.3125C26.6875 6.79475 27.1073 6.375 27.625 6.375C28.1427 6.375 28.5625 6.79475 28.5625 7.3125C28.5625 7.83025 28.1427 8.25 27.625 8.25Z" fill="#71D98E"/>
<path d="M12.8125 0H2.1875C0.981313 0 0 0.981313 0 2.1875V25.9375C0 27.1437 0.981313 28.125 2.1875 28.125H12.8125C14.0187 28.125 15 27.1437 15 25.9375V2.1875C15 0.981313 14.0187 0 12.8125 0ZM7.5 5.625C8.01775 5.625 8.4375 6.04475 8.4375 6.5625C8.4375 7.08025 8.01775 7.5 7.5 7.5C6.98225 7.5 6.5625 7.08025 6.5625 6.5625C6.5625 6.04475 6.98225 5.625 7.5 5.625ZM10.3125 13.125C10.8302 13.125 11.25 13.5448 11.25 14.0625C11.25 14.5802 10.8302 15 10.3125 15H4.6875C4.16975 15 3.75 14.5802 3.75 14.0625C3.75 13.5448 4.16975 13.125 4.6875 13.125H10.3125ZM4.375 2.5C4.89275 2.5 5.3125 2.91975 5.3125 3.4375C5.3125 3.95525 4.89275 4.375 4.375 4.375C3.85725 4.375 3.4375 3.95525 3.4375 3.4375C3.4375 2.91975 3.85725 2.5 4.375 2.5ZM4.375 8.75C4.89275 8.75 5.3125 9.16975 5.3125 9.6875C5.3125 10.2052 4.89275 10.625 4.375 10.625C3.85725 10.625 3.4375 10.2052 3.4375 9.6875C3.4375 9.16975 3.85725 8.75 4.375 8.75ZM4.375 25.625C3.85725 25.625 3.4375 25.2052 3.4375 24.6875C3.4375 24.1698 3.85725 23.75 4.375 23.75C4.89275 23.75 5.3125 24.1698 5.3125 24.6875C5.3125 25.2052 4.89275 25.625 4.375 25.625ZM4.375 19.375C3.85725 19.375 3.4375 18.9552 3.4375 18.4375C3.4375 17.9198 3.85725 17.5 4.375 17.5C4.89275 17.5 5.3125 17.9198 5.3125 18.4375C5.3125 18.9552 4.89275 19.375 4.375 19.375ZM7.5 22.5C6.98225 22.5 6.5625 22.0802 6.5625 21.5625C6.5625 21.0448 6.98225 20.625 7.5 20.625C8.01775 20.625 8.4375 21.0448 8.4375 21.5625C8.4375 22.0802 8.01775 22.5 7.5 22.5ZM10.625 25.625C10.1073 25.625 9.6875 25.2052 9.6875 24.6875C9.6875 24.1698 10.1073 23.75 10.625 23.75C11.1427 23.75 11.5625 24.1698 11.5625 24.6875C11.5625 25.2052 11.1427 25.625 10.625 25.625ZM10.625 19.375C10.1073 19.375 9.6875 18.9552 9.6875 18.4375C9.6875 17.9198 10.1073 17.5 10.625 17.5C11.1427 17.5 11.5625 17.9198 11.5625 18.4375C11.5625 18.9552 11.1427 19.375 10.625 19.375ZM10.625 10.625C10.1073 10.625 9.6875 10.2052 9.6875 9.6875C9.6875 9.16975 10.1073 8.75 10.625 8.75C11.1427 8.75 11.5625 9.16975 11.5625 9.6875C11.5625 10.2052 11.1427 10.625 10.625 10.625ZM10.625 4.375C10.1073 4.375 9.6875 3.95525 9.6875 3.4375C9.6875 2.91975 10.1073 2.5 10.625 2.5C11.1427 2.5 11.5625 2.91975 11.5625 3.4375C11.5625 3.95525 11.1427 4.375 10.625 4.375Z" fill="#71D98E"/>
</svg>
