<svg width="32" height="32" viewBox="0 0 32 32" fill="none" xmlns="http://www.w3.org/2000/svg">
<path d="M22.25 4.4375H18.75V20.9375C18.75 23.1776 16.9276 25 14.6875 25H7.5625V25.375C7.5625 26.5812 8.54381 27.5625 9.75 27.5625H22.25C23.4562 27.5625 24.4375 26.5812 24.4375 25.375V6.625C24.4375 5.41881 23.4562 4.4375 22.25 4.4375ZM21 25.0625H19.75C19.2323 25.0625 18.8125 24.6427 18.8125 24.125C18.8125 23.6073 19.2323 23.1875 19.75 23.1875H21C21.5177 23.1875 21.9375 23.6073 21.9375 24.125C21.9375 24.6427 21.5177 25.0625 21 25.0625Z" fill="#71D98E"/>
<path d="M6.46454 11.5626L8.43742 14.3247L10.4103 11.5626L8.43742 8.80054L6.46454 11.5626Z" fill="#71D98E"/>
<path d="M14.6875 0H2.1875C0.981313 0 0 0.981313 0 2.1875V20.9375C0 22.1437 0.981313 23.125 2.1875 23.125H14.6875C15.8937 23.125 16.875 22.1437 16.875 20.9375V2.1875C16.875 0.981313 15.8937 0 14.6875 0ZM2.5 3.4375C2.5 2.91975 2.91975 2.5 3.4375 2.5H4.6875C5.20525 2.5 5.625 2.91975 5.625 3.4375C5.625 3.95525 5.20525 4.375 4.6875 4.375H3.4375C2.91975 4.375 2.5 3.95525 2.5 3.4375ZM8.4375 16.875C8.13475 16.875 7.85063 16.7288 7.67462 16.4824L4.54962 12.1074C4.31681 11.7814 4.31681 11.3436 4.54962 11.0176L7.67462 6.64256C7.85063 6.39625 8.13475 6.25 8.4375 6.25C8.74025 6.25 9.02437 6.39625 9.20037 6.64256L12.3254 11.0176C12.5582 11.3436 12.5582 11.7814 12.3254 12.1074L9.20037 16.4824C9.02437 16.7288 8.74025 16.875 8.4375 16.875ZM13.4375 20.625H12.1875C11.6698 20.625 11.25 20.2052 11.25 19.6875C11.25 19.1698 11.6698 18.75 12.1875 18.75H13.4375C13.9552 18.75 14.375 19.1698 14.375 19.6875C14.375 20.2052 13.9552 20.625 13.4375 20.625Z" fill="#71D98E"/>
<path d="M29.8125 8.875H26.3125V25.375C26.3125 27.6151 24.4901 29.4375 22.25 29.4375H15.125V29.8125C15.125 31.0187 16.1063 32 17.3125 32H29.8125C31.0187 32 32 31.0187 32 29.8125V11.0625C32 9.85631 31.0187 8.875 29.8125 8.875ZM28.5625 29.5H27.3125C26.7948 29.5 26.375 29.0802 26.375 28.5625C26.375 28.0448 26.7948 27.625 27.3125 27.625H28.5625C29.0802 27.625 29.5 28.0448 29.5 28.5625C29.5 29.0802 29.0802 29.5 28.5625 29.5Z" fill="#71D98E"/>
</svg>
