<svg width="32" height="32" viewBox="0 0 32 32" fill="none" xmlns="http://www.w3.org/2000/svg">
<path d="M18 10L12 16L18 22" stroke="#6F82EB" stroke-width="3" stroke-linecap="round" stroke-linejoin="round"/>
<path d="M3 16C3 8.8203 8.8203 3 16 3L16 -3C5.50659 -3 -3 5.50659 -3 16L3 16ZM16 29C8.8203 29 3 23.1797 3 16L-3 16C-3 26.4934 5.50659 35 16 35L16 29ZM29 16C29 23.1797 23.1797 29 16 29L16 35C26.4934 35 35 26.4934 35 16L29 16ZM35 16C35 5.50659 26.4934 -3 16 -3L16 3C23.1797 3 29 8.8203 29 16L35 16Z" fill="#6F82EB"/>
</svg>
