<svg width="32" height="32" viewBox="0 0 32 32" fill="none" xmlns="http://www.w3.org/2000/svg">
<path d="M16 22.5625C16.5178 22.5625 16.9375 22.1428 16.9375 21.625C16.9375 21.1072 16.5178 20.6875 16 20.6875C15.4822 20.6875 15.0625 21.1072 15.0625 21.625C15.0625 22.1428 15.4822 22.5625 16 22.5625Z" fill="#7BA9EE"/>
<path d="M16 11.3125C16.5178 11.3125 16.9375 10.8928 16.9375 10.375C16.9375 9.85723 16.5178 9.4375 16 9.4375C15.4822 9.4375 15.0625 9.85723 15.0625 10.375C15.0625 10.8928 15.4822 11.3125 16 11.3125Z" fill="#7BA9EE"/>
<path d="M10.375 16.9375C10.8928 16.9375 11.3125 16.5178 11.3125 16C11.3125 15.4822 10.8928 15.0625 10.375 15.0625C9.85723 15.0625 9.4375 15.4822 9.4375 16C9.4375 16.5178 9.85723 16.9375 10.375 16.9375Z" fill="#7BA9EE"/>
<path d="M16 5.625C10.2792 5.625 5.625 10.2792 5.625 16C5.625 21.7208 10.2792 26.375 16 26.375C21.7208 26.375 26.375 21.7208 26.375 16C26.375 10.2792 21.7208 5.625 16 5.625ZM21.625 18.8125C20.4028 18.8125 19.3607 18.0287 18.9737 16.9375H16.9375V18.9737C18.0287 19.3607 18.8125 20.4028 18.8125 21.625C18.8125 23.1758 17.5508 24.4375 16 24.4375C14.4492 24.4375 13.1875 23.1758 13.1875 21.625C13.1875 20.4028 13.9713 19.3607 15.0625 18.9737V16.9375H13.0262C12.6392 18.0287 11.5972 18.8125 10.375 18.8125C8.82419 18.8125 7.5625 17.5508 7.5625 16C7.5625 14.4492 8.82419 13.1875 10.375 13.1875C11.5972 13.1875 12.6392 13.9713 13.0262 15.0625H15.0625V13.0262C13.9713 12.6392 13.1875 11.5972 13.1875 10.375C13.1875 8.82419 14.4492 7.5625 16 7.5625C17.5508 7.5625 18.8125 8.82419 18.8125 10.375C18.8125 11.5972 18.0287 12.6392 16.9375 13.0262V15.0625H18.9737C19.3607 13.9713 20.4028 13.1875 21.625 13.1875C23.1758 13.1875 24.4375 14.4492 24.4375 16C24.4375 17.5508 23.1758 18.8125 21.625 18.8125Z" fill="#7BA9EE"/>
<path d="M21.625 16.9375C22.1428 16.9375 22.5625 16.5178 22.5625 16C22.5625 15.4822 22.1428 15.0625 21.625 15.0625C21.1072 15.0625 20.6875 15.4822 20.6875 16C20.6875 16.5178 21.1072 16.9375 21.625 16.9375Z" fill="#7BA9EE"/>
<path fill-rule="evenodd" clip-rule="evenodd" d="M14.9693 0C11.3036 0.226049 7.97191 1.68635 5.38464 3.97042L7.86569 6.45147C9.81026 4.79423 12.269 3.72241 14.9693 3.50868V0ZM24.0728 6.45147C22.1283 4.79423 19.6695 3.72241 16.9693 3.50868V0C20.6349 0.226049 23.9666 1.68635 26.5539 3.97042L24.0728 6.45147ZM28.4298 14.9693C28.2161 12.269 27.1443 9.81026 25.487 7.86568L27.9681 5.38464C30.2522 7.97191 31.7125 11.3036 31.9385 14.9693H28.4298ZM25.487 24.0728C27.1443 22.1283 28.2161 19.6695 28.4298 16.9693H31.9385C31.7125 20.6349 30.2522 23.9666 27.9681 26.5539L25.487 24.0728ZM16.9693 28.4298C19.6695 28.2161 22.1283 27.1443 24.0728 25.487L26.5539 27.9681C23.9666 30.2522 20.6349 31.7125 16.9693 31.9385V28.4298ZM7.86568 25.487C9.81026 27.1443 12.269 28.2161 14.9693 28.4298V31.9385C11.3036 31.7125 7.97191 30.2522 5.38464 27.9681L7.86568 25.487ZM3.50868 16.9693C3.72241 19.6695 4.79423 22.1283 6.45147 24.0728L3.97042 26.5539C1.68635 23.9666 0.226049 20.6349 0 16.9693H3.50868ZM6.45148 7.86568C4.79423 9.81026 3.72241 12.269 3.50868 14.9693H2.31084e-07C0.22605 11.3036 1.68635 7.97191 3.97043 5.38464L6.45148 7.86568Z" fill="#7BA9EE"/>
</svg>
