<svg width="21" height="21" viewBox="0 0 21 21" fill="none" xmlns="http://www.w3.org/2000/svg">
<path fill-rule="evenodd" clip-rule="evenodd" d="M14.4193 8.67877C14.4193 11.8492 11.8492 14.4193 8.67877 14.4193C5.50834 14.4193 2.93819 11.8492 2.93819 8.67877C2.93819 5.50834 5.50834 2.93819 8.67877 2.93819C11.8492 2.93819 14.4193 5.50834 14.4193 8.67877ZM13.6887 15.7663C12.2735 16.7686 10.5449 17.3575 8.67877 17.3575C3.88562 17.3575 0 13.4719 0 8.67877C0 3.88562 3.88562 0 8.67877 0C13.4719 0 17.3575 3.88562 17.3575 8.67877C17.3575 10.5449 16.7686 12.2735 15.7663 13.6887L21 18.9224L18.9224 21L13.6887 15.7663Z" fill="white"/>
</svg>
