<svg width="32" height="32" viewBox="0 0 32 32" fill="none" xmlns="http://www.w3.org/2000/svg">
<g clip-path="url(#clip0_1605:1230)">
<path d="M15.9998 9.90356C12.6378 9.90356 9.90265 12.6387 9.90265 16.0005C9.90265 19.3625 12.6378 22.0977 15.9998 22.0977C19.3616 22.0977 22.0967 19.3625 22.0967 16.0005C22.0967 12.6387 19.3616 9.90356 15.9998 9.90356ZM19.6197 14.8523L15.2518 19.2202C15.0684 19.4036 14.8279 19.4954 14.5877 19.4954C14.3475 19.4954 14.1072 19.4038 13.9239 19.2202L12.2547 17.551C11.888 17.1846 11.888 16.5901 12.2547 16.2234C12.6212 15.8567 13.2156 15.8567 13.5823 16.2234L14.5877 17.2288L18.2921 13.5247C18.6585 13.158 19.253 13.158 19.6197 13.5247C19.9864 13.8911 19.9864 14.4856 19.6197 14.8523Z" fill="#FF7D34"/>
<path d="M29.593 8.68241L29.592 8.65751C29.5781 8.35013 29.5688 8.02494 29.5632 7.66313C29.5371 5.89873 28.1345 4.43926 26.3699 4.34062C22.6907 4.1353 19.8445 2.9356 17.4126 0.565245L17.3919 0.54547C16.5986 -0.181823 15.4021 -0.181823 14.6087 0.54547L14.5879 0.565245C12.156 2.9356 9.30984 4.1353 5.63066 4.34087C3.86626 4.43926 2.46343 5.89873 2.43731 7.66337C2.43193 8.02274 2.42241 8.34794 2.4085 8.65751L2.40703 8.71537C2.3355 12.4671 2.24663 17.1362 3.80864 21.3743C4.66752 23.7048 5.9683 25.7307 7.6746 27.396C9.61795 29.2925 12.1634 30.7981 15.24 31.8708C15.3401 31.9057 15.4441 31.9341 15.5501 31.9553C15.6995 31.9851 15.8499 32 16.0003 32C16.1506 32 16.3013 31.9851 16.4504 31.9553C16.5564 31.9341 16.6611 31.9055 16.7617 31.8703C19.8347 30.7956 22.3774 29.2893 24.3191 27.3931C26.0246 25.7273 27.3254 23.7009 28.185 21.3699C29.7529 17.1192 29.6643 12.4412 29.593 8.68241ZM15.9998 23.9753C11.6023 23.9753 8.02494 20.398 8.02494 16.0005C8.02494 11.6031 11.6023 8.02567 15.9998 8.02567C20.397 8.02567 23.9746 11.6031 23.9746 16.0005C23.9746 20.398 20.397 23.9753 15.9998 23.9753Z" fill="#FF7D34"/>
</g>
<defs>
<clipPath id="clip0_1605:1230">
<rect width="32" height="32" fill="white"/>
</clipPath>
</defs>
</svg>
