<svg width="32" height="32" viewBox="0 0 32 32" fill="none" xmlns="http://www.w3.org/2000/svg">
<path d="M4.03711 18.7083V14.8013H6.83105C6.99976 14.2668 7.21558 13.7476 7.47534 13.2498L5.49854 11.2729L9.58325 7.18823L11.5601 9.16504C12.0579 8.90527 12.5771 8.68945 13.1116 8.52051V5.72681H18.8882V8.52051C19.4229 8.68945 19.9421 8.90503 20.4399 9.16504L22.4167 7.18823L26.5012 11.2729L24.5244 13.2498C24.7844 13.7476 25 14.2666 25.1689 14.8013H27.9629V18.7083H32V6.0625C32 3.47778 29.8972 1.375 27.3125 1.375H4.6875C2.10278 1.375 0 3.47778 0 6.0625V18.7083H4.03711Z" fill="#6F82EB"/>
<path d="M11.428 17.6763C11.428 15.155 13.479 13.104 16 13.104C18.521 13.104 20.572 15.155 20.572 17.6763C20.572 18.0312 20.53 18.3762 20.4531 18.7083L26.0879 18.7029V16.6763H23.6721C23.4912 15.2993 22.9468 14.0354 22.1387 12.9836L23.8496 11.2729L22.4165 9.83984L20.7058 11.5508C19.6543 10.7427 18.3901 10.1982 17.0132 10.0173V7.60181H14.9866V10.0173C13.6096 10.1982 12.3457 10.7427 11.2939 11.5508L9.58325 9.83984L8.15015 11.2729L9.86108 12.9836C9.05298 14.0354 8.50854 15.2993 8.32764 16.6763H5.91211V18.7029L11.5469 18.7083C11.47 18.3762 11.428 18.0312 11.428 17.6763Z" fill="#6F82EB"/>
<path d="M18.697 17.6763C18.697 16.1865 17.4895 14.979 16 14.979C14.5105 14.979 13.303 16.1868 13.303 17.6763C13.303 18.0417 13.376 18.3904 13.5078 18.7083H18.4922C18.624 18.3904 18.697 18.042 18.697 17.6763Z" fill="#6F82EB"/>
<path d="M0 20.5833V25.9165H9.28467V28.7083H7.33325V30.5833H24.6667V28.7083H22.7153V25.9165H32V20.5833H0Z" fill="#6F82EB"/>
</svg>
