<svg width="32" height="32" viewBox="0 0 32 32" fill="none" xmlns="http://www.w3.org/2000/svg">
<path d="M26.9062 29.1875H5.09375V29.5C5.09375 30.8807 6.21306 32 7.59375 32H24.4062C25.7869 32 26.9062 30.8807 26.9062 29.5V29.1875Z" fill="#7BA9EE"/>
<path d="M5.09375 27.3125H26.9062V2.5C26.9062 1.11931 25.7869 0 24.4062 0H7.59375C6.21306 0 5.09375 1.11931 5.09375 2.5V27.3125ZM13.4375 2.8125H18.5625C19.0802 2.8125 19.5 3.23225 19.5 3.75C19.5 4.26775 19.0802 4.6875 18.5625 4.6875H13.4375C12.9198 4.6875 12.5 4.26775 12.5 3.75C12.5 3.23225 12.9198 2.8125 13.4375 2.8125Z" fill="#7BA9EE"/>
</svg>
