<svg width="64" height="33" viewBox="0 0 64 33" fill="none" xmlns="http://www.w3.org/2000/svg">
<g clip-path="url(#clip0_1336:12345)">
<path d="M12 32.5H28C29.1045 32.5 30 31.6046 30 30.5V24.5H10V30.5C10 31.6046 10.8954 32.5 12 32.5Z" fill="#2E3543"/>
<path d="M11.9996 4.19348L11.9996 10.1017C11.9996 10.6183 11.6549 10.8771 11.5065 10.964C11.359 11.0509 10.9654 11.2267 10.5143 10.9767L6.76328 8.89368C5.94199 8.43664 4.97617 8.38977 4.11386 8.76379C3.25058 9.13782 2.62461 9.8761 2.39707 10.7892L2.02988 12.2579C1.94004 12.6154 2.0543 12.9943 2.33066 13.2433L11.19 21.2179C12.1109 22.045 13.2984 22.5001 14.5348 22.5001H24.9996C27.7564 22.5001 29.9996 20.257 29.9996 17.5001L29.9986 7.55188C29.9986 5.30578 28.4859 3.32238 26.3209 2.72962L16.524 0.594862C16.2515 0.532362 15.9722 0.500135 15.693 0.500135C13.6568 0.500135 11.9996 2.15736 11.9996 4.1935L11.9996 4.19348Z" fill="#2E3543"/>
</g>
<g clip-path="url(#clip1_1336:12345)">
<path d="M52 32.5H36C34.8955 32.5 34 31.6046 34 30.5V24.5H54V30.5C54 31.6046 53.1046 32.5 52 32.5Z" fill="#2E3543"/>
<path d="M52.0001 4.19348V10.1017C52.0001 10.6183 52.3449 10.8771 52.4933 10.964C52.6408 11.0509 53.0343 11.2267 53.4855 10.9767L57.2365 8.89368C58.0578 8.43664 59.0236 8.38977 59.8859 8.76379C60.7492 9.13782 61.3752 9.8761 61.6027 10.7892L61.9699 12.2579C62.0597 12.6154 61.9455 12.9943 61.6691 13.2433L52.8097 21.2179C51.8888 22.045 50.7013 22.5001 49.465 22.5001H39C36.2432 22.5001 34 20.257 34 17.5001L34.001 7.55188C34.001 5.30578 35.5137 3.32238 37.6787 2.72962L47.4757 0.594862C47.7482 0.532362 48.0275 0.500135 48.3068 0.500135C50.3429 0.500135 52.0002 2.15736 52.0002 4.1935L52.0001 4.19348Z" fill="#2E3543"/>
</g>
<defs>
<clipPath id="clip0_1336:12345">
<rect width="32" height="32" fill="white" transform="translate(0 32.5) rotate(-90)"/>
</clipPath>
<clipPath id="clip1_1336:12345">
<rect width="32" height="32" fill="white" transform="translate(32 32.5) rotate(-90)"/>
</clipPath>
</defs>
</svg>
