<svg width="32" height="32" viewBox="0 0 32 32" fill="none" xmlns="http://www.w3.org/2000/svg">
<path d="M14.0625 15.125H2.8125C1.26169 15.125 0 16.3867 0 17.9375V29.1875C0 30.7383 1.26169 32 2.8125 32H14.0625C15.6133 32 16.875 30.7383 16.875 29.1875V17.9375C16.875 16.3867 15.6133 15.125 14.0625 15.125ZM5.3125 28.25C4.79475 28.25 4.375 27.8302 4.375 27.3125C4.375 26.7948 4.79475 26.375 5.3125 26.375C5.83025 26.375 6.25 26.7948 6.25 27.3125C6.25 27.8302 5.83025 28.25 5.3125 28.25ZM5.3125 24.5C4.79475 24.5 4.375 24.0802 4.375 23.5625C4.375 23.0448 4.79475 22.625 5.3125 22.625C5.83025 22.625 6.25 23.0448 6.25 23.5625C6.25 24.0802 5.83025 24.5 5.3125 24.5ZM5.3125 20.75C4.79475 20.75 4.375 20.3302 4.375 19.8125C4.375 19.2948 4.79475 18.875 5.3125 18.875C5.83025 18.875 6.25 19.2948 6.25 19.8125C6.25 20.3302 5.83025 20.75 5.3125 20.75ZM11.5625 28.25C11.0448 28.25 10.625 27.8302 10.625 27.3125C10.625 26.7948 11.0448 26.375 11.5625 26.375C12.0802 26.375 12.5 26.7948 12.5 27.3125C12.5 27.8302 12.0802 28.25 11.5625 28.25ZM11.5625 24.5C11.0448 24.5 10.625 24.0802 10.625 23.5625C10.625 23.0448 11.0448 22.625 11.5625 22.625C12.0802 22.625 12.5 23.0448 12.5 23.5625C12.5 24.0802 12.0802 24.5 11.5625 24.5ZM11.5625 20.75C11.0448 20.75 10.625 20.3302 10.625 19.8125C10.625 19.2948 11.0448 18.875 11.5625 18.875C12.0802 18.875 12.5 19.2948 12.5 19.8125C12.5 20.3302 12.0802 20.75 11.5625 20.75Z" fill="#FF7D34"/>
<path d="M21.2326 11.7036C21.7504 11.7036 22.1701 11.2839 22.1701 10.7661C22.1701 10.2483 21.7504 9.82861 21.2326 9.82861C20.7149 9.82861 20.2951 10.2483 20.2951 10.7661C20.2951 11.2839 20.7149 11.7036 21.2326 11.7036Z" fill="#FF7D34"/>
<path d="M31.1763 8.77738L23.2213 0.822375C22.1248 -0.274125 20.3405 -0.274125 19.2439 0.822375L11.289 8.77738C10.7577 9.30863 10.4651 10.0149 10.4651 10.7661C10.4651 11.5174 10.7577 12.2236 11.289 12.7548L11.7841 13.25H14.0626C16.6473 13.25 18.7501 15.3528 18.7501 17.9375V20.2159L19.2439 20.7097C19.7751 21.241 20.4814 21.5336 21.2326 21.5336C21.9838 21.5336 22.6901 21.241 23.2213 20.7097L31.1762 12.7548C31.7075 12.2236 32 11.5173 32 10.7661C32 10.0148 31.7075 9.30856 31.1763 8.77738ZM21.2326 13.5786C19.6818 13.5786 18.4201 12.3169 18.4201 10.7661C18.4201 9.21525 19.6818 7.95356 21.2326 7.95356C22.7835 7.95356 24.0451 9.21525 24.0451 10.7661C24.0451 12.3169 22.7835 13.5786 21.2326 13.5786Z" fill="#FF7D34"/>
</svg>
