<svg width="32" height="32" viewBox="0 0 32 32" fill="none" xmlns="http://www.w3.org/2000/svg">
<path d="M28.8696 0C27.1434 0 25.7391 1.40425 25.7391 3.13044C25.7391 4.489 26.6141 5.63644 27.8261 6.06856V14.6087H25.7391V12.8696C25.7391 5.77306 19.9661 0 12.8696 0C5.77306 0 0 5.77306 0 12.8696V28.8696C0 30.5957 1.40425 32 3.13044 32H22.6087C24.3349 32 25.7391 30.5957 25.7391 28.8696V16.6956H28.8696C29.4456 16.6956 29.9131 16.2286 29.9131 15.6521V6.06856C31.125 5.63644 32 4.48906 32 3.13044C32 1.40425 30.5957 0 28.8696 0ZM5.98231 9.04244C7.01494 6.13044 9.78256 4.17394 12.8696 4.17394C15.9566 4.17394 18.7242 6.13044 19.7568 9.04244C19.9491 9.58562 19.6651 10.1821 19.1216 10.3746C18.5829 10.5674 17.9838 10.2864 17.7894 9.74012C17.0516 7.659 15.0747 6.26088 12.8696 6.26088C10.6644 6.26088 8.6875 7.659 7.94969 9.74019C7.75681 10.283 7.16025 10.5686 6.6175 10.3747C6.074 10.1821 5.79006 9.58562 5.98231 9.04244ZM13.9131 9.39131C13.9131 9.96756 13.4459 10.4348 12.8696 10.4348C12.2933 10.4348 11.8261 9.96762 11.8261 9.39131C11.8261 8.815 12.2933 8.34781 12.8696 8.34781C13.4458 8.34781 13.9131 8.815 13.9131 9.39131ZM18.0869 27.8261H7.65219C7.07612 27.8261 6.60869 27.359 6.60869 26.7826C6.60869 26.2061 7.07612 25.7391 7.65219 25.7391H18.0869C18.663 25.7391 19.1304 26.2061 19.1304 26.7826C19.1304 27.359 18.663 27.8261 18.0869 27.8261ZM21.2174 22.6087C21.2174 23.1851 20.7499 23.6522 20.1739 23.6522H5.56525C4.98919 23.6522 4.52175 23.1851 4.52175 22.6087V13.5652C4.52175 12.9888 4.98919 12.5217 5.56525 12.5217H20.1739C20.75 12.5217 21.2174 12.9888 21.2174 13.5652V22.6087H21.2174Z" fill="#FF7D34"/>
<path d="M14.2609 14.6086H11.4783V21.5651H14.2609V14.6086Z" fill="#FF7D34"/>
<path d="M9.39125 14.6086H6.60863V21.5651H9.39125V14.6086Z" fill="#FF7D34"/>
<path d="M19.1304 14.6086H16.3478V21.5651H19.1304V14.6086Z" fill="#FF7D34"/>
</svg>
