<svg width="104" height="15" viewBox="0 0 104 15" fill="none" xmlns="http://www.w3.org/2000/svg">
<path fill-rule="evenodd" clip-rule="evenodd" d="M10.3875 4.9826L8.45508 0.247071C8.32095 -0.082357 7.871 -0.082357 7.73687 0.247071L5.8045 4.98179L0.857373 5.42183C0.513476 5.45251 0.37467 5.89579 0.635127 6.12913L4.38836 9.49608L3.26387 14.5037C3.18589 14.8509 3.54928 15.1246 3.84483 14.9405L8.09637 12.2857L12.3479 14.9405C12.6427 15.1254 13.0068 14.8517 12.9289 14.5037L11.8044 9.49608L15.5568 6.12994C15.8173 5.8966 15.6777 5.45332 15.3346 5.42264L10.3875 4.9826ZM30.4551 0.247071L32.3875 4.9826L37.3346 5.42264C37.6777 5.45332 37.8173 5.8966 37.5568 6.12994L33.8044 9.49608L34.9289 14.5037C35.0068 14.8517 34.6427 15.1254 34.3479 14.9405L30.0964 12.2857L25.8448 14.9405C25.5493 15.1246 25.1859 14.8509 25.2639 14.5037L26.3884 9.49608L22.6351 6.12913C22.3747 5.89579 22.5135 5.45251 22.8574 5.42183L27.8045 4.98179L29.7369 0.247071C29.871 -0.082357 30.321 -0.082357 30.4551 0.247071ZM51.4551 0.247071L53.3875 4.9826L58.3346 5.42264C58.6777 5.45332 58.8173 5.8966 58.5568 6.12994L54.8044 9.49608L55.9289 14.5037C56.0068 14.8517 55.6427 15.1254 55.3479 14.9405L51.0964 12.2857L46.8448 14.9405C46.5493 15.1246 46.1859 14.8509 46.2639 14.5037L47.3884 9.49608L43.6351 6.12913C43.3747 5.89579 43.5135 5.45251 43.8574 5.42183L48.8045 4.98179L50.7369 0.247071C50.871 -0.082357 51.321 -0.082357 51.4551 0.247071ZM75.3875 4.9826L73.4551 0.247071C73.321 -0.082357 72.871 -0.082357 72.7369 0.247071L70.8045 4.98179L65.8574 5.42183C65.5135 5.45251 65.3747 5.89579 65.6351 6.12913L69.3884 9.49608L68.2639 14.5037C68.1859 14.8509 68.5493 15.1246 68.8448 14.9405L73.0964 12.2857L77.3479 14.9405C77.6427 15.1254 78.0068 14.8517 77.9289 14.5037L76.8044 9.49608L80.5568 6.12994C80.8173 5.8966 80.6777 5.45332 80.3346 5.42264L75.3875 4.9826ZM95.4551 0.247071L97.3875 4.9826L102.335 5.42264C102.678 5.45332 102.817 5.8966 102.557 6.12994L98.8044 9.49608L99.9289 14.5037C100.007 14.8517 99.6427 15.1254 99.3479 14.9405L95.0964 12.2857L90.8448 14.9405C90.5493 15.1246 90.1859 14.8509 90.2639 14.5037L91.3884 9.49608L87.6351 6.12913C87.3747 5.89579 87.5135 5.45251 87.8574 5.42183L92.8045 4.98179L94.7369 0.247071C94.871 -0.082357 95.321 -0.082357 95.4551 0.247071Z" fill="#DFE5EE"/>
<mask id="mask0_1605:2967" style="mask-type:alpha" maskUnits="userSpaceOnUse" x="0" y="0" width="103" height="15">
<path fill-rule="evenodd" clip-rule="evenodd" d="M51.4551 0.247071L53.3875 4.9826L58.3346 5.42264C58.6777 5.45332 58.8173 5.8966 58.5568 6.12994L54.8044 9.49608L55.9289 14.5037C56.0068 14.8517 55.6427 15.1254 55.3479 14.9405L51.0964 12.2857L46.8448 14.9405C46.5493 15.1246 46.1859 14.8509 46.2639 14.5037L47.3884 9.49608L43.6351 6.12913C43.3747 5.89579 43.5135 5.45251 43.8574 5.42183L48.8045 4.98179L50.7369 0.247071C50.871 -0.082357 51.321 -0.082357 51.4551 0.247071ZM30.4551 0.247071L32.3875 4.9826L37.3346 5.42264C37.6777 5.45332 37.8173 5.8966 37.5568 6.12994L33.8044 9.49608L34.9289 14.5037C35.0068 14.8517 34.6427 15.1254 34.3479 14.9405L30.0964 12.2857L25.8448 14.9405C25.5493 15.1246 25.1859 14.8509 25.2639 14.5037L26.3884 9.49608L22.6351 6.12913C22.3747 5.89579 22.5135 5.45251 22.8574 5.42183L27.8045 4.98179L29.7369 0.247071C29.871 -0.0823569 30.321 -0.0823569 30.4551 0.247071ZM75.3875 4.9826L73.4551 0.247071C73.321 -0.0823569 72.871 -0.0823569 72.7369 0.247071L70.8045 4.98179L65.8574 5.42183C65.5135 5.45251 65.3747 5.89579 65.6351 6.12913L69.3884 9.49608L68.2639 14.5037C68.1859 14.8509 68.5493 15.1246 68.8448 14.9405L73.0964 12.2857L77.3479 14.9405C77.6427 15.1254 78.0068 14.8517 77.9289 14.5037L76.8044 9.49608L80.5568 6.12994C80.8173 5.8966 80.6777 5.45332 80.3346 5.42264L75.3875 4.9826ZM95.4551 0.247071L97.3875 4.9826L102.335 5.42264C102.678 5.45332 102.817 5.8966 102.557 6.12994L98.8044 9.49608L99.9289 14.5037C100.007 14.8517 99.6427 15.1254 99.3479 14.9405L95.0964 12.2857L90.8448 14.9405C90.5493 15.1246 90.1859 14.8509 90.2639 14.5037L91.3884 9.49608L87.6351 6.12913C87.3747 5.89579 87.5135 5.45251 87.8574 5.42183L92.8045 4.98179L94.7369 0.247071C94.871 -0.082357 95.321 -0.082357 95.4551 0.247071ZM10.3875 4.9826L8.45508 0.247071C8.32095 -0.0823569 7.871 -0.0823569 7.73687 0.247071L5.8045 4.98179L0.857373 5.42183C0.513476 5.45251 0.37467 5.89579 0.635127 6.12913L4.38836 9.49608L3.26387 14.5037C3.18589 14.8509 3.54928 15.1246 3.84483 14.9405L8.09637 12.2857L12.3479 14.9405C12.6427 15.1254 13.0068 14.8517 12.9289 14.5037L11.8044 9.49608L15.5568 6.12994C15.8173 5.8966 15.6777 5.45332 15.3346 5.42264L10.3875 4.9826Z" fill="#C4C4C4"/>
</mask>
<g mask="url(#mask0_1605:2967)">
<rect x="-0.5" width="93" height="16" fill="#FFAE64"/>
</g>
</svg>
