<svg width="33" height="32" viewBox="0 0 33 32" fill="none" xmlns="http://www.w3.org/2000/svg">
<rect x="0.158722" width="32" height="32" rx="16" fill="#6F82EB"/>
<path d="M26.1587 9.79875C25.415 10.125 24.6225 10.3412 23.7962 10.4462C24.6462 9.93875 25.295 9.14125 25.6 8.18C24.8075 8.6525 23.9325 8.98625 23 9.1725C22.2475 8.37125 21.175 7.875 20.005 7.875C17.735 7.875 15.9075 9.7175 15.9075 11.9763C15.9075 12.3012 15.935 12.6137 16.0025 12.9112C12.5937 12.745 9.57747 11.1113 7.55122 8.6225C7.19747 9.23625 6.98997 9.93875 6.98997 10.695C6.98997 12.115 7.72122 13.3737 8.81122 14.1025C8.15247 14.09 7.50622 13.8988 6.95872 13.5975C6.95872 13.61 6.95872 13.6262 6.95872 13.6425C6.95872 15.635 8.37997 17.29 10.2437 17.6712C9.90997 17.7625 9.54622 17.8062 9.16872 17.8062C8.90622 17.8062 8.64122 17.7913 8.39247 17.7362C8.92372 19.36 10.4312 20.5538 12.2237 20.5925C10.8287 21.6838 9.05747 22.3412 7.13997 22.3412C6.80372 22.3412 6.48122 22.3263 6.15872 22.285C7.97497 23.4563 10.1275 24.125 12.4487 24.125C19.9937 24.125 24.1187 17.875 24.1187 12.4575C24.1187 12.2762 24.1125 12.1013 24.1037 11.9275C24.9175 11.35 25.6012 10.6288 26.1587 9.79875Z" fill="#F6F8FC"/>
</svg>
