<svg width="570" height="372" viewBox="0 0 570 372" fill="none" xmlns="http://www.w3.org/2000/svg">
<g clip-path="url(#clip0_1301:27598)">
<path opacity="0.35" d="M112.053 367.941L111.068 371.179C110.857 371.179 105.18 372.07 104.969 372L99.5271 367.894C98.9642 364.962 95.0234 361.818 93.0765 359.918L89.8395 353.536L82.0753 348.164L78.158 346.779L75.2025 344.762L68.7753 344.785L62.9111 340.21L57.1407 339.647L56.9062 339.764L57.1876 341.876L56.3197 344.175C55.7802 344.292 47.3123 347.061 47.0543 346.662L48.9074 344.715L48.5321 344.386L47.1951 344.668L49.3296 340.374L51.6988 339.53L52.8012 337.489L52.0272 337.16L49.7284 337.7L38.9617 347.671L40.8148 348.328L29.9778 356.985C23.7852 359.237 8.11604 364.821 1.50122 364.023L2.43949 363.226L7.38888 363.038L12.6197 360.269L15.0123 361.419C17.3346 358.838 24.2543 355.507 27.421 354.17L28.4765 349.595L31.5025 346.287L31.1271 346.005C31.1271 346.005 24.5592 347.295 24.5358 347.272L22.4247 343.612L22.1432 343.518L18.3667 344.41L18.3432 341.876L19.4926 340.867L18.2025 336.832L13.3704 335.659L10.8605 331.506L12.4555 330.005L10.7197 325.219C14.2148 323.13 15.7864 322.028 18.0852 318.556L21.6506 321.23L24.1839 318.532L27.7259 319.072C28.3827 317.195 28.9691 313.394 28.8988 311.423L28.5938 311.142L23.9025 312.972C20.8531 311.893 18.9062 311.376 16.6543 308.772L17.7099 305.887L16.0679 302.79L24.8876 301.288L24.3247 304.408L28.6173 305.323L29.3444 305.136L30.5407 299.88L27.7259 298.027L26.0605 291.857L24.137 289.581L25.779 287.376C25.779 287.376 29.2271 288.76 29.2506 288.76L32.3 287.493L33.4963 284.138L41.1432 280.595L45.6938 281.722L46.9605 280.173C49.5407 281.323 54.2086 283.223 55.921 285.71C59.5568 284.865 65.5148 288.525 68.5876 289.816L71.5197 288.478L76.3753 293.499V342.791L78.2518 343.682L81.9815 343.636L81.4654 344.949C81.7234 345.067 87.2358 350.158 87.5642 350.111C89.0185 349.032 92.3963 346.31 94.3197 346.357L104.828 361.161C106.259 361.325 109.168 363.085 110.364 363.882L112.053 367.941Z" fill="#DFE5EE"/>
<g opacity="0.35">
<path d="M199.664 363.789L199.336 365.431L190.891 368.364L189.46 370.827L186.951 370.241C187.326 367.003 186.083 363.507 185.004 360.598L187.115 358.346L186.27 354.569L186.927 354.357C189.202 355.225 193.8 357.478 195.559 359.19L196.357 361.419L199.664 363.789Z" fill="#DFE5EE"/>
<path d="M174.988 347.507L172.618 348.774L172.572 346.967L171.281 345.231L172.595 345.325L174.823 347.108L174.988 347.507Z" fill="#DFE5EE"/>
<path d="M141.562 330.075L139.075 331.365L136.214 329.582L138.043 328.175C138.02 328.081 137.926 327.87 137.856 327.799L139.169 327.893L141.398 329.676L141.562 330.075Z" fill="#DFE5EE"/>
<path d="M184.323 347.225L181.884 348.563L179.702 348.516L178.67 346.17L176.442 345.888L176.137 344.973L176.489 343.683C176.583 343.659 176.723 343.659 176.817 343.683L178.436 345.043L180.711 344.691L183.948 346.545L184.323 347.225Z" fill="#DFE5EE"/>
<path d="M174.964 343.002L174.378 344.199C172.97 344.433 171.516 343.8 170.32 343.166L168.607 343.612L168.42 343.471L169.194 341.594L174.964 343.002Z" fill="#DFE5EE"/>
<path d="M162.767 339.694L161.617 339.882L160.726 339.178C160.257 338.943 158.263 339.131 157.723 339.131C157.63 338.967 155.988 336.41 156.128 336.269L157.254 336.292L158.779 334.955L162.767 339.694Z" fill="#DFE5EE"/>
</g>
<path d="M482.741 146.797C480.935 146.89 476.525 146.867 476.642 147.336C476.22 147.758 473.499 153.483 471.904 156.908C471.81 156.979 469.511 157.471 469.581 157.636C468.807 159.559 467.916 161.554 467.541 162.164C466.884 161.765 465.078 160.076 464.726 160.193C464.304 158.644 460.504 172.041 459.894 172.862C458.838 173.143 461.325 175.677 462.122 176.874C461.16 177.765 457.29 180.815 456.68 181.12C456.047 181.167 446.336 182.458 445.609 182.528C443.849 181.848 436.883 173.753 435.288 172.041L434.936 168.639C435.147 168.522 437.188 168.287 437.164 167.959C440.847 161.108 438.9 163.806 439.674 158.293C442.207 160.216 441.175 160.381 444.342 156.111C446.031 153.999 446.195 153.342 446.054 150.386C446.875 149.94 450.675 148.11 453.162 146.914L463.412 145.154C466.509 154.938 464.398 151.395 473.077 145.647C475.563 147.219 479.363 145.436 482.014 145.553C482.178 145.811 482.53 146.374 482.741 146.797Z" fill="#71D98E"/>
<path opacity="0.35" d="M510.42 164.744C509.998 166.152 509.059 168.381 508.145 169.812C507.3 163.501 510.443 165.307 509.27 162.351C509.552 162.211 509.88 162.07 510.209 161.906C510.185 162.187 510.373 164.04 510.42 164.744Z" fill="#DFE5EE"/>
<path opacity="0.35" d="M441.363 180.299L434.795 188.064C432.473 188.627 432.121 189.003 432.051 189.308C431.746 189.707 429.822 191.513 427.594 193.531C427.523 193.531 380.962 197.918 380.891 197.918C380.751 197.918 378.78 199.49 378.663 199.537C378.475 199.701 362.126 202.211 362.126 202.61L360.32 209.414H353.775C358.302 206.693 356.496 207.537 356.379 202.54C356.403 201.906 306.768 203.596 306.533 203.385C306.463 203.173 306.674 168.076 306.463 167.911C303.836 165.401 301.725 162.938 301.725 162.586C303.156 156.556 302.991 160.099 297.714 155.571C297.62 154.82 296.165 151.137 295.204 148.814L335.244 147.406L337.825 149.752C337.426 158.926 337.191 156.626 344.346 163.829C344.604 163.899 344.322 166.222 344.252 167.911C347.935 171.501 346.903 171.032 349.717 169.366L352.556 171.43C350.186 174.645 350.257 175.325 350.562 175.653C350.843 175.771 350.327 178.305 350.562 179.689C357.81 183.536 360.156 183.748 362.665 188.698C360.531 191.185 360.484 190.809 362.267 194.798C364.823 196.417 365.738 194.282 367.075 192.358C367.521 192.358 369.444 193.648 370.922 194.352C374.019 193.789 375.215 194.915 372.869 188.909C372.986 188.862 374.91 188.674 374.933 188.534L377.795 184.099C377.865 184.099 377.819 182.152 377.842 182.105C385.864 182.645 384.48 182.903 391.377 178.352C392.925 179.008 395.857 178.891 397.475 178.891C397.757 178.891 398.062 178.891 403.949 171.196C404.231 170.304 404.231 168.873 404.372 168.427C404.77 168.381 405.732 168.85 406.342 168.756C409.649 167.372 409.837 167.184 409.907 167.114C410.072 166.926 410.259 166.762 409.767 162.374C411.995 162.445 411.831 162.492 413.402 161.272C413.872 161.553 415.701 164.204 417.32 166.058C418.891 166.152 431.652 166.809 432.895 166.856C433.904 167.348 434.138 171.384 434.232 172.439C434.256 172.627 441.293 180.135 441.363 180.299Z" fill="#DFE5EE"/>
<path opacity="0.35" d="M229.079 141.471C229.712 140.227 208.789 139.242 208.601 138.796L211.135 111.839L266.141 115.452C267.22 117.376 267.736 117.611 268.064 117.611C269.12 117.611 277.681 117.939 278.432 118.221C279.018 118.737 283.686 121.834 285.798 123.218C285.938 123.851 288.495 127.793 288.753 128.614C288.354 132.72 286.994 133.236 291.591 135.019C291.263 139.758 291.239 143.442 291.732 143.488C292.201 144.028 296.33 154.163 296.658 155.524L228.422 153.882L229.079 141.471Z" fill="#DFE5EE"/>
<path d="M499.465 158.691C499.7 158.926 500.333 159.817 500.615 160.334C498.598 159.231 496.299 157.682 494.821 159.606C492.64 157.917 492.686 158.199 490.528 158.926C492.358 152.498 495.431 151.442 487.057 149.682C486.119 147.524 487.948 146.961 483.773 146.726C482.272 143.16 481.169 144.873 476.454 145.248C475.188 145.764 473.921 144.802 472.983 144.638C472.772 144.638 472.561 144.638 466.016 149.964L464.398 145.013L501.436 138.679C501.577 139.172 501.811 139.969 502.116 140.978C500.591 140.087 500.849 139.899 499.419 141.752C499.043 142.48 498.644 142.151 498.058 142.691C498.035 142.714 495.759 145.013 495.759 145.436C497.261 148.345 495.337 154.304 499.09 156.509C498.152 156.228 498.128 156.955 498.293 157.776C498.269 158.199 499.184 158.386 499.465 158.691Z" fill="#F6F8FC"/>
<path d="M513.563 153.014C513.352 153.929 512.203 158.41 511.78 159.818C510.959 160.216 509.857 160.756 508.919 161.178C508.567 160.568 507.488 161.014 506.901 160.991C506.901 158.856 506.901 154.891 503.828 157.401C502.867 157.143 501.694 155.829 500.943 155.102C501.389 153.788 502.116 151.677 500.216 151.231C500.404 151.043 500.803 150.855 500.99 150.668C501.225 149.8 500.896 146.468 499.512 146.937C499.067 144.849 501.647 143.535 502.257 141.518C503.641 145.342 504.954 151.372 506.432 154.116C506.456 154.14 513.563 153.014 513.563 153.014Z" fill="#F6F8FC"/>
<path d="M217.726 30.8279L212.753 83.8032C212.425 83.7563 144.611 75.5214 144.33 75.4979C143.86 75.2868 143.72 78.8998 143.579 79.0406C140.6 77.4687 139.826 80.9175 137.902 82.7005C136.659 82.3017 129.317 78.0083 129.012 78.3602C128.262 78.2194 126.104 80.3779 125.025 81.1521C124.673 77.2575 126.08 74.8645 121.483 75.146C121.342 73.8087 121.858 69.9611 121.154 69.6092C120.873 68.835 122.163 66.2308 121.553 65.6677C119.489 59.9667 119.63 59.7321 114.891 63.8378C114.375 63.0401 113.226 60.694 113.226 60.1544C113.202 59.6851 118.949 49.7141 118.574 49.7845C118.574 49.1511 117.823 48.893 115.501 48.1892C114.938 48.0249 113.765 47.673 113.601 47.5557C113.32 47.2038 111.865 42.3943 111.865 41.2212C112.123 40.3297 108.816 37.4205 107.573 36.1067C107.104 35.4263 108.089 33.7371 108.136 32.9394C104.735 26.253 106.681 23.6723 108.37 13.842C146.699 22.0769 183.479 27.8014 217.726 30.8279Z" fill="#F6F8FC"/>
<path d="M409.11 166.41C408.688 166.621 407.468 167.161 406.131 167.724C403.339 167.325 403.598 166.339 403.081 170.656C400.689 173.777 397.944 177.249 397.311 177.835C395.716 177.929 392.784 177.835 391.33 177.296C384.832 180.721 386.967 181.965 377.842 181.073V177.695C378.077 177.061 382.815 170.656 382.299 170.844C382.369 168.263 382.627 166.973 380.352 165.002C382.275 165.049 379.038 137.177 378.569 128.849C380.305 129.388 382.205 129.834 383.565 127.934L404.794 125.259C405.005 128.027 409.18 164.838 409.11 166.41Z" fill="#F6F8FC"/>
<path d="M348.709 131.171C348.357 132.039 348.193 132.462 348.169 132.72C347.981 132.931 346.902 133.283 342.985 133.916C341.109 134.221 340.804 134.268 340.593 134.479C338.998 138.867 339.983 137.811 342.563 140.978C342.328 141.729 339.326 147.078 338.27 148.791C338.13 148.72 335.714 146.327 335.526 146.374L294.781 147.805C294.172 146.327 292.858 143.254 292.483 142.808C292.365 142.62 292.225 141.471 292.553 136.098C292.6 135.512 292.623 135.089 292.623 134.949C292.694 133.916 290.114 133.4 289.246 132.743C290.372 127.793 289.246 127.464 286.736 122.89C286.759 121.975 287.111 110.784 287.182 108.602L338.13 107.03C339.889 119.065 337.238 116.696 344.533 118.713C344.721 118.831 344.674 120.191 344.815 120.755C344.979 125.376 346.902 125.634 349.741 128.098C349.764 128.309 349.6 129.013 348.709 131.171Z" fill="#F6F8FC"/>
<path opacity="0.35" d="M212.659 84.812L207.593 138.679C194.293 137.248 149.56 132.626 137.152 130.585C138.207 119.957 143.368 87.5335 144.94 76.5771L212.659 84.812Z" fill="#DFE5EE"/>
<path opacity="0.35" d="M305.525 168.404V197.637L226.264 195.666L228.399 154.891L297.338 156.533C298.065 157.19 299.473 158.128 301.514 159.325C299.473 163.102 302.17 165.049 305.525 168.404Z" fill="#DFE5EE"/>
<path d="M381.267 170.774C376.599 177.718 376.575 176.099 376.81 183.748L374.253 187.713C369.374 188.041 372.634 188.839 373.08 193.015C372.822 193.179 371.931 193.343 371.039 193.367C363.791 188.323 367.333 194.845 363.064 194.188C362.478 192.78 361.985 191.49 361.868 191.185C362.454 190.458 363.744 189.308 363.627 188.722C363.627 187.783 360.625 184.076 360.367 183.818C359.991 183.443 354.69 180.698 351.453 179.056C351.664 176.968 351.641 175.677 351.383 175.161C351.43 174.833 352.649 172.885 353.799 171.431C353.869 171.337 353.846 171.173 353.752 171.102C353.588 171.055 349.858 168.17 349.67 168.193C348.896 168.662 347.653 169.648 347.465 169.601C347.207 169.507 346.269 168.662 345.214 167.536C345.706 160.99 345.448 164.463 338.833 157.049C338.646 153.389 338.646 150.292 338.739 149.893C339.302 149.119 343.572 141.752 343.572 141.025C343.572 140.837 343.572 140.298 340.827 137.787C340.968 136.638 341.156 135.559 341.249 135.277C343.97 134.855 350.022 133.822 349.131 132.837C349.764 131.242 351.289 127.535 350.444 127.464C348.099 125.165 345.847 125.118 345.777 120.802L373.737 119.112C373.409 121.013 374.746 122.631 375.848 123.64C376.223 125.236 375.449 128.262 377.467 128.52C377.654 136.215 381.29 161.905 379.273 165.096C380.891 167.982 381.548 166.316 381.267 170.774Z" fill="#F6F8FC"/>
<path opacity="0.35" d="M307.823 218.728L306.838 242.166C299.027 236.653 295.79 241.439 287.979 242.236C281.927 241.087 269.894 240.242 265.648 240.406C258.799 240.524 255.351 227.268 250.988 234.823C245.03 231.562 246.977 225.649 247.375 216.781C248.009 206.998 248.056 205.473 247.657 205.074C247.493 204.558 219.157 202.681 214.7 202.611C214.911 200.006 215.075 197.871 215.193 196.37L305.525 198.622C305.572 198.786 305.407 204.206 305.595 204.323L307.823 218.728Z" fill="#DFE5EE"/>
<path d="M513.024 152.075L506.948 153.037C504.438 143.817 501.647 139.523 502.679 136.075C502.914 136.028 503.5 135.957 504.298 135.934C503.5 141.4 507.722 141.565 508.027 146.21C507.535 146.421 510.561 147.805 511.475 148.345C511.874 149.518 512.062 150.996 513.024 152.075Z" fill="#F6F8FC"/>
<path d="M510.701 129.388C509.81 130.538 505.564 132.931 504.298 134.925C500.943 134.995 501.928 135.605 501.342 137.646L453.396 145.834C451.942 137.811 449.104 121.881 448.33 116.977C448.893 116.672 450.793 113.88 451.543 113.13C451.989 115.311 453.701 113.481 454.452 111.816C454.593 111.957 454.991 115.194 455.343 115.053C455.39 115.053 499.911 105.692 499.958 105.692L507.065 112.895C506.878 112.918 505.001 118.127 504.532 119.229C503.899 119.933 505.072 120.731 505.635 121.294C503.993 127.605 505.165 125.118 510.701 129.388Z" fill="#71D98E"/>
<path d="M444.272 192.968L441.598 199.514C441.48 199.654 424.193 207.608 424.169 207.842C421.847 215.678 421.706 211.338 418.586 216.781L357.2 222.74V217.79C357.177 217.555 361.61 209.766 361.328 209.508L362.97 203.338C364.917 202.751 380.375 201.086 381.196 198.904L444.272 192.968Z" fill="#F6F8FC"/>
<path opacity="0.35" d="M526.206 64.6824C524.306 66.7704 523.767 67.4508 523.767 67.92C523.767 68.0842 524.095 85.9382 524.47 89.5043L518.606 90.865C515.651 84.859 515.135 84.0144 512.062 74.0668C513.281 67.5915 513.586 74.2076 509.786 61.3978C514.572 60.2247 524.728 57.7379 526.628 57.3156C526.605 60.1309 526.347 60.5532 527.872 62.782C527.684 63.0635 526.769 64.0489 526.206 64.6824Z" fill="#DFE5EE"/>
<path d="M540.867 84.1785C536.387 85.0935 538.31 83.8736 536.832 86.8297L525.409 89.5042C525.831 83.8032 522.688 68.1781 526.933 65.5973C529.631 62.6178 529.138 63.3216 527.614 60.694C527.567 60.6001 527.731 56.9402 527.496 56.9871C527.684 56.5882 527.801 53.5148 527.989 52.7641C528.528 52.6468 529.678 52.811 530.288 52.7172L538.169 74.8645C538.193 75.0052 537.559 77.4921 537.794 77.5156L541.313 80.3544C540.867 82.2313 540.632 82.6301 540.867 84.1785Z" fill="#F6F8FC"/>
<path opacity="0.35" d="M143.438 80.0494L137.785 117.353C123.617 115.147 103.749 110.924 78.6975 104.801L83.9284 81.7856C86.6494 78.9937 88.0568 77.1872 84.0222 75.0287L84.937 70.5008L88.8309 68.0843C88.8778 68.0608 88.9482 67.9904 88.9716 67.9435C88.737 67.1223 100.161 55.1102 92.1383 54.5002L90.7543 52.0837L100.794 12.2467C102.952 12.7159 105.133 13.2086 107.338 13.6778C105.814 23.5315 103.538 26.6519 107.104 32.9864C104.711 37.0921 109.543 38.4997 110.857 41.2682C110.857 42.2535 112.264 47.6965 112.874 48.3065C113.296 48.7757 116.486 49.4796 117.472 49.9488C116.651 51.6614 111.654 60.3655 112.194 60.1544C114.235 66.3012 114.164 65.8085 118.926 61.9374C119.395 62.6178 120.333 65.6678 120.709 66.2543C119.677 69.0931 120.662 70.3365 120.474 72.9642C119.841 76.8587 121.694 76.0141 123.828 76.4364C124.11 83.5217 123.406 83.639 128.989 79.3691C129.927 79.5098 137.668 84.0613 137.879 83.7094C138.536 84.0613 140.717 80.636 141.562 79.6271C141.914 79.6741 142.711 79.8618 143.438 80.0494Z" fill="#DFE5EE"/>
<path d="M359.874 210.4C357.177 215.796 355.675 216.57 356.191 223.069C352.18 227.081 352.556 225.908 352.157 230.975C351.946 231.21 350.069 232.383 348.967 233.298C348.24 235.574 346.504 240.993 346.504 241.65C346.668 241.838 345.073 243.081 344.51 243.926C345.049 246.248 345.87 250.073 346.152 251.504L314.344 251.856C315.846 244.348 313.523 246.108 307.8 242.706C308.527 233.579 309.184 213.168 306.58 204.394L355.394 203.338L355.722 206.904L351.007 209.977C350.14 211.01 359.78 210.118 359.874 210.4Z" fill="#F6F8FC"/>
<path d="M286.712 82.9117C286.548 91.4516 286.102 112.473 285.751 121.975C275.899 115.71 281.833 117.353 268.135 116.602C269.612 112.473 212.284 111.769 211.205 110.83L214.935 71.1812L284.179 75.4745C281.974 80.3779 282.819 80.0495 286.712 82.9117Z" fill="#F6F8FC"/>
<path opacity="0.35" d="M375.731 84.8356C375.567 84.7417 375.614 86.3605 375.637 86.9471C374.23 90.3959 373.221 89.3401 374.089 94.6189C370.782 96.05 373.69 100.038 373.432 102.431C369.257 111.323 374.066 111.323 373.737 118.338L345.706 120.051C346.035 117.212 342.235 117.54 340.311 116.93C339.889 115.1 338.669 103.581 338.669 102.666C338.669 102.033 337.661 101.258 334.353 99.0999C332.922 98.0677 332.265 98.185 332.312 96.5896C332.007 94.0558 332.031 95.2054 328.301 93.2581C326.518 92.4604 322.859 90.8651 322.249 90.3724C322.202 88.5424 321.78 77.2107 321.71 75.0757C322.46 74.4892 326.143 73.1988 326.636 72.7062C328.043 70.7823 324.548 64.0021 327.785 62.8056C331.843 63.9552 330.905 63.3217 333.861 61.5621C334.799 61.7263 338.646 59.0987 339.889 60.2248C338.716 60.4829 337.426 62.4302 338.388 63.2982C340.311 62.5944 341.461 63.134 343.431 63.7675C343.619 64.2601 345.706 64.4478 346.105 64.5651C346.175 64.6355 347.043 67.3805 347.207 67.2162L357.833 69.1635C360.648 72.5654 361.657 71.017 367.31 72.5185C369.585 81.0818 367.357 78.8999 371.954 79.6272C371.978 79.6507 372.541 80.0964 372.564 80.1199C372.47 84.6713 370.125 80.4718 368.178 88.4486C366.911 93.7273 370.266 90.2316 371.954 87.6274C372.752 86.7594 374.746 85.6567 374.816 84.4602C374.84 84.3429 375.215 83.991 375.473 83.7564C377.373 82.1845 374.98 81.8325 378.147 78.9234C379.132 80.6126 376.693 83.6156 375.731 84.8356Z" fill="#DFE5EE"/>
<path opacity="0.35" d="M154.932 134.034L147.144 187.572L94.7419 178.891L108.464 112.731C119.911 115.218 129.739 117.095 137.668 118.338C135.393 137.248 133.188 129.74 154.932 134.034Z" fill="#DFE5EE"/>
<path d="M107.456 112.52L91.6926 188.557C90.7543 186.235 86.4618 189.003 85.1013 189.754C84.8432 190.012 84.4679 190.387 84.5852 200.546C84.7025 201.625 83.7173 203.361 83.3185 204.605L40.4161 139.078L50.2914 98.6542C72.1766 104.332 91.4111 109.001 107.456 112.52Z" fill="#71D98E"/>
<path opacity="0.35" d="M452.411 146.139C438.548 152.427 450.112 148.181 441.363 158.433C436.554 153.788 440.307 162.539 436.343 167.278L434.607 167.677C433.552 164.181 425.67 166.081 417.742 165.026C412.98 159.184 414.388 159.442 411.596 161.342H409.626L405.709 125.189L418.211 123.922C417.953 126.151 419.478 124.79 420.486 124.602C421.519 124.837 429.681 127.957 429.658 127.699C430.315 127.769 431.628 126.08 432.402 125.095C433.904 124.626 434.654 125.282 436.085 125.658C439.698 123.499 439.674 119.793 447.321 117.306C447.649 119.558 451.872 143.113 452.411 146.139Z" fill="#DFE5EE"/>
<path d="M513.821 193.531C512.109 194.469 512.015 195.126 511.358 196.816C505.165 197.543 508.707 196.557 506.174 195.291C505.236 195.244 504.978 199.232 505.212 199.068C505.47 199.326 506.221 199.607 506.901 199.607C506.62 200.006 505.986 200.64 506.362 201.344C504.157 204.487 506.104 203.197 502.304 203.033C500.263 204.863 505.423 205.754 506.057 204.323C507.347 204.042 509.317 204.229 509.317 202.657C510.349 203.361 508.754 205.543 508.285 205.965C507.816 206.364 505.4 205.59 505.189 207.279C502.397 207.373 502.139 206.833 501.014 210.141C499.348 210.001 499.465 210.212 499.63 211.596C498.527 212.535 494.258 217.485 494.774 219.972C493.625 223.115 492.639 221.239 489.567 222.623C489.473 222.552 474.155 212.253 474.085 212.183C473.897 212.018 462.568 214.224 462.357 214.2C462.239 214.059 462.497 212.37 462.263 212.323C462.122 212.276 459.425 210.235 459.26 210.282C459.143 210.306 441.644 211.573 441.527 211.666L435.1 215.397L419.783 216.875L420.838 215.186C423.348 214.318 424.192 210.892 424.943 208.71C425.06 208.663 442.137 200.569 442.231 200.522C442.418 200.499 445.257 193.179 445.351 193.062L507.933 181.707C508.496 183.278 510.467 183.724 511.757 184.71C511.311 184.85 510.701 185.46 510.302 185.32C509.317 184.17 508.567 184.944 509.083 186.141C508.707 186.328 506.714 186.915 506.479 186.938C505.189 187.924 507.183 188.088 503.664 188.98C502.397 189.66 502.21 192.194 504.368 191.701C505.072 191.842 507.394 189.777 507.558 189.636C507.417 189.613 508.426 189.472 509.388 189.496C509.505 189.73 509.599 190.598 509.599 190.974C510.373 192.217 512.507 190.997 512.437 189.636C514.243 189.214 512.812 192.71 513.821 193.531Z" fill="#F6F8FC"/>
<path opacity="0.35" d="M489.027 334.251C486.048 335.659 486.541 338.568 487.854 341.149C485.86 342.955 481.943 345.325 479.339 345.137C480.137 345.372 480.254 343.002 480.278 342.955C480.465 342.556 478.847 342.415 478.167 342.251C469.394 330.568 471.106 342.11 467.377 330.544C464.984 328.221 463.881 328.785 463.858 324.303C460.058 322.122 463.835 327.166 459.096 323.342C458.252 322.192 457.783 318.814 455.648 317.969C455.226 317.781 455.226 317.406 455.132 316.937C456.375 317.124 456.446 316.069 456.563 314.872C456.657 314.544 458.158 312.08 458.041 312.01C457.642 310.86 456.352 310.133 455.742 311.728C454.71 308.021 451.191 312.244 454.311 313.863C450.089 315.646 452.998 304.361 453.467 301.851C452.247 299.106 450.863 294.437 447.133 295.094C447.251 295.047 442.7 291.716 440.284 288.056C440.143 286.648 440.002 287.376 437.798 285.898C435.077 283.927 430.033 282.331 429.564 286.437C427.641 286.132 418.282 294.907 419.267 289.464C419.736 289.511 417.883 288.267 416.264 287.258C419.032 287.141 414.27 284.818 413.614 284.443C411.925 286.93 410.728 283.082 405.92 283.34C408.125 279.399 399.774 284.302 398.672 283.082C400.149 281.721 396.021 282.449 395.575 282.683C395.2 283.598 394.848 285.452 393.23 285.358L392.01 277.076L420.088 274.097C420.275 274.19 422.316 277.475 422.598 277.405L453.748 275.809C453.865 275.809 457.102 278.061 457.173 277.78C457.525 277.639 456.328 272.548 456.399 272.337L456.868 271.563C458.51 272.783 460.762 272.431 462.591 272.431C462.498 277.428 463.835 274.378 463.764 277.733C465.5 281.041 465.875 281.041 466.086 285.358C467.095 287.047 472.091 292.185 471.857 293.687C474.554 295.235 476.36 296.901 477.932 300.209C478.519 301.476 477.698 301.053 477.486 301.921C477.651 304.15 477.838 307.341 480.372 309.007C481.943 312.244 482.905 315.998 486.165 318.86C486.259 319.142 488.253 325.781 488.253 326.532C487.737 328.902 487.901 331.975 489.027 334.251Z" fill="#DFE5EE"/>
<path d="M228.047 141.893L225.256 195.619C219.157 196.44 155.847 188.557 148.13 187.736L155.941 134.151L228.047 141.893Z" fill="#F6F8FC"/>
<path opacity="0.35" d="M466.297 252.935C464.116 253.146 464.092 255.633 463.483 257.439C463.107 259.035 460.597 264.994 461.465 267.856C461.583 268.818 461.489 270.39 462.169 271.141L458.909 271.187C458.697 271.187 456.492 269.733 456.352 270.155C456.328 270.226 455.249 271.891 455.343 271.962L455.976 275.786C456.399 273.275 423.935 276.466 422.949 276.138L420.768 273.111L418.633 260.489C420.322 256.9 421.941 257.533 418.563 255.234C421.307 252.278 419.619 253.287 416.663 251.152L407.304 218.916L434.349 216.288C434.349 216.499 432.027 219.737 432.52 219.854L440.096 224.594C440.073 227.62 448.47 233.861 450.323 235.738C453.842 237.098 457.22 238.389 457.478 238.694C459.284 247.773 457.736 245.709 465.805 252.114C465.734 252.419 466.063 252.653 466.297 252.935Z" fill="#DFE5EE"/>
<path opacity="0.35" d="M390.907 276.161L392.127 284.513C387.905 289.698 387.365 279 385.77 279.727C384.902 280.713 384.035 283.575 383.917 284.678C383.378 284.654 382.275 283.622 382.017 284.467C378.546 270.836 378.827 235.878 379.226 221.591L406.295 218.963C406.319 219.057 415.772 251.574 415.795 251.668C415.795 251.855 418.586 253.31 418.704 253.427C416.452 255.891 417.32 255.281 419.431 257.064L417.648 260.161C417.507 260.348 419.759 272.619 419.736 272.806C419.525 273.088 390.767 275.457 390.907 276.161Z" fill="#DFE5EE"/>
<path d="M381.15 285.452C380.399 285.71 379.625 284.631 378.968 284.631C377.983 284.959 370.078 287.329 368.647 288.549C367.92 287.681 365.387 284.631 364.847 284.044C364.8 283.2 365.598 277.639 365.128 277.897C360.953 277.428 355.886 278.108 343.877 278.601C345.167 273.792 347.207 266.19 347.348 265.252C351.383 261.123 352.509 264.501 348.521 255.023C346.762 251.222 346.879 249.064 345.636 244.09C348.779 241.157 347.536 239.796 349.882 233.79C353.377 230.764 353.048 233.696 353.517 227.174L356.942 223.702L378.264 221.637C377.795 236.535 377.631 271.258 381.15 285.452Z" fill="#F6F8FC"/>
<path opacity="0.35" d="M488.535 222.881C482.928 225.298 482.459 228.347 482.365 232.899C479.597 235.081 479.598 235.128 478.167 238.318C477.58 238.53 471.411 244.09 471.364 244.137C469.018 244.911 469.37 244.442 468.69 247.304C468.315 247.515 467.423 247.421 467.072 247.656C466.837 247.914 466.696 249.251 467.423 248.993C467.517 249.111 467.635 249.322 467.635 249.416C466.954 249.955 466.157 249.979 465.969 250.917L459.917 245.99C459.73 244.935 458.604 238.882 458.393 238.272C458.299 238.037 458.111 237.45 450.886 234.87L442.09 226.987L440.894 223.937C440.847 223.749 433.763 219.479 433.646 219.362L435.639 215.983L441.809 212.394L459.026 211.08L461.348 212.699C461.442 212.91 461.09 215.209 461.583 215.139C461.606 215.139 473.733 212.98 473.78 212.98L488.535 222.881Z" fill="#DFE5EE"/>
<path opacity="0.35" d="M570 47.4854C569.836 48.7992 569.249 49.0104 568.006 48.9635C567.959 48.5646 566.317 51.1219 565.262 52.5765C564.394 53.0692 563.573 52.5296 563.151 53.7965C561.04 58.4887 561.391 50.8404 556.935 58.0195C553.768 57.5033 552.501 60.6002 553.088 63.4155C552.572 64.2367 547.857 66.442 547.81 68.0609C546.496 66.6766 545.019 68.5535 543.869 69.4451C542.602 70.7823 544.62 71.7208 543.728 72.8939C543.306 73.3162 542.602 75.3807 541.617 79.0641L538.802 76.7884C540.679 75.9907 531.367 53.3038 531.202 52.0603C533.665 50.2304 534.862 49.855 533.783 46.8285C536.504 43.9897 536.152 40.4236 534.885 36.5291C536.339 34.0656 537.278 34.2533 535.26 31.9072C534.979 27.9423 537.723 25.2442 538.427 20.8335C538.943 18.8628 539.107 17.854 540.937 18.2763C539.905 19.4963 540.28 21.1855 541.852 21.772C542.438 21.9362 546.051 19.027 546.848 18.9332C547.763 18.9567 547.575 17.7367 548.232 17.549C549.17 17.5255 553.557 20.1063 553.838 20.3643C554.589 22.3116 557.028 34.2064 558.131 35.966C561.438 36.8341 559.749 38.9925 562.893 39.1332C562.142 40.4705 563.596 42.9574 564.886 43.4032C566.317 42.4882 568.686 44.5293 568.639 45.0924C566.294 46.9927 568.053 47.0162 570 47.4854Z" fill="#DFE5EE"/>
<path d="M518.067 114.232L519.685 115.476C518.02 117.095 518.09 117.048 518.067 117.306C517.902 117.353 517.762 117.4 517.574 117.47C517.879 116.602 517.879 116.508 517.879 116.438C518.77 115.992 510.514 113.177 508.004 112.402L500.38 104.684C500.216 104.379 456.141 113.974 455.93 113.904L455.249 110.83C457.431 108.273 463.741 105.2 462.756 101.211C463.037 99.9211 461.254 99.0999 460.457 98.3022C460.457 97.8096 460.856 95.745 461.067 95.5338C465.969 93.1408 469.464 91.7331 473.757 94.1262C473.616 94.3608 477.627 92.2727 478.19 92.0616C481.146 92.0147 481.427 91.8739 483.89 88.4486C486.541 87.8855 487.409 85.5863 485.767 83.2402C485.696 81.9029 487.385 80.8472 484.523 80.8237C484.406 80.7298 484.265 80.1902 484.242 79.9322C484.594 79.4629 487.737 76.2018 488.37 75.5919C488.839 75.2399 488.722 72.4715 489.027 71.8381C489.684 70.9231 494.516 64.3305 495.923 64.0724C498.199 64.8701 497.683 64.0255 508.825 61.609C510.537 66.6532 511.757 70.36 511.851 70.7589C510.091 78.4307 515.674 85.8209 517.832 91.522C517.246 95.6511 518.934 110.15 519.732 111.229C519.873 111.464 517.832 113.669 518.067 114.232Z" fill="#F6F8FC"/>
<path d="M536.175 110.831C533.994 114.139 525.714 116.32 525.127 120.098C524.189 119.675 521.444 121.318 520.248 121.763C518.817 122.021 517.433 121.318 516.049 122.326C516.073 121.411 517.035 119.394 517.222 118.901C517.363 118.807 518.02 118.549 518.419 118.479C519.474 120.379 520.037 118.784 520.788 117.681C522.359 116.414 529.021 114.373 531.062 112.473C530.804 113.13 530.006 114.185 530.78 114.303C530.968 114.303 531.296 114.303 534.463 111.112C534.651 110.784 535.659 110.76 536.175 110.831Z" fill="#F6F8FC"/>
<path opacity="0.35" d="M553.627 97.5046C551.094 96.66 549.898 99.4284 548.185 99.8038C548.256 97.3169 547.739 97.4577 544.057 101.024C539.436 96.3081 538.99 96.3081 538.779 96.3081C537.935 96.6365 527.238 99.405 525.878 99.7569C523.344 98.2084 525.878 98.748 518.77 100.508V92.0851L537.442 87.7213C538.615 85.4221 537.747 85.516 541.007 85.1875C541.101 86.3371 541.735 86.689 542.297 87.299C541.688 88.1436 539.694 91.9443 541.312 92.0851C541.993 92.0851 543.494 91.8035 544.01 92.2258C544.831 93.0704 547.153 96.7773 547.951 96.8477C550.156 97.0119 552.243 97.7157 552.572 94.7362C552.618 93.8447 551 93.2347 550.836 92.4605C553.135 93.3989 553.557 95.0412 553.627 97.5046Z" fill="#DFE5EE"/>
<path opacity="0.35" d="M537.301 106.185C534.674 105.481 530.264 108.742 527.332 109.869C526.065 108.649 521.867 113.81 520.412 114.795L519.263 113.904C522.031 110.525 519.521 108.437 518.911 101.305C521.233 100.601 523.837 99.8507 524.447 99.6865C526.065 101.681 531.883 98.5603 534.58 98.3022C534.838 99.3345 535.683 101.751 537.301 106.185Z" fill="#DFE5EE"/>
<path d="M543.353 101.493C542.931 101.915 542.321 102.783 541.875 103.159C541.735 102.361 542.133 100.531 541.336 100.508C540.116 100.859 539.389 102.502 540.444 103.464C540.21 103.698 539.037 104.848 538.169 105.575C537.114 102.689 535.87 99.1937 535.518 97.9972C537.653 97.4341 538.427 97.1995 538.779 97.0587C539.318 97.5045 541.101 99.1937 543.353 101.493Z" fill="#F6F8FC"/>
<path d="M519.146 130.115C518.935 132.039 518.419 134.456 518.677 136.239C517.574 138.35 514.337 142.339 514.689 144.075C514.525 144.262 514.29 144.614 514.056 144.849C513.68 143.136 515.111 142.902 511.405 141.94C508.66 141.189 504.485 138.256 505.33 135.277C514.619 127.535 513.633 130.937 505.893 125.329C506.08 123.406 507.535 121.106 505.423 119.933C505.893 118.995 507.347 114.655 507.933 113.669C509.27 114.021 515.393 116.273 516.8 116.93C516.519 118.221 514.9 121.106 515.064 122.936C513.164 125.517 517.011 125.353 518.067 123.499C519.545 124.274 518.841 128.895 519.146 130.115Z" fill="#71D98E"/>
<path opacity="0.35" d="M350.609 43.8723C348.967 45.3738 347.043 46.4296 345.026 46.758C344.744 46.6173 343.712 48.1422 342.891 49.198C336.628 50.981 342.563 47.2507 327.832 61.4916C323.493 62.5474 326.495 69.3511 325.955 71.7676C324.665 72.3776 320.021 74.3014 320.748 74.7003C322.32 92.7654 316.925 89.1054 331.233 95.4634C330.506 98.9826 335.948 100.508 337.684 102.478C337.707 102.877 337.848 104.472 338.012 106.044L287.181 107.616C287.275 103.159 287.721 83.4513 287.698 82.9117C287.909 82.0905 284.601 80.4013 283.874 79.5802C283.921 78.8764 285.117 75.7091 285.352 75.4276C285.938 75.5683 285 65.0577 285.375 64.4243C286.22 63.392 284.437 62.782 283.874 62.1251C283.874 61.6324 283.452 50.5353 283.428 49.3153C283.428 48.9634 283.077 48.4003 280.52 46.7346L281.458 33.1975C293.21 32.869 299.402 32.1183 299.449 32.1183C299.872 32.3294 299.567 28.1299 299.66 28.0126C301.983 28.2706 301.889 31.6725 302.288 33.2444C300.739 35.0744 302.475 35.8486 304.305 36.9513C305.501 36.4117 305.783 36.4117 306.885 37.4205C307.307 37.8428 311.248 38.3824 311.553 38.3824C313.735 37.5613 319.083 37.6551 321.03 38.0539C323.141 40.1889 322.789 42.6758 326.425 40.8693C327.105 42.7227 329.685 42.7931 331.046 44.06C331.796 44.6231 336.089 42.3004 337.66 41.8077C337.989 41.8781 338.528 42.7462 338.833 43.0277C338.646 43.8723 345.073 42.535 346.504 44.1304C347.63 45.7257 348.239 44.67 349.225 43.8019C349.412 43.755 350.092 43.8254 350.609 43.8723Z" fill="#DFE5EE"/>
<path d="M410.048 65.1281C410.001 65.4331 409.649 66.3246 409.462 66.5123C407.163 66.0196 403.574 66.7235 401.158 67.005C399.821 66.6062 398.273 65.9727 399.446 68.1546C399.328 68.225 399.141 68.3892 399 68.4127C398.742 68.2719 397.827 67.2162 397.71 66.9581C397.851 66.1839 394.52 67.1458 392.221 65.9023C388.468 68.2719 388.937 69.3746 383.988 69.4684C382.486 71.1576 384.809 71.4626 380.798 73.4568C383.8 70.008 379.883 69.8907 378.077 72.753C378.147 71.8849 378.217 70.2896 377.185 70.8526C376.669 71.1342 376.693 73.4099 376.528 73.926C376.435 73.973 373.596 78.4071 373.033 79.2283C372.353 78.3133 370.242 78.6417 369.702 78.4306C367.333 69.4684 370.336 72.2838 360.507 70.3365C359.053 67.5681 350.538 66.9815 347.864 66.3481C347.09 64.6823 347.512 63.4858 345.214 63.392C349.53 61.0459 356.121 57.8552 359.217 54.7817C362.853 55.7202 359.804 51.0045 368.037 50.418C367.568 51.6614 367.005 51.5441 366.02 52.0368C365.598 52.4826 361.844 56.9402 361.446 57.3625C360.977 57.8317 361.399 59.7555 361.61 60.3186C362.009 61.5855 364.002 59.0048 364.495 58.7232C370.664 59.732 369.304 60.8582 372.4 63.2981C376.083 62.1955 376.106 63.3685 379.742 63.3451C380.328 63.4858 383.143 60.5766 383.519 60.2951C384.902 59.6382 391.752 59.4036 393.37 57.644C393.441 57.5736 394.191 57.5971 394.356 57.6205C393.84 59.3332 394.707 62.3832 397.006 61.9843C397.991 61.3274 400.173 61.3743 401.416 61.3274C404.325 64.1193 405.451 66.2308 410.048 65.1281Z" fill="#71D98E"/>
<path d="M425.858 105.036C425.647 106.209 426.139 109.728 424.99 110.526C424.333 108.414 423.559 109.611 422.644 110.338C422.269 110.572 422.55 112.402 422.55 113.153C421.894 115.452 420.041 115.429 420.697 119.159C419.642 119.37 418.516 122.608 418.399 123.124C410.517 123.781 392.526 126.01 384.527 127.066C389.711 120.379 390.11 120.637 389.805 110.666C390.251 111.182 386.263 102.478 385.958 101.563C387.084 99.8507 385.489 97.4107 385.09 95.6042C386.92 92.2493 387.319 93.5865 386.756 87.4866C388.304 86.0555 388.468 86.384 388.515 84.0613C389.758 82.5833 391.564 83.944 391.728 80.7767C391.963 81.3164 391.635 82.6771 391.494 82.9117C390.86 89.1758 396.068 81.4806 394.426 78.5479C394.707 77.7503 397.851 76.6007 396.865 75.4041C396.115 72.4011 397.639 72.1665 399.141 70.4773C400.032 72.6592 404.325 71.5331 404.981 73.6915C408.125 74.888 411.221 73.8088 413.778 78.0318C410.799 79.7445 413.144 81.2225 414.176 82.5598C415.584 91.0527 412.863 87.2755 412.933 91.827C412.675 92.2258 410.236 93.4458 409.79 93.7977C409.555 95.6746 408.594 98.748 412.957 99.8038C413.121 100.367 415.748 96.308 417.953 92.9531C418.657 92.9062 420.463 93.2816 421.167 93.305C424.075 96.05 424.615 101.634 425.858 105.036Z" fill="#71D98E"/>
<path opacity="0.35" d="M284.554 74.5126L215.028 70.1957L218.711 30.9218C241.065 32.8221 260.159 33.6432 280.426 33.1975C280.52 33.4086 279.23 47.1803 279.581 47.2976C280.825 48.0719 282.256 49.1276 282.42 49.3388C282.467 50.981 282.865 61.4213 282.865 62.1016C282.818 62.8759 284.015 63.4155 284.507 63.8612C283.991 63.8143 284.578 71.9553 284.554 74.5126Z" fill="#DFE5EE"/>
<path d="M509.575 179.736C497.495 182.997 440.777 192.968 429.283 193.367C432.144 190.786 432.825 190.012 432.989 189.707C433.153 189.543 434.537 189.238 435.428 188.909L442.09 181.003C444.905 183.536 445.351 183.536 445.515 183.536C444.788 183.677 455.953 182.199 456.751 182.129C456.915 182.129 457.173 182.129 460.152 179.783C463.201 177.39 463.201 177.202 463.201 176.944C463.483 176.897 461.09 173.988 460.715 173.401C460.879 173.472 464.21 163.29 464.914 161.413C468.549 163.782 467.236 165.213 470.356 158.363C470.449 158.292 472.678 157.823 472.654 157.659C474.601 153.506 476.97 148.579 477.322 148.087C479.363 147.876 483.96 147.571 485.673 147.946C485.462 151.77 489.637 150.761 491.772 152.286C490.74 156.04 486.916 162.14 492.593 159.301C493.46 159.794 494.774 161.155 495.712 161.084C496.51 161.952 496.674 162.187 497.448 161.389C498.058 161.506 501.272 163.196 502.233 163.759C501.365 164.322 501.928 166.433 501.694 166.574C499.911 167.935 503.125 168.944 503.805 169.788C502.937 170.422 500.286 170.281 502.116 171.829C500.615 171.829 500.216 172.041 501.389 173.495C502.022 174.152 503.359 173.636 504.04 174.269C502.984 175.372 502.304 174.832 501.201 174.363C500.615 174.363 500.427 175.724 500.427 175.865C500.732 176.85 502.022 176.193 502.21 176.897C504.133 179.102 507.558 173.002 509.575 179.736Z" fill="#F6F8FC"/>
<path opacity="0.35" d="M317.112 284.326C317.112 284.537 317.746 290.285 317.746 290.66C317.535 291.95 314.884 296.173 315.611 297.487C313.852 297.37 309.653 299.951 308.973 300.373C307.87 298.426 305.923 301.921 306.51 298.05C306.838 296.525 303.32 298.449 302.991 298.543C302.405 300.631 302.874 300.795 304.281 302.531C301.373 305.37 301.537 302.977 300.388 307.622C300.153 307.857 295.603 311.095 294.57 311.634C292.905 312.057 290.982 311.799 289.598 313.136C288.73 313.957 289.433 311.845 288.495 311.939C287.932 311.939 285.094 313.042 284.038 313.652C283.71 314.59 283.827 315.552 285 315.74C280.262 315.529 280.825 319.611 279.699 318.626C278.972 317.852 278.737 318.508 278.643 319.212C277.025 317.687 277.259 319.94 277.588 321.23C277.588 321.511 276.626 322.943 276.251 323.365C274.867 320.104 271.77 326.767 274.398 326.556C274.163 327.518 274.093 329.746 272.756 329.934C271.583 330.309 271.723 331.928 272.591 332.656C273.365 333.312 272.756 333.571 272.333 334.603C270.152 337.606 272.286 338.239 272.779 341.172C274.116 346.427 273.6 346.943 275.735 348.985C276.11 349.149 276.532 349.806 275.875 349.43C274.538 348.492 274.21 349.829 273.553 350.955C268.768 347.6 269.87 348.398 264.053 347.553C253.099 342.462 254.67 345.207 249.463 334.931C248.994 334.157 249.979 331.295 248.501 331.131C248.501 328.996 249.088 327.916 247.399 326.11C247.352 325.383 246.109 325.641 245.686 325.359C244.678 324.116 243.177 322.731 243.27 321.089C242.191 319.564 239.001 317.03 238.626 315.224C237.477 311.587 234.849 308.467 235.342 306.121C235.506 303.329 231.894 302.883 230.604 301.03C229.853 299.693 229.689 299.763 228.962 299.458C228.657 297.933 226.546 296.267 225.138 295.493C223.332 295.141 224.552 296.76 222.347 295.235C220.447 294.508 217.632 295.634 216.717 293.687C216.389 293.382 216.107 293.804 215.802 294.203C215.028 295.47 212.167 294.038 211.252 295.024C210.783 295.235 209.352 300.584 208.836 301.171C207.452 302.226 205.974 304.596 204.379 304.76C202.573 304.314 200.954 302.414 195.419 298.989C189.812 295.329 187.044 294.038 188.593 288.032C186.904 284.466 186.528 287 186.435 282.003C186.083 280.642 181.649 278.061 180.289 276.748C179.444 275.903 175.269 271.656 172.783 269.123C170.789 267.011 170.437 267.387 170.765 265.299C170.32 264.454 167.786 262.342 166.543 262.483C165.746 258.471 179.656 262.624 187.631 262.905C200.861 264.29 205.083 265.463 209 264.806C209.61 264.219 214.231 211.831 214.653 203.619C229.22 204.393 245.123 205.426 246.906 205.824C247.188 208.523 245.123 231.655 246.015 230.858C246.742 231.89 249.721 236.488 251.598 235.808C252.606 234.4 253.99 232.171 255.186 234.236C261.801 244.606 274.468 240.312 285.985 243.034C289.081 243.785 292.459 242.565 295.321 241.509C300.857 237.732 308.785 245.263 313.688 246.6C313.195 251.058 313.782 259.879 314.204 264.829C314.204 265.299 319.388 279.117 319.458 279.539C319.364 279.821 317.112 284.021 317.112 284.326Z" fill="#DFE5EE"/>
<path d="M214.184 196.299C212.8 214.341 209.094 260.466 208.226 264.032C203.488 264.149 169.898 259.433 167.2 259.738C165.065 259.832 166.144 260.161 165.511 262.366C160.867 261.873 149.678 260.864 149.373 260.864C148.599 260.911 148.552 265.932 147.707 266.049C144.588 266.167 138.794 265.392 136.847 265.041L147.965 188.721C149.021 188.98 213.128 196.135 214.184 196.299Z" fill="#F6F8FC"/>
<path d="M374.91 303.071C373.573 303.564 372.001 302.297 371.907 304.573C371.368 302.179 367.92 301.405 365.879 300.49C365.504 300.209 365.199 298.66 364.612 298.754C360.672 298.59 363.346 301.523 361.07 303.517C360.085 301.757 358.115 301.241 356.59 301.968C354.925 305.558 354.151 304.197 351.312 303.306C350.022 303.493 349.225 301.006 348.568 300.396C345.73 299.223 345.12 300.256 344.017 296.643C343.759 296.385 340.546 294.86 340.1 294.86C339.091 295.634 336.065 297.534 338.505 298.66C329.826 298.895 326.237 294.367 316.596 297.323C315.986 295.751 319.106 291.223 318.731 290.66C317.933 283.34 317.746 285.499 320.42 279.516C320.42 279.188 315.189 265.205 315.165 264.806C315.165 264.126 314.579 256.407 314.321 252.817L346.386 252.465C347.02 254.201 349.764 260.325 350.022 261.779C343.947 265.956 346.363 268.161 342.704 279C342.657 279.188 342.469 279.657 342.844 279.657C351.218 279.211 361.493 278.695 364.307 278.718C363.698 284.56 363.135 283.88 367.122 288.314C365.128 288.478 362.267 287.235 360.554 286.672C358.983 286.953 357.083 288.994 358.091 290.684C360.672 294.555 366.372 286.766 364.753 292.091C365.457 297.088 370.57 287.751 372.001 290.777C371.485 291.364 371.767 292.068 372.189 292.42C370.312 293.006 369.163 295.258 367.427 296.455C366.325 298.449 369.046 300.091 370.781 301.288C371.298 301.781 374.933 302.18 374.91 303.071Z" fill="#F6F8FC"/>
<path opacity="0.35" d="M147.004 188.557L135.885 264.876C132.038 264.243 115.243 261.568 114.023 261.287C113.625 261.076 112.757 259.809 112.335 259.41C114.375 260.348 80.9963 241.603 76.3049 238.858C76.2111 238.365 76.258 237.075 76.2111 236.442C78.2753 236.535 80.621 236.723 79.8704 233.79C80.0815 232.57 78.5568 231.632 78.1346 230.67C78.3222 226.142 77.8296 227.62 80.0346 225.767C82.7555 224.711 82.4741 220.629 83.5062 218.283C84.116 217.696 87.7753 216.664 87.4938 215.866C87.7753 215.96 83.9988 206.294 84.0222 205.801C84.2802 204.628 85.8987 201.391 85.6173 200.546C85.5234 191.983 85.7815 190.645 85.8518 190.458C86.3913 189.988 89.7457 188.604 90.5432 188.604C91.1765 189.167 91.3173 190.903 91.9741 191.443C92.4667 191.467 94.3197 180.088 94.5543 179.9L147.004 188.557Z" fill="#DFE5EE"/>
<path opacity="0.35" d="M82.779 217.579C82.2864 219.057 81.3247 222.247 80.9963 223.726C80.1753 224.359 78.5099 225.673 77.6889 226.306C77.2667 229.004 76.5395 231.069 78.7914 233.251C78.8617 233.673 78.8148 234.94 78.7914 235.386C77.1025 236.043 52.2148 232.547 49.7519 232.359L49.2123 231.726L49.2358 231.679L51.0889 231.116L51.042 230.928C50.6667 230.928 49.2358 230.177 48.8605 229.99V223.585L41.4012 213.262L38.2815 212.98L39.2901 211.831L38.1173 208.241L32.6519 206.669L30.0716 202.071C28.2889 201.32 21.9086 197.871 19.9148 198.528L16.7951 195.971L18.0148 193.93L18.3667 190.458L18.742 190.223C19.0469 189.003 17.8506 187.807 16.9827 187.173L16.5605 186.023C16.7481 186 17.5926 186.047 17.7333 185.906L17.9444 184.1C17.5457 183.63 16.6074 182.715 16.0679 182.434L12.5494 175.982C12.4556 173.425 10.837 171.524 9.42963 169.648L10.4617 165.401L12.2914 164.51L12.3148 161.225L10.7198 159.841H10.6025C7.69383 157.612 7.41235 155.219 8.06914 151.794L7.64691 150.832L8.04568 150.668C8.70247 150.714 10.884 152.31 11.4469 152.685L11.7284 152.568L12.1272 149.635L10.9778 147.688L10.8136 144.005L10.579 143.887L8.11605 145.318L8.06914 146.89C7.52963 145.835 5.7 144.052 4.78518 143.277L5.62963 142.527L5.65309 137.647C3.14321 134.972 1.54815 133.283 0.492593 129.599L2.11111 127.699C1.21975 126.385 1.5716 123.57 1.71235 122.139L3.49506 119.722C2.95556 117.775 1.5716 113.106 0.304938 111.534L0 106.631L5.13704 100.461L5.39506 99.2407L5.34815 99.0765L7.6 95.5573C7.62346 95.2523 7.74074 87.1582 7.83457 87.2052L49.3296 98.3961C49.3062 98.5134 39.4074 139.054 39.3605 139.172C44.0519 147.899 82.6148 205.355 82.6148 205.355L86.4383 215.749C86.4148 215.749 83.6469 217.109 82.779 217.579Z" fill="#DFE5EE"/>
<path d="M99.879 12.2467L90.2383 50.4415C76.2815 48.1657 74.8506 44.2243 66.8988 47.368C64.6 50.2303 39.1728 45.0923 37.2963 44.6935C31.7605 33.4321 44.3333 38.617 27.2333 32.0714C26.9049 31.1564 26.7642 30.2883 27.2802 29.4437C28.0309 32.2825 30.0247 27.4495 30.1654 26.4172C30.0481 24.4465 27.9605 25.9715 28.3593 23.4611C28.9222 23.8834 29.6259 23.9538 30.1654 23.3908C32.2062 23.6488 31.2679 22.4054 30.6111 21.4904C30.1889 20.5754 29.5321 20.3643 29.063 21.3262C28.9926 21.3262 28.9457 21.3262 28.8518 21.3262C31.7839 15.0386 26.6938 8.65716 29.2272 2.5338C33.6839 4.76261 39.9 10.6748 44.9901 11.0033C46.8197 16.7747 43.7469 15.2497 44.0753 20.1766C41.8 23.555 47.1012 22.2881 46.8197 19.8012C51.8395 12.6456 50.7605 15.6955 48.4383 7.0618C52.1913 6.47528 49.8457 2.74495 50.1506 0C66.8518 4.50454 83.6 8.6337 99.879 12.2467Z" fill="#F6F8FC"/>
<path d="M93.9679 58.2774L88.2444 67.5211C82.7321 70.7822 84.3506 69.5857 82.9666 75.5918L83.0604 75.8264L83.2246 75.9202L85.758 78.0317C85.7111 78.0786 83.1308 81.457 83.0839 81.4805C82.9666 81.5274 77.8061 104.684 77.7358 104.777L7.7876 86.3839C7.48266 84.4366 8.09254 81.3632 8.56167 79.4863C8.39748 78.5009 7.9518 76.1314 7.76414 75.1929C8.39748 74.7706 9.71106 73.8791 10.3444 73.4333C10.3678 73.2691 10.9074 69.1634 10.8604 69.1399C10.9543 69.1399 11.1419 69.1634 11.2123 69.1634L11.6111 69.0226C12.1975 68.2953 14.3086 65.6208 14.9419 64.8465L18.6012 55.7671C21.7913 49.0807 25.0283 40.1889 27.2098 33.1271L35.6074 36.4586L34.5987 39.532L36.616 45.4207C43.1604 46.7111 56.3432 48.8226 62.958 49.5733L67.2037 48.3064C67.2271 48.283 71.9888 46.8518 72.0123 46.8284C72.1061 46.8049 89.8864 51.4033 89.9567 51.4033C89.9333 51.6145 89.6753 52.3418 89.7456 52.5294L91.4814 55.5559L91.6691 55.6732C91.8098 55.6029 94.0148 56.7994 94.1555 56.7994L93.9679 58.2774Z" fill="#F6F8FC"/>
</g>
<defs>
<clipPath id="clip0_1301:27598">
<rect width="570" height="372" fill="white"/>
</clipPath>
</defs>
</svg>
