<svg width="66" height="30" viewBox="0 0 66 30" fill="none" xmlns="http://www.w3.org/2000/svg">
<path d="M65.0482 15.1281C65.0012 15.4331 64.6494 16.3246 64.4617 16.5123C62.163 16.0196 58.5741 16.7235 56.158 17.005C54.821 16.6062 53.2729 15.9727 54.4457 18.1546C54.3284 18.225 54.1408 18.3892 54 18.4127C53.742 18.2719 52.8272 17.2162 52.7099 16.9581C52.8506 16.1839 49.5198 17.1458 47.221 15.9023C43.4679 18.2719 43.937 19.3746 38.9877 19.4684C37.4864 21.1576 39.8087 21.4626 35.7975 23.4568C38.8 20.008 34.8827 19.8907 33.0766 22.753C33.1469 21.8849 33.2173 20.2896 32.1852 20.8526C31.6691 21.1342 31.6926 23.4099 31.5284 23.926C31.4346 23.973 28.5963 28.4071 28.0333 29.2283C27.3531 28.3133 25.242 28.6417 24.7025 28.4306C22.3333 19.4684 25.3358 22.2838 15.5074 20.3365C14.0531 17.5681 5.53827 16.9815 2.86419 16.3481C2.09012 14.6823 2.51233 13.4858 0.213562 13.392C4.52961 11.0459 11.121 7.85516 14.2173 4.78174C17.8531 5.72019 14.8037 1.0045 23.037 0.417969C22.5679 1.66141 22.0049 1.54411 21.0198 2.03679C20.5975 2.48255 16.8444 6.94017 16.4457 7.36247C15.9765 7.83169 16.3988 9.75551 16.6099 10.3186C17.0086 11.5855 19.0025 9.00475 19.4951 8.72322C25.6642 9.73205 24.3037 10.8582 27.4 13.2981C31.0827 12.1955 31.1062 13.3685 34.742 13.3451C35.3284 13.4858 38.1432 10.5766 38.5185 10.2951C39.9025 9.6382 46.7519 9.40359 48.3704 7.644C48.4408 7.57362 49.1914 7.59708 49.3556 7.62055C48.8395 9.33321 49.7074 12.3832 52.0062 11.9843C52.9914 11.3274 55.1729 11.3743 56.4161 11.3274C59.3247 14.1193 60.4506 16.2308 65.0482 15.1281Z" fill="#71D98E"/>
</svg>
