<svg width="88" height="72" viewBox="0 0 88 72" fill="none" xmlns="http://www.w3.org/2000/svg">
<path d="M86.9679 25.2774L81.2444 34.5211C75.7321 37.7822 77.3506 36.5857 75.9666 42.5918L76.0604 42.8264L76.2246 42.9202L78.758 45.0317C78.7111 45.0786 76.1308 48.457 76.0839 48.4805C75.9666 48.5274 70.8061 71.6836 70.7358 71.7774L0.787599 53.3839C0.482661 51.4366 1.09254 48.3632 1.56167 46.4863C1.39748 45.5009 0.951796 43.1314 0.764142 42.1929C1.39748 41.7706 2.71106 40.8791 3.34439 40.4333C3.36785 40.2691 3.90735 36.1634 3.86044 36.1399C3.95427 36.1399 4.14192 36.1634 4.21229 36.1634L4.61106 36.0226C5.19748 35.2953 7.30859 32.6208 7.94192 31.8465L11.6012 22.7671C14.7913 16.0807 18.0283 7.18888 20.2098 0.127075L28.6074 3.45856L27.5987 6.53197L29.616 12.4207C36.1604 13.7111 49.3432 15.8226 55.958 16.5733L60.2037 15.3064C60.2271 15.283 64.9888 13.8518 65.0123 13.8284C65.1061 13.8049 82.8864 18.4033 82.9567 18.4033C82.9333 18.6145 82.6753 19.3418 82.7456 19.5294L84.4814 22.5559L84.6691 22.6732C84.8098 22.6029 87.0148 23.7994 87.1555 23.7994L86.9679 25.2774Z" fill="#F6F8FC"/>
</svg>
