<svg width="36" height="17" viewBox="0 0 36 17" fill="none" xmlns="http://www.w3.org/2000/svg">
<path opacity="0.35" d="M35.6271 12.5046C33.0938 11.66 31.8975 14.4284 30.1852 14.8038C30.2555 12.3169 29.7395 12.4577 26.0568 16.0238C21.4358 11.3081 20.9901 11.3081 20.779 11.3081C19.9345 11.6365 9.23824 14.405 7.87775 14.7569C5.34441 13.2084 7.87779 13.748 0.770386 15.5076V7.08508L19.442 2.7213C20.6148 0.422109 19.7469 0.515956 23.0074 0.1875C23.1012 1.3371 23.7345 1.68901 24.2975 2.299C23.6876 3.1436 21.6938 6.94431 23.3123 7.08508C23.9926 7.08508 25.4938 6.80354 26.0099 7.22584C26.8308 8.07044 29.1531 11.7773 29.9506 11.8477C32.1555 12.0119 34.2432 12.7157 34.5716 9.73618C34.6185 8.84466 33 8.23467 32.8358 7.46046C35.1346 8.3989 35.5568 10.0412 35.6271 12.5046Z" fill="#DFE5EE"/>
</svg>
