<svg width="42" height="58" viewBox="0 0 42 58" fill="none" xmlns="http://www.w3.org/2000/svg">
<path d="M41.8579 35.0356C41.6468 36.2087 42.1394 39.7278 40.99 40.5255C40.3332 38.414 39.5591 39.6105 38.6443 40.3378C38.269 40.5724 38.5505 42.4024 38.5505 43.1532C37.8937 45.4523 36.0406 45.4289 36.6974 49.1592C35.6418 49.3704 34.5159 52.608 34.3986 53.1241C26.5172 53.7811 8.5259 56.0099 0.527161 57.0656C5.71109 50.3792 6.10986 50.6373 5.80492 40.6663C6.2506 41.1824 2.26295 32.4783 1.95801 31.5633C3.08394 29.8507 1.48886 27.4107 1.0901 25.6042C2.91972 22.2493 3.31851 23.5865 2.75555 17.4866C4.30369 16.0555 4.46789 16.384 4.5148 14.0613C5.75801 12.5833 7.56416 13.944 7.72836 10.7767C7.96293 11.3164 7.63453 12.6771 7.49379 12.9117C6.86046 19.1758 12.0679 11.4806 10.4259 8.54793C10.7074 7.75025 13.8506 6.60066 12.8654 5.40414C12.1148 2.40111 13.6394 2.1665 15.1407 0.477295C16.032 2.65918 20.3246 1.53305 20.9814 3.69148C24.1246 4.888 27.2209 3.80878 29.7777 8.03179C26.7987 9.74446 29.1443 11.2225 30.1764 12.5598C31.5838 21.0527 28.8629 17.2755 28.9332 21.827C28.6752 22.2258 26.2357 23.4458 25.79 23.7977C25.5555 25.6746 24.5937 28.748 28.9567 29.8038C29.1209 30.3668 31.748 26.308 33.953 22.9531C34.6567 22.9062 36.4628 23.2816 37.1665 23.305C40.0752 26.05 40.6147 31.6337 41.8579 35.0356Z" fill="#71D98E"/>
</svg>
