<svg width="15" height="32" viewBox="0 0 15 32" fill="none" xmlns="http://www.w3.org/2000/svg">
<path d="M14.1458 17.1154C13.9347 19.0392 13.4186 21.4558 13.6767 23.2388C12.5742 25.3503 9.33711 29.3387 9.68896 31.0748C9.52476 31.2625 9.2902 31.6144 9.05563 31.849C8.68032 30.1364 10.1112 29.9018 6.40497 28.9399C3.66049 28.1891 -0.514851 25.2564 0.329604 22.2769C9.61861 14.5347 8.63339 17.9366 0.892552 12.3294C1.08021 10.4056 2.53455 8.10637 0.42341 6.93331C0.892552 5.99487 2.34688 1.65456 2.93331 0.669189C4.27036 1.02111 10.3927 3.27337 11.8001 3.93029C11.5186 5.22065 9.9001 8.10637 10.0643 9.93634C8.16428 12.5171 12.0113 12.3528 13.0668 10.4994C14.5446 11.2736 13.8409 15.8955 14.1458 17.1154Z" fill="#71D98E"/>
</svg>
