<svg width="21" height="13" viewBox="0 0 21 13" fill="none" xmlns="http://www.w3.org/2000/svg">
<path d="M20.1753 0.830518C17.9938 4.13853 9.71355 6.32041 9.12713 10.0976C8.18886 9.67534 5.44441 11.3176 4.24812 11.7634C2.81725 12.0215 1.43333 11.3176 0.0493774 12.3265C0.0728342 11.4115 1.03456 9.39381 1.22222 8.90113C1.36296 8.80728 2.01977 8.54921 2.41853 8.47883C3.47409 10.3792 4.03702 8.78383 4.78763 7.68116C6.35924 6.41426 13.021 4.37314 15.0617 2.47279C14.8037 3.1297 14.0062 4.18546 14.7802 4.30276C14.9679 4.30276 15.2963 4.30276 18.4629 1.11205C18.6506 0.783598 19.6592 0.760134 20.1753 0.830518Z" fill="#F6F8FC"/>
</svg>
