<svg width="65" height="57" viewBox="0 0 65 57" fill="none" xmlns="http://www.w3.org/2000/svg">
<path d="M63.0666 53.2324L64.6851 54.4758C63.0197 56.0946 63.0901 56.0477 63.0666 56.3058C62.9024 56.3527 62.7617 56.3996 62.574 56.47C62.8789 55.6019 62.879 55.5081 62.879 55.4377C63.7703 54.9919 55.5135 52.1766 53.0036 51.4024L45.3802 43.6837C45.216 43.3787 1.14072 52.9743 0.929613 52.9039L0.24939 49.8305C2.43087 47.2732 8.74074 44.1998 7.75556 40.2114C8.03704 38.9211 6.25431 38.0999 5.45678 37.3022C5.45678 36.8096 5.85554 34.745 6.06665 34.5338C10.9691 32.1408 14.4642 30.7331 18.7568 33.1262C18.616 33.3608 22.6271 31.2727 23.1901 31.0616C26.1456 31.0147 26.4271 30.8739 28.8901 27.4486C31.5407 26.8855 32.4086 24.5863 30.7666 22.2402C30.6962 20.9029 32.3852 19.8472 29.5234 19.8237C29.4062 19.7298 29.2654 19.1902 29.2419 18.9322C29.5938 18.4629 32.737 15.2018 33.3703 14.5919C33.8395 14.2399 33.7222 11.4715 34.0271 10.8381C34.6839 9.92309 39.516 3.3305 40.9234 3.07243C43.1987 3.87011 42.6827 3.02551 53.8246 0.609009C55.537 5.65316 56.7568 9.36002 56.8506 9.75886C55.0913 17.4307 60.674 24.8209 62.8321 30.522C62.2456 34.6511 63.9345 49.1501 64.732 50.2293C64.8728 50.464 62.8321 52.6693 63.0666 53.2324Z" fill="#F6F8FC"/>
</svg>
