<svg width="71" height="80" viewBox="0 0 71 80" fill="none" xmlns="http://www.w3.org/2000/svg">
<path opacity="0.35" d="M70.6085 15.8723C68.9665 17.3738 67.0431 18.4296 65.0258 18.758C64.7444 18.6173 63.7123 20.1422 62.8913 21.198C56.6283 22.981 62.5629 19.2507 47.832 33.4916C43.4925 34.5474 46.495 41.3511 45.9555 43.7676C44.6654 44.3776 40.0209 46.3014 40.7481 46.7003C42.3197 64.7654 36.9246 61.1054 51.2333 67.4634C50.5061 70.9826 55.9481 72.5075 57.6839 74.4783C57.7073 74.8771 57.8481 76.4725 58.0123 78.0444L7.1815 79.6163C7.27532 75.1587 7.72099 55.4513 7.69753 54.9117C7.90865 54.0905 4.60123 52.4013 3.87407 51.5802C3.92099 50.8764 5.11729 47.7091 5.35186 47.4276C5.93828 47.5683 5 37.0577 5.37531 36.4243C6.21975 35.392 4.43704 34.782 3.87407 34.1251C3.87407 33.6324 3.45187 22.5353 3.42842 21.3153C3.42842 20.9634 3.07656 20.4003 0.519775 18.7346L1.45805 5.19749C13.2099 4.86903 19.4024 4.11827 19.4494 4.11827C19.8716 4.32942 19.5666 0.129879 19.6605 0.0125732C21.9827 0.270646 21.8889 3.67251 22.2876 5.24441C20.7395 7.07438 22.4753 7.8486 24.3049 8.95127C25.5012 8.41167 25.7827 8.41167 26.8852 9.4205C27.3074 9.8428 31.2481 10.3824 31.553 10.3824C33.7345 9.56126 39.0827 9.65511 41.0296 10.0539C43.1407 12.1889 42.7888 14.6758 46.4246 12.8693C47.1049 14.7227 49.6851 14.7931 51.0456 16.06C51.7962 16.6231 56.0888 14.3004 57.6604 13.8077C57.9888 13.8781 58.5283 14.7462 58.8332 15.0277C58.6456 15.8723 65.0727 14.535 66.5036 16.1304C67.6295 17.7257 68.2394 16.67 69.2246 15.8019C69.4122 15.755 70.0925 15.8254 70.6085 15.8723Z" fill="#DFE5EE"/>
</svg>
