<svg width="39" height="63" viewBox="0 0 39 63" fill="none" xmlns="http://www.w3.org/2000/svg">
<path opacity="0.35" d="M39 30.4854C38.8358 31.7992 38.2494 32.0104 37.0062 31.9635C36.9593 31.5646 35.3173 34.1219 34.2617 35.5765C33.3938 36.0692 32.5728 35.5296 32.1506 36.7965C30.0395 41.4887 30.3914 33.8404 25.9346 41.0195C22.7679 40.5033 21.5012 43.6002 22.0876 46.4155C21.5716 47.2367 16.8567 49.442 16.8098 51.0609C15.4963 49.6766 14.0185 51.5535 12.8691 52.4451C11.6025 53.7823 13.6197 54.7208 12.7284 55.8939C12.3061 56.3162 11.6024 58.3807 10.6173 62.0641L7.80244 59.7884C9.67898 58.9907 0.366651 36.3038 0.202454 35.0603C2.66542 33.2304 3.86172 32.855 2.7827 29.8285C5.50369 26.9897 5.15183 23.4236 3.88516 19.5291C5.33948 17.0656 6.27772 17.2533 4.26044 14.9072C3.97895 10.9423 6.7234 8.24425 7.42711 3.83355C7.94316 1.86281 8.1074 0.853982 9.93703 1.27628C8.90493 2.49626 9.28022 4.18547 10.8518 4.77199C11.4382 4.93622 15.0506 2.02704 15.8481 1.93319C16.763 1.95665 16.5753 0.736676 17.2321 0.548987C18.1703 0.525526 22.5568 3.10625 22.8383 3.36433C23.5889 5.3116 26.0284 17.2064 27.1308 18.966C30.4382 19.8341 28.7494 21.9925 31.8926 22.1332C31.142 23.4705 32.5963 25.9574 33.8864 26.4032C35.3173 25.4882 37.6864 27.5293 37.6395 28.0924C35.2938 29.9927 37.0531 30.0162 39 30.4854Z" fill="#DFE5EE"/>
</svg>
