<svg width="95" height="42" viewBox="0 0 95 42" fill="none" xmlns="http://www.w3.org/2000/svg">
<path d="M94.821 12.531C93.1086 13.4694 93.0148 14.1263 92.358 15.8155C86.1654 16.5428 89.7074 15.5575 87.174 14.2906C86.2358 14.2436 85.9778 18.232 86.2123 18.0678C86.4704 18.3259 87.221 18.6074 87.9012 18.6074C87.6197 19.0062 86.9864 19.6397 87.3617 20.3435C85.1568 23.4873 87.1037 22.197 83.3037 22.0327C81.2629 23.8627 86.4234 24.7542 87.0568 23.3231C88.3469 23.0416 90.3173 23.2292 90.3173 21.6574C91.3494 22.3612 89.7543 24.5431 89.2851 24.9654C88.816 25.3642 86.4 24.59 86.1889 26.2792C83.3975 26.373 83.1395 25.8334 82.0135 29.1415C80.3481 29.0007 80.4654 29.2119 80.6296 30.5961C79.5271 31.5345 75.258 36.4848 75.7741 38.9717C74.6247 42.1155 73.6395 40.2386 70.5667 41.6228C70.4728 41.5524 55.1555 31.253 55.0851 31.1826C54.8975 31.0184 43.5678 33.2237 43.3567 33.2002C43.2394 33.0595 43.4975 31.3703 43.2629 31.3233C43.1221 31.2764 40.4246 29.2353 40.2604 29.2822C40.1431 29.3057 22.6444 30.5726 22.5271 30.6664L16.0999 34.3968L0.782593 35.8748L1.83815 34.1856C4.34803 33.3176 5.19247 29.8922 5.94309 27.7103C6.06038 27.6634 23.137 19.5693 23.2308 19.5224C23.4184 19.4989 26.2567 12.1791 26.3505 12.0617L88.9333 0.706543C89.4963 2.27844 91.4666 2.7242 92.7568 3.70957C92.3111 3.85033 91.7012 4.46033 91.3025 4.31957C90.3173 3.16997 89.5667 3.94419 90.0827 5.14071C89.7074 5.3284 87.7136 5.91492 87.479 5.93838C86.1889 6.92375 88.1827 7.08798 84.6642 7.9795C83.3975 8.65987 83.2098 11.1937 85.3679 10.701C86.0716 10.8418 88.3938 8.77718 88.558 8.63641C88.4173 8.61295 89.4259 8.47219 90.3877 8.49565C90.5049 8.73026 90.5988 9.59832 90.5988 9.9737C91.3728 11.2171 93.5074 9.99716 93.4371 8.63641C95.2432 8.21411 93.8123 11.7098 94.821 12.531Z" fill="#F6F8FC"/>
</svg>
