<svg width="39" height="68" viewBox="0 0 39 68" fill="none" xmlns="http://www.w3.org/2000/svg">
<path d="M38.1495 64.4518C37.3989 64.7099 36.6248 63.6307 35.968 63.6307C34.9828 63.9591 27.0779 66.3287 25.647 67.5487C24.9199 66.6807 22.3865 63.6307 21.847 63.0442C21.8001 62.1996 22.5976 56.6393 22.1285 56.8973C17.9532 56.4281 12.8865 57.1085 0.876587 57.6012C2.16671 52.7916 4.20747 45.1902 4.34821 44.2518C8.38279 40.1226 9.50872 43.501 5.52106 34.0227C3.76179 30.222 3.87906 28.0636 2.63585 23.0898C5.77907 20.1572 4.53585 18.7964 6.88154 12.7903C10.3766 9.76384 10.0482 12.6965 10.5173 6.17428L13.942 2.70203L35.2643 0.637451C34.7952 15.5353 34.631 50.2578 38.1495 64.4518Z" fill="#F6F8FC"/>
</svg>
