<svg width="89" height="70" viewBox="0 0 89 70" fill="none" xmlns="http://www.w3.org/2000/svg">
<path opacity="0.35" d="M88.2974 36.9347C86.1159 37.1458 86.0925 39.6327 85.4826 41.4392C85.1073 43.0346 82.5974 48.9937 83.4653 51.856C83.5826 52.8179 83.4888 54.3898 84.169 55.1405L80.9085 55.1875C80.6974 55.1875 78.4925 53.7329 78.3518 54.1552C78.3283 54.2255 77.2493 55.8913 77.3431 55.9617L77.9765 59.7858C78.3987 57.2755 45.9345 60.4662 44.9493 60.1378L42.7679 57.1113L40.6333 44.4892C42.3222 40.8996 43.9407 41.5331 40.5629 39.2339C43.3074 36.2778 41.6185 37.2866 38.663 35.1516L29.3037 2.91597L56.3493 0.28833C56.3493 0.499481 54.0271 3.73711 54.5197 3.85442L62.0962 8.59357C62.0728 11.6201 70.4703 17.8607 72.3234 19.7376C75.8419 21.0984 79.2197 22.3887 79.4777 22.6937C81.2839 31.7732 79.7357 29.7086 87.8048 36.1135C87.7345 36.4185 88.0629 36.6531 88.2974 36.9347Z" fill="#DFE5EE"/>
<path opacity="0.35" d="M12.9074 60.1613L14.1272 68.5134C9.90496 73.6984 9.36546 63.0001 7.77039 63.7274C6.90249 64.7127 6.03458 67.575 5.9173 68.6777C5.37779 68.6542 4.27533 67.6219 4.01731 68.4665C0.545701 54.8356 0.827177 19.8784 1.22594 5.59055L28.2951 2.96289C28.3185 3.05674 37.7716 35.5739 37.7951 35.6678C37.7951 35.8555 40.5865 37.3101 40.7037 37.4274C38.4519 39.8908 39.3198 39.2808 41.4309 41.0638L39.6482 44.1607C39.5074 44.3484 41.7593 56.6186 41.7358 56.8063C41.5247 57.0879 12.7667 59.4574 12.9074 60.1613Z" fill="#DFE5EE"/>
</svg>
