<svg width="74" height="51" viewBox="0 0 74 51" fill="none" xmlns="http://www.w3.org/2000/svg">
<path d="M73.879 12.2467L64.2383 50.4415C50.2815 48.1657 48.8506 44.2243 40.8988 47.368C38.6 50.2303 13.1728 45.0923 11.2963 44.6935C5.76049 33.4321 18.3333 38.617 1.23332 32.0714C0.90493 31.1564 0.76419 30.2883 1.28024 29.4437C2.03086 32.2825 4.02468 27.4495 4.16543 26.4172C4.04814 24.4465 1.96049 25.9715 2.35925 23.4611C2.92221 23.8834 3.62592 23.9538 4.16543 23.3908C6.20617 23.6488 5.26789 22.4054 4.6111 21.4904C4.18888 20.5754 3.53209 20.3643 3.06296 21.3262C2.99258 21.3262 2.94567 21.3262 2.85184 21.3262C5.78394 15.0386 0.693819 8.65716 3.22715 2.5338C7.68394 4.76261 13.9 10.6748 18.9901 11.0033C20.8197 16.7747 17.7469 15.2497 18.0753 20.1766C15.8 23.555 21.1012 22.2881 20.8197 19.8012C25.8395 12.6456 24.7605 15.6955 22.4383 7.0618C26.1913 6.47528 23.8457 2.74495 24.1506 0C40.8518 4.50454 57.6 8.6337 73.879 12.2467Z" fill="#F6F8FC"/>
</svg>
