<svg width="58" height="62" viewBox="0 0 58 62" fill="none" xmlns="http://www.w3.org/2000/svg">
<path opacity="0.35" d="M54.731 25.8356C54.5668 25.7417 54.6137 27.3605 54.6372 27.9471C53.2297 31.3959 52.2211 30.3401 53.089 35.6189C49.7816 37.05 52.6902 41.0384 52.4322 43.4314C48.2569 52.3232 53.0656 52.3232 52.7372 59.3381L24.7062 61.0508C25.0346 58.212 21.2346 58.5404 19.3111 57.9304C18.8889 56.1004 17.6692 44.581 17.6692 43.666C17.6692 43.0326 16.6605 42.2584 13.3531 40.0999C11.9222 39.0677 11.2654 39.185 11.3123 37.5896C11.0074 35.0558 11.0308 36.2054 7.30121 34.2581C5.51849 33.4604 1.85924 31.8651 1.24936 31.3724C1.20244 29.5424 0.780209 18.2107 0.709839 16.0757C1.46046 15.4892 5.14318 14.1988 5.63578 13.7062C7.04319 11.7823 3.54812 5.00207 6.78517 3.80556C10.8432 4.95515 9.90494 4.3217 12.8605 2.56211C13.7988 2.72634 17.6457 0.0986943 18.8889 1.22483C17.7161 1.4829 16.4259 3.43017 17.3877 4.29823C19.3111 3.5944 20.4605 4.13401 22.4309 4.76746C22.6185 5.26014 24.7062 5.44784 25.105 5.56514C25.1753 5.63553 26.0432 8.38048 26.2074 8.21625L36.8334 10.1635C39.6482 13.5654 40.6569 12.017 46.31 13.5185C48.5853 22.0818 46.3569 19.8999 50.9544 20.6272C50.9779 20.6507 51.5409 21.0964 51.5643 21.1199C51.4705 25.6713 49.1248 21.4718 47.1779 29.4486C45.9112 34.7273 49.2655 31.2316 50.9544 28.6274C51.7519 27.7594 53.7458 26.6567 53.8162 25.4602C53.8396 25.3429 54.2149 24.991 54.4729 24.7564C56.3729 23.1845 53.9804 22.8325 57.147 19.9234C58.1322 21.6126 55.6927 24.6156 54.731 25.8356Z" fill="#DFE5EE"/>
</svg>
