<svg width="98" height="75" viewBox="0 0 98 75" fill="none" xmlns="http://www.w3.org/2000/svg">
<path opacity="0.35" d="M97.0272 63.2509C94.0482 64.6586 94.5407 67.5678 95.8543 70.1485C93.8605 71.955 89.9432 74.3246 87.3395 74.1369C88.137 74.3715 88.2543 72.002 88.2778 71.9551C88.4654 71.5562 86.8469 71.4154 86.1667 71.2512C77.3938 59.5676 79.1062 71.1104 75.3765 59.5441C72.9839 57.2214 71.8815 57.7845 71.858 53.3034C68.058 51.1215 71.8346 56.1657 67.0963 52.3415C66.2518 51.1919 65.7827 47.8135 63.6481 46.9689C63.2259 46.7812 63.2259 46.4059 63.1321 45.9366C64.3753 46.1243 64.4457 45.0686 64.563 43.872C64.6568 43.5436 66.158 41.0802 66.0407 41.0098C65.642 39.8602 64.3519 39.1329 63.742 40.7282C62.7099 37.0214 59.1914 41.2444 62.3111 42.8632C58.0889 44.6463 60.9975 33.3614 61.4667 30.8511C60.2469 28.1061 58.863 23.4374 55.1333 24.0943C55.2506 24.0474 50.7 20.7159 48.284 17.0559C48.1432 15.6483 48.0025 16.3756 45.7975 14.8975C43.0766 12.9268 38.0334 11.3314 37.5642 15.4371C35.6408 15.1321 26.2815 23.9066 27.2667 18.4636C27.7358 18.5105 25.8827 17.2671 24.2642 16.2583C27.0321 16.141 22.2704 13.8183 21.6136 13.4429C19.9247 15.9298 18.7284 12.0822 13.9198 12.3402C16.1247 8.39876 7.77409 13.3021 6.67162 12.0822C8.1494 10.7214 4.02101 11.4487 3.57534 11.6833C3.20003 12.5983 2.84818 14.4518 1.22966 14.3579L0.0098877 6.07612L28.0877 3.09656C28.2753 3.19041 30.3161 6.47496 30.5975 6.40458L61.7482 4.80921C61.8654 4.80921 65.1025 7.06148 65.1728 6.77995C65.5247 6.63918 64.3284 1.54812 64.3988 1.33697L64.8679 0.562744C66.5099 1.78272 68.7617 1.4308 70.5914 1.4308C70.4975 6.42802 71.8346 3.37809 71.7642 6.73304C73.5 10.0411 73.8753 10.0411 74.0864 14.3579C75.0951 16.0471 80.0913 21.1851 79.8568 22.6866C82.5543 24.2351 84.3605 25.9008 85.9321 29.2088C86.5185 30.4757 85.6975 30.0534 85.4864 30.9215C85.6506 33.1503 85.8383 36.341 88.3716 38.0067C89.9432 41.2444 90.905 44.9982 94.1654 47.8604C94.2593 48.142 96.2531 54.7815 96.2531 55.5322C95.737 57.9018 95.9012 60.9752 97.0272 63.2509Z" fill="#DFE5EE"/>
</svg>
