<svg width="56" height="40" viewBox="0 0 56 40" fill="none" xmlns="http://www.w3.org/2000/svg">
<path opacity="0.35" d="M55.5345 11.881C49.9284 14.2975 49.4592 17.3475 49.3654 21.899C46.5975 24.0808 46.5975 24.1278 45.1667 27.3185C44.5802 27.5296 38.4111 33.0899 38.3642 33.1368C36.0185 33.9111 36.3703 33.4418 35.6901 36.3041C35.3148 36.5152 34.4234 36.4214 34.0716 36.656C33.837 36.9141 33.6963 38.2514 34.4234 37.9933C34.5173 38.1106 34.6345 38.3218 34.6345 38.4156C33.9543 38.9552 33.1568 38.9787 32.9691 39.9171L26.9172 34.9903C26.7296 33.9345 25.6037 27.8815 25.3926 27.2715C25.2987 27.0369 25.1111 26.4504 17.8864 23.8697L9.09008 15.9867L7.89379 12.9368C7.84687 12.7491 0.762914 8.47917 0.64563 8.36186L2.63946 4.98345L8.80861 1.3939L26.0259 0.0800781L28.3481 1.69889C28.442 1.91004 28.0901 4.20924 28.5827 4.13885C28.6062 4.13885 40.7333 1.98043 40.7802 1.98043L55.5345 11.881Z" fill="#DFE5EE"/>
</svg>
