<svg width="48" height="51" viewBox="0 0 48 51" fill="none" xmlns="http://www.w3.org/2000/svg">
<path opacity="0.35" d="M47.4111 29.1394C33.5481 35.427 45.1123 31.1805 36.363 41.4331C31.5543 36.7878 35.3074 45.5388 31.3432 50.2779L29.6074 50.6768C28.5519 47.1811 20.6704 49.0814 12.742 48.0257C7.98024 42.1838 9.38763 42.4419 6.59627 44.3423H4.62592L0.708618 8.18861L13.2111 6.92171C12.9531 9.15052 14.4778 7.78977 15.4864 7.60208C16.5185 7.83669 24.6815 10.957 24.658 10.699C25.3148 10.7693 26.6284 9.08014 27.4025 8.09477C28.9037 7.62555 29.6543 8.28245 31.0852 8.65783C34.6975 6.4994 34.6741 2.79255 42.321 0.305664C42.6494 2.55793 46.8716 26.1129 47.4111 29.1394Z" fill="#DFE5EE"/>
</svg>
