<svg width="66" height="106" viewBox="0 0 66 106" fill="none" xmlns="http://www.w3.org/2000/svg">
<path opacity="0.35" d="M65.4383 68.0494L59.7852 105.353C45.6173 103.147 25.7494 98.9243 0.69754 92.801L5.9284 69.7856C8.64939 66.9937 10.0568 65.1872 6.02224 63.0287L6.93705 58.5008L10.8309 56.0843C10.8778 56.0608 10.9482 55.9904 10.9716 55.9435C10.737 55.1223 22.1605 43.1102 14.1383 42.5002L12.7543 40.0837L22.7938 0.246704C24.9519 0.715927 27.1333 1.20861 29.3383 1.67783C27.8136 11.5315 25.5383 14.6519 29.1037 20.9864C26.7111 25.0921 31.5432 26.4997 32.8568 29.2682C32.8568 30.2535 34.2642 35.6965 34.8741 36.3065C35.2963 36.7757 38.4864 37.4796 39.4716 37.9488C38.6506 39.6614 33.6543 48.3655 34.1938 48.1544C36.2346 54.3012 36.1642 53.8085 40.9259 49.9374C41.3951 50.6178 42.3333 53.6678 42.7086 54.2543C41.6766 57.0931 42.6617 58.3365 42.4741 60.9642C41.8407 64.8587 43.6938 64.0141 45.8284 64.4364C46.1099 71.5217 45.4062 71.639 50.9889 67.3691C51.9272 67.5098 59.6679 72.0613 59.879 71.7094C60.5358 72.0613 62.7173 68.636 63.5617 67.6271C63.9136 67.6741 64.7111 67.8618 65.4383 68.0494Z" fill="#DFE5EE"/>
</svg>
