<svg width="63" height="41" viewBox="0 0 63 41" fill="none" xmlns="http://www.w3.org/2000/svg">
<path d="M62.7012 24.3882C61.8099 25.5377 57.5642 27.9308 56.2975 29.925C52.9432 29.9954 53.9284 30.6054 53.342 32.6465L5.39631 40.8344C3.94199 32.8107 1.10372 16.8806 0.329651 11.9772C0.892614 11.6722 2.7926 8.88033 3.54322 8.12957C3.9889 10.3115 5.70125 8.48149 6.45187 6.81575C6.59261 6.95651 6.99136 10.1942 7.34321 10.0534C7.39012 10.0534 51.9111 0.692383 51.958 0.692383L59.0654 7.89496C58.8778 7.91842 57.0012 13.1268 56.5321 14.2295C55.8988 14.9333 57.0716 15.731 57.6346 16.2941C55.9926 22.6051 57.1654 20.1182 62.7012 24.3882Z" fill="#71D98E"/>
</svg>
