<svg width="44" height="76" viewBox="0 0 44 76" fill="none" xmlns="http://www.w3.org/2000/svg">
<path d="M43.2666 51.7738C38.5987 58.7183 38.5752 57.0995 38.8098 64.7478L36.253 68.7127C31.374 69.0412 34.6345 69.8389 35.0802 74.015C34.8221 74.1792 33.9308 74.3434 33.0394 74.3669C25.7913 69.3227 29.3333 75.845 25.0641 75.188C24.4777 73.7804 23.9851 72.49 23.8678 72.185C24.4543 71.4577 25.7444 70.3081 25.6271 69.7216C25.6271 68.7831 22.6246 65.0763 22.3666 64.8182C21.9913 64.4428 16.6901 61.6979 13.4531 60.0556C13.6642 57.9675 13.6407 56.6772 13.3827 56.161C13.4296 55.8326 14.6494 53.8853 15.7987 52.4307C15.8691 52.3369 15.8456 52.1726 15.7518 52.1022C15.5876 52.0553 11.858 49.1696 11.6703 49.1931C10.8963 49.6623 9.65307 50.6477 9.46541 50.6007C9.20739 50.5069 8.2691 49.6623 7.21354 48.5361C7.70613 41.9905 7.44812 45.4627 0.833318 38.049C0.645664 34.3891 0.645658 31.2922 0.739485 30.8934C1.30245 30.1191 5.57157 22.7523 5.57157 22.025C5.57157 21.8373 5.57158 21.2977 2.82714 18.7874C2.96788 17.6378 3.15555 16.5586 3.24937 16.277C5.97036 15.8547 12.0222 14.8225 11.1308 13.8371C11.7642 12.2417 13.2889 8.53486 12.4444 8.46447C10.0987 6.16528 7.84688 6.11837 7.77651 1.80151L35.737 0.112305C35.4086 2.01266 36.7456 3.63148 37.8481 4.64031C38.2234 6.23567 37.4493 9.26215 39.4666 9.52023C39.6542 17.2155 43.29 42.9055 41.2728 46.0962C42.8913 48.9819 43.5481 47.3162 43.2666 51.7738Z" fill="#F6F8FC"/>
</svg>
