<svg width="54" height="49" viewBox="0 0 54 49" fill="none" xmlns="http://www.w3.org/2000/svg">
<path d="M53.8741 7.3997C51.1766 12.7958 49.6753 13.57 50.1914 20.0687C46.1803 24.0806 46.5556 22.9075 46.1568 27.9752C45.9457 28.2098 44.0691 29.3828 42.9667 30.2978C42.2395 32.5736 40.5037 37.9931 40.5037 38.65C40.6679 38.8377 39.0728 40.0811 38.5099 40.9257C39.0494 43.2484 39.8704 47.0726 40.1519 48.5037L8.34445 48.8556C9.84569 41.348 7.52346 43.1076 1.8 39.7057C2.52716 30.5793 3.18397 10.1681 0.580261 1.39364L49.3938 0.337891L49.7222 3.90399L45.0074 6.9774C44.1395 8.00969 53.7803 7.11817 53.8741 7.3997Z" fill="#F6F8FC"/>
</svg>
