<svg width="87" height="149" viewBox="0 0 87 149" fill="none" xmlns="http://www.w3.org/2000/svg">
<path opacity="0.35" d="M82.779 130.579C82.2864 132.057 81.3247 135.247 80.9963 136.726C80.1753 137.359 78.5099 138.673 77.6889 139.306C77.2667 142.004 76.5395 144.069 78.7914 146.251C78.8617 146.673 78.8148 147.94 78.7914 148.386C77.1025 149.043 52.2148 145.547 49.7519 145.359L49.2123 144.726L49.2358 144.679L51.0889 144.116L51.042 143.928C50.6667 143.928 49.2358 143.177 48.8605 142.99V136.585L41.4012 126.262L38.2815 125.98L39.2901 124.831L38.1173 121.241L32.6519 119.669L30.0716 115.071C28.2889 114.32 21.9086 110.871 19.9148 111.528L16.7951 108.971L18.0148 106.93L18.3667 103.458L18.742 103.223C19.0469 102.003 17.8506 100.807 16.9827 100.173L16.5605 99.0235C16.7481 99 17.5926 99.0469 17.7333 98.9062L17.9444 97.0997C17.5457 96.6304 16.6074 95.7154 16.0679 95.4339L12.5494 88.9821C12.4556 86.4248 10.837 84.5245 9.42963 82.6476L10.4617 78.4011L12.2914 77.5096L12.3148 74.2251L10.7198 72.8408H10.6025C7.69383 70.612 7.41235 68.219 8.06914 64.7937L7.64691 63.8318L8.04568 63.6675C8.70247 63.7145 10.884 65.3098 11.4469 65.6852L11.7284 65.5679L12.1272 62.6352L10.9778 60.688L10.8136 57.0046L10.579 56.8873L8.11605 58.3184L8.06914 59.8903C7.52963 58.8345 5.7 57.0515 4.78518 56.2773L5.62963 55.5265L5.65309 50.6466C3.14321 47.972 1.54815 46.2828 0.492593 42.5994L2.11111 40.6991C1.21975 39.3853 1.5716 36.5699 1.71235 35.1388L3.49506 32.7223C2.95556 30.775 1.5716 26.1063 0.304938 24.5344L0 19.631L5.13704 13.4607L5.39506 12.2407L5.34815 12.0765L7.6 8.55732C7.62346 8.25232 7.74074 0.158237 7.83457 0.205159L49.3296 11.3961C49.3062 11.5134 39.4074 52.0543 39.3605 52.1716C44.0519 60.8991 82.6148 118.355 82.6148 118.355L86.4383 128.749C86.4148 128.749 83.6469 130.109 82.779 130.579Z" fill="#DFE5EE"/>
</svg>
