<svg width="112" height="71" viewBox="0 0 112 71" fill="none" xmlns="http://www.w3.org/2000/svg">
<path d="M111.726 17.8279L106.753 70.8032C106.425 70.7563 38.6111 62.5214 38.3296 62.4979C37.8605 62.2868 37.7197 65.8998 37.579 66.0406C34.6 64.4687 33.8259 67.9175 31.9024 69.7005C30.6592 69.3017 23.3172 65.0083 23.0123 65.3602C22.2617 65.2194 20.1037 67.3779 19.0246 68.1521C18.6728 64.2575 20.0802 61.8645 15.4827 62.146C15.3419 60.8087 15.858 56.9611 15.1543 56.6092C14.8728 55.835 16.1629 53.2308 15.553 52.6677C13.4888 46.9667 13.6296 46.7321 8.8913 50.8378C8.37525 50.0401 7.22587 47.694 7.22587 47.1544C7.20241 46.6851 12.9493 36.7141 12.574 36.7845C12.574 36.1511 11.8234 35.893 9.50118 35.1892C8.93821 35.0249 7.76537 34.673 7.60117 34.5557C7.31969 34.2038 5.86537 29.3943 5.86537 28.2212C6.1234 27.3297 2.81599 24.4205 1.57278 23.1067C1.10364 22.4263 2.08883 20.7371 2.13574 19.9394C-1.26549 13.253 0.68142 10.6723 2.37031 0.842041C40.6987 9.07691 77.479 14.8014 111.726 17.8279Z" fill="#F6F8FC"/>
</svg>
