<svg width="64" height="42" viewBox="0 0 64 42" fill="none" xmlns="http://www.w3.org/2000/svg">
<path d="M62.7086 24.1713C62.3568 25.0394 62.1926 25.4617 62.1692 25.7198C61.9815 25.9309 60.9025 26.2828 56.9852 26.9163C55.1086 27.2213 54.8037 27.2682 54.5926 27.4793C52.9975 31.8666 53.9827 30.8108 56.563 33.9781C56.3284 34.7288 53.3259 40.078 52.2704 41.7906C52.1296 41.7203 49.7136 39.3272 49.5259 39.3741L8.7815 40.8053C8.17162 39.3272 6.85806 36.2538 6.48275 35.808C6.36547 35.6204 6.22471 34.4708 6.5531 29.0981C6.60002 28.5116 6.62349 28.0893 6.62349 27.9486C6.69386 26.9163 4.1136 26.4001 3.2457 25.7432C4.37163 20.7929 3.24572 20.4644 0.73584 15.8895C0.759297 14.9745 1.11115 3.78357 1.18152 1.60168L52.1296 0.0297852C53.8889 12.0654 51.2383 9.69578 58.5334 11.7134C58.721 11.8307 58.6741 13.1915 58.8148 13.7546C58.979 18.3764 60.9025 18.6345 63.7407 21.0979C63.7642 21.3091 63.6 22.0129 62.7086 24.1713Z" fill="#F6F8FC"/>
</svg>
