<svg width="147" height="63" viewBox="0 0 147 63" fill="none" xmlns="http://www.w3.org/2000/svg">
<path opacity="0.35" d="M146.363 33.2988L139.795 41.0644C137.473 41.6275 137.121 42.0029 137.051 42.3079C136.746 42.7067 134.822 44.5132 132.594 46.5309C132.523 46.5309 85.9618 50.9181 85.8914 50.9181C85.7507 50.9181 83.7803 52.49 83.663 52.5369C83.4753 52.7012 67.126 55.2115 67.126 55.6103L65.3198 62.4141H58.7753C63.3025 59.6926 61.4963 60.5372 61.3791 55.5399C61.4025 54.9065 11.7679 56.5957 11.5334 56.3846C11.463 56.1734 11.6741 21.0755 11.463 20.9113C8.83583 18.401 6.72473 15.9375 6.72473 15.5856C8.1556 9.5561 7.99138 13.0987 2.7136 8.57073C2.61977 7.81997 1.16546 4.13657 0.203735 1.81392L40.2445 0.40625L42.8247 2.75236C42.4259 11.9257 42.1914 9.62648 49.3457 16.8291C49.6037 16.8994 49.3222 19.2221 49.2519 20.9113C52.9346 24.5009 51.9025 24.0316 54.7173 22.3659L57.5556 24.4305C55.1864 27.6446 55.2568 28.325 55.5618 28.6535C55.8432 28.7708 55.3272 31.3046 55.5618 32.6888C62.8099 36.5364 65.1556 36.7476 67.6655 41.6979C65.5309 44.1848 65.484 43.8094 67.2667 47.7978C69.8235 49.4166 70.7383 47.2816 72.0753 45.3578C72.521 45.3578 74.4445 46.6482 75.9223 47.352C79.0186 46.7889 80.2148 47.9151 77.8692 41.909C77.9864 41.8621 79.9099 41.6744 79.9334 41.5336L82.7951 37.0995C82.8655 37.0995 82.8186 35.1522 82.842 35.1053C90.8642 35.6449 89.4803 35.903 96.3766 31.3515C97.9247 32.0084 100.857 31.8911 102.475 31.8911C102.757 31.8911 103.062 31.8911 108.949 24.1959C109.231 23.3043 109.231 21.8732 109.372 21.4274C109.77 21.3805 110.732 21.8497 111.342 21.7559C114.649 20.3717 114.837 20.184 114.907 20.1136C115.072 19.9259 115.259 19.7617 114.767 15.3745C116.995 15.4448 116.831 15.4918 118.402 14.2718C118.872 14.5533 120.701 17.2044 122.32 19.0579C123.891 19.1517 136.652 19.8086 137.895 19.8555C138.904 20.3482 139.138 24.3835 139.232 25.4393C139.256 25.627 146.293 33.1346 146.363 33.2988Z" fill="#DFE5EE"/>
</svg>
