<svg width="49" height="38" viewBox="0 0 49 38" fill="none" xmlns="http://www.w3.org/2000/svg">
<path d="M48.7408 1.79658C46.9346 1.89042 42.5247 1.86696 42.642 2.33618C42.2198 2.75848 39.4988 8.483 37.9037 11.9083C37.8099 11.9787 35.5111 12.4714 35.5815 12.6356C34.8074 14.5594 33.916 16.5536 33.5407 17.1636C32.8839 16.7648 31.0778 15.0756 30.7259 15.1929C30.3037 13.6445 26.5037 27.0408 25.8938 27.8619C24.8383 28.1434 27.3247 30.6773 28.1222 31.8738C27.1605 32.7653 23.2901 35.8152 22.6803 36.1202C22.0469 36.1672 12.3358 37.4575 11.6086 37.5279C9.84937 36.8475 2.88271 28.7534 1.28764 27.0408L0.935791 23.6389C1.1469 23.5216 3.18764 23.287 3.16419 22.9585C6.8469 16.1079 4.90001 18.8059 5.67408 13.2925C8.20741 15.2164 7.17532 15.3806 10.342 11.1107C12.0309 8.99915 12.1951 8.34224 12.0543 5.38613C12.8753 4.94037 16.6753 3.1104 19.1617 1.91388L29.4123 0.154297C32.5086 9.9376 30.3975 6.39496 39.0766 0.646975C41.563 2.21887 45.363 0.435834 48.0136 0.553139C48.1778 0.811212 48.5296 1.37428 48.7408 1.79658Z" fill="#71D98E"/>
</svg>
