<svg width="33" height="57" viewBox="0 0 33 57" fill="none" xmlns="http://www.w3.org/2000/svg">
<path d="M32.1098 41.4099C31.6876 41.621 30.4679 42.1606 29.1308 42.7237C26.3395 42.3249 26.5975 41.3395 26.0815 45.6563C23.6889 48.7767 20.9444 52.2489 20.3111 52.8355C18.716 52.9293 15.7839 52.8355 14.3296 52.2959C7.8321 55.7212 9.96666 56.9646 0.84198 56.0731V52.6947C1.07655 52.0612 5.81482 45.6563 5.29877 45.844C5.36914 43.2633 5.62715 41.9729 3.35184 40.0022C5.2753 40.0491 2.03827 12.1773 1.56913 3.84859C3.30494 4.38819 5.20492 4.83395 6.56541 2.9336L27.7938 0.259033C28.0049 3.02745 32.1802 39.838 32.1098 41.4099Z" fill="#F6F8FC"/>
</svg>
