<svg width="72" height="86" viewBox="0 0 72 86" fill="none" xmlns="http://www.w3.org/2000/svg">
<path opacity="0.35" d="M71.0037 9.55732L59.8852 85.8765C56.0383 85.243 39.2432 82.5684 38.0235 82.2869C37.6247 82.0758 36.7568 80.8089 36.3346 80.41C38.3753 81.3485 4.99628 62.603 0.304916 59.858C0.211089 59.3654 0.258004 58.075 0.21109 57.4415C2.27529 57.5354 4.62097 57.7231 3.87035 54.7904C4.08146 53.5705 2.55677 52.632 2.13455 51.6701C2.3222 47.1421 1.82961 48.6202 4.03455 46.7667C6.75554 45.711 6.47406 41.6287 7.50616 39.2826C8.11603 38.6961 11.7753 37.6638 11.4938 36.8661C11.7753 36.96 7.99875 27.294 8.02221 26.8013C8.28023 25.6282 9.89875 22.3906 9.61727 21.546C9.52344 12.9826 9.78147 11.6454 9.85184 11.4577C10.3913 10.9884 13.7457 9.60425 14.5432 9.60425C15.1765 10.1673 15.3173 11.9034 15.9741 12.443C16.4667 12.4665 18.3197 1.08784 18.5543 0.900146L71.0037 9.55732Z" fill="#DFE5EE"/>
</svg>
