<svg width="89" height="45" viewBox="0 0 89 45" fill="none" xmlns="http://www.w3.org/2000/svg">
<path opacity="0.35" d="M21.079 30.4708C21.7123 29.2273 0.788851 28.242 0.601196 27.7962L3.13453 0.839355L58.1407 4.45237C59.2197 6.37618 59.7358 6.61079 60.0642 6.61079C61.1197 6.61079 69.6815 6.93925 70.4321 7.22078C71.0185 7.73693 75.6864 10.8338 77.7975 12.218C77.9382 12.8515 80.495 16.7929 80.7531 17.6141C80.3543 21.7198 78.9938 22.2359 83.5913 24.019C83.2629 28.7581 83.2395 32.4415 83.7321 32.4884C84.2012 33.028 88.3296 43.1633 88.658 44.524L20.4222 42.8817L21.079 30.4708Z" fill="#DFE5EE"/>
</svg>
