<svg width="50" height="24" viewBox="0 0 50 24" fill="none" xmlns="http://www.w3.org/2000/svg">
<path d="M35.4655 20.6913C35.7 20.9259 36.3333 21.8175 36.6148 22.3336C34.5975 21.2309 32.2988 19.6825 30.821 21.6063C28.6395 19.9171 28.6864 20.1986 26.5284 20.9259C28.358 14.4976 31.4309 13.4418 23.0568 11.6822C22.1185 9.52381 23.9482 8.96075 19.7728 8.72614C18.2716 5.16005 17.1692 6.8727 12.4543 7.24808C11.1877 7.76422 9.92103 6.80232 8.98276 6.63809C8.77165 6.63809 8.56052 6.63809 2.01608 11.9638L0.397583 7.01346L37.4358 0.678955C37.5765 1.17164 37.8112 1.96933 38.1161 2.97816C36.5914 2.08664 36.8494 1.89894 35.4186 3.75237C35.0433 4.47967 34.6445 4.15121 34.0581 4.69082C34.0346 4.71428 31.7593 7.01348 31.7593 7.43578C33.2605 10.345 31.337 16.3041 35.0901 18.5094C34.1519 18.2279 34.1284 18.9552 34.2926 19.7763C34.2692 20.1986 35.184 20.3863 35.4655 20.6913Z" fill="#F6F8FC"/>
<path d="M49.563 15.0138C49.3519 15.9288 48.2026 20.4099 47.7803 21.8175C46.9593 22.2164 45.8569 22.756 44.9186 23.1783C44.5667 22.5683 43.4877 23.0141 42.9013 22.9906C42.9013 20.8556 42.9013 16.8907 39.8284 19.401C38.8667 19.143 37.6939 17.8291 36.9433 17.1018C37.3889 15.788 38.1161 13.6765 36.2161 13.2307C36.4037 13.0431 36.8025 12.8554 36.9902 12.6677C37.2247 11.7996 36.8963 8.46812 35.5124 8.93735C35.0667 6.8493 37.6469 5.53548 38.2568 3.51782C39.6408 7.34199 40.9544 13.3715 42.4322 16.1165C42.4556 16.1399 49.563 15.0138 49.563 15.0138Z" fill="#F6F8FC"/>
</svg>
