<svg width="61" height="53" viewBox="0 0 61 53" fill="none" xmlns="http://www.w3.org/2000/svg">
<path d="M60.9099 51.071C59.5728 51.5637 58.0012 50.2968 57.9074 52.5725C57.3679 50.1795 53.9197 49.4053 51.879 48.4903C51.5037 48.2088 51.1988 46.6603 50.6123 46.7542C46.6716 46.59 49.3457 49.5226 47.0704 51.5168C46.0852 49.7572 44.1148 49.241 42.5901 49.9683C40.9246 53.5579 40.1506 52.1972 37.3123 51.3056C36.0222 51.4933 35.2246 49.0064 34.5678 48.3965C31.7296 47.2234 31.1197 48.2557 30.0172 44.6427C29.7592 44.3846 26.5456 42.8596 26.0999 42.8596C25.0913 43.6339 22.0653 45.5342 24.5049 46.6603C15.8258 46.8949 12.2369 42.367 2.59616 45.3231C1.98629 43.7512 5.10607 39.2232 4.73076 38.6601C3.93323 31.3402 3.74556 33.4986 6.41964 27.516C6.41964 27.1876 1.18876 13.2047 1.1653 12.8059C1.1653 12.1255 0.578887 4.4068 0.320862 0.817249L32.3863 0.465332C33.0197 2.20146 35.7641 8.32483 36.0222 9.77942C29.9468 13.9555 32.3629 16.1608 28.7036 26.9999C28.6567 27.1876 28.4691 27.6568 28.8444 27.6568C37.2185 27.211 47.4926 26.6949 50.3074 26.7184C49.6975 32.5602 49.1345 31.8798 53.1222 36.314C51.1284 36.4782 48.2666 35.2348 46.5543 34.6717C44.9827 34.9532 43.0827 36.9943 44.0913 38.6835C46.6716 42.5546 52.3716 34.7655 50.7531 40.0912C51.4568 45.0884 56.5704 35.7509 58.0012 38.7774C57.4852 39.3639 57.7666 40.0678 58.1889 40.4197C56.3123 41.0062 55.163 43.2585 53.4272 44.455C52.3247 46.4492 55.0457 48.0914 56.7815 49.288C57.2975 49.7807 60.9333 50.1795 60.9099 51.071Z" fill="#F6F8FC"/>
</svg>
