<svg width="199" height="92" viewBox="0 0 199 92" fill="none" xmlns="http://www.w3.org/2000/svg">
<path opacity="0.35" d="M111.053 87.9413L110.068 91.1789C109.857 91.1789 104.18 92.0704 103.969 92L98.5271 87.8943C97.9642 84.9617 94.0234 81.8179 92.0765 79.9175L88.8395 73.5361L81.0753 68.1635L77.158 66.7793L74.2025 64.7617L67.7753 64.7851L61.9111 60.2102L56.1407 59.6471L55.9062 59.7644L56.1876 61.8759L55.3197 64.1751C54.7802 64.2924 46.3123 67.0608 46.0543 66.662L47.9074 64.7147L47.5321 64.3863L46.1951 64.6678L48.3296 60.3744L50.6988 59.5298L51.8012 57.4887L51.0272 57.1602L48.7284 57.6999L37.9617 67.6708L39.8148 68.3277L28.9778 76.9849C22.7852 79.2372 7.11604 84.8209 0.501221 84.0233L1.43949 83.2256L6.38888 83.0379L11.6197 80.2695L14.0123 81.4191C16.3346 78.8383 23.2543 75.5069 26.421 74.1696L27.4765 69.5946L30.5025 66.2866L30.1271 66.0051C30.1271 66.0051 23.5592 67.2954 23.5358 67.272L21.4247 63.6121L21.1432 63.5182L17.3667 64.4097L17.3432 61.8759L18.4926 60.8671L17.2025 56.8318L12.3704 55.6587L9.86048 51.5061L11.4555 50.0046L9.71974 45.2185C13.2148 43.1305 14.7864 42.0278 17.0852 38.5556L20.6506 41.2301L23.1839 38.5321L26.7259 39.0717C27.3827 37.1948 27.9691 33.3941 27.8988 31.4234L27.5938 31.1418L22.9025 32.9718C19.8531 31.8926 17.9062 31.3764 15.6543 28.7722L16.7099 25.8865L15.0679 22.7896L23.8876 21.2881L23.3247 24.4085L27.6173 25.3235L28.3444 25.1358L29.5407 19.8805L26.7259 18.0271L25.0605 11.8568L23.137 9.58104L24.779 7.37569C24.779 7.37569 28.2271 8.7599 28.2506 8.7599L31.3 7.49299L32.4963 4.13804L40.1432 0.595408L44.6938 1.72155L45.9605 0.173096C48.5407 1.32269 53.2086 3.22307 54.921 5.70995C58.5568 4.86535 64.5148 8.52529 67.5876 9.81565L70.5197 8.47835L75.3753 13.499V62.7909L77.2518 63.6824L80.9815 63.6355L80.4654 64.9494C80.7234 65.0667 86.2358 70.1577 86.5642 70.1108C88.0185 69.0316 91.3963 66.3101 93.3197 66.357L103.828 81.161C105.259 81.3252 108.168 83.0848 109.364 83.8825L111.053 87.9413Z" fill="#DFE5EE"/>
<g opacity="0.35">
<path d="M198.664 83.7888L198.336 85.4311L189.891 88.3637L188.46 90.8271L185.951 90.2406C186.326 87.003 185.083 83.5073 184.004 80.5981L186.115 78.3458L185.27 74.5686L185.927 74.3574C188.202 75.2255 192.8 77.4778 194.559 79.1904L195.357 81.4192L198.664 83.7888Z" fill="#DFE5EE"/>
<path d="M173.988 67.5067L171.618 68.7736L171.572 66.9671L170.281 65.231L171.595 65.3248L173.823 67.1079L173.988 67.5067Z" fill="#DFE5EE"/>
<path d="M140.562 50.0751L138.075 51.3654L135.214 49.5824L137.043 48.1747C137.02 48.0809 136.926 47.8697 136.856 47.7993L138.169 47.8932L140.398 49.6762L140.562 50.0751Z" fill="#DFE5EE"/>
<path d="M183.323 67.2253L180.884 68.5626L178.702 68.5157L177.67 66.1695L175.442 65.888L175.137 64.973L175.489 63.6826C175.583 63.6592 175.723 63.6592 175.817 63.6826L177.436 65.0434L179.711 64.6915L182.948 66.5449L183.323 67.2253Z" fill="#DFE5EE"/>
<path d="M173.964 63.0022L173.378 64.1987C171.97 64.4333 170.516 63.7999 169.32 63.1664L167.607 63.6122L167.42 63.4714L168.194 61.5945L173.964 63.0022Z" fill="#DFE5EE"/>
<path d="M161.767 59.6942L160.617 59.8819L159.726 59.1781C159.257 58.9435 157.263 59.1312 156.723 59.1312C156.63 58.9669 154.988 56.4097 155.128 56.2689L156.254 56.2924L157.779 54.9551L161.767 59.6942Z" fill="#DFE5EE"/>
</g>
</svg>
