<svg width="154" height="148" viewBox="0 0 154 148" fill="none" xmlns="http://www.w3.org/2000/svg">
<path opacity="0.35" d="M151.112 81.3255C151.112 81.5367 151.746 87.2847 151.746 87.6601C151.535 88.9504 148.884 93.1734 149.611 94.4872C147.852 94.3699 143.653 96.9507 142.973 97.373C141.87 95.4257 139.923 98.9214 140.51 95.0503C140.838 93.5253 137.32 95.4492 136.991 95.543C136.405 97.631 136.874 97.7953 138.281 99.5314C135.373 102.37 135.537 99.9771 134.388 104.622C134.153 104.857 129.603 108.095 128.57 108.634C126.905 109.057 124.982 108.799 123.598 110.136C122.73 110.957 123.433 108.845 122.495 108.939C121.932 108.939 119.094 110.042 118.038 110.652C117.71 111.59 117.827 112.552 119 112.74C114.262 112.529 114.825 116.611 113.699 115.626C112.972 114.852 112.737 115.508 112.643 116.212C111.025 114.687 111.259 116.94 111.588 118.23C111.588 118.511 110.626 119.943 110.251 120.365C108.867 117.104 105.77 123.767 108.398 123.556C108.163 124.518 108.093 126.746 106.756 126.934C105.583 127.309 105.723 128.928 106.591 129.656C107.365 130.312 106.756 130.571 106.333 131.603C104.152 134.606 106.286 135.239 106.779 138.172C108.116 143.427 107.6 143.943 109.735 145.985C110.11 146.149 110.532 146.806 109.875 146.43C108.538 145.492 108.21 146.829 107.553 147.955C102.768 144.6 103.87 145.398 98.0531 144.553C87.0988 139.462 88.6704 142.207 83.463 131.931C82.9939 131.157 83.979 128.295 82.5013 128.131C82.5013 125.996 83.0877 124.916 81.3988 123.11C81.3519 122.383 80.1087 122.641 79.6864 122.359C78.6778 121.116 77.1766 119.731 77.2704 118.089C76.1914 116.564 73.0013 114.03 72.6259 112.224C71.4766 108.587 68.8494 105.467 69.342 103.121C69.5062 100.329 65.8938 99.8833 64.6037 98.0299C63.8531 96.6926 63.6889 96.763 62.9617 96.458C62.6568 94.933 60.5457 93.2673 59.1383 92.493C57.3321 92.1411 58.5519 93.76 56.3469 92.235C54.4469 91.5077 51.6321 92.6338 50.7173 90.6866C50.3889 90.3816 50.1074 90.8038 49.8025 91.2027C49.0284 92.4696 46.1667 91.0385 45.2519 92.0238C44.7827 92.235 43.3519 97.5841 42.8358 98.1706C41.4519 99.2264 39.9741 101.596 38.379 101.76C36.5729 101.314 34.9543 99.4141 29.4185 95.9888C23.8124 92.3288 21.0445 91.0384 22.5926 85.0324C20.9037 81.4663 20.5284 84.0001 20.4346 79.0029C20.0827 77.6421 15.6494 75.0614 14.2889 73.7476C13.4445 72.903 9.26916 68.6565 6.78274 66.1227C4.78891 64.0112 4.43706 64.3866 4.76546 62.2985C4.31978 61.4539 1.78644 59.3424 0.543235 59.4832C-0.254296 55.4713 13.6556 59.624 21.6309 59.9055C34.8605 61.2897 39.0827 62.4627 43 61.8058C43.6099 61.2193 48.2309 8.83055 48.6531 0.619141C63.2198 1.39336 79.1235 2.42564 80.9062 2.82448C81.1877 5.52251 79.1235 28.6552 80.0148 27.8575C80.742 28.8898 83.721 33.4882 85.5975 32.8078C86.6062 31.4002 87.9902 29.1714 89.1865 31.236C95.8013 41.6058 108.468 37.3124 119.985 40.0339C123.081 40.7847 126.459 39.5647 129.321 38.5089C134.857 34.7317 142.785 42.2627 147.688 43.6C147.195 48.0576 147.782 56.879 148.204 61.8293C148.204 62.2985 153.388 76.1172 153.458 76.5395C153.364 76.821 151.112 81.0205 151.112 81.3255Z" fill="#DFE5EE"/>
</svg>
