<svg width="81" height="47" viewBox="0 0 81 47" fill="none" xmlns="http://www.w3.org/2000/svg">
<path d="M80.5753 32.7358C68.495 35.9969 11.7765 45.9679 0.282715 46.3667C3.14444 43.786 3.8247 43.0117 3.9889 42.7068C4.1531 42.5425 5.53705 42.2375 6.42841 41.9091L13.0901 34.0027C15.9049 36.5365 16.3506 36.5365 16.5148 36.5365C15.7877 36.6772 26.9531 35.1992 27.7506 35.1288C27.9148 35.1288 28.1728 35.1288 31.1518 32.7827C34.2012 30.3897 34.2012 30.202 34.2012 29.9439C34.4827 29.897 32.0901 26.9878 31.7148 26.4013C31.879 26.4716 35.2099 16.2895 35.9136 14.4126C39.5494 16.7822 38.2358 18.2133 41.3555 11.3627C41.4494 11.2923 43.6778 10.8231 43.6543 10.6588C45.6012 6.50622 47.9704 1.57938 48.3222 1.0867C50.363 0.875549 54.9605 0.570545 56.6728 0.945924C56.4617 4.77009 60.637 3.76126 62.7716 5.28623C61.7395 9.04002 57.9161 15.1399 63.5926 12.3011C64.4605 12.7938 65.7741 14.1545 66.7124 14.0842C67.5099 14.9522 67.6741 15.1868 68.4481 14.3892C69.058 14.5065 72.2716 16.1957 73.2334 16.7587C72.3655 17.3218 72.9284 19.4333 72.6938 19.5741C70.9111 20.9348 74.1247 21.9437 74.805 22.7883C73.9371 23.4217 71.2864 23.2809 73.1161 24.8294C71.6148 24.8294 71.2161 25.0405 72.3889 26.4951C73.0222 27.152 74.3593 26.6359 75.0395 27.2693C73.984 28.372 73.3037 27.8324 72.2012 27.3632C71.6148 27.3632 71.4271 28.7239 71.4271 28.8647C71.7321 29.85 73.0222 29.1931 73.2099 29.897C75.1333 32.1023 78.558 26.0024 80.5753 32.7358Z" fill="#F6F8FC"/>
</svg>
