<svg width="32" height="32" viewBox="0 0 32 32" fill="none" xmlns="http://www.w3.org/2000/svg">
<path d="M30.9031 10.2094C30.2479 8.52553 29.3229 6.97971 28.1697 5.62872C25.7832 2.8307 22.451 0.876055 18.6667 0.240112C17.7979 0.0937674 16.9104 0 16 0C15.0895 0 14.202 0.0937674 13.3333 0.240112C9.54894 0.876055 6.21772 2.83017 3.8302 5.62765C2.67806 6.97924 1.75305 8.52453 1.09795 10.2083C0.397842 12.0063 0 13.9547 0 16C0 17.8797 0.340577 19.6755 0.936401 21.351C1.54261 23.0553 2.41866 24.6292 3.53014 26.0121C5.93333 29.0017 9.38739 31.0969 13.3333 31.7599C14.202 31.9062 15.0895 32 16 32C16.9104 32 17.7979 31.9062 18.6667 31.7599C22.6125 31.0968 26.0667 29.0016 28.4698 26.0125C29.5813 24.6297 30.4573 23.0558 31.0635 21.3516C31.6593 19.6761 32 17.8797 32 16C32 13.9552 31.602 12.0068 30.9031 10.2094ZM29.026 11.2923L26.2281 12.9073C25.698 11.1573 24.7301 9.59796 23.4521 8.35206L26.276 6.72185C27.4687 8.04169 28.4083 9.58805 29.026 11.2923ZM24.5552 16C24.5552 20.7172 20.7176 24.5552 16 24.5552C11.2822 24.5552 7.44473 20.7172 7.44473 16C7.44473 11.2829 11.2823 7.4448 16 7.4448C20.7176 7.4448 24.5552 11.2829 24.5552 16ZM16 2.13334C16.9124 2.13334 17.8031 2.22765 18.6667 2.39636V5.66194C17.8125 5.44112 16.9218 5.31145 16 5.31145C15.0781 5.31145 14.1874 5.44119 13.3333 5.66194V2.39636C14.1968 2.22765 15.0874 2.13334 16 2.13334ZM5.7249 6.72138L8.54891 8.35206C7.27086 9.59743 6.30211 11.1568 5.77185 12.9067L2.9739 11.2917C3.59263 9.58751 4.53225 8.04116 5.7249 6.72138ZM2.81249 20.2678L5.65203 18.6287C6.10412 20.4073 6.99893 22.0069 8.21865 23.3053L5.40616 24.9287C4.26146 23.5719 3.37288 21.9943 2.81249 20.2678ZM16 29.8667C15.0874 29.8667 14.1968 29.7724 13.3333 29.6036V26.3381C14.1874 26.5589 15.0781 26.6885 16 26.6885C16.9218 26.6885 17.8125 26.5589 18.6667 26.3381V29.6036C17.8031 29.7724 16.9124 29.8667 16 29.8667ZM26.5926 24.9287L23.7812 23.3053C25.0009 22.0073 25.8958 20.4073 26.3478 18.6287L29.1874 20.2683C28.627 21.9943 27.7385 23.5719 26.5926 24.9287Z" fill="#FF9C27"/>
<path d="M21.5 15.134C22.1667 15.5189 22.1667 16.4811 21.5 16.866L14 21.1962C13.3333 21.5811 12.5 21.0999 12.5 20.3301L12.5 11.6699C12.5 10.9001 13.3333 10.4189 14 10.8038L21.5 15.134Z" fill="#FF9C27"/>
</svg>
